<svg viewBox="0 0 496 496" xmlns="http://www.w3.org/2000/svg" fill-rule="evenodd" clip-rule="evenodd" stroke-linejoin="round" stroke-miterlimit="1.414"><path d="M245.606 384.788c4.644 4.644 11.068 7.306 17.64 7.306 13.453 0 24.384-10.724 24.856-24.064 13.035-.464 23.514-10.943 23.978-23.978 13.035-.464 23.514-10.943 23.978-23.978 13.34-.48 24.068-11.407 24.068-24.856 0-1.135-.183-2.255-.336-3.383l11.47-11.47 9.269 18.545 55.11-27.553-7.154-14.299-40.802 20.407-48.46-96.926 42.067-16.497-5.834-14.885-47.636 18.682-71.271-21.382c-5.346-1.597-10.845-2.159-16.297-1.96v-.175h-86.639L117.138 132.2l-5.042 15.17 29.645 9.846-41.833 104.599-24.551-9.823-5.933 14.842 39.386 15.755 9.889-24.715 14.323 14.33-13.362 13.367c-4.645 4.644-7.306 11.068-7.306 17.64 0 13.449 10.724 24.384 24.064 24.856.464 13.035 10.943 23.514 23.978 23.978.464 13.035 10.943 23.514 23.977 23.978.48 13.339 11.408 24.064 24.86 24.064 6.569 0 12.996-2.662 17.637-7.306l13.366-13.363 5.37 5.37zm6.338-223.01l70.607 21.18 41.169 82.35-11.587 11.58-32.852-33.103c2.934.277 5.893.445 8.874.445v-15.985a74.006 74.006 0 0 1-50.129-19.502l-18.69-17.121c-10.549-9.686-28.443-9.3-38.57.839l-21.172 21.176a9.083 9.083 0 0 1-6.346 2.619c-4.941 0-8.96-4.02-8.96-8.957 0-2.4.925-4.644 2.618-6.342l30.468-30.464c8.961-8.96 22.398-12.367 34.57-8.715zm-94.218-1.471h47.23l-29.348 29.352c-4.718 4.707-7.306 10.974-7.306 17.64 0 13.753 11.189 24.942 24.946 24.942 6.568 0 12.996-2.662 17.636-7.306l21.176-21.179c4.332-4.317 11.962-4.485 16.473-.352l18.686 17.129a90.288 90.288 0 0 0 20.493 14.132l53.806 54.211a9.035 9.035 0 0 1 2.623 6.342c0 4.937-4.02 8.957-8.961 8.957a9.017 9.017 0 0 1-6.338-2.619l-66.969-66.973-11.303 11.302 66.97 66.969a9.035 9.035 0 0 1 2.623 6.342c0 4.937-4.02 8.957-8.961 8.957a9.017 9.017 0 0 1-6.338-2.619l-66.969-66.973-11.303 11.302 66.97 66.969a9.035 9.035 0 0 1 2.623 6.342c0 4.937-4.02 8.957-8.961 8.957a9.022 9.022 0 0 1-6.338-2.619l-66.969-66.973-11.302 11.302 66.969 66.969a9.03 9.03 0 0 1 2.623 6.342c0 4.937-4.02 8.957-8.961 8.957a9.022 9.022 0 0 1-6.338-2.619l-9.015-9.019c.16-1.116.336-2.236.336-3.38 0-13.452-10.729-24.383-24.068-24.856-.464-13.035-10.943-23.513-23.978-23.978-.464-13.035-10.943-23.513-23.978-23.978-.48-13.339-11.403-24.067-24.856-24.067-1.136 0-2.256.183-3.38.335l-22.818-22.819 32.575-81.421zm-29.387 142.904c0-2.361.948-4.668 2.619-6.342l14.053-14.049a9.021 9.021 0 0 1 6.338-2.623c4.941 0 8.961 4.024 8.961 8.96a9.022 9.022 0 0 1-2.623 6.338l-14.05 14.054a9.017 9.017 0 0 1-6.337 2.619c-4.941 0-8.961-4.02-8.961-8.957zm23.978 23.978c0-2.361.948-4.668 2.619-6.342l14.053-14.049a9.021 9.021 0 0 1 6.338-2.623c4.941 0 8.961 4.024 8.961 8.96a9.022 9.022 0 0 1-2.623 6.338l-14.05 14.054a9.017 9.017 0 0 1-6.337 2.619c-4.941 0-8.961-4.02-8.961-8.957zm23.978 23.978c0-2.361.948-4.668 2.619-6.342l14.053-14.05a9.023 9.023 0 0 1 6.338-2.622c4.941 0 8.961 4.024 8.961 8.96a9.022 9.022 0 0 1-2.623 6.338l-14.05 14.054a9.017 9.017 0 0 1-6.338 2.618c-4.94 0-8.96-4.019-8.96-8.956zm53.326 16.262l-14.05 14.054a9.017 9.017 0 0 1-6.338 2.618c-4.94 0-8.96-4.019-8.96-8.956 0-2.361.948-4.668 2.619-6.342l14.053-14.05a9.023 9.023 0 0 1 6.338-2.622c4.941 0 8.961 4.023 8.961 8.96a9.022 9.022 0 0 1-2.623 6.338zm-133.99 22.093l11.302-11.306 11.302 11.306-11.302 11.302-11.302-11.302zm30.491 27.042l8.887-13.289 13.28 8.879-8.882 13.288-13.285-8.878zm35.183 20.59l6.119-14.767 14.768 6.119-6.119 14.768-14.768-6.12zm38.539 13.347l3.122-15.669 15.665 3.122-3.122 15.669-15.665-3.122zM348.153 84.287l8.886-13.288 13.281 8.878-8.887 13.289-13.28-8.879zm-33.907-16.332l6.12-14.768 14.767 6.119-6.119 14.768-14.768-6.119zm-36.423-9.418l3.114-15.68 15.669 3.114-3.114 15.677-15.669-3.111z" fill-rule="nonzero"/><path d="M400.089 64.395h-15.985v39.964h-39.963v15.985h55.948V64.395zM112.354 344.138H64.398v47.956h15.985v-31.971h31.971v-15.985zM248.229 56.403h7.992V40.417h-7.992c-52.6 0-102.788 19.697-141.319 55.453l10.876 11.72c35.569-33.009 81.886-51.187 130.443-51.187zm0 383.647h-7.993v15.985h7.993c73.062 0 139.422-37.286 177.524-99.74l-13.644-8.321c-35.174 57.655-96.438 92.076-163.88 92.076z" fill-rule="nonzero"/><path d="M44.561 331.166L.464 309.123 0 93.275l125.884 41.833-6.384 12.781-74.939 183.277zm416.511.57L367.143 152.42l128.858-50.555v206.587l-34.929 23.284z" fill="#fbc02d" fill-rule="nonzero"/></svg>