<svg viewBox="0 0 512 512" xmlns="http://www.w3.org/2000/svg" fill-rule="evenodd" clip-rule="evenodd" stroke-linejoin="round" stroke-miterlimit="1.414"><path d="M387.109 9.143h94.354c11.816 0 21.394 9.579 21.394 21.394v176.64c0 11.816-9.579 21.394-21.394 21.394h-94.354c-11.816 0-21.394-9.579-21.394-21.394V30.537c-.001-11.816 9.578-21.394 21.394-21.394z" fill="#fbc02d" fill-rule="nonzero"/><path d="M304.823 9.143h94.354c11.816 0 21.394 9.579 21.394 21.394v176.64c0 11.816-9.579 21.394-21.394 21.394h-94.354c-11.816 0-21.394-9.579-21.394-21.394V30.537c0-11.816 9.578-21.394 21.394-21.394z" fill="#fff" fill-rule="nonzero"/><path d="M332.251 9.143h121.783c11.816 0 21.394 9.579 21.394 21.394v176.64c0 11.816-9.579 21.394-21.394 21.394H332.251c-11.816 0-21.394-9.579-21.394-21.394V30.537c0-11.816 9.579-21.394 21.394-21.394z" fill="#fee8b4" fill-rule="nonzero"/><path d="M112.823 9.143h94.354c11.816 0 21.394 9.579 21.394 21.394v176.64c0 11.816-9.579 21.394-21.394 21.394h-94.354c-11.816 0-21.394-9.579-21.394-21.394V30.537c0-11.816 9.578-21.394 21.394-21.394z" fill="#fbc02d" fill-rule="nonzero"/><path d="M30.537 9.143h94.354c11.816 0 21.394 9.579 21.394 21.394v176.64c0 11.816-9.579 21.394-21.394 21.394H30.537c-11.816 0-21.394-9.579-21.394-21.394V30.537c0-11.816 9.578-21.394 21.394-21.394z" fill="#fff" fill-rule="nonzero"/><path d="M57.966 9.143h121.783c11.816 0 21.394 9.579 21.394 21.394v176.64c0 11.816-9.579 21.394-21.394 21.394H57.966c-11.816 0-21.394-9.579-21.394-21.394V30.537C36.571 18.721 46.15 9.143 57.966 9.143z" fill="#fee8b4" fill-rule="nonzero"/><path d="M112.823 283.429h94.354c11.816 0 21.394 9.579 21.394 21.394v176.64c0 11.816-9.579 21.394-21.394 21.394h-94.354c-11.816 0-21.394-9.579-21.394-21.394v-176.64c0-11.816 9.578-21.394 21.394-21.394z" fill="#fbc02d" fill-rule="nonzero"/><path d="M30.537 283.429h94.354c11.816 0 21.394 9.579 21.394 21.394v176.64c0 11.816-9.579 21.394-21.394 21.394H30.537c-11.816 0-21.394-9.579-21.394-21.394v-176.64c0-11.816 9.578-21.394 21.394-21.394z" fill="#fff" fill-rule="nonzero"/><path d="M57.966 283.429h121.783c11.816 0 21.394 9.579 21.394 21.394v176.64c0 11.816-9.579 21.394-21.394 21.394H57.966c-11.816 0-21.394-9.579-21.394-21.394v-176.64c-.001-11.816 9.578-21.394 21.394-21.394z" fill="#fee8b4" fill-rule="nonzero"/><path d="M207.179 237.714H30.536C13.679 237.697.018 224.036 0 207.179V128a9.143 9.143 0 0 1 18.286 0v79.179c.005 6.764 5.486 12.245 12.25 12.25h176.643c6.764-.005 12.245-5.486 12.25-12.25V30.536c-.005-6.764-5.486-12.245-12.25-12.25H30.536c-6.764.005-12.245 5.486-12.25 12.25v24.321a9.143 9.143 0 0 1-18.286 0V30.536C.018 13.679 13.679.018 30.536 0h176.643c16.857.018 30.518 13.679 30.536 30.536v176.643c-.018 16.857-13.679 30.518-30.536 30.535zm274.285 0H304.821c-16.857-.018-30.518-13.679-30.536-30.536V30.536C274.304 13.679 287.964.018 304.821 0h176.643C498.321.018 511.982 13.679 512 30.536v79.179a9.143 9.143 0 0 1-18.286 0V30.536c-.005-6.764-5.486-12.245-12.25-12.25H304.821c-6.764.005-12.245 5.486-12.25 12.25v176.643c.005 6.764 5.486 12.245 12.25 12.25h176.643c6.764-.005 12.245-5.486 12.25-12.25v-24.321a9.143 9.143 0 0 1 18.286 0v24.321c-.018 16.857-13.679 30.518-30.536 30.535zM207.179 512H30.536C13.679 511.982.018 498.321 0 481.464V304.821c.018-16.857 13.679-30.518 30.536-30.536h176.643c16.857.018 30.518 13.679 30.536 30.536v176.643c-.018 16.857-13.679 30.518-30.536 30.536zM30.536 292.571c-6.764.005-12.245 5.486-12.25 12.25v176.643c.005 6.764 5.486 12.245 12.25 12.25h176.643c6.764-.005 12.245-5.486 12.25-12.25V304.821c-.005-6.764-5.486-12.245-12.25-12.25H30.536zM393.143 512a9.14 9.14 0 0 1-9.143-9.142V283.429a9.143 9.143 0 0 1 18.286 0v219.429a9.136 9.136 0 0 1-9.143 9.142z" fill-rule="nonzero"/><path d="M502.857 402.286H283.429a9.143 9.143 0 0 1 0-18.286h219.429a9.143 9.143 0 1 1-.001 18.286z" fill-rule="nonzero"/><circle cx="9.143" cy="91.429" r="9.143"/><circle cx="502.857" cy="146.286" r="9.143"/></svg>