<svg xmlns="http://www.w3.org/2000/svg" height="512" viewBox="0 0 496 496" width="512"><path d="M144 0C91.062 0 48 43.063 48 96v64h8c0-13.258 10.742-24 24-24h8v-16a77.248 77.248 0 0 0 54.625-22.625L144 96l1.375 1.375A77.248 77.248 0 0 0 200 120v16h8c13.258 0 24 10.742 24 24h8V96c0-52.938-43.063-96-96-96zm200 384c-39.703 0-72-32.297-72-72s32.297-72 72-72 72 32.297 72 72-32.297 72-72 72zm0 0" fill="#fbc02d" data-original="#F0BC5E" class="active-path" data-old_color="#fbc02d"/><path d="M448 237.04V192H240v45.04l-9 10.495-47-13.55v-16.106A64.218 64.218 0 0 0 203.29 192H208c17.648 0 32-14.352 32-32s-14.352-32-32-32V96h-16v15.496c-15.473-1.77-29.8-8.61-40.977-19.793l-7.023-7-7.031 7.008C125.8 102.887 111.465 109.727 96 111.496V96H80v32c-17.648 0-32 14.352-32 32s14.352 32 32 32h4.71A64.218 64.218 0 0 0 104 217.879v16.105l-63.52 18.328C16.648 259.176 0 281.305 0 306.113V352h192v144h304V293.04zm-240 79.19l84.719 90.372L208 471.762zm96.266 101.665C315.465 426.895 329.504 432 344 432s28.535-5.105 39.734-14.105L464.48 480H223.52zm91.015-11.293L480 316.23v155.532zm81.977-110.84L448 326.969v-65.344zM432 208v136.04l-53.426 56.983C369.656 410.535 357.054 416 344 416s-25.656-5.465-34.574-14.984L256 344.039V208zM240 326.969l-29.258-31.207L240 261.625zM224 160c0 8.824-7.176 16-16 16h-.55c.327-2.625.55-5.29.55-8v-24c8.824 0 16 7.176 16 16zM80 176c-8.824 0-16-7.176-16-16s7.176-16 16-16v24c0 2.71.223 5.375.55 8zm16-8v-40.375c17.824-1.648 34.488-8.777 48-20.594 13.52 11.809 30.176 18.946 48 20.594V168c0 26.473-21.527 48-48 48s-48-21.527-48-48zm48 64a63.56 63.56 0 0 0 24-4.71v11.733l-1.938 7.747C163.52 256.922 154.458 264 144 264s-19.52-7.078-22.063-17.223L120 239.023V227.29a63.56 63.56 0 0 0 24 4.71zM80 336v-40H64v40H16v-29.887c0-17.722 11.887-33.52 28.91-38.433l61.336-17.696.168.672C110.734 267.938 126.191 280 144 280s33.266-12.062 37.574-29.344l.168-.672 37.809 10.903L192 293.039V336zm0 0" data-original="#000000"/><path d="M414.816 236.191l-13.632-8.382-59.399 96.527-24.984-18.734-9.602 12.796 39.016 29.266zm0 0" data-original="#000000"/></svg>