<svg viewBox="0 0 496 496" xmlns="http://www.w3.org/2000/svg" fill-rule="evenodd" clip-rule="evenodd" stroke-linejoin="round" stroke-miterlimit="1.414"><path d="M64 128h48v32H64zm0 48h48v32H64zm0 48h48v32H64zm0 48h48v32H64zm0 48h48v32H64zm0 48h48v32H64zm0 48h48v32H64zm80-288h48v32h-48zm176-32h48v48h-48zm64 0h48v48h-48zm0 72h48v48h-48zm0 144h48v48h-48zm0-72h48v48h-48zm0 144h48v48h-48z" fill="#fbc02d" fill-rule="nonzero"/><path d="M480 449.473V64h-16V32h-16V0H304v32h-16v32h-16v96h-35.793L222.77 80H176V32h-48v48H80V32H32v48H16v369.473C6.711 452.785 0 461.586 0 472v24h496v-24c0-10.414-6.711-19.215-16-22.527zM320 16h112v16H320V16zm-16 32h144v16H304V48zm-16 32h176v368H346.078l54.617-234.063L355.742 160H288V80zm16 368h-32v-48h32v48zm-48-64v64h-16v-64h-64v64h-9.656l-52.266-224h267.844l-52.266 224H320v-64h-64zm-32 64h-32v-48h32v48zm-74.078 0H128v-93.945L149.922 448zm-28.844-240l26.664-32h200.504l26.664 32H121.078zM144 48h16v32h-16V48zm-96 0h16v32H48V48zm161.23 48l10.754 64h-79.726l-44.953 53.938L112 285.488V448H32V96h177.23zM480 480H16v-8c0-4.406 3.594-8 8-8h448c4.406 0 8 3.594 8 8v8z" fill-rule="nonzero"/><path d="M336 240H160v48h176v-48zm-96 16h16v16h-16v-16zm-16 16h-16v-16h16v16zm48-16h16v16h-16v-16zm-96 0h16v16h-16v-16zm144 16h-16v-16h16v16zm16 32H160v48h176v-48zm-96 16h16v16h-16v-16zm-16 16h-16v-16h16v16zm48-16h16v16h-16v-16zm-96 0h16v16h-16v-16zm144 16h-16v-16h16v16z" fill-rule="nonzero"/></svg>