<svg viewBox="0 0 512 512" xmlns="http://www.w3.org/2000/svg" fill-rule="evenodd" clip-rule="evenodd" stroke-linejoin="round" stroke-miterlimit="1.414"><g fill-rule="nonzero"><path d="M192 432c0 2.928.848 5.64 2.216 8h123.56c1.376-2.36 2.224-5.072 2.224-8h168V160c0-22.056-17.944-40-40-40h-16l-40 40h48c4.416 0 8 3.584 8 8v224c0 4.416-3.584 8-8 8H72c-4.416 0-8-3.584-8-8V168c0-4.416 3.584-8 8-8h20.24c-9.376-11.304-15.984-24.968-18.752-40H64c-22.056 0-40 17.944-40 40v272h168z" fill="#fbc02d"/><path fill="#fbc02d" d="M88 304h112v72H88z"/><path d="M312 432c0 4.408-3.592 8-8 8h-96c-4.408 0-8-3.592-8-8v-8H8v40c0 22.056 17.944 40 40 40h416c22.056 0 40-17.944 40-40v-40H312v8zm14.632 8H488v24c0 13.232-10.768 24-24 24H48c-13.232 0-24-10.768-24-24v-24h161.368c3.304 9.312 12.2 16 22.632 16h96c10.432 0 19.328-6.688 22.632-16zM456 8h-3.312l-126.4 126.4-64-32-6.584 6.584c.088-1.664.296-3.312.296-4.984 0-27.28-11.664-53.368-32.016-71.568-20.328-18.176-47.656-26.864-75.008-23.816-42.12 4.704-77.36 38.416-83.8 80.168-3.44 22.288.952 44.488 11.768 63.216H72c-8.824 0-16 7.176-16 16v224c0 8.824 7.176 16 16 16h368c8.824 0 16-7.176 16-16V168c0-8.824-7.176-16-16-16h-28.688L504 59.312V56c0-26.472-21.528-48-48-48zM265.44 121.872l58.232 29.12 37.336 37.336 29.12 58.232L376 260.688 251.312 136l14.128-14.128zM112 200h96c4.408 0 8 3.592 8 8 0 4.408-3.592 8-8 8h-96c-4.408 0-8-3.592-8-8 0-4.408 3.592-8 8-8zm78.528 32c-3.312 9.288-12.112 16-22.528 16h-16c-10.416 0-19.216-6.712-22.528-16h61.056zm16.664 0H208c10.96 0 20.128-7.424 22.984-17.48l40.648-35.568L284.688 192 208 268.688l-14.296-14.296c6.728-5.696 11.664-13.44 13.488-22.392zM296 203.312L308.688 216 232 292.688 219.312 280 296 203.312zm24 24L332.688 240 256 316.688 243.312 304 320 227.312zm24 24L356.688 264 280 340.688 267.312 328 344 251.312zm-83.704-83.704L228.4 195.52c-3.312-5.392-8.64-9.368-14.976-10.848 1.072-1.312 2.24-2.528 3.576-3.512 11.048-8.16 19.944-18.608 26.528-30.32l16.768 16.768zM80.992 91.216c5.36-34.728 34.696-62.784 69.76-66.704 23.16-2.592 45.376 4.464 62.568 19.84C230.272 59.528 240 81.264 240 104c0 25.592-11.848 49.024-32.512 64.296-5.336 3.944-9.52 9.4-12.184 15.704H168v-56h-16v56h-27.352c-2.72-6.328-6.992-11.864-12.448-15.928-23.824-17.784-35.784-47.232-31.208-76.856zM440 168v224H72V168h16.552a96.117 96.117 0 0 0 14.08 12.896c1.448 1.08 2.704 2.4 3.856 3.808C95.92 187.2 88 196.672 88 208c0 13.232 10.768 24 24 24h.808c3.72 18.232 19.872 32 39.192 32h16c3.832 0 7.456-.712 10.968-1.72L280 363.312l88-88 8 8 33.6-33.6-32-64L395.312 168H440zm-72 4.688L339.312 144 459.16 24.16c15.128 1.488 27.192 13.56 28.68 28.68L368 172.688z"/><path d="M440 456h16v16h-16zm-32 0h16v16h-16zm-32 0h16v16h-16zM88 296h112v16H88zm0 32h112v16H88zm96 32h16v16h-16zm-96 0h16v16H88zm64 0h16v16h-16zm-32 0h16v16h-16zm288-96h16v16h-16zm0 96h-32v16h48v-80h-16v64z"/><path d="M160 136c-17.648 0-32-14.352-32-32s14.352-32 32-32 32 14.352 32 32-14.352 32-32 32z" fill="#fbc02d"/></g></svg>