<svg viewBox="0 0 499 499" xmlns="http://www.w3.org/2000/svg" fill-rule="evenodd" clip-rule="evenodd" stroke-linejoin="round" stroke-miterlimit="1.414"><path d="M307.43 340.613l10.535-16.004 13.359 8.797-10.539 16-13.355-8.793zm15.832-23.992l63.234-96.027 13.359 8.793-63.238 96.031-13.355-8.797zM60.398 170.609l13.368-8.808 8.804 13.359-13.367 8.809-8.805-13.36zm35.219 53.442l13.367-8.809 8.805 13.36-13.367 8.808-8.805-13.359zm-17.609-26.719l13.367-8.812 8.805 13.363-13.368 8.808-8.804-13.359z" fill-rule="nonzero"/><path d="M413.938 1H85.07L0 137.121l100.922 153.125 13.359-8.812L24.359 145h138.618l62.375 304.961-91.75-139.207-13.364 8.812L237.191 497h24.618L499 137.121 413.937 1zM155.063 129H23.938L89.505 24.098 155.063 129zM103.946 17h131.125l-65.566 104.902L103.946 17zm145.559 7.098L315.064 129H183.946l65.559-104.902zM263.946 17h131.125l-65.566 104.902L263.946 17zm80 112l65.559-104.902L475.071 129H343.946zm130.703 16L273.657 449.961 336.032 145h138.617zm-154.945 0l-68.726 336h-2.946l-68.726-336h140.398z" fill-rule="nonzero"/><path d="M278.898 184.699l3.204-15.676 15.668 3.204-3.204 15.675-15.668-3.203zm-6.375 31.352l3.2-15.668 15.679 3.203-3.203 15.668-15.676-3.203zm-6.421 31.347l3.207-15.675 15.668 3.207-3.207 15.675-15.668-3.207zm-97.875-178.91l8.875-13.312 13.312 8.875-8.875 13.312-13.312-8.875zm17.746-26.621l8.875-13.312 13.312 8.875-8.875 13.312-13.312-8.875zm202.629 40.055l8.875-13.313 13.312 8.875-8.875 13.313-13.312-8.875zm-17.747 26.621l8.875-13.316 13.313 8.875-8.875 13.316-13.313-8.875z" fill-rule="nonzero"/><path d="M401.504 361h-16c0 17.648-14.352 32-32 32v16c17.648 0 32 14.352 32 32h16c0-17.648 14.351-32 32-32v-16c-17.649 0-32-14.352-32-32zm-280-96h-16c0 17.648-14.352 32-32 32v16c17.648 0 32 14.352 32 32h16c0-17.648 14.351-32 32-32v-16c-17.649 0-32-14.352-32-32zm-72 152h-16c0 17.648-14.352 32-32 32v16c17.648 0 32 14.352 32 32h16c0-17.648 14.351-32 32-32v-16c-17.649 0-32-14.352-32-32zm416-168h-16c0 17.648-14.352 32-32 32v16c17.648 0 32 14.352 32 32h16c0-17.648 14.351-32 32-32v-16c-17.649 0-32-14.352-32-32z" fill="#fbc02d" fill-rule="nonzero"/></svg>