<svg viewBox="0 0 585 570" xmlns="http://www.w3.org/2000/svg" fill-rule="evenodd" clip-rule="evenodd" stroke-linejoin="round" stroke-miterlimit="1.414"><path d="M580.465 128.338l3.026 204.089 1.033 69.823c.332 22.669-11.708 42.061-30.505 49.112l-306.392 114.94c-18.798 7.051-40.611.36-55.281-16.931l-6.297-7.433L15.247 340.373c-18.169-21.446-20.372-53.114-5.142-74.05l15.239-20.926 8.717-11.974 43.704-60.03 12.727-17.485 16.41-22.54 18.7-25.685 13.351-18.327 32.488-44.641 7.46-10.226 11.345-15.588.321-.427C201.409 3.67 218.8-2.855 236.704 1.166l95.587 21.764 30.679 6.984 31.48 7.162 21.833 4.964 50.527 11.484 40.466 9.211 28.334 6.437c25.26 5.74 44.436 31.061 44.855 59.166z" fill="#fbc02d" fill-opacity=".1" fill-rule="nonzero"/><path d="M359.226 423.08c0-28.987 28.624-55.712 57.611-55.712 4.441 0 8.748-1.12 12.881-.089.056-1.266.09-8.703.09-9.98V62.978H178.895l-51.523 52.923v342.462h236.895c-5.097-8.087-5.041-25.011-5.041-35.283z" fill="url(#_Linear1)" fill-rule="nonzero"/><path d="M354.746 428.681c0-35.946 29.579-65.524 65.524-65.524 1.977 0 3.92.095 5.869.263V211.494H132.121v240.148h226.764a65.385 65.385 0 0 1-4.139-22.961z" fill="#fcfcfc" fill-rule="nonzero"/><path d="M425.921 213.734H131.242v-97.833l47.653-49.843h247.026v147.676z" fill="#fcfcfc" fill-rule="nonzero"/><path fill="#e0e0e0" d="M327.635 95.79h79.934v6.099h-79.934zm0 22.402h79.934v6.099h-79.934zm0 22.401h79.934v6.099h-79.934z"/><path fill="#fbc02d" fill-opacity=".5" d="M327.635 162.995h79.934v6.099h-79.934z"/><path fill="#e0e0e0" d="M327.635 185.396h79.934v6.099h-79.934zm0 22.401h79.934v6.099h-79.934z"/><path fill="#fbc02d" fill-opacity=".5" d="M174.818 255.4h79.934v6.099h-79.934z"/><path fill="#e0e0e0" d="M174.818 279.784h79.934v6.099h-79.934z"/><path fill="#69f0ae" fill-opacity=".5" d="M174.818 267.592h208.647v6.099H174.818z"/><path fill="#fbc02d" fill-opacity=".5" d="M174.818 314.333h79.934v6.099h-79.934z"/><path fill="#e0e0e0" d="M174.818 338.722h79.934v6.099h-79.934zm0-12.197h208.647v6.099H174.818z"/><path fill="#fbc02d" fill-opacity=".5" d="M174.818 373.271h79.934v6.099h-79.934z"/><path fill="#e0e0e0" d="M174.818 397.655h79.934v6.099h-79.934zm0-12.192h171.04v6.099h-171.04z"/><path d="M300.983 220.348H155.374V93.22l5.04-6.16h140.569v133.288z" fill="#fbc02d" fill-rule="nonzero"/><path d="M130.122 117.021h49.893V64.938l-49.893 52.083z" fill="url(#_Linear2)" fill-rule="nonzero"/><path d="M131.242 115.901h47.653V66.058l-47.653 49.843z" fill="#f5f5f5" fill-rule="nonzero"/><circle cx="479.001" cy="452.902" r="56.076" fill="url(#_Linear3)"/><circle cx="479.001" cy="452.902" r="52.486" fill="#3ad29f"/><path d="M507.322 446.574h-21.998v-21.993h-12.646v21.993H450.68v12.651h21.998v21.998h12.646v-21.998h21.998v-12.651z" fill="url(#_Linear4)" fill-rule="nonzero"/><path fill="#fff" d="M473.625 428.826h10.753v48.146h-10.753z"/><path d="M503.077 458.279v-10.753h-48.146v10.753h48.146z" fill="#fff"/><path d="M418.03 448.282c0-28.987 28.623-55.712 57.611-55.712 4.441 0 8.748-1.12 12.881-.09.056-1.266.089-8.703.089-9.98V88.18H237.699l-51.523 52.923v342.461H423.07c-5.096-8.087-5.04-25.011-5.04-35.282z" fill="url(#_Linear5)" fill-rule="nonzero"/><path d="M413.55 453.882c0-35.945 29.578-65.524 65.524-65.524 1.977 0 3.92.096 5.869.264V236.695H190.925v240.149h226.763a65.37 65.37 0 0 1-4.138-22.962z" fill="#fff" fill-rule="nonzero"/><path d="M484.725 238.935h-294.68v-97.832l47.654-49.843h247.026v147.675z" fill="#fff" fill-rule="nonzero"/><path fill="#e0e0e0" d="M386.438 120.992h79.934v6.099h-79.934zm0 22.401h79.934v6.099h-79.934zm0 22.402h79.934v6.099h-79.934z"/><path fill="#fbc02d" fill-opacity=".5" d="M386.438 188.196h79.934v6.099h-79.934z"/><path fill="#e0e0e0" d="M386.438 210.598h79.934v6.099h-79.934zm0 22.401h79.934v6.099h-79.934z"/><path fill="#fbc02d" fill-opacity=".5" d="M233.622 280.602h79.934v6.099h-79.934z"/><path fill="#e0e0e0" d="M233.622 304.986h79.934v6.099h-79.934z"/><path fill="#69f0ae" fill-opacity=".5" d="M233.622 292.794h208.647v6.099H233.622z"/><path fill="#fbc02d" fill-opacity=".5" d="M233.622 339.534h79.934v6.099h-79.934z"/><path fill="#e0e0e0" d="M233.622 363.924h79.934v6.099h-79.934zm0-12.198h208.647v6.099H233.622z"/><path fill="#fbc02d" fill-opacity=".5" d="M233.622 398.473h79.934v6.099h-79.934z"/><path fill="#e0e0e0" d="M233.622 422.856h79.934v6.099h-79.934zm0-12.192h171.04v6.099h-171.04z"/><path d="M359.786 245.549H214.177V118.421l5.041-6.16h140.568v133.288z" fill="#fbc02d" fill-rule="nonzero"/><path d="M188.925 142.223h49.894V90.14l-49.894 52.083z" fill="url(#_Linear6)" fill-rule="nonzero"/><path d="M190.045 141.103h47.654V91.26l-47.654 49.843z" fill="#fcfcfc" fill-rule="nonzero"/><defs><linearGradient id="_Linear1" x1="0" y1="0" x2="1" y2="0" gradientUnits="userSpaceOnUse" gradientTransform="rotate(-90 368.472 89.891) scale(395.385)"><stop offset="0" stop-color="#b3b3b3" stop-opacity=".247"/><stop offset=".54" stop-color="#b3b3b3" stop-opacity=".098"/><stop offset="1" stop-color="#b3b3b3" stop-opacity=".047"/></linearGradient><linearGradient id="_Linear2" x1="0" y1="0" x2="1" y2="0" gradientUnits="userSpaceOnUse" gradientTransform="rotate(-90 136.046 -19.025) scale(52.0832)"><stop offset="0" stop-color="#b3b3b3" stop-opacity=".247"/><stop offset=".54" stop-color="#b3b3b3" stop-opacity=".098"/><stop offset="1" stop-color="#b3b3b3" stop-opacity=".047"/></linearGradient><linearGradient id="_Linear3" x1="0" y1="0" x2="1" y2="0" gradientUnits="userSpaceOnUse" gradientTransform="rotate(-90 493.99 14.989) scale(112.153)"><stop offset="0" stop-color="gray" stop-opacity=".124"/><stop offset=".54" stop-color="gray" stop-opacity=".059"/><stop offset="1" stop-color="gray" stop-opacity=".049"/></linearGradient><linearGradient id="_Linear4" x1="0" y1="0" x2="1" y2="0" gradientUnits="userSpaceOnUse" gradientTransform="rotate(-90 480.112 1.111) scale(56.6419)"><stop offset="0" stop-color="gray" stop-opacity=".124"/><stop offset=".54" stop-color="gray" stop-opacity=".059"/><stop offset="1" stop-color="gray" stop-opacity=".049"/></linearGradient><linearGradient id="_Linear5" x1="0" y1="0" x2="1" y2="0" gradientUnits="userSpaceOnUse" gradientTransform="rotate(-90 410.475 73.09) scale(395.385)"><stop offset="0" stop-color="#b3b3b3" stop-opacity=".247"/><stop offset=".54" stop-color="#b3b3b3" stop-opacity=".098"/><stop offset="1" stop-color="#b3b3b3" stop-opacity=".047"/></linearGradient><linearGradient id="_Linear6" x1="0" y1="0" x2="1" y2="0" gradientUnits="userSpaceOnUse" gradientTransform="rotate(-90 178.049 -35.826) scale(52.0832)"><stop offset="0" stop-color="#b3b3b3" stop-opacity=".247"/><stop offset=".54" stop-color="#b3b3b3" stop-opacity=".098"/><stop offset="1" stop-color="#b3b3b3" stop-opacity=".047"/></linearGradient></defs></svg>