<svg viewBox="0 0 496 496" xmlns="http://www.w3.org/2000/svg" fill-rule="evenodd" clip-rule="evenodd" stroke-linejoin="round" stroke-miterlimit="1.414"><path d="M48 208H0v-48h48v48zm-32-16h16v-16H16v16zm48-32h48v16H64zm0 32h48v16H64zm48 80H64v-48h48v48zm-32-16h16v-16H80v16zM0 224h48v16H0zm0 32h48v16H0zm48 80H0v-48h48v48zm-32-16h16v-16H16v16zm48-32h40v16H64zm0 32h40v16H64zM0 352h80v16H0zm0 32h80v16H0zm0-256h112v16H0zm0-32h112v16H0zm496 112h-48v-48h48v48zm-32-16h16v-16h-16v16zm-80-32h48v16h-48zm0 32h48v16h-48zm64 32h48v16h-48zm0 32h48v16h-48zm48 80h-48v-48h48v48zm-32-16h16v-16h-16v16zm-72-32h40v16h-40zm0 32h40v16h-40zm24 32h80v16h-80zm-48-120h-16V120c0-57.344-46.656-104-104-104S144 62.656 144 120v112h-16V120C128 53.832 181.832 0 248 0s120 53.832 120 120v112z" fill-rule="nonzero"/><path d="M336 208h-16v-88c0-39.703-32.305-72-72-72s-72 32.297-72 72v88h-16v-88c0-48.52 39.48-88 88-88s88 39.48 88 88v88zm80 176h80v16h-80zm-32-256h112v16H384zm48 144h-48v-48h48v48zm-32-16h16v-16h-16v16zM384 96h112v16H384z" fill-rule="nonzero"/><path d="M248 496c-88.223 0-160-71.777-160-160s71.777-160 160-160 160 71.777 160 160-71.777 160-160 160z" fill="#fbc02d" fill-rule="nonzero"/><path d="M289.223 424h-82.446l15.102-105.754A39.83 39.83 0 0 1 208 288c0-22.055 17.945-40 40-40s40 17.945 40 40a39.83 39.83 0 0 1-13.879 30.246L289.223 424zm-64-16h45.554l-13.882-97.168 4.242-2.793C267.937 303.566 272 296.078 272 288c0-13.23-10.77-24-24-24s-24 10.77-24 24c0 8.078 4.063 15.566 10.863 20.039l4.242 2.793L225.223 408z" fill-rule="nonzero"/><path d="M344.258 420.199l-12.043-10.543C350.137 389.191 360 363.039 360 336c0-61.762-50.238-112-112-112-27.031 0-53.191 9.863-73.656 27.777l-10.535-12.035C187.184 219.273 217.09 208 248 208c70.574 0 128 57.426 128 128 0 30.91-11.273 60.824-31.742 84.199zM248 464c-70.574 0-128-57.426-128-128 0-30.91 11.273-60.824 31.742-84.199l12.043 10.543C145.863 282.809 136 308.961 136 336c0 61.762 50.238 112 112 112 27.031 0 53.191-9.863 73.656-27.777l10.535 12.035C308.816 452.727 278.91 464 248 464z" fill-rule="nonzero"/></svg>