<?xml version="1.0" encoding="UTF-8" standalone="no"?><!DOCTYPE svg PUBLIC "-//W3C//DTD SVG 1.1//EN" "http://www.w3.org/Graphics/SVG/1.1/DTD/svg11.dtd"><svg width="100%" height="100%" viewBox="0 0 1192 358" version="1.1" xmlns="http://www.w3.org/2000/svg" xmlns:xlink="http://www.w3.org/1999/xlink" xml:space="preserve" xmlns:serif="http://www.serif.com/" style="fill-rule:evenodd;clip-rule:evenodd;stroke-linejoin:round;stroke-miterlimit:1.41421;"><path d="M73.328,154.243l-54.431,-54.431l2.119,-4.362c5.678,-11.693 13.386,-22.566 21.636,-32.574l4.769,-5.787l100.424,100.424c5.565,5.564 8.646,13.075 8.646,20.938c0,7.863 -3.081,15.374 -8.646,20.939l-100.424,100.424l-4.769,-5.787c-8.25,-10.009 -15.958,-20.881 -21.636,-32.574l-2.119,-4.362l54.431,-54.431l-70.808,0l-0.965,-5.668c-1.043,-6.129 -1.555,-12.324 -1.555,-18.54c0,-6.217 0.512,-12.412 1.555,-18.541l0.965,-5.668l70.808,0Zm129.332,-80.915l54.43,-54.431l4.363,2.119c11.693,5.678 22.565,13.386 32.574,21.636l5.786,4.77l-100.423,100.424c-5.565,5.564 -13.076,8.645 -20.939,8.645c-7.863,0 -15.374,-3.081 -20.938,-8.645l-100.424,-100.424l5.787,-4.77c10.008,-8.25 20.881,-15.958 32.574,-21.636l4.362,-2.119l54.431,54.431l0,-70.808l5.668,-0.965c6.129,-1.043 12.324,-1.555 18.54,-1.555c6.217,0 12.412,0.512 18.54,1.555l5.669,0.965l0,70.808Zm80.915,129.332l54.43,54.431l-2.118,4.362c-5.678,11.693 -13.386,22.565 -21.636,32.574l-4.77,5.787l-100.424,-100.424c-5.564,-5.565 -8.645,-13.076 -8.645,-20.938c0,-7.864 3.081,-15.374 8.645,-20.939l100.424,-100.424l4.77,5.787c8.25,10.008 15.958,20.881 21.636,32.574l2.118,4.362l-54.43,54.431l70.808,0l0.965,5.668c1.043,6.129 1.555,12.324 1.555,18.541c0,6.216 -0.512,12.411 -1.555,18.54l-0.965,5.668l-70.808,0Zm-129.332,80.915l-54.431,54.43l-4.362,-2.118c-11.693,-5.678 -22.566,-13.386 -32.574,-21.636l-5.787,-4.77l100.424,-100.424c5.564,-5.564 13.075,-8.645 20.938,-8.645c7.863,0 15.374,3.081 20.939,8.645l100.423,100.424l-5.786,4.77c-10.009,8.25 -20.881,15.958 -32.574,21.636l-4.363,2.118l-54.43,-54.43l0,70.808l-5.669,0.964c-6.128,1.044 -12.323,1.556 -18.54,1.556c-6.216,0 -12.411,-0.512 -18.54,-1.555l-5.668,-0.965l0,-70.808Z" style="fill:#868786;"/><path d="M6.811,178.451c-0.01,-5.655 0.445,-11.445 1.459,-17.397l81.502,0l-62.629,-62.629c5.053,-10.405 12.187,-20.812 20.765,-31.217l95.121,95.121c4.434,4.434 6.65,10.278 6.65,16.122c0,5.845 -2.216,11.689 -6.65,16.122l-95.121,95.122c-8.578,-10.406 -15.712,-20.812 -20.765,-31.218l62.629,-62.629l-81.502,0c-1.014,-5.952 -1.469,-11.741 -1.459,-17.397Z" style="fill:url(#_Linear1);"/><path d="M178.451,6.811c5.656,-0.009 11.445,0.445 17.397,1.459l0,81.502l62.629,-62.629c10.406,5.053 20.812,12.188 31.218,20.765l-95.122,95.121c-4.433,4.434 -10.278,6.651 -16.122,6.651c-5.844,0 -11.688,-2.217 -16.122,-6.651l-95.121,-95.121c10.405,-8.577 20.811,-15.712 31.217,-20.765l62.629,62.629l0,-81.502c5.952,-1.014 11.742,-1.468 17.397,-1.459Z" style="fill:url(#_Linear2);"/><path d="M350.091,178.451c0.01,5.656 -0.445,11.445 -1.458,17.397l-81.502,0l62.629,62.629c-5.053,10.406 -12.188,20.812 -20.765,31.218l-95.122,-95.122c-4.433,-4.433 -6.65,-10.277 -6.65,-16.121c0,-5.845 2.217,-11.689 6.65,-16.123l95.122,-95.121c8.577,10.406 15.712,20.812 20.765,31.217l-62.629,62.629l81.502,0c1.013,5.952 1.468,11.742 1.458,17.398Z" style="fill:url(#_Linear3);"/><path d="M178.451,350.092c-5.655,0.009 -11.445,-0.446 -17.397,-1.459l0,-81.502l-62.629,62.629c-10.406,-5.053 -20.812,-12.188 -31.217,-20.765l95.121,-95.122c4.434,-4.433 10.278,-6.65 16.122,-6.65c5.844,0 11.689,2.217 16.122,6.651l95.122,95.121c-10.406,8.577 -20.812,15.712 -31.218,20.765l-62.629,-62.629l0,81.502c-5.952,1.013 -11.741,1.468 -17.397,1.459Z" style="fill:url(#_Linear4);"/><path d="M928.253,15.291l-101.16,0l0,183.819l106.956,-0.001c61.93,0 79.204,-75.832 29.445,-92.087c-4,-1.306 -8.916,-1.392 -2.605,-3.989c4.895,-2.015 8.542,-5.513 12.401,-10.086c26.844,-31.808 -0.829,-77.656 -45.037,-77.656Zm-52.571,264.255l30.085,0c6.148,0 11.178,5.068 11.178,11.263l0,1.036c0,6.765 -5.492,12.3 -12.206,12.3l-23.895,0c0,7.892 3.795,13.104 9.81,13.104l15.313,0c6.547,0 15.171,4.724 15.171,11.264l0,1.036c0,6.764 -5.493,12.299 -12.206,12.299l-33.25,0l0,-19.57l0,-5.029l0,-13.104l0,-24.599Zm237.774,-12.556l16.575,0l0,40.417l37.008,-40.417l20.42,0l-30.028,32.794l33.573,55.142c-5.686,3.684 -18.219,1.481 -19.94,-1.382l-25.142,-41.191l-15.891,17.355l0,25.218l-16.575,0l0,-87.936Zm-318.411,66.424l-9.792,11.594c0,0 11.293,12.915 33.64,12.915c22.347,0 35.128,-13.096 35.082,-27.392c-0.107,-33.021 -47.554,-21.558 -47.336,-40.969c0.134,-12.014 16.039,-11.173 16.039,-11.173c0,0 11.834,-1.683 24.508,9.611c13.086,-18.706 -17.193,-23.909 -25.289,-23.428c-22.347,0 -33.04,10.692 -33.04,24.99c0,14.297 7.875,21.905 28.354,27.392c0,0 19.223,3.124 19.223,15.138c0,12.014 -17.661,11.414 -17.661,11.414c0,0 -11.053,1.201 -23.728,-10.092Zm183.059,-46.063l-11.593,29.966l22.724,0l-11.131,-29.966Zm9.092,-20.361l12.735,32.155l21.278,56.107l-11.229,0c-4.028,0 -7.59,-3.397 -8.24,-5.276l-7.111,-18.752l-15.975,0l-17.416,0l-9.113,24.028l-16.026,0l21.278,-56.107l12.735,-32.155l17.084,0Zm-331.777,20.361l-11.592,29.966l22.723,0l-11.131,-29.966Zm9.093,-20.361l12.735,32.155l21.277,56.107l-11.229,0c-4.028,0 -7.59,-3.397 -8.239,-5.276l-7.112,-18.752l-15.975,0l-17.416,0l-9.113,24.028l-16.026,0l21.278,-56.107l12.735,-32.155l17.085,0Zm-144.842,-0.009l0,87.945l-2.503,0c-7.461,0 -13.357,-6.475 -13.357,-10.76l0,-65.891l0,-11.294l15.86,0Zm-96.595,-26.644l96.594,0l0,4.565c0,6.929 -4.365,12.496 -13.216,12.496l-63.435,0l0,31.703l47.517,0l0,17.061l-47.517,0l0,48.764l-19.943,0l0,-114.589Zm603.877,26.653l8.643,0c4.277,0 11.743,1.058 14.9,5.448l36.289,56.119l0,-61.567l15.007,0l0,87.936l-9.368,0c-4.277,0 -6.246,-2.308 -8.081,-4.236l-41.191,-61.17l0,65.406l-16.199,0l0,-87.936Zm-323.424,0l8.643,0c4.277,0 11.744,1.058 14.901,5.448l36.288,56.119l0,-61.567l15.007,0l0,87.936l-9.368,0c-4.277,0 -6.246,-2.308 -8.081,-4.236l-41.19,-61.17l0,65.406l-16.2,0l0,-87.936Zm-171.564,0l8.644,0c4.277,0 11.743,1.058 14.9,5.448l36.289,56.119l0,-61.567l15.006,0l0,87.936l-9.368,0c-4.277,0 -6.246,-2.308 -8.081,-4.236l-41.19,-61.17l0,65.406l-16.2,0l0,-87.936Zm374.031,0l-45.142,0l0,87.936l47.893,0c29.401,0 37.602,-36.277 13.979,-44.053c-1.899,-0.625 -4.233,-0.666 -1.236,-1.908c2.324,-0.964 4.055,-2.638 5.887,-4.826c12.744,-15.216 -0.394,-37.149 -21.381,-37.149Zm-395.055,-256.141c57.598,0 95.153,43.3 95.153,96.715c0,26.108 -9.148,49.797 -25.141,67.196l24.175,24.464c0,0 -8.891,8.169 -20.425,8.169c-11.533,0 -19.102,-7.809 -19.102,-7.809l-7.039,-7.176c-13.615,7.565 -29.693,11.871 -47.621,11.871c-56.876,0 -95.153,-43.301 -95.153,-96.715c0,-53.415 37.556,-96.715 95.153,-96.715Zm-6.733,126.141l34.288,34.958c-8.113,4.158 -17.39,6.448 -27.555,6.448c-36.978,0 -62.234,-30.244 -62.234,-70.832c0,-40.941 24.914,-70.833 62.234,-70.833c37.321,0 62.234,29.892 62.234,70.833c0,17.794 -4.854,33.601 -13.423,45.741l-14.936,-15.114c0,0 -17.301,-18.862 -40.608,-1.201Zm127.475,-121.699l18.983,0c9.393,0 17.721,5.725 21.751,9.755l93.963,122.523l0,-132.278l29.659,0l0,183.819l-18.606,0c-9.392,0 -12.254,-4.824 -16.284,-8.854l-99.43,-127.869l0,136.723l-30.036,0l0,-183.819Zm226.647,26.246l69.445,0c12.95,0 23.546,10.595 23.546,23.545l0,2.166c0,14.14 -11.57,25.71 -25.711,25.71l-56.407,0c0,16.497 7.994,27.393 20.664,27.393l38.329,0c13.791,0 31.955,9.874 31.955,23.545l0,2.165c0,14.141 -11.57,25.711 -25.711,25.711l-76.11,0l0,-40.909l0,-10.512l0,-27.393l0,-51.421Z" style="fill:#01193e;"/><defs><linearGradient id="_Linear1" x1="0" y1="0" x2="1" y2="0" gradientUnits="userSpaceOnUse" gradientTransform="matrix(142.87,0,0,-142.87,6.81,178.453)"><stop offset="0" style="stop-color:#003a73;stop-opacity:1"/><stop offset="0.35" style="stop-color:#003a73;stop-opacity:1"/><stop offset="0.73" style="stop-color:#0062af;stop-opacity:1"/><stop offset="1" style="stop-color:#0062af;stop-opacity:1"/></linearGradient><linearGradient id="_Linear2" x1="0" y1="0" x2="1" y2="0" gradientUnits="userSpaceOnUse" gradientTransform="matrix(222.48,0,0,-222.48,67.21,78.2428)"><stop offset="0" style="stop-color:#ab004c;stop-opacity:1"/><stop offset="0.35" style="stop-color:#ab004c;stop-opacity:1"/><stop offset="0.61" style="stop-color:#750030;stop-opacity:1"/><stop offset="1" style="stop-color:#1a1a18;stop-opacity:1"/></linearGradient><linearGradient id="_Linear3" x1="0" y1="0" x2="1" y2="0" gradientUnits="userSpaceOnUse" gradientTransform="matrix(142.87,0,0,-142.87,207.22,178.453)"><stop offset="0" style="stop-color:#0062af;stop-opacity:1"/><stop offset="0.27" style="stop-color:#0062af;stop-opacity:1"/><stop offset="0.65" style="stop-color:#003a73;stop-opacity:1"/><stop offset="1" style="stop-color:#003a73;stop-opacity:1"/></linearGradient><linearGradient id="_Linear4" x1="0" y1="0" x2="1" y2="0" gradientUnits="userSpaceOnUse" gradientTransform="matrix(8.74826e-15,-142.87,-142.87,-8.74826e-15,178.45,350.093)"><stop offset="0" style="stop-color:#003a73;stop-opacity:1"/><stop offset="0.35" style="stop-color:#003a73;stop-opacity:1"/><stop offset="0.73" style="stop-color:#0062af;stop-opacity:1"/><stop offset="1" style="stop-color:#0062af;stop-opacity:1"/></linearGradient></defs></svg>