<svg xmlns="http://www.w3.org/2000/svg" height="512" viewBox="0 -48 502.624 502" width="512"><path d="M326.055 85.566l-32.399 32.403 101.656 101.656-109.656 109.656 32.399 32.399 142.058-142.055zm0 0" fill="#fbc02d" data-original="#F0BC5E" class="active-path" data-old_color="#fbc02d"/><path d="M187.313 45.566L45.257 187.625 219.312 361.68l142.055-142.055zM67.879 187.625L187.312 68.191l151.43 151.434-119.43 119.43zm0 0" data-original="#000000"/><path d="M502.625 219.625L323.312 40.312l-48 48-88-88L0 187.625l219.313 219.313 48-48 48 48zm-480-32L187.313 22.937 384 219.625 219.312 384.313zm384 32l-120-120 36.688-36.688L480 219.625 315.312 384.313l-36.687-36.688zm0 0" data-original="#000000"/><path d="M187.313 139.625c-13.235 0-24-10.77-24-24 0-13.234 10.765-24 24-24 13.23 0 24 10.766 24 24 0 13.23-10.77 24-24 24zm72 88c0-22.32-18.536-40.48-40.801-39.992-3.719-18.242-19.88-32.008-39.2-32.008-7.097 0-14.039 1.96-20.12 5.504-5.88-3.41-12.606-5.504-19.88-5.504-22.054 0-40 17.941-40 40v3.297L215.689 312l7.625-3.602c12.335-7.125 20-19.476 20-33.71 0-4.926-1-9.254-2.739-13.793 11.227-7.086 18.738-19.047 18.738-33.27zm0 0" data-original="#000000"/></svg>