<svg viewBox="0 0 1007 890" xmlns="http://www.w3.org/2000/svg" fill-rule="evenodd" clip-rule="evenodd" stroke-miterlimit="10"><path d="M.452 462.742c3 33.76 22.14 64.32 33.82 96.47a228.717 228.717 0 0 1 4.45 142c-2.78 9.58-6.21 19.19-6.21 29 0 33.82 38.53 56.27 73.54 71.2a1340.619 1340.619 0 0 0 276.82 83.64c31.07 5.87 69.88 8.4 89.54-13.67 9.44-10.6 11.72-24.44 18.65-36.33 17.67-30.31 60.67-42.1 99.26-48.84a1212.6 1212.6 0 0 1 140.67-16.19c47.48-2.67 101.39-5 132.86-36.17 20-19.82 25.82-47.17 26.62-73 2.61-84.74-37.88-176.44 14.09-249.83 21.79-30.78 57.37-53.26 79-84.13 31.31-44.73 28.61-101.54 7.41-149.21s-58.75-88.2-95.76-127.92c-12.3-13.14-25.36-26.8-43.76-32.89-19.13-6.34-40.82-3.43-61.33-.43-93.28 13.62-190.13 28.45-268.37 75.23-38.86 23.23-71.32 53.36-106 81.07-74.86 59.88-161.63 115.18-260.51 138.82-80.34 19.2-162.06 71-154.79 151.18z" fill="#fbc02d" fill-opacity=".1" fill-rule="nonzero"/><path d="M444.222 467.652c.475-.245.962-.466 1.46-.66.498-.195-41.23-23.23-52.71-29.68a96.794 96.794 0 0 1-11.84-8.33c14.34-5.2 34.4-14.49 45-28.44 0 0-3-2.5-6.85-6.13l4.14-4.84s21.62-17.42 6.76-26.45c-12.08-7.34-19.7 12.15-22.13 19.72l-.85-1s-23.26 35.53-54.63 17.86a42.985 42.985 0 0 1-4.84-8.83 39.932 39.932 0 0 0-11-15.42l-3.19-12.33-5.69-4.69c0-6.74.22-14.85 1-22a71.4 71.4 0 0 1 .15-1.35c11-4.37 18.76-14.73 18.76-26.82.002-4.25-.97-8.444-2.84-12.26 4.45-5.09 7.68-12 6.72-18-.75-4.65-4.72-7.68-9.48-9.82-4.58-2.32-10.18-3.68-14.37-4.82-7.71-2.09-16.13-3.08-23.63-.37-12.4 4.47-20.06 9.62-29.7 18.31-7.62 6.87-16 18.83-25 24-9 5.17-17.81 11.87-21.3 21.26-4.92 13.28 1.82 27.55 4.86 41.33a79.433 79.433 0 0 1-3.82 46.43c-5.9 14.75-16.45 29.16-13.86 44.75 2 11.84 11.37 21 22.9 26.29a57.798 57.798 0 0 0 16.21 5.2c9.71 1.59 20.08 1.08 29.05-2.59a107.766 107.766 0 0 1-16.21 30c-6.65 8.46-6 13.06-.12 13.5-.207.793-.4 1.637-.58 2.53-1.91 9.37-2.52 24.7.7 49.78 8.11 63.23-9.46 82.58-9.46 82.58s1.88.66 5.28 1.64c-.14.38-.28.77-.42 1.17-3.72 10.56-7.24 29.16-.12 54 7.67 26.7 9.92 39 10.57 44.28v.31c-.77.3-3.57 1.63-5.63 5.78a16.447 16.447 0 0 0 2.46 18v24.5h3.38v-20.65a58.345 58.345 0 0 1 7.57 11.51 26.133 26.133 0 0 0 20.14 14.26c8.7 1.18 18.3 1.61 22.3-1.26 0 0 3-5.65-11.35-12.5l-.12-.18c-4.72-6.88-12-18.82-13.1-28.19a78.305 78.305 0 0 0-3.7-16.89 49.63 49.63 0 0 1-2.64-12.75c-1-13.29-2.74-42.42-.16-48.85 1.74-4.33 2.77-15.2 3.35-24.7 0-.43.05-.86.08-1.28a188.903 188.903 0 0 0 45.23.33v6.3s-6.08 19.36 6.08 47.1c0 0 16.49 25.19 20.22 40.07.106.427.203.843.29 1.25-2.21.26-11.95 2.55-8.34 23.19l-.68 27.1h3.38l.68-23.87s3.38-5.81 14.87 6.45c1.74 1.86 3.313 3.583 4.72 5.17a41.953 41.953 0 0 0 32.82 13.84c7.38-.26 14.43-1 17.19-2.88 0 0 6.76-5.16-10.14-7.74l-7.78-2.31h-.29l-1.11-1.24c-5.9-6.68-14.47-18-16.66-29.5a53.037 53.037 0 0 0-3.66-11.52l-6.32-14.22-14.87-76.06s.78-3.34 1.54-7.43c.08-.45.17-.92.25-1.38l2.26-.87s13.52-9.68-6.76-68.39c0 0-7.88-32.7-11.87-58.75l9.84-1.89s-1.52-23-4.55-39c2-7.5 3.1-14 1.85-17.18a29.93 29.93 0 0 1-1.72-9 206.114 206.114 0 0 0-2.23-20.71l12.73 9 64.2 31c-2.46-5.06-2.85-9.21-2.14-12.56 4.68 6.69 17.1 21.62 27.82 9.33 10.94-12.43-9.96-18.63-18.35-20.54z" fill="url(#_Linear1)" fill-rule="nonzero"/><path d="M435.082 467.862s33.09 5.73 20.36 21c-12.73 15.27-28-12.09-28-12.09l7.64-8.91z" fill="#f8bdc5" fill-rule="nonzero"/><path d="M324.992 369.232s16.54 7.64 22.27 23.54c5.73 15.9 31.82 39.45 42.63 45.82 10.81 6.37 49.63 29.27 49.63 29.27s-16.54 6.36-8.27 24.18l-60.45-30.54-27.35-20.36-18.46-71.91z" fill="#575988" fill-rule="nonzero"/><path d="M324.992 369.232s16.54 7.64 22.27 23.54c5.73 15.9 31.82 39.45 42.63 45.82 10.81 6.37 49.63 29.27 49.63 29.27s-16.54 6.36-8.27 24.18l-60.45-30.54-27.35-20.36-18.46-71.91z" fill-opacity=".1" fill-rule="nonzero"/><path d="M581.702 2.462s-72.88-26.62-150.38 95.21c0 0-32.58 68-105.38 67.73l-7.8-17.78-14.69 5.77 197 450 14.86-4.77-92.78-213.14c30.78-2.36 99.37-24.52 161.93-162.65 0 0 56.2-104.9 138.5-92.5L581.702 2.462z" fill="url(#_Linear2)" fill-rule="nonzero"/><path d="M313.962 167.362l95.49 215.94s92.6 22.6 174.6-158.44c0 0 55-102.61 135.48-90.48L581.392 9.292s-71.3-26-147.1 93.14c-.01 0-36.99 77.25-120.33 64.93z" fill="#5d76b7" fill-rule="nonzero"/><path d="M435.582 142.432l4.64 12.94-8.93 8.87 10.41-1.28 3.89 11.84 3.08-13.44 9.69-.78-8.59-6.97 1.99-12.68-7.59 8.48-8.59-6.98zm19.48-38.76l4.13 12.21-7.81 9.71 9.29-2.13 4.98 11.09 1.24-13.77 10.16-1.65-8.81-5.74 1.88-12.07-6.25 8.09-8.81-5.74zm29.43-23.59l4.47 10.36-7.67 10.69 9.16-3.1 4.47 10.36 2.97-12.82 10.53-1.9-9.8-5.61 3.34-13.07-8.18 9.96-9.29-4.87zm32.89-.69l4.48 10.36-9.3 9.13 10.64-2.52 4.11 10.61 3.34-13.07 10.78-1.53-8.79-4.15 3.08-13.44-9.04 9.49-9.3-4.88zm27.35 19.3l4.47 10.36-9.29 9.13 10.64-2.52 4.11 10.61 3.33-13.07 10.78-1.53-8.79-4.15 3.09-13.44-9.05 9.49-9.29-4.88zm14.63 29.71l4.47 10.36-9.29 9.13 10.63-2.52 4.12 10.61 3.33-13.07 10.78-1.53-8.79-4.15 3.09-13.44-9.05 9.49-9.29-4.88zm-7.05 47.4l4.98 11.09-8.85 13.66 10.72-4.73 4.59 9.74 2.22-13.91 11.34-4.62-10.02-4.37 2.1-13.29-6.83 9.57-10.25-3.14zm-16.06 44.48l3.89 11.84-7.76 12.9 10.36-4.47 4.36 10.98 2.08-14.9 9.74-4.58-8.79-4.15 2.33-14.53-7.31 10.44-8.9-3.53zm-30.72 27.17l4.02 12.82-9.38 11.34 9.29-2.13 4.12 10.62 3.08-13.44 9.63-3.97-7.58-5.52 2.08-14.89-7.06 10.8-8.2-5.63zm-31.72 4.72l3.66 13.07-9.81 8.4 9.94-.42 2.88 10.39 3.84-12.35 10.89-2.15-7.97-6.86 1.88-12.07-7.11 7.62-8.2-5.63zm-28.78-23.7l3.78 12.46-12.02 8.31 12.66.4 2.43 12.85 4.79-14.08 11.9-.7-8.95-6.72 3.78-15.54-10.64 9.52-7.73-6.5zm-11.29-42.78l3.78 12.46-12.02 8.31 12.66.39 2.43 12.86 4.79-14.09 11.9-.69-8.96-6.72 3.79-15.54-10.64 9.51-7.73-6.49z" fill="#ffd037" fill-rule="nonzero"/><path d="M540.132 177.702l-22-24.47a3.83 3.83 0 0 0-5.41-.29l-1.77 1.62-9.2-10.25a9.754 9.754 0 0 0-13.77-.74l-12 10.77a9.752 9.752 0 0 0-.74 13.77l9.2 10.25-1.79 1.61a3.831 3.831 0 0 0-.29 5.41l22 24.47a3.83 3.83 0 0 0 5.41.29l30.08-27a3.833 3.833 0 0 0 .28-5.44zm-60.61-10.14a9.752 9.752 0 0 1 .74-13.77l6.75-6.06a9.75 9.75 0 0 1 13.77.74l7.55 8.41-21.26 19.08-7.55-8.4zm34.08 13.86l3.56 4c.354.394.55.905.55 1.435a2.155 2.155 0 0 1-2.145 2.145 2.145 2.145 0 0 1-1.595-.71l-3.76-4.19c-.4.096-.81.145-1.221.145-2.852 0-5.2-2.347-5.2-5.2s2.348-5.2 5.2-5.2c2.853 0 5.2 2.347 5.2 5.2 0 .837-.202 1.662-.589 2.405v-.03z" fill="url(#_Linear3)" fill-rule="nonzero"/><path d="M488.762 145.012l-11.39 10.23a9.262 9.262 0 0 0-.7 13.08l9.65 10.75 2.49-2.24-8.08-9a9.258 9.258 0 0 1 .7-13.08l6.41-5.75a9.258 9.258 0 0 1 13.08.7l8.08 9 2.49-2.24-9.65-10.75a9.258 9.258 0 0 0-13.08-.7z" fill="#f0f5fa" fill-rule="nonzero"/><path d="M512.272 153.932l-28.57 25.63a3.657 3.657 0 0 0-.28 5.14l20.87 23.24a3.658 3.658 0 0 0 5.14.28l28.58-25.66a3.658 3.658 0 0 0 .28-5.14l-20.84-23.21a3.642 3.642 0 0 0-5.18-.28zm.81 27.05l3.38 3.77c.351.375.546.87.546 1.384 0 1.11-.914 2.025-2.025 2.025a2.027 2.027 0 0 1-1.521-.689l-3.57-4a4.951 4.951 0 0 1-1.156.137c-2.71 0-4.94-2.23-4.94-4.94 0-2.71 2.23-4.94 4.94-4.94 2.71 0 4.94 2.23 4.94 4.94a4.95 4.95 0 0 1-.564 2.293l-.03.02zm-203.91-24.04l192.01 438.55 14.53-4.67-192.14-439.53-14.4 5.65z" fill="#f0f5fa" fill-rule="nonzero"/><path d="M403.262 387.682s7.64-31.18 21.64-22.27-6.36 26.09-6.36 26.09l-5.73 7-9.55-10.82z" fill="#f8bdc5" fill-rule="nonzero"/><path d="M326.652 359.152l7.25 6.26 3.06 12.42-4.97-2.88v-9.54l-5.35-.64.01-5.62z" fill="#dedff7" fill-rule="nonzero"/><path d="M326.652 359.152l7.25 6.26 3.06 12.42-4.97-2.88v-9.54l-5.35-.64.01-5.62z" fill-opacity=".1" fill-rule="nonzero"/><path d="M348.222 485.042l4.23 54.73 12.65-2.55s-2.81-44.54-8.43-52.18c-5.62-7.64-8.45 0-8.45 0z" fill="#575988" fill-rule="nonzero"/><path d="M348.222 485.042l4.23 54.73 12.65-2.55s-2.81-44.54-8.43-52.18c-5.62-7.64-8.45 0-8.45 0z" fill-opacity=".1" fill-rule="nonzero"/><path d="M317.352 808.942l-20.36 3.18-11.45-8.91-8.27-26.09v-9.56a21.153 21.153 0 0 0-.23-3.42c-.61-5.17-2.73-17.33-10-43.67-6.71-24.47-3.39-42.81.11-53.22a47.064 47.064 0 0 1 4.34-9.77h27.36s-.15 7.59-.66 16.36c-.55 9.37-1.51 20.1-3.16 24.37-2.44 6.34-.77 35.07.15 48.18a50.98 50.98 0 0 0 2.49 12.56 80.466 80.466 0 0 1 3.49 16.66c1 9.25 7.89 21 12.33 27.81 2.26 3.38 3.86 5.52 3.86 5.52zm96.73.62l-8.91 2.55-17.18-7-21.64-22.9v-12.72a24.297 24.297 0 0 0-.69-4.38c-3.51-14.68-19-39.52-19-39.52-11.45-27.36-5.73-46.45-5.73-46.45v-19.74s29.91-10.18 31.18-6.36c.71 2.14-.18 8.51-1.09 13.67-.72 4-1.45 7.32-1.45 7.32l14 75.09 5.95 14a54.047 54.047 0 0 1 3.44 11.36c2.07 11.31 10.14 22.5 15.69 29.09 3.1 3.75 5.43 5.99 5.43 5.99z" fill="#f8bdc5" fill-rule="nonzero"/><path d="M317.352 808.942l-20.36 3.18-11.45-8.91-8.27-26.09v-9.56a21.153 21.153 0 0 0-.23-3.42 4.79 4.79 0 0 1 .87-.4c.303-.104 2.55 9.55 1.27 14-1 3.55 7.67 16.81 11.24 22a15.073 15.073 0 0 0 7.33 5.82c6.95 2.46 13.62-.86 15.8-2.14 2.2 3.38 3.8 5.52 3.8 5.52z" fill-opacity=".1" fill-rule="nonzero"/><path d="M313.662 803.562s-8.06 5.62-16.55 2.61a15.061 15.061 0 0 1-7.33-5.78c-3.57-5.23-12.26-18.49-11.24-22 1.27-4.45-1.27-14-1.27-14s-3.23 1-5.5 5.78a16.832 16.832 0 0 0 2.32 17.78v24.16h3.18v-20.34a57.862 57.862 0 0 1 7.13 11.35 24.692 24.692 0 0 0 19 14.06c8.19 1.16 17.23 1.59 21-1.24-.05 0 2.75-5.57-10.74-12.38z" fill="#575988" fill-rule="nonzero"/><path d="M414.082 809.562l-8.91 2.55-17.18-7-21.64-22.9v-12.72a24.297 24.297 0 0 0-.69-4.38 4.69 4.69 0 0 1 .69-.07c0 3.31 5.64 11.19 9.6 16.3a100.053 100.053 0 0 1 5.77 8.35c8.24 13.28 22.51 14 26.9 13.92 3.13 3.71 5.46 5.95 5.46 5.95z" fill-opacity=".1" fill-rule="nonzero"/><path d="M366.352 766.302s-12.09 0-8.27 22.91l-.63 26.73h3.18l.64-23.54s3.18-5.73 14 6.36a250.014 250.014 0 0 1 4.45 5.1 38.674 38.674 0 0 0 30.91 13.65c6.94-.26 13.59-1 16.19-2.84 0 0 6.36-5.09-9.55-7.64l-7.32-2.23s-18.39 2-28.22-13.85a98.905 98.905 0 0 0-5.78-8.39c-3.95-5.07-9.6-12.95-9.6-16.26z" fill="#575988" fill-rule="nonzero"/><path d="M271.542 657.492h27.36s-.15 7.59-.66 16.36a193.17 193.17 0 0 1-31-6.59 47.068 47.068 0 0 1 4.3-9.77zm99.44 9.22a126.695 126.695 0 0 1-30.09 7.48v-14.79s29.91-10.18 31.18-6.36c.72 2.14-.17 8.52-1.09 13.67z" fill-opacity=".1" fill-rule="nonzero"/><path d="M373.352 664.492c-52.18 21.64-110.72 0-110.72 0s16.54-19.09 8.91-81.45c-3-24.73-2.46-39.85-.66-49.1 2.73-14.07 8.29-14.53 8.29-14.53l75.09-8.91c-.67 2.55-.71 6.85-.34 12.2 1.79 25.34 13.06 74.34 13.06 74.34 19.1 57.91 6.37 67.45 6.37 67.45z" fill="#575988" fill-rule="nonzero"/><path d="M333.262 323.412c-1.94 2.91-3.11 8.85-3.81 15.69-1.57 15.58-.65 35.85-.65 35.85s-38.82 21-29.91-6.36a68.383 68.383 0 0 0-4.44-50.9c-8.001-15.75 45.18-3.82 38.81 5.72z" fill="#f8bdc5" fill-rule="nonzero"/><path d="M333.262 323.412c-1.94 2.91-3.11 8.85-3.81 15.69a28.673 28.673 0 0 1-29-4.4 65.088 65.088 0 0 0-6-17c-2.779-5.361 45.18-3.83 38.81 5.71z" fill-opacity=".1" fill-rule="nonzero"/><circle cx="318.622" cy="311.322" r="28.64" fill="#f8bdc5"/><path d="M353.922 522.702c-3.49 9.58-6.66 17.07-6.66 17.07s-29.91-25.46-52.81-13.36c-10.81 5.7-19.06 8.15-23.56 7.53 2.73-14.07 8.29-14.53 8.29-14.53l75.09-8.91c-.68 2.55-.72 6.84-.35 12.2z" fill-opacity=".1" fill-rule="nonzero"/><path d="M347.262 537.222s-29.91-25.45-52.81-13.36c-22.9 12.09-34.36 9.55-22.91-5.73 11.45-15.28 26.73-47.73 15.27-71.91s-15.91-62.36-7-72.54c8.91-10.18 17.18-21.64 17.18-24.18 0 0 32.45 23.54 38.82 33.09 1.83 2.74 4.82 9.74 8.14 18.33 1.79 4.64 3.69 9.74 5.56 14.88a189.143 189.143 0 0 1 7.1 24.7 208.857 208.857 0 0 1 4.31 32.5 30.741 30.741 0 0 0 1.62 8.86c3.81 10.18-15.28 55.36-15.28 55.36z" fill="#575988" fill-rule="nonzero"/><path d="M333.902 366.052l-.75 13.28-36.74-28s-.7-5.62 8.85.1c9.55 5.72 28.64 14.62 28.64 14.62z" fill="#dedff7" fill-rule="nonzero"/><path d="M356.602 440.502c-33.61.62-71.7-36.91-71.7-36.91-13.36-35.63 31.82-28 31.82-28s3.72 9.58 27.23 25.33c1.79 4.64 3.69 9.74 5.56 14.88a189.258 189.258 0 0 1 7.09 24.7z" fill-opacity=".1" fill-rule="nonzero"/><path d="M284.902 399.142s43.27 42.63 78.27 36.27c0 0 41.36-10.18 57.91-33.09 0 0-10.82-9.55-17.82-18.45 0 0-22.27 35.63-52.18 17.18-29.91-18.45-34.36-29.91-34.36-29.91s-45.18-7.64-31.82 28z" fill="#575988" fill-rule="nonzero"/><path d="M329.732 267.692c-7.26-2.06-15.19-3-22.25-.37-11.68 4.41-18.89 9.49-28 18.06-7.18 6.77-15.08 18.57-23.53 23.65-8.45 5.08-16.71 11.7-20 21-4.63 13.1 1.71 27.17 4.58 40.76a81.822 81.822 0 0 1-3.6 45.79c-5.56 14.54-15.49 28.76-13 44.14 2.61 16.45 19.12 27.61 35.53 30.42 11.18 1.92 23.28.74 32.78-5.44a20.004 20.004 0 0 0 6.6-6.5c4.05-7 1.39-15.81-1.11-23.51-5.12-15.77-9.16-31.87-13.21-47.95-2.36-9.39-4.7-19.46-1.36-28.55 3.26-8.87 11.39-15.08 19.89-19.22 3.33-1.62 6.88-3.08 9.38-5.8a16.118 16.118 0 0 0 3.13-5.31c4.28-11.41-.52-26.13 7.74-35.1 4.2-4.56 10.67-6.14 15.85-9.55 6.54-4.31 13-14.49 11.77-22.75-1.34-8.7-13.68-11.64-21.19-13.77z" fill-opacity=".1" fill-rule="nonzero"/><path d="M328.452 267.052c-7.26-2.06-15.19-3-22.25-.37-11.68 4.41-18.89 9.49-28 18.06-7.18 6.77-15.08 18.57-23.53 23.65-8.45 5.08-16.71 11.7-20 21-4.63 13.1 1.71 27.17 4.58 40.76a81.822 81.822 0 0 1-3.6 45.79c-5.56 14.54-15.49 28.76-13 44.14 2.61 16.45 19.12 27.61 35.53 30.42 11.18 1.92 23.28.74 32.78-5.44a20.004 20.004 0 0 0 6.6-6.5c4.05-7 1.39-15.81-1.11-23.51-5.12-15.77-9.16-31.87-13.21-47.95-2.36-9.39-4.7-19.46-1.36-28.55 3.26-8.87 11.39-15.08 19.89-19.22 3.33-1.62 6.88-3.08 9.38-5.8a16.118 16.118 0 0 0 3.13-5.31c4.28-11.41-.52-26.13 7.74-35.1 4.2-4.56 10.67-6.14 15.85-9.55 6.54-4.31 13-14.49 11.77-22.75-1.33-8.69-13.67-11.64-21.19-13.77z" fill="#eb6475" fill-rule="nonzero"/><path d="M112.642 680.912s-13.26-45 2.49-78.14a71.104 71.104 0 0 0 5.75-44.6 119.57 119.57 0 0 0-6.31-20.93" fill="none" stroke="#535461" stroke-width="2"/><path d="M124.352 516.302c0 5.52-10 21.51-10 21.51s-10-16-10-21.51c0-5.486 4.514-10 10-10s10 4.514 10 10zm16.51 30.55c-3 4.63-20.08 12.63-20.08 12.63s.31-18.86 3.31-23.49a10.006 10.006 0 0 1 8.138-4.188c5.485 0 10 4.514 10 10 0 1.774-.473 3.516-1.368 5.048zm-.72 52.22c-4.93 2.48-23.71.77-23.71.77s9.79-16.12 14.71-18.6a9.992 9.992 0 0 1 4.117-.887c5.486 0 10 4.514 10 10 0 3.616-1.961 6.961-5.117 8.727v-.01zm-9.44 39.39c-4.44 3.28-23.24 4.76-23.24 4.76s6.92-17.54 11.36-20.82a10.002 10.002 0 0 1 5.55-1.682c5.485 0 10 4.515 10 10 0 2.999-1.349 5.844-3.67 7.742zm-30.88-77.9c4 3.84 22.39 7.83 22.39 7.83s-4.51-18.31-8.47-22.15a10.004 10.004 0 0 0-7.348-3.217c-5.486 0-10 4.514-10 10 0 2.888 1.251 5.639 3.428 7.537zm-10.46 46.19c4.93 2.48 23.71.77 23.71.77s-9.79-16.12-14.71-18.6a9.997 9.997 0 0 0-4.883-1.273c-5.486 0-10 4.514-10 10 0 3.922 2.308 7.498 5.883 9.113v-.01zm-4.01 46.3c4.44 3.28 23.24 4.76 23.24 4.76s-6.92-17.54-11.36-20.82a10.004 10.004 0 0 0-5.55-1.682c-5.486 0-10 4.515-10 10 0 2.999 1.349 5.844 3.67 7.742zm395.76 156.25a11.678 11.678 0 0 0 3.83-5.78c.5-2.3-.48-5.05-2.68-5.89-2.46-.94-5.09.76-7.08 2.49-1.99 1.73-4.28 3.69-6.89 3.32a10.492 10.492 0 0 0 3.24-9.81 4.1 4.1 0 0 0-.9-2c-1.37-1.46-3.84-.83-5.48.32-5.2 3.66-6.65 10.72-6.68 17.08-.52-2.29-.08-4.68-.1-7-.02-2.32-.66-5-2.64-6.22a8 8 0 0 0-4-.95c-2.34-.09-4.94.15-6.54 1.86-2 2.12-1.47 5.69.26 8 1.73 2.31 4.35 3.8 6.77 5.42a15.005 15.005 0 0 1 4.84 4.61c.146.261.267.535.36.82h14.65a40.869 40.869 0 0 0 9.04-6.27zm196.72-380.87s-41.84 41.84-18.22 103.92c23.62 62.08-40.49 165.32-40.49 165.32s.69-.1 2-.32c85.93-15.17 128.62-113.44 80.84-186.45-17.8-27.15-32.38-58.99-24.13-82.47z" fill="#fbc02d" fill-rule="nonzero"/><path d="M677.832 429.122s-41.84 41.84-18.22 103.92c23.62 62.08-40.49 165.32-40.49 165.32s.69-.1 2-.32c85.89-15.17 128.58-113.48 80.8-186.48-17.76-27.11-32.34-59-24.09-82.44z" fill-opacity=".1" fill-rule="nonzero"/><path d="M677.832 428.432s-23.62 51.28 0 93.12 4 159.25-58.71 176.12" fill="none" stroke="#535461"/><path d="M752.342 597.642s-47.74-7.6-52.09 35.18c-4.35 42.78-91.8 48.74-91.8 48.74l1.64 1.09c72.2 47.4 141.23 30.19 130.82-32.75-3.86-23.41-3.55-46.91 11.43-52.26z" fill="#fbc02d" fill-rule="nonzero"/><path d="M752.342 597.642s-37.06 8.13-34 41.83c3.06 33.7-55.04 74.09-109.89 42.09" fill="none" stroke="#535461"/><path d="M710.342 683.102s-37.6-7.54-47.63-17.54c-10.03-10-55.15-27.57-60.16-15-5.01 12.57-67.68 55.1-25.1 62.62 42.58 7.52 100.27 10 112.8 5 12.53-5 20.09-35.08 20.09-35.08z" fill="#a8a8a8" fill-rule="nonzero"/><path d="M577.452 708.562c42.62 7.52 100.27 10 112.8 5 9.55-3.82 16.18-22.16 18.8-30.7l1.25.26s-7.52 30.08-20.05 35.09c-12.53 5.01-70.19 2.51-112.8-5-12.3-2.17-15.82-7.27-14.49-13.72 1.08 4.18 5.37 7.42 14.49 9.07z" fill-opacity=".2" fill-rule="nonzero"/><path d="M82.812 678.362s22.41-.69 29.16-5.5c6.75-4.81 34.47-10.55 36.14-2.84 1.67 7.71 33.67 38.36 8.34 38.54-25.33.18-58.78-3.94-65.52-8-6.74-4.06-8.12-22.2-8.12-22.2z" fill="#a8a8a8" fill-rule="nonzero"/><path d="M156.932 705.902c-25.3.2-58.78-3.94-65.52-8-5.13-3.13-7.18-14.34-7.86-19.52h-.75s1.42 18.07 8.16 22.18c6.74 4.11 40.22 8.25 65.52 8 7.3-.06 9.82-2.66 9.69-6.5-1.02 2.34-3.8 3.79-9.24 3.84z" fill-opacity=".2" fill-rule="nonzero"/><defs><linearGradient id="_Linear1" x1="0" y1="0" x2="1" y2="0" gradientUnits="userSpaceOnUse" gradientTransform="rotate(-90 581.187 240.875) scale(560.69)"><stop offset="0" stop-color="gray" stop-opacity=".247"/><stop offset=".54" stop-color="gray" stop-opacity=".118"/><stop offset="1" stop-color="gray" stop-opacity=".098"/></linearGradient><linearGradient id="_Linear2" x1="0" y1="0" x2="1" y2="0" gradientUnits="userSpaceOnUse" gradientTransform="rotate(-124.67 469.907 58.69) scale(486.72)"><stop offset="0" stop-color="gray" stop-opacity=".247"/><stop offset=".54" stop-color="gray" stop-opacity=".118"/><stop offset="1" stop-color="gray" stop-opacity=".098"/></linearGradient><linearGradient id="_Linear3" x1="0" y1="0" x2="1" y2="0" gradientUnits="userSpaceOnUse" gradientTransform="rotate(-124.67 314.556 -37.29) scale(67.24)"><stop offset="0" stop-color="gray" stop-opacity=".247"/><stop offset=".54" stop-color="gray" stop-opacity=".118"/><stop offset="1" stop-color="gray" stop-opacity=".098"/></linearGradient></defs></svg>