<svg xmlns="http://www.w3.org/2000/svg" viewBox="0 0 496 496"><path d="M400 72c0 22.09-17.91 40-40 40s-40-17.91-40-40 17.91-40 40-40 40 17.91 40 40zM176 0c-26.742 0-52.32 12.398-68.922 33.29A43.044 43.044 0 0 0 80 73.296V160h8c0-13.258 10.742-24 24-24h8v-32h112v32h8c13.258 0 24 10.742 24 24h8V96c0-52.938-43.063-96-96-96zm0 0" fill="#fbc02d" data-original="#F0BC5E" class="active-path" data-old_color="#fbc02d"/><path d="M464 112.809V96c0-13.23-10.77-24-24-24h-8a72.092 72.092 0 0 0-23.992-53.656C392.778 4.704 372.297-1.801 351.816.457c-31.593 3.496-58.046 28.75-62.921 60.055-.598 3.847-.774 7.68-.766 11.496H280c-13.23 0-24 10.77-24 24v36.449c-4.727-2.762-10.145-4.457-16-4.457V96H112v32c-17.648 0-32 14.352-32 32s14.352 32 32 32h4.71A64.218 64.218 0 0 0 136 217.879v16.105l-63.52 18.328C48.648 259.176 32 281.305 32 306.113V352h288v-45.887c0-24.808-16.648-46.93-40.48-53.808L216 233.985v-16.106A64.218 64.218 0 0 0 235.29 192H240c5.855 0 11.273-1.695 16-4.45V192c0 13.23 10.77 24 24 24h48v40.648L378.809 216H440c13.23 0 24-10.77 24-24v-62.527c9.29 3.312 16 12.113 16 22.527v216H16V152c0-13.23 10.77-24 24-24h40v-16H40c-22.055 0-40 17.945-40 40v256c0 22.055 17.945 40 40 40h104v32h-32v16h272v-16h-32v-32h104c22.055 0 40-17.945 40-40V152c0-19.312-13.77-35.473-32-39.191zm-159.297-49.84c3.777-24.297 24.336-43.899 48.863-46.61A60.032 60.032 0 0 1 360.07 16c13.825 0 26.868 4.953 37.274 14.273A56.065 56.065 0 0 1 416 72c0 15.742-6.719 30.855-18.434 41.457-6.613 5.984-11.039 13.934-12.75 22.543H368V94.527c9.29-3.312 16-12.113 16-22.527 0-13.23-10.77-24-24-24s-24 10.77-24 24c0 10.414 6.71 19.215 16 22.527V136h-16.824a41.69 41.69 0 0 0-12.84-22.633c-13.977-12.703-20.566-31.535-17.633-50.398zM352 72c0-4.406 3.594-8 8-8s8 3.594 8 8-3.594 8-8 8-8-3.594-8-8zm30.527 80c-3.312 9.29-12.113 16-22.527 16s-19.215-6.71-22.527-16zM112 176c-8.824 0-16-7.176-16-16s7.176-16 16-16v24c0 2.71.223 5.375.55 8zm29.68 72.992l22.343 22.344-23.632 18.902-10.79-37.758zm46.199 42.762L179.719 304h-7.43l-8.168-12.246L176 282.246zM174.246 320h3.508l4 16h-11.508zM48 306.113c0-17.722 11.887-33.52 28.91-38.433l37.313-10.758 17.386 60.84 19.965-15.977 7.801 11.703L153.754 336H48zm256 0V336H198.246l-5.621-22.504 7.8-11.703 19.966 15.977 17.386-60.84 37.313 10.757c17.023 4.907 28.91 20.704 28.91 38.426zm-81.602-53.633l-10.789 37.758-23.632-18.902 22.343-22.344zM200 236.688l-24 24-24-24v-9.399c7.414 3.016 15.512 4.711 24 4.711s16.586-1.695 24-4.71zM224 168c0 26.473-21.527 48-48 48s-48-21.527-48-48v-56h96zm16 8h-.55c.327-2.625.55-5.29.55-8v-24c8.824 0 16 7.176 16 16s-7.176 16-16 16zm208 16c0 4.406-3.594 8-8 8h-66.809L344 223.352V200h-64c-4.406 0-8-3.594-8-8V96c0-4.406 3.594-8 8-8h9.871c3.234 14.152 10.656 27.176 21.695 37.207 3.274 2.977 5.57 6.738 6.954 10.793H304v16h16.809c3.718 18.23 19.87 32 39.191 32 19.312 0 35.473-13.77 39.191-32H416v-16h-14.543c1.367-4.04 3.621-7.762 6.848-10.68 11.023-9.976 18.558-23.074 21.832-37.32H440c4.406 0 8 3.594 8 8zM336 480H160v-32h176zm120-48H40c-13.23 0-24-10.77-24-24v-24h464v24c0 13.23-10.77 24-24 24zm0 0" data-original="#000000"/><path d="M192 400h16v16h-16zm32 0h48v16h-48zm64 0h16v16h-16zm160-64h16v16h-16zm-112 0h96v16h-96zm0-32h16v16h-16zm32 0h96v16h-96zm-32-32h128v16H336zm0 0" data-original="#000000"/></svg>