<?xml version="1.0" encoding="UTF-8" standalone="no"?><!DOCTYPE svg PUBLIC "-//W3C//DTD SVG 1.1//EN" "http://www.w3.org/Graphics/SVG/1.1/DTD/svg11.dtd"><svg width="100%" height="100%" viewBox="0 0 447 141" version="1.1" xmlns="http://www.w3.org/2000/svg" xmlns:xlink="http://www.w3.org/1999/xlink" xml:space="preserve" xmlns:serif="http://www.serif.com/" style="fill-rule:evenodd;clip-rule:evenodd;stroke-linejoin:round;stroke-miterlimit:1.41421;"><path id="path671" d="M284.075,76.404c0,2.159 -1.435,3.559 -4.486,3.559l-8.353,0l0,-7.073l8.353,0c3.051,0.002 4.486,1.18 4.486,3.514m-0.985,-10.927c0,1.524 -0.944,2.578 -3.545,2.578l-8.305,0l0,-5.193l7.983,0c2.748,0 3.867,0.899 3.867,2.615m7.454,10.855c0,-3.003 -1.884,-4.997 -4.403,-5.971c2.073,-1.091 3.326,-2.972 3.326,-5.316c0,-4.681 -3.861,-7.224 -9.967,-7.224l-14.42,0l0,27.338l14.283,0c6.737,0 11.181,-3.085 11.181,-8.827m19.586,-2.454l-7.193,0l2.025,-4.965c0.631,-1.596 1.253,-3.237 1.568,-4.256c0.323,1.019 0.944,2.66 1.575,4.256l2.025,4.965Zm11.542,11.281l-11.95,-27.338l-6.106,0l-12.032,27.338l6.73,0l2.475,-6.091l11.496,0l2.468,6.091l6.919,0Zm28.162,0l0,-27.338l-6.202,0l0,11.565c0,1.52 0.091,4.956 0.091,5.975c-0.409,-0.703 -1.448,-2.073 -2.207,-3.089l-11.139,-14.451l-6.013,0l0,27.338l6.195,0l0,-12.025c0,-1.524 -0.091,-4.963 -0.091,-5.979c0.402,0.703 1.435,2.073 2.2,3.086l11.541,14.915l5.618,0l0.007,0.003Zm85.214,-8.278c0,-5.933 -5.522,-7.419 -10.512,-8.435c-4.98,-1.02 -6.328,-1.565 -6.328,-3.284c0,-1.208 1.119,-2.458 4.492,-2.458c2.876,0 5.113,1.016 7.138,2.807l4.53,-3.819c-2.961,-2.698 -6.555,-4.304 -11.449,-4.304c-6.201,0 -11.225,3.048 -11.225,8.014c0,5.384 4.043,6.987 9.832,8.157c5.934,1.174 7.011,1.95 7.011,3.707c0,2.066 -1.75,2.968 -5.484,2.968c-3.009,0 -5.837,-0.906 -8.037,-3.123l-4.537,3.511c2.385,3.044 6.963,4.959 12.221,4.959c8.573,0.006 12.348,-3.507 12.348,-8.7m11.133,-19.057l-6.287,0l0,27.335l6.287,0l0,-27.335Zm-49.08,11.089c-0.631,-1.596 -1.259,-3.237 -1.575,-4.256c-0.315,1.019 -0.944,2.66 -1.568,4.256l-2.025,4.965l7.186,0l-2.018,-4.965Zm-13.82,16.246l-2.708,0l-4.839,0l-8.531,-13.196l-5.028,5.152l0,8.044l-6.287,0l0,-27.338l6.287,0l0,7.773c0,1.015 -0.052,3.476 -0.091,4.341c0.45,-0.631 1.617,-1.877 2.468,-2.776l8.806,-9.338l7.584,0l-9.204,9.451l9.935,15.396l10.941,-24.847l6.106,0l11.943,27.338l-6.919,0l-2.475,-6.091l-11.497,0l-2.467,6.091l-4.024,0Zm-262.972,-32.572c0,-1.939 1.575,-3.514 3.521,-3.514c1.939,0 3.514,1.575 3.514,3.514c0,1.939 -1.575,3.514 -3.514,3.514c-1.946,0.003 -3.521,-1.572 -3.521,-3.514m-66.469,20.506l0,-15.272l-6.291,0l0,15.35c0,4.369 -2.471,7.067 -6.462,7.067c-3.995,0 -6.425,-2.77 -6.425,-7.145l0,-15.272l-6.28,0l0,15.35c0,7.963 5.117,12.414 12.708,12.414c7.986,0.005 12.75,-4.568 12.75,-12.492m-21.035,-20.554c0,-1.942 1.576,-3.521 3.518,-3.521c1.936,0 3.514,1.579 3.514,3.521c0,1.935 -1.578,3.511 -3.514,3.511c-1.942,0.002 -3.518,-1.572 -3.518,-3.511m9.675,0c0,-1.942 1.568,-3.521 3.514,-3.521c1.939,0 3.511,1.579 3.511,3.521c0,1.935 -1.572,3.511 -3.511,3.511c-1.946,0.002 -3.514,-1.572 -3.514,-3.511m142.183,32.62l0,-5.35l-16.212,0l0,-6.596l9.033,0l0,-5.313l-9.033,0l0,-4.729l15.543,0l0,-5.35l-21.823,0l0,27.335l22.492,0l0,0.003Zm-24.829,-27.335l-7.139,0l-4.447,6.486c-1.168,1.716 -2.825,4.331 -3.412,5.347c-0.583,-1.015 -2.285,-3.71 -3.415,-5.347l-4.444,-6.486l-7.227,0l11.901,16.638l0,10.697l6.288,0l0,-10.817l11.895,-16.518Zm-42.734,27.335l-11.538,-17.887l9.204,-9.448l-7.591,0l-8.8,9.331c-0.851,0.903 -2.021,2.152 -2.471,2.78c0.039,-0.865 0.091,-3.325 0.091,-4.338l0,-7.773l-6.29,0l0,27.335l6.291,0l0,-8.044l5.031,-5.152l8.528,13.196l7.545,0Zm-38.664,-18.553c0,2.382 -1.572,3.556 -4.489,3.556l-8.223,0l0,-7.032l8.223,0c2.783,0 4.489,1.015 4.489,3.476m6.466,18.553l-6.016,-10.625c3.994,-1.359 6.016,-3.94 6.016,-8.041c0,-5.817 -4.898,-8.669 -10.821,-8.669l-14.641,0l0,27.335l6.288,0l0,-9.839l6.331,0l5.615,9.839l7.228,0Zm-60.556,-21.943l0,-5.392l-24.346,0l0,5.392l9.029,0l0,21.943l6.287,0l0,-21.943l9.03,0Zm102.624,-5.392l-6.287,0l0,27.335l6.287,0l0,-27.335Zm80.715,58.39c0.838,0.196 5.034,1.644 5.034,1.644c3.092,1.301 5.666,2.231 8.535,2.749c-2.467,1.226 -4.169,3.775 -4.169,6.723c0,3.171 1.969,5.639 4.742,6.624c1.099,0.536 1.233,0.93 1.548,1.911c0.267,0.838 -0.607,4.218 -0.607,4.218l1.943,0c0,0 1.259,-1.554 3.023,-3.995c0.772,-1.061 1.956,-3.205 2.66,-4.156c0.944,-1.386 1.709,-2.707 1.709,-4.598c0,-2.595 -1.321,-4.88 -3.312,-6.233c0.457,-0.014 0.563,-0.039 0.563,-0.039c4.338,-0.254 8.36,-1.911 8.36,-1.911c13.783,-4.678 16.926,-16.844 16.926,-16.844c0.543,-2.059 0.845,-4.228 0.845,-6.462c0,-7.393 -3.916,-14.051 -9.023,-18.635c0,0 -1.575,-1.521 -2.876,-2.475c-2.68,-2.086 -11.273,-6.668 -11.273,-6.668c0,0 -14.435,-7.842 -18.073,-10.114c-3.634,-2.272 -5.35,-4.06 -5.35,-4.06c-2.787,-2.382 -4.578,-5.622 -4.578,-9.733c0,-6.39 5.769,-10.855 12.492,-11.984c0,0 0.46,-0.052 1.115,-0.091l0,24.476l13.193,7.279l0,-37.847c0.103,-0.978 -0.351,-4.317 3.205,-5.271l1.935,-0.509l0,-1.877l-23.47,0l0,1.877l1.846,0.488c3.655,0.926 3.185,4.307 3.291,5.296l0,2.525c-0.546,0.039 -1.126,0.078 -1.64,0.175c-11.809,1.668 -20.416,10.996 -20.416,22.27c0,8.394 3.987,13.649 10.347,18.422c3.301,2.482 5.546,3.552 9.527,5.735l2.186,1.216l0,23.923c-0.104,0.993 0.354,4.325 -3.202,5.275l-1.939,0.522l0,1.87l23.47,0l0,-1.87l-1.849,-0.491c-3.652,-0.93 -3.185,-4.31 -3.285,-5.309l-0.006,-16.562l2.566,1.441c0,0 7.729,3.762 10.705,10.57c2.989,6.809 1.04,16.577 -10.866,20.86c0,0 -14.167,4.403 -27.009,-7.63c0,0 -4.43,-4.646 -6.617,-10.886c-0.343,-0.971 -0.738,-2.539 -0.738,-2.539l-1.856,0l0,23.7l1.575,0c0,0 0.947,-1.379 1.764,-2.045c0.217,-0.182 0.377,-0.309 0.577,-0.429c1.037,-0.632 2.526,-1.448 6.198,-0.611l0.274,0.085Zm40.043,-85.32l0,-1.095l-1.702,0l-0.899,1.366c-0.817,1.043 -1.555,1.414 -3.13,1.582c-1.822,0.207 -4.163,-0.786 -4.163,-0.786l-3.452,-1.379l0,3.486c1.496,0.841 2.165,1.521 2.896,2.056c0.907,0.673 2.334,2.066 4.009,4.317c1.674,2.255 2.903,5.117 3.305,6.336c0.295,0.886 0.69,2.759 0.878,3.843l0.233,1.456l2.025,0l0,-21.182Zm-30.87,-23.237c0,4.224 3.429,7.656 7.653,7.656c4.232,0 7.664,-3.432 7.664,-7.656c0,-4.229 -3.432,-7.657 -7.664,-7.657c-4.224,0 -7.653,3.428 -7.653,7.657" style="fill:#00559f;fill-rule:nonzero;"/></svg>