<svg viewBox="0 0 291 291" xmlns="http://www.w3.org/2000/svg" fill-rule="evenodd" clip-rule="evenodd" stroke-linejoin="round" stroke-miterlimit="1.414"><circle cx="145.313" cy="38.726" r="37.5" fill="#fbc02d"/><path fill="#333" d="M140.625 230.913H150v23.438h-9.375z"/><path d="M215.625 94.615l-38.54 15.417 3.482 8.705 30.371-12.15v21.201h9.375v-21.201l60.937 24.375v144.59l-60.937-24.375V137.163h-9.375v114.014L150 275.552v-11.826h-9.375v11.826l-60.937-24.375v-34.326h-9.375v34.326L9.375 275.552v-144.59l60.938-24.375v100.889h9.375V106.587l30.37 12.145 3.483-8.705L75 94.615l-75 30v164.784l75-30 70.313 28.125 70.312-28.125 75 30V124.615l-75-30z" fill="#333" fill-rule="nonzero"/><path d="M145.313 212.163L98.438 90.288h93.75l-46.875 121.875z" fill="#fbc02d" fill-rule="nonzero"/></svg>