<svg viewBox="0 0 487 487" xmlns="http://www.w3.org/2000/svg" fill-rule="evenodd" clip-rule="evenodd" stroke-linejoin="round" stroke-miterlimit="1.414"><g fill-rule="nonzero"><path d="M405.672 87.049l.046-.962c.183-3.994-1.127-7.866-3.509-10.369-2.097-2.193-4.89-3.306-8.303-3.306H336.56l-.03-2.575c-.035-3.453-.061-6.906-.065-10.369 0-1.163-.152-2.308-.478-3.603l-.102-.378.025-.391c.198-3.999-1.102-7.883-3.494-10.395-2.092-2.204-4.89-3.32-8.312-3.32-10.836 0-21.673-.049-32.504-.094l-2.544-.01-.046-2.544c-.208-11.225-.935-20.617-2.28-29.557-.863-5.687-6.865-9.089-12.182-9.089l-.731.005-.625-.066L222.525 0c-3.76 0-6.858 1.409-8.975 4.08-2.542 3.225-3.474 7.993-2.417 12.449l.183.769-.282.744c-.571 1.534-.868 3.072-.868 4.57v17.514l-2.684-.083c-11.024-.337-22.046-.721-33.07-1.257l-.541-.01c-1.046 0-2.084.145-3.265.457l-.343.094-.355-.005h-.005c-6.162 0-12.619 3.882-12.703 12.411-.046 4.38-.218 8.742-.482 13.088l-.147 2.438-2.442.005c-18.943.054-39.207.401-59.077 2.549-.66.074-1.257.239-1.856.396l-.848.13c-6.213 0-12.42 3.831-12.42 12.4v49.14c0 2.76.69 5.194 2.049 7.223l.442.655v.79c-.016 110.388-.401 210.073-4.987 312.12-.058 1.239.071 2.473.399 3.88l.119.522-.097.533c-.614 3.407-.068 6.521 1.549 8.771 1.455 2.041 3.743 3.3 6.792 3.757 99.899 14.812 198.457 16.026 307.71 16.036 7.901 0 10.486-6.012 11.228-8.597l.167-.573.406-.447c2.021-2.229 3.047-5.078 3.047-8.47V95.677c0-3.095-.838-5.741-2.498-7.868l-.582-.76zM234.89 25.832h29.087l.116 2.47c.173 3.369.27 6.739.29 10.113l.021 2.643-9.085-.094c-5.962-.058-11.92-.114-17.875-.218l-2.554-.049V25.832zM177.895 120.1c.927-7.008 1.811-23.976 2.511-37.61.323-6.276.609-11.758.838-15.074l.178-2.526 2.526.109c43.127 1.851 85.696 2.153 125.274 2.194h2.569l.025 2.569c.299 27.787.837 47.177 1.548 54.598l.279 2.963-2.976-.12c-22.638-.927-45.676-1.571-67.953-2.188-20.782-.584-41.561-1.165-62.34-1.973l-2.849-.109.37-2.833zm206.15 340.218h-2.6c-98.076-.065-186.598-1.122-276.722-13.502l-2.341-.32.099-2.366c4.296-100.584 4.654-200.923 4.659-312.252 0-2.76-.69-5.2-2.059-7.239l-.437-.655V94.74l2.407-.178c16.046-1.184 31.89-1.396 43.896-1.455l2.96-.01-.371 2.948c-.114.917-.259 7.774-.368 13.287-.188 9.036-.292 13.416-.442 14.493-.328 2.396-.239 4.763.269 7.013l.109.515-.094.521c-.78 4.289.292 8.902 2.792 12.042 2.133 2.684 5.205 4.192 8.881 4.357 26.139 1.196 52.748 1.904 78.473 2.584 25.753.681 52.382 1.389 78.569 2.59l.681.016c3.717 0 6.139-1.415 7.754-3.182 2.229-.922 4.158-2.56 5.296-4.758.106-.219.203-.442.305-.671.219-.525.432-1.056.554-1.627.238-1.057.355-2.123.528-3.184 1.619-2.153 2.442-4.581 2.138-6.947-.244-1.925-.432-9.041-.665-18.895-.147-6.022-.29-11.705-.406-13.131l-.244-2.824h46.377v362.074h.002z"/><path d="M328.71 195.868a10.767 10.767 0 0 0-3.031 2.115c-46.234 46.212-85.62 84.617-126.939 121.271l-21.043-25.543c-2.447-2.976-5.215-3.6-7.102-3.6-2.138 0-4.311.817-6.152 2.3l-.328.183c-11.834 7.617-22.884 13.99-33.794 19.494-3.28 1.661-5.22 4.52-5.397 7.907-1.435 3.758-.516 7.683 2.526 10.593 9.767 9.343 18.859 19.682 27.654 29.686 9.656 10.979 19.639 22.338 30.615 32.499.417.386.843.726 1.274 1.025 1.861 2.387 4.451 3.737 7.175 3.737 1.983 0 3.9-.69 5.705-2.051 30.658-23.136 57.948-49.186 78.3-69.295 5.885-5.818 11.796-11.618 17.701-17.433 21.114-20.743 42.949-42.197 63.612-63.987 1.224-1.292 2.071-2.785 2.528-4.438 1.976-3.205 1.854-6.917-.37-10.265-7.084-10.674-13.264-20.685-18.88-30.595-1.849-3.275-4.962-5.154-8.516-5.154-1.988.004-3.983.583-5.538 1.551zm-34.489 84.965c-8.089 7.972-16.163 15.935-24.176 23.957-22.658 22.674-47.391 46.575-74.87 68.045-8.777-8.652-17.072-18.047-25.101-27.162-6.126-6.941-12.433-14.096-18.969-20.937 5.522-3.047 11.116-6.337 16.971-9.952l21.99 26.705c2.455 2.971 5.228 3.6 7.119 3.6 2.352 0 4.685-.965 6.614-2.706.63-.36 1.196-.777 1.737-1.255 44.156-38.674 86.618-80.201 126.007-119.474 2.498 4.118 5.226 8.435 8.373 13.299-14.943 15.559-30.568 30.966-45.695 45.88z" fill="#fbc02d"/></g></svg>