<svg xmlns="http://www.w3.org/2000/svg" viewBox="0 0 64 64"><path d="M59 23H41V11h18v12zm0 12H41v-9h18v9zM5 23h32v12H5zm14 24H5V37h14v10zm16 0H21V37h14v10z" data-original="#F0BC5E" class="active-path" data-old_color="#fbc02d" fill="#fbc02d"/><path d="M58 1H42c-2.757 0-5 2.243-5 5v13H6c-2.757 0-5 2.243-5 5v28c0 2.757 2.243 5 5 5h13v4h-4v2h26v-2h-4v-4h13c2.757 0 5-2.243 5-5v-5h3c2.757 0 5-2.243 5-5V6c0-2.757-2.243-5-5-5zM42 3h16c1.654 0 3 1.346 3 3v1H39V6c0-1.654 1.346-3 3-3zm19 6v28H39V9h22zM35 61H21v-4h14v4zm15-6H6c-1.654 0-3-1.346-3-3v-1h50v1c0 1.654-1.346 3-3 3zm3-6H3V24c0-1.654 1.346-3 3-3h31v21c0 2.757 2.243 5 5 5h11v2zm5-4H42c-1.654 0-3-1.346-3-3v-3h22v3c0 1.654-1.346 3-3 3z" data-original="#000000"/><path data-original="#000000" d="M47 41h6v2h-6zm10-8h2v2h-2zm-16 0h14v2H41zm0-4h18v2H41zm0-4h18v2H41zM21 37h14v2H21zm0 4h14v2H21zm0 4h10v2H21zm12 0h2v2h-2z"/></svg>