<svg viewBox="0 0 971 754" xmlns="http://www.w3.org/2000/svg" fill-rule="evenodd" clip-rule="evenodd" stroke-miterlimit="10"><path d="M718.768 430.508L526.105 189.75a64.693 64.693 0 0 1-31.159 15.733c-36.271 7.143-71.692-17.626-79.117-55.323-5.248-26.648 4.912-52.608 24.123-68.069L374.259 0 0 319.862 344.509 750.37l374.259-319.862z" fill="#f2f2f2" fill-rule="nonzero"/><path d="M311.815 235.57l-160.526 32.803c-14.395 2.942-24.826 15.72-24.826 30.413 0 4.289.889 8.532 2.61 12.461L312.075 728.8c8.27 18.869 29.605 28.656 49.302 22.617l184.96-56.941c14.575-4.487 24.589-18.047 24.589-33.297a34.833 34.833 0 0 0-4.08-16.359L360.511 256.847c-10.087-16.624-29.645-25.17-48.696-21.277z" fill="#3f3d56" fill-rule="nonzero"/><path d="M151.085 272.444l26.394-5.205c3.638 7.557 11.93 11.792 20.185 10.31l95.379-17.119a6.712 6.712 0 0 0 5.509-6.586c0-.719-.116-1.433-.343-2.115l-2.595-7.784 26.27-5.18c11.136-2.196 22.484 3.135 27.904 13.109L563.47 645.121a25.938 25.938 0 0 1 3.147 12.383c0 11.385-7.497 21.501-18.389 24.814l-182.112 55.393c-15.628 4.753-32.538-2.928-39.239-17.824L137.452 298.843a18.97 18.97 0 0 1-1.67-7.784c0-9.029 6.444-16.869 15.303-18.615z" fill="#fbc02d" fill-rule="nonzero"/><path d="M264.654 255.064l-39 8" fill="none" stroke="#2f2e41" stroke-width="2"/><ellipse cx="215.654" cy="264.564" rx="4" ry="3.5" fill="#2f2e41"/><path d="M241.654 302.064l172 369 239-65v-8l-186-347-221 48-1.05.79-2.95 2.21z" fill="#fff" fill-rule="nonzero"/><path d="M241.654 302.064l172 369 239-65v-8l-238 67-170.05-365.21-2.95 2.21z" fill-opacity=".2" fill-rule="nonzero"/><path d="M548.654 458.064l-176 45m186-26l-177 46m154-20l-111 30" fill="#3f3d56" fill-rule="nonzero" stroke="#3f3d56" stroke-width="2"/><path d="M434.654 588.064l16.21 35.29.79 1.71 2.76-.7 134.24-34.3v-5l-18-34-133 36-1.19.4-1.81.6z" fill="#fbc02d" fill-rule="nonzero"/><path d="M434.654 588.064l16.21 35.29.79 1.71 2.76-.7 134.24-34.3v-5l-135 36-17.19-33.6-1.81.6z" fill-opacity=".2" fill-rule="nonzero"/><path d="M446.553 378.981c-11.452-29.927-43.072-47.077-68.458-38.997-23.269 7.407-32.828 33.692-23.048 59.25 9.78 25.558 36.391 43.837 61.252 40.591 27.122-3.541 41.705-30.917 30.254-60.844z" fill="#3f3d56" fill-rule="nonzero" stroke="#3f3d56" stroke-width="2"/><path d="M446.553 378.981c-11.452-29.927-43.072-47.077-68.458-38.997-23.269 7.407-32.828 33.692-23.048 59.25 9.78 25.558 36.391 43.837 61.252 40.591 27.122-3.541 41.705-30.917 30.254-60.844z" fill-opacity=".2" fill-rule="nonzero"/><path d="M451.553 373.981c-11.452-29.927-43.072-47.077-68.458-38.997-23.269 7.407-32.828 33.692-23.048 59.25 9.78 25.558 36.391 43.837 61.252 40.591 27.122-3.541 41.705-30.917 30.254-60.844z" fill="#3f3d56" fill-rule="nonzero" stroke="#3f3d56" stroke-width="2"/><circle cx="619.429" cy="56.916" r="14.756" fill="none" stroke="#3f3d56" stroke-width="2"/><circle cx="814.429" cy="485.916" r="14.756" fill="none" stroke="#3f3d56" stroke-width="2"/><circle cx="170.696" cy="93.916" r="14.756" fill="none" stroke="#3f3d56" stroke-width="2"/><circle cx="479.377" cy="139.729" r="54.315" fill="#f2f2f2"/><circle cx="692.954" cy="234.917" r="36.8" fill="#2f2e41"/><path d="M732.654 696.064l7 30h-17l-7-34 17 4zm-82 0v28l-17 2v-30h17zm87-318s-2 43-4 46-20 46-20 46l-9-28s14-23 12-36-.74-28.997-.74-28.997l21.74.997z" fill="#9f616a" fill-rule="nonzero"/><circle cx="680.654" cy="246.064" r="28" fill="#9f616a"/><path d="M703.654 249.064s-1 40 6 46-40 1-40 1 10-28 2-34 32-13 32-13z" fill="#9f616a" fill-rule="nonzero"/><path d="M666.654 294.064s6-11 14-10 34 3 35 5 4 9 6 11 17 5 18 17-36 85-36 85 5 17 4 21 5 16 4 21 15 35 7 74v63s27 109 19 117-35 3-40 0-26-154-26-154l-10-51-1 112s2 94-5 97-34 4-36-2c-1.56-4.68-9.203-129.189-12.491-183.767a203.884 203.884 0 0 1 4.403-56.175c4.162-18.878 10.204-41.057 17.088-50.058 13-17 21-71 21-71l-17-31s10-10 16-10 18-4 18-4z" fill="#2f2e41" fill-rule="nonzero"/><path d="M733.654 310.064l5.273 3.589s3.727 64.411.727 68.411-23.858 2.048-25.429-1.476c-1.571-3.524 19.429-70.524 19.429-70.524z" fill="#2f2e41" fill-rule="nonzero"/><path d="M644.477 368.627c2.927 20.307 5.492 38.384-9.475 54.738a280.832 280.832 0 0 1-50.533 43.771c-1.836 4.863-28.786 40.573-30.157 26.329-1.37-14.245 7.941-25.411 21.172-37.457 13.231-12.045 31.742-38.18 42.187-52.52 10.444-14.341 6.145-23.283 5.782-35.261-.363-11.978 16.917.545 21.024.4z" fill="#9f616a" fill-rule="nonzero"/><path d="M633.654 707.863s-1 11.201-4 14.201-11 7-10 18 7.5 11.5 7.5 11.5l-.5-2.5 3 1 .5 1.5h28s.5-10.5-.5-15.5-1-29-4-28-11 2-13 6-8 2.598-7-6.201zm102 0s1 11.201 4 14.201 11 7 10 18-7.5 11.5-7.5 11.5l.5-2.5-3 1-.5 1.5h-28s-.5-10.5.5-15.5 1-29 4-28 11 2 13 6 8 2.598 7-6.201zm-89-402.799l-14 3s0 22-4 31-11 30-8 31 31 15 33 7 7-72-7-72z" fill="#2f2e41" fill-rule="nonzero"/><circle cx="732.82" cy="186.464" r="36.8" fill="#2f2e41"/><path d="M764.562 216.936a36.805 36.805 0 0 1-21.558 6.975c-16.233 0-30.638-10.74-35.271-26.298 2.304 18.318 18.052 32.211 36.514 32.211 20.189 0 36.802-16.613 36.802-36.802a36.81 36.81 0 0 0-1.529-10.5 36.831 36.831 0 0 1-14.958 34.414z" fill="#2f2e41" fill-rule="nonzero"/><circle cx="702.767" cy="241.05" r="26.987" fill="#2f2e41"/><ellipse cx="680.074" cy="230.93" rx="23.92" ry="18.707" fill="#2f2e41"/><ellipse cx="673.693" cy="250.099" rx="4.54" ry="8.032" fill="#a0616a"/></svg>