<svg xmlns="http://www.w3.org/2000/svg" viewBox="0 0 64 64" width="512" height="512"><path d="M34 14c0 2.206 1.794 4 4 4s4-1.794 4-4-1.794-4-4-4-4 1.794-4 4zm6 0c0 1.103-.897 2-2 2s-2-.897-2-2 .897-2 2-2 2 .897 2 2zm5 0h2a9.012 9.012 0 0 0-4.639-7.875l-.971 1.749A7.01 7.01 0 0 1 45 14zm-7-9v2c.594 0 1.183.074 1.75.22l.499-1.937A9.025 9.025 0 0 0 38 5z" data-original="#000000"/><path d="M58.649 27l-5 4H51v-6c0-1.103-.897-2-2-2h-1.641C49.608 20.662 51 17.493 51 14c0-7.168-5.832-13-13-13-5.053 0-9.687 2.975-11.805 7.578l1.817.836C29.805 5.518 33.725 3 38 3c6.065 0 11 4.935 11 11s-4.935 11-11 11a10.96 10.96 0 0 1-7.452-2.927l-1.357 1.469A12.951 12.951 0 0 0 38 27c2.535 0 4.895-.74 6.897-2H49v22H15V25h2.349v-2H15c-1.103 0-2 .897-2 2v3H9v4H7v-2H1v12h6v-2h2v4h4v3c0 1.103.897 2 2 2h7.484l-6 14h7.176l6-14h4.682l6 14h7.176l-6-14H49c1.103 0 2-.897 2-2v-6h2.649l5 4H63V27h-4.351zM5 40H3v-8h2v8zm2-2v-4h2v4H7zm4 4V30h2v12h-2zm11.341 19h-2.824l5.143-12h2.824l-5.143 12zm22.142 0h-2.824l-5.143-12h2.824l5.143 12zM51 33h2v6h-2v-6zm10 10h-1.649L55 39.52v-7.04L59.351 29H61v14z" data-original="#000000"/><path d="M23 27c-5.514 0-10-4.486-10-10S17.486 7 23 7s10 4.486 10 10-4.486 10-10 10zm0-13c-1.654 0-3 1.346-3 3s1.346 3 3 3 3-1.346 3-3-1.346-3-3-3z" data-original="#F0BC5E" class="active-path" data-old_color="#fbc02d" fill="#fbc02d"/><path d="M23 21c-2.206 0-4-1.794-4-4s1.794-4 4-4 4 1.794 4 4-1.794 4-4 4zm0-6c-1.103 0-2 .897-2 2s.897 2 2 2 2-.897 2-2-.897-2-2-2zm-6 28h2v2h-2zm4 0h2v2h-2z" data-original="#000000"/><path d="M44 45H30c-1.654 0-3-1.346-3-3V32c0-1.654 1.346-3 3-3h14c1.654 0 3 1.346 3 3v10c0 1.654-1.346 3-3 3z" data-original="#F0BC5E" class="active-path" data-old_color="#fbc02d" fill="#fbc02d"/><path d="M33 41.618v-9.236L42.236 37 33 41.618zm2-6v2.764L37.764 37 35 35.618zM25 41h-8V29h8v12zm-6-2h4v-8h-4v8z" data-original="#000000"/></svg>