<svg viewBox="0 0 512 512" xmlns="http://www.w3.org/2000/svg" fill-rule="evenodd" clip-rule="evenodd" stroke-linejoin="round" stroke-miterlimit="1.414"><path d="M329.074 409.855C341.672 422.457 332.75 444 314.93 444H80c-44.184 0-80-35.816-80-80V148a79.82 79.82 0 0 1 2.043-17.988c3.523-15.274 22.539-20.649 33.625-9.563a20.009 20.009 0 0 1 5.34 18.629A39.775 39.775 0 0 0 40 148v26.121h45.055c5.3 0 10.39 2.106 14.14 5.859 12.598 12.598 3.676 34.02-14.14 34.02H40v150c0 22.09 17.91 40 40 40h234.93a20.004 20.004 0 0 1 14.144 5.855zM96.285 68H432c44.113 0 80 35.887 80 80v116.121c0 11.047-8.953 20-20 20s-20-8.953-20-20v-50H242.406l189.871 189.871C454.207 403.84 472 385.961 472 364c0-11.047 8.953-20 20-20s20 8.953 20 20c0 32.313-19.27 60.191-46.91 72.805M472 174.121V148c0-22.059-17.945-40-40-40H136.285l66.121 66.121H472z" fill-rule="nonzero"/><path d="M6.055 35.383l469.958 469.406s14.598 14.702 29.3 0 0-30.198 0-30.198L35.396 6.069s-15.788-13.554-29.341 0c-13.554 13.553 0 29.314 0 29.314z" fill="#fbc02d"/></svg>