<svg viewBox="0 0 512 512" xmlns="http://www.w3.org/2000/svg" fill-rule="evenodd" clip-rule="evenodd" stroke-linejoin="round" stroke-miterlimit="1.414"><path d="M224 328l-32 8 8-32 25-24H104v128h256V280h-89.92L224 328zM104 200h128v40H104zm0 224h192v40H104z" fill="#fbc02d" fill-rule="nonzero"/><path d="M496 8c-76.392 0-144.896 37.984-187.328 96h-29.32C276.376 85.768 263.456 72 248 72s-28.376 13.768-31.352 32h-49.296C164.376 85.768 151.456 72 136 72s-28.376 13.768-31.352 32H48c-22.056 0-40 17.944-40 40v280h32v40h32v40h251.312L392 435.312V230.84C459.656 190.168 504 116.208 504 32V8h-8zM394 128.848a31.73 31.73 0 0 1 12.584-7.44 31.75 31.75 0 0 1-7.432 12.584L219.824 320.8l-16.832 4.208 4.208-16.832L394 128.848zM275.592 168H88v-24c0-9.04-3.128-17.296-8.208-24h71.184c-2.256 9.2-8.176 16-14.984 16v16c15.456 0 28.376-13.768 31.352-32h95.632c-2.256 9.2-8.176 16-14.984 16v16c15.456 0 28.376-13.768 31.352-32h18.584c-9.168 14.992-16.728 31.064-22.336 48zM248 88c6.808 0 12.72 6.8 14.984 16h-29.968c2.264-9.2 8.176-16 14.984-16zm-112 0c6.808 0 12.72 6.8 14.984 16h-29.968c2.264-9.2 8.176-16 14.984-16zm-88 32c13.232 0 24 10.768 24 24v24H24v-24c0-13.232 10.768-24 24-24zM24 408V184h16v224H24zm32 40V184h16v264H56zm272 28.688V440h36.688L328 476.688zM376 424h-64v64H88V184h182.992a228.05 228.05 0 0 0-6.768 47.256L192.8 299.832 181.008 347l47.168-11.792 69.784-72.696c27.928-3.104 54.2-11.008 78.04-22.872V424zM488 32c0 103.832-72.376 190.984-171.744 211.448l35.704-37.192 57.984-14.496-3.88-15.512-33.272 8.32L396.36 160H440v-16h-28.456c6.808-7.504 10.872-16.824 11.96-26.808l44.072-22.04-7.16-14.312-46.76 23.376c-1.904.096-3.8.224-5.664.544V64h-16v46.632c-3.232 1.888-6.328 4.024-9.08 6.672l-22.912 22V104h-16v50.664l-20.216 19.408 4.136-28.944-15.832-2.264-7.024 49.192-23.552 22.608C293.896 110.44 381.976 28.112 488 24.152V32z" fill-rule="nonzero"/><path fill-rule="nonzero" d="M104 200h16v16h-16zm32 0h112v16H136zm-32 32h128v16H104zm0 192h16v16h-16zm32 0h160v16H136zm-32 32h192v16H104zm208-96h16v16h-16zm-32 0h16v16h-16zm-32 0h16v16h-16z"/></svg>