<svg viewBox="0 0 761 610" xmlns="http://www.w3.org/2000/svg" fill-rule="evenodd" clip-rule="evenodd" stroke-miterlimit="10"><path d="M118.835 5.228c-9.62 1.8-19.367 4.164-27.784 8.677-22.897 12.286-29.516 37.801-21.475 56.889 8.04 19.089 27.243 33.097 46.707 45.489 19.464 12.391 40.23 24.316 53.109 41.363 6.423 8.509 10.753 18.656 8.322 29.058-3.754 16.033-22.762 28.624-42.323 34.601-19.561 5.978-40.278 6.985-60.511 10.182-8.489 1.348-17.128 3.148-24.574 6.974-8.177 4.182-14.387 10.468-19.972 16.83C8.566 280.219-6.513 311.082 2.81 338.096c10.557 30.616 49.768 48.174 89.731 53.524 13.241 1.813 26.997 2.559 39.163 6.536 32.056 10.499 45.157 40.3 48.238 68.424 3.08 28.123-.656 57.747 10.584 83.859 13.147 30.363 47.305 53.003 87.944 58.266 36.209 4.69 78.144-5.155 104.396-28.403 12.794-11.348 21.352-25.129 28.391-38.991 10.472-20.488 18.115-42.103 22.738-64.302 2.132-10.349 3.862-21.357 12.169-30.017 5.064-5.317 12.268-9.231 19.497-12.626 21.788-10.231 45.626-16.872 67.752-26.569 22.126-9.698 43.511-23.534 52.714-41.939 13.012-26.097-1.429-52.837-6.978-79.044-12.706-59.778 22.064-123.207 26.616-185.124 1.485-20.229-.966-41.731-17.078-56.031-10.94-9.705-27.005-14.952-43.386-18.151-36.042-7.033-74.907-5.257-113.119-3.447-53.108 2.521-115.613 14.809-161.275-4.169-43.824-18.22-100.058-25.85-152.072-14.664z" fill="#fbc02d" fill-opacity=".2" fill-rule="nonzero"/><path d="M261.145 144.74c0-5.52-4.481-10-10-10h-89.054c-5.52 0-10 4.48-10 10v178.608c0 5.519 4.48 10 10 10h89.054c5.519 0 10-4.481 10-10V144.74z" fill="url(#_Linear1)"/><path d="M258.632 148.004c0-5.519-4.481-10-10-10h-84.029c-5.519 0-10 4.481-10 10v170.728c0 5.519 4.481 10 10 10h84.029c5.519 0 10-4.481 10-10V148.004z" fill="#fff"/><path d="M247.183 151.13l-80.541.113.217 155.211 80.541-.112-.217-155.212z" fill="#e6e6e6"/><path d="M207.128 310.999c3.544-.005 6.424 2.939 6.429 6.571.005 3.632-2.867 6.584-6.41 6.589-3.543.005-6.424-2.939-6.429-6.571-.005-3.632 2.867-6.584 6.41-6.589zm-12.424-168.355c.709-.001 1.286.587 1.287 1.313.001.726-.574 1.315-1.283 1.316-.71.001-1.287-.587-1.288-1.312-.001-.726.575-1.316 1.284-1.317zm25.688 1.279a.988.988 0 0 0-.988-.985l-17.937.025a.987.987 0 0 0 .003 1.972l17.937-.025a.986.986 0 0 0 .985-.987z" fill="#dbdbdb"/><path fill="url(#_Linear2)" d="M184.218 241.194h45.602v47.881h-45.602z"/><path fill="#fbc02d" d="M186.205 243.275h41.637v43.718h-41.637z"/><path d="M210.174 263.089v-.825h2.191v-4.229a6.77 6.77 0 0 0 1.116-3.724c0-3.714-3.056-6.77-6.77-6.77-3.714 0-6.77 3.056-6.77 6.77 0 1.198.318 2.375.921 3.41v4.543h2.418v.971c-6.067 1.673-10.302 7.232-10.305 13.526v12.313h28.111v-12.313c-.004-6.521-4.553-12.222-10.912-13.672z" fill="url(#_Linear3)" fill-rule="nonzero"/><path fill="#f55f44" d="M201.469 254.515h10.407v8.326h-10.407z"/><path d="M203.718 263.279h6.573c5.153 0 9.392 4.24 9.392 9.392v14.446h-25.357v-14.461c.008-5.146 4.245-9.377 9.392-9.377z" fill="#fdd835" fill-rule="nonzero"/><path d="M209.868 262.224a3.11 3.11 0 0 0-3.108-3.108 3.11 3.11 0 0 0-3.108 3.108v1.555a3.11 3.11 0 0 0 3.108 3.108 3.11 3.11 0 0 0 3.108-3.108v-1.555z" fill="#fda57d"/><path d="M205.573 266.653l1.161 1.694 1.22-1.694h-2.381z" fill="#fda57d" fill-rule="nonzero"/><path d="M199.102 272.773s-1.234 12.285-.438 13.081m15.702-13.081s1.235 12.285.439 13.081" fill-opacity=".1" fill-rule="nonzero"/><path d="M206.764 262.892a5.155 5.155 0 0 0 3.067-1.008 3.121 3.121 0 0 0-3.067-2.622 3.122 3.122 0 0 0-3.068 2.622 5.156 5.156 0 0 0 3.068 1.008z" fill-opacity=".05" fill-rule="nonzero"/><circle cx="206.764" cy="255.647" r="6.128" fill="#f55f44"/><circle cx="206.764" cy="257.56" r="5.178" fill="#fda57d"/><ellipse cx="201.571" cy="257.224" rx=".365" ry=".657" fill="#fda57d"/><ellipse cx="211.964" cy="257.224" rx=".365" ry=".657" fill="#fda57d"/><path fill="#fff" d="M171.875 161.222h70.288v3.053h-70.288zm0 6.105h70.288v3.053h-70.288zm0 6.113h39.73v3.053h-39.73zm0 6.113h58.062v3.053h-58.062zm0 6.113h48.896v3.053h-48.896zm0 6.113h70.288v3.053h-70.288zm3.06 9.166h61.122v24.444h-61.122z"/><path d="M606.141 353.992s10.225 70.251 70.252 93.585l-121.456.168-121.455.168c59.932-23.502 70.003-93.782 70.003-93.782l102.656-.139z" fill="#e0e0e0" fill-rule="nonzero"/><path d="M677.476 447.563l-245.204.342.021 14.841 245.203-.343-.02-14.84z" fill="url(#_Linear4)"/><path d="M676.409 447.564l-242.91.339.016 11.452 242.91-.339-.016-11.452z" fill="#f5f5f5"/><path d="M752.041 101.2l-395.04.548c-4.445.107-8.015 3.852-7.909 8.297l.307 230.479v7.676c0 17.528 13.606 31.69 30.345 31.668l350.277-.482c16.732 0 30.28-14.235 30.258-31.748v-7.669l-.307-230.479c.002-.062.002-.123.002-.185 0-4.382-3.552-8.011-7.933-8.105z" fill="url(#_Linear5)" fill-rule="nonzero"/><path d="M361.69 108.92h385.246c4.307 0 7.851 3.544 7.851 7.851v219.335H353.832V116.771c0-4.307 3.544-7.851 7.851-7.851h.007z" fill="#fff" fill-rule="nonzero"/><path d="M727.334 372.564l-344.983.475h-.036c-15.339 0-27.967-12.611-27.987-27.95v-9.494l400.956-.555v9.538c0 15.339-12.611 27.966-27.95 27.986z" fill="#f5f5f5" fill-rule="nonzero"/><path fill="#e6e6e6" d="M373.638 127.324h362.839v183.402H373.638z"/><path fill="url(#_Linear6)" d="M641.015 139.419h64.226v67.439h-64.226z"/><path fill="#fbc02d" d="M643.805 142.355h58.646v61.575h-58.646z"/><path d="M677.137 169.735l-.73-.263-.044.066h-.044v-1.987a4.464 4.464 0 0 0-.058-.73 7.604 7.604 0 0 0 2.607-3.44 8.96 8.96 0 0 0 1.866-5.474c0-4.916-4.045-8.961-8.961-8.961s-8.961 4.045-8.961 8.961a8.96 8.96 0 0 0 1.866 5.474 7.604 7.604 0 0 0 2.607 3.44 4.577 4.577 0 0 0-.058.73v2.191c-8.031 2.217-13.635 9.577-13.636 17.908v16.294h37.102v-16.316c.002-8.303-5.562-15.647-13.556-17.893z" fill="url(#_Linear7)" fill-rule="nonzero"/><path d="M671.017 169.333h2.264c9.187 0 16.747 7.56 16.747 16.747v16.798h-35.787V186.08c0-9.187 7.56-16.747 16.747-16.747h.029z" fill="#514abf" fill-rule="nonzero"/><path d="M676.166 167.876a4.38 4.38 0 0 0-4.378-4.378 4.38 4.38 0 0 0-4.379 4.378v2.191a4.38 4.38 0 0 0 4.379 4.379 4.38 4.38 0 0 0 4.378-4.379v-2.191z" fill="#fda57d"/><path d="M664.371 171.269l2.936 6.295 2.914-2.914-2.914-4.477-2.936 1.096z" fill-opacity=".05" fill-rule="nonzero"/><path d="M664.473 170.962l2.922 6.296 2.921-2.922-2.921-4.469-1.344.408c-.132.041-.261.09-.387.147l-1.191.54z" fill="#fff" fill-rule="nonzero"/><path d="M679.212 170.962l-2.944 6.602-2.921-2.914 3.002-4.71 2.863 1.022z" fill-opacity=".05" fill-rule="nonzero"/><path d="M679.109 170.655l-2.921 6.573-2.921-2.921 3.001-4.711.548.161c.595.17 1.178.377 1.746.621l.547.277z" fill="#fff" fill-rule="nonzero"/><path d="M670.104 174.11l1.636 2.381 1.724-2.381h-3.36z" fill="#fda57d" fill-rule="nonzero"/><path d="M660.99 182.735s-1.738 17.302-.614 18.426m22.115-18.426s1.738 17.302.613 18.426" fill-opacity=".1" fill-rule="nonzero"/><path d="M671.784 168.808c1.555 0 3.07-.497 4.324-1.417a4.398 4.398 0 0 0-4.324-3.689 4.398 4.398 0 0 0-4.324 3.689 7.311 7.311 0 0 0 4.324 1.417z" fill-opacity=".05" fill-rule="nonzero"/><circle cx="671.784" cy="158.605" r="8.625"/><circle cx="671.784" cy="161.307" r="7.296" fill="#fda57d"/><path d="M665.905 154.077l1.84 2.249s8.085.73 9.005-1.125c.921-1.855-5.324-3.177-5.324-3.177l-5.521 2.053z" fill-opacity=".05" fill-rule="nonzero"/><path d="M665.905 153.872l1.84 2.25s8.085.73 9.005-1.125c.921-1.855-5.324-3.177-5.324-3.177l-5.521 2.052z" fill-rule="nonzero"/><ellipse cx="664.473" cy="160.832" rx=".511" ry=".92" fill="#fda57d"/><ellipse cx="679.109" cy="160.832" rx=".511" ry=".92" fill="#fda57d"/><path fill="url(#_Linear8)" d="M641.387 220.318h64.226v67.439h-64.226z"/><path fill="#fbc02d" d="M644.177 223.247h58.646v61.575h-58.646z"/><path d="M677.934 250.992v-2.6a8.083 8.083 0 0 0 2.731-3.651 9.533 9.533 0 0 0 1.983-5.82 9.547 9.547 0 0 0-5.963-8.838c.052-.234.079-.473.079-.713a3.258 3.258 0 0 0-3.243-3.242 3.257 3.257 0 0 0-3.212 3.685 9.552 9.552 0 0 0-6.728 9.109 9.53 9.53 0 0 0 1.988 5.826 8.084 8.084 0 0 0 2.731 3.652v2.731c-8.378 1.607-14.497 8.997-14.511 17.528v19.215H693.3v-19.186c-.003-8.861-6.593-16.45-15.366-17.696z" fill="url(#_Linear9)" fill-rule="nonzero"/><path d="M672.368 251.401h2.264c9.187 0 16.747 7.56 16.747 16.747v16.798h-35.786v-16.798c0-9.187 7.559-16.747 16.746-16.747h.029z" fill="#fff" fill-rule="nonzero"/><path d="M677.51 249.944a4.38 4.38 0 0 0-4.378-4.378 4.38 4.38 0 0 0-4.379 4.378v2.191a4.38 4.38 0 0 0 4.379 4.379 4.38 4.38 0 0 0 4.378-4.379v-2.191z" fill="#fdb797"/><path d="M671.455 256.178l1.636 2.381 1.717-2.381h-3.353z" fill="#fdb797" fill-rule="nonzero"/><path d="M662.341 264.796s-1.738 17.301-.614 18.426m22.115-18.426s1.738 17.301.613 18.426" fill-opacity=".1" fill-rule="nonzero"/><path d="M673.164 250.876a7.31 7.31 0 0 0 4.324-1.417 4.398 4.398 0 0 0-4.324-3.689 4.398 4.398 0 0 0-4.382 3.689 7.313 7.313 0 0 0 4.382 1.417z" fill-opacity=".05" fill-rule="nonzero"/><circle cx="673.135" cy="240.673" r="8.625" fill="#fdd835"/><circle cx="673.135" cy="243.375" r="7.296" fill="#fdb797"/><ellipse cx="665.817" cy="242.9" rx=".511" ry=".92" fill="#fdb797"/><ellipse cx="680.461" cy="242.9" rx=".511" ry=".92" fill="#fdb797"/><circle cx="673.5" cy="232.047" r="2.929" fill="#fdd835"/><path d="M667.636 234.976s2.921 5.843 11.729 2.921l-2.921-2.921h-8.808z" fill="#fdd835" fill-rule="nonzero"/><path fill="#fff" d="M402.772 150.337h161.39v7.019h-161.39zm0 14.03h161.39v7.019h-161.39zm0 14.037h91.219v7.019h-91.219zm0 14.03h133.323v7.019H402.772zm0 14.037h112.267v7.019H402.772zm0 14.03h161.39v7.019h-161.39zm7.018 21.055h140.334v56.134H409.79z"/><path d="M192.266 436.099h-77.189V58.709H571.18v31.45" fill="none" stroke="#3ad29f" stroke-width="4.16" stroke-dasharray="8.32,8.32"/><circle cx="117.421" cy="56.644" r="26.511" fill="url(#_Linear10)"/><circle cx="117.421" cy="56.644" r="24.948" fill="#69f0ae"/><path d="M108.066 55.081l9.355 8.574 13.249-19.493 4.681 3.9-17.93 23.393-13.255-14.811 3.9-1.563z" fill="#fff" fill-rule="nonzero"/><path d="M413.349 249.778c-.014-9.476-7.718-17.159-17.194-17.146l-168.08.235c-9.477.013-17.16 7.718-17.146 17.194l.39 279.442c.013 9.476 7.717 17.159 17.194 17.146l168.08-.235c9.476-.013 17.159-7.717 17.146-17.194l-.39-279.442z" fill="url(#_Linear11)"/><path d="M399.913 256.597l-174.806.244.367 263.177 174.806-.244-.367-263.177z" fill="url(#_Linear12)"/><path d="M407.192 250.037c-.01-6.998-5.699-12.672-12.697-12.662l-164.747.23c-6.998.009-12.672 5.699-12.662 12.697l.382 273.969c.01 6.998 5.7 12.672 12.698 12.662l164.747-.23c6.998-.01 12.672-5.699 12.662-12.698l-.383-273.968z" fill="#fff"/><path d="M394.579 260.249l-164.172.229.35 251.06 164.173-.229-.351-251.06z" fill="#e6e6e6"/><ellipse cx="312.487" cy="524.345" rx="6.763" ry="6.931" fill="#dbdbdb"/><path d="M284.068 247.235c1.246-.002 2.258 1.031 2.26 2.305.002 1.274-1.008 2.309-2.254 2.311-1.245.002-2.258-1.031-2.26-2.305-.001-1.274 1.008-2.309 2.254-2.311zm40.594 1.624c0-.42-.341-.76-.761-.759l-27.795.039c-.42 0-.76.341-.759.761l.001.787c0 .42.341.76.761.759l27.796-.038a.762.762 0 0 0 .759-.761l-.002-.788z" fill="#dbdbdb"/><path fill="url(#_Linear13)" d="M311.677 415.043h64.226v67.439h-64.226z"/><path fill="#fbc02d" d="M314.466 417.979h58.646v61.575h-58.646z"/><path d="M348.778 445.367l-.731-.263-.043.065h-.044v-1.986c0-.245-.02-.489-.059-.73a7.613 7.613 0 0 0 2.608-3.44 8.968 8.968 0 0 0 1.866-5.474c0-4.916-4.046-8.961-8.962-8.961-4.916 0-8.961 4.045-8.961 8.961 0 1.98.657 3.906 1.866 5.474a7.611 7.611 0 0 0 2.607 3.44 4.687 4.687 0 0 0-.058.73v2.191c-8.03 2.217-13.634 9.577-13.635 17.908v16.294h37.137v-16.323c-.005-8.311-5.586-15.655-13.591-17.886z" fill="url(#_Linear14)" fill-rule="nonzero"/><path d="M342.658 444.958h2.264c9.186 0 16.746 7.559 16.746 16.746v16.798h-35.786v-16.798c0-9.187 7.559-16.746 16.746-16.746h.03z" fill="#3ad29f" fill-rule="nonzero"/><path d="M347.806 443.501a4.38 4.38 0 0 0-4.378-4.379 4.38 4.38 0 0 0-4.378 4.379v2.191a4.38 4.38 0 0 0 4.378 4.378 4.38 4.38 0 0 0 4.378-4.378v-2.191z" fill="#be7c5e"/><path d="M341.745 449.734l1.636 2.381 1.723-2.381h-3.359z" fill="#be7c5e" fill-rule="nonzero"/><path d="M332.63 458.359s-1.738 17.302-.614 18.427m22.115-18.427s1.738 17.302.614 18.427" fill-opacity=".1" fill-rule="nonzero"/><path d="M343.424 444.403a7.31 7.31 0 0 0 4.324-1.417 4.396 4.396 0 0 0-4.324-3.688 4.395 4.395 0 0 0-4.323 3.688 7.306 7.306 0 0 0 4.323 1.417z" fill-opacity=".05" fill-rule="nonzero"/><circle cx="343.424" cy="434.229" r="8.625" fill="#444"/><circle cx="343.424" cy="436.931" r="7.296" fill="#be7c5e"/><path d="M337.545 429.701l1.841 2.249s8.084.731 9.005-1.124c.92-1.855-5.325-3.177-5.325-3.177l-5.521 2.052z" fill-opacity=".05" fill-rule="nonzero"/><path d="M337.545 429.496l1.841 2.25s8.084.73 9.005-1.125c.92-1.855-5.325-3.177-5.325-3.177l-5.521 2.052z" fill="#444" fill-rule="nonzero"/><ellipse cx="336.114" cy="436.457" rx=".511" ry=".92" fill="#be7c5e"/><ellipse cx="350.75" cy="436.457" rx=".511" ry=".92" fill="#be7c5e"/><path d="M337.72 426.21a4.388 4.388 0 0 1 2.25-1.512c1.614-.643 3.294-1.3 5.025-1.183a.842.842 0 0 1 .474.139c.116.123.212.263.285.416.526.781 2.001.73 2.191 1.651.051.299-.073.62 0 .913.19.73 1.22.657 1.826 1.073.667.602.732 1.642.146 2.323a4.38 4.38 0 0 1-2.235 1.27 8.61 8.61 0 0 1-4.71.417c-2.213-.577-7.391-2.009-5.252-5.507z" fill="#444" fill-rule="nonzero"/><path fill="url(#_Linear15)" d="M245.946 414.313h64.226v67.439h-64.226z"/><path fill="#fbc02d" d="M248.736 417.249h58.646v61.575h-58.646z"/><path d="M283.047 444.636l-.73-.263-.044.066h-.044v-1.986a4.59 4.59 0 0 0-.058-.731 7.594 7.594 0 0 0 2.607-3.44 8.959 8.959 0 0 0 1.866-5.473c0-4.916-4.045-8.962-8.961-8.962s-8.961 4.046-8.961 8.962c0 1.98.656 3.905 1.866 5.473a7.594 7.594 0 0 0 2.607 3.44 4.59 4.59 0 0 0-.058.731v2.191c-8.031 2.217-13.635 9.577-13.636 17.908v16.293h37.138v-16.323c-.005-8.31-5.586-15.654-13.592-17.886z" fill="url(#_Linear16)" fill-rule="nonzero"/><path d="M276.927 444.227h2.264c9.187 0 16.747 7.56 16.747 16.747v16.798h-35.787v-16.798c0-9.187 7.56-16.747 16.747-16.747h.029z" fill="#514abf" fill-rule="nonzero"/><path d="M282.076 442.77a4.38 4.38 0 0 0-4.378-4.378 4.38 4.38 0 0 0-4.379 4.378v2.191a4.38 4.38 0 0 0 4.379 4.379 4.38 4.38 0 0 0 4.378-4.379v-2.191z" fill="#fda57d"/><path d="M266.9 457.629s-1.739 17.302-.614 18.426m22.115-18.426s1.738 17.302.613 18.426" fill-opacity=".1" fill-rule="nonzero"/><path d="M277.694 443.672c1.555 0 3.07-.496 4.324-1.417a4.398 4.398 0 0 0-4.324-3.688 4.398 4.398 0 0 0-4.324 3.688 7.305 7.305 0 0 0 4.324 1.417z" fill-opacity=".05" fill-rule="nonzero"/><circle cx="277.694" cy="433.499" r="8.625" fill="#444"/><circle cx="277.694" cy="436.201" r="7.296" fill="#fda57d"/><path d="M271.815 428.971l1.84 2.249s8.085.73 9.005-1.125c.921-1.855-5.324-3.177-5.324-3.177l-5.521 2.053z" fill-opacity=".05" fill-rule="nonzero"/><path d="M271.815 428.766l1.84 2.25s8.085.73 9.005-1.125c.921-1.855-5.324-3.177-5.324-3.177l-5.521 2.052z" fill="#444" fill-rule="nonzero"/><ellipse cx="270.383" cy="435.726" rx=".511" ry=".92" fill="#fda57d"/><ellipse cx="285.019" cy="435.726" rx=".511" ry=".92" fill="#fda57d"/><path fill="#fff" d="M248.4 292.368h119.286v5.185H248.4zm0 10.371h119.286v5.185H248.4zm0 10.371h67.425v5.185H248.4zm0 10.378h98.544v5.185H248.4zm0 10.371h82.981v5.185H248.4zm0 10.371h119.286v5.185H248.4zm5.186 15.563h103.73v41.49h-103.73z"/><path d="M272.625 433.448c.368-.652.674-1.336.913-2.045a5.025 5.025 0 0 1 4.556-2.915c1.813 0 3.49.983 4.376 2.564.599 1.074.796 2.344 1.461 3.382a.854.854 0 0 0 1.234-.227c.234-.427.263-.937.081-1.388-.154-.452-.409-.869-.577-1.314a10.468 10.468 0 0 0-.731-2.104 4.332 4.332 0 0 0-1.46-1.219c-1.614-.993-3.484-2.023-5.31-1.461a6.836 6.836 0 0 0-1.731.884l-2.322 1.461a7.275 7.275 0 0 0-1.972 1.614c-.504.657-1.461 2.622-1.015 3.469.526.964 2.037-.095 2.497-.701z" fill="#444" fill-rule="nonzero"/><path d="M275.861 448.785v29.016h4.287l-.635-29.016h-3.652z" fill="#fff" fill-rule="nonzero"/><path d="M275.145 448.39l2.483 3.615 2.615-3.615h-5.098z" fill="#fda57d" fill-rule="nonzero"/><defs><linearGradient id="_Linear1" x1="0" y1="0" x2="1" y2="0" gradientUnits="userSpaceOnUse" gradientTransform="rotate(-90 270.623 63.998) scale(199.243)"><stop offset="0" stop-color="gray" stop-opacity=".247"/><stop offset=".54" stop-color="gray" stop-opacity=".118"/><stop offset="1" stop-color="gray" stop-opacity=".098"/></linearGradient><linearGradient id="_Linear2" x1="0" y1="0" x2="1" y2="0" gradientUnits="userSpaceOnUse" gradientTransform="rotate(-90 248.047 41.027) scale(47.8809)"><stop offset="0" stop-color="gray" stop-opacity=".247"/><stop offset=".54" stop-color="gray" stop-opacity=".118"/><stop offset="1" stop-color="gray" stop-opacity=".098"/></linearGradient><linearGradient id="_Linear3" x1="0" y1="0" x2="1" y2="0" gradientUnits="userSpaceOnUse" gradientTransform="rotate(-90 248.05 41.023) scale(41.5343)"><stop offset="0" stop-color="gray" stop-opacity=".124"/><stop offset=".54" stop-color="gray" stop-opacity=".059"/><stop offset="1" stop-color="gray" stop-opacity=".049"/></linearGradient><linearGradient id="_Linear4" x1="0" y1="0" x2="1" y2="0" gradientUnits="userSpaceOnUse" gradientTransform="rotate(-90.08 508.418 -45.786) scale(14.84771)"><stop offset="0" stop-color="gray" stop-opacity=".247"/><stop offset=".54" stop-color="gray" stop-opacity=".118"/><stop offset="1" stop-color="gray" stop-opacity=".098"/></linearGradient><linearGradient id="_Linear5" x1="0" y1="0" x2="1" y2="0" gradientUnits="userSpaceOnUse" gradientTransform="rotate(-90 468.169 -86.119) scale(279.234)"><stop offset="0" stop-color="gray" stop-opacity=".247"/><stop offset=".54" stop-color="gray" stop-opacity=".118"/><stop offset="1" stop-color="gray" stop-opacity=".098"/></linearGradient><linearGradient id="_Linear6" x1="0" y1="0" x2="1" y2="0" gradientUnits="userSpaceOnUse" gradientTransform="rotate(-90 439.993 -233.135) scale(67.4394)"><stop offset="0" stop-color="gray" stop-opacity=".247"/><stop offset=".54" stop-color="gray" stop-opacity=".118"/><stop offset="1" stop-color="gray" stop-opacity=".098"/></linearGradient><linearGradient id="_Linear7" x1="0" y1="0" x2="1" y2="0" gradientUnits="userSpaceOnUse" gradientTransform="translate(653.584 176.44) scale(37.1377)"><stop offset="0" stop-color="gray" stop-opacity=".124"/><stop offset=".54" stop-color="gray" stop-opacity=".059"/><stop offset="1" stop-color="gray" stop-opacity=".049"/></linearGradient><linearGradient id="_Linear8" x1="0" y1="0" x2="1" y2="0" gradientUnits="userSpaceOnUse" gradientTransform="matrix(0 -67.4394 67.4394 0 673.5 287.758)"><stop offset="0" stop-color="gray" stop-opacity=".247"/><stop offset=".54" stop-color="gray" stop-opacity=".118"/><stop offset="1" stop-color="gray" stop-opacity=".098"/></linearGradient><linearGradient id="_Linear9" x1="0" y1="0" x2="1" y2="0" gradientUnits="userSpaceOnUse" gradientTransform="matrix(0 -61.7208 61.7208 0 673.5 287.904)"><stop offset="0" stop-color="gray" stop-opacity=".124"/><stop offset=".54" stop-color="gray" stop-opacity=".059"/><stop offset="1" stop-color="gray" stop-opacity=".049"/></linearGradient><linearGradient id="_Linear10" x1="0" y1="0" x2="1" y2="0" gradientUnits="userSpaceOnUse" gradientTransform="rotate(-90 100.284 -17.137) scale(53.0152)"><stop offset="0" stop-color="gray" stop-opacity=".124"/><stop offset=".54" stop-color="gray" stop-opacity=".059"/><stop offset="1" stop-color="gray" stop-opacity=".049"/></linearGradient><linearGradient id="_Linear11" x1="0" y1="0" x2="1" y2="0" gradientUnits="userSpaceOnUse" gradientTransform="rotate(-90.08 430.613 118.67) scale(315.2153)"><stop offset="0" stop-color="gray" stop-opacity=".247"/><stop offset=".54" stop-color="gray" stop-opacity=".118"/><stop offset="1" stop-color="gray" stop-opacity=".098"/></linearGradient><linearGradient id="_Linear12" x1="0" y1="0" x2="1" y2="0" gradientUnits="userSpaceOnUse" gradientTransform="rotate(-90.08 417.365 105.056) scale(264.38826)"><stop offset="0" stop-opacity=".086"/><stop offset=".55" stop-opacity=".067"/><stop offset="1" stop-opacity=".02"/></linearGradient><linearGradient id="_Linear13" x1="0" y1="0" x2="1" y2="0" gradientUnits="userSpaceOnUse" gradientTransform="rotate(-90 413.136 69.346) scale(67.4394)"><stop offset="0" stop-color="gray" stop-opacity=".247"/><stop offset=".54" stop-color="gray" stop-opacity=".118"/><stop offset="1" stop-color="gray" stop-opacity=".098"/></linearGradient><linearGradient id="_Linear14" x1="0" y1="0" x2="1" y2="0" gradientUnits="userSpaceOnUse" gradientTransform="translate(325.224 452.064) scale(37.1377)"><stop offset="0" stop-color="gray" stop-opacity=".124"/><stop offset=".54" stop-color="gray" stop-opacity=".059"/><stop offset="1" stop-color="gray" stop-opacity=".049"/></linearGradient><linearGradient id="_Linear15" x1="0" y1="0" x2="1" y2="0" gradientUnits="userSpaceOnUse" gradientTransform="rotate(-90 379.906 101.846) scale(67.4394)"><stop offset="0" stop-color="gray" stop-opacity=".247"/><stop offset=".54" stop-color="gray" stop-opacity=".118"/><stop offset="1" stop-color="gray" stop-opacity=".098"/></linearGradient><linearGradient id="_Linear16" x1="0" y1="0" x2="1" y2="0" gradientUnits="userSpaceOnUse" gradientTransform="translate(259.494 451.334) scale(37.1377)"><stop offset="0" stop-color="gray" stop-opacity=".124"/><stop offset=".54" stop-color="gray" stop-opacity=".059"/><stop offset="1" stop-color="gray" stop-opacity=".049"/></linearGradient></defs></svg>