<svg viewBox="0 0 496 496" xmlns="http://www.w3.org/2000/svg" fill-rule="evenodd" clip-rule="evenodd" stroke-linejoin="round" stroke-miterlimit="1.414"><path d="M456 400H328c-4.416 0-8-3.584-8-8V248c0-4.416 3.584-8 8-8h128c4.416 0 8 3.584 8 8v144c0 4.416-3.584 8-8 8zM296 184c0-8.84 7.16-16 16-16h24V40c0-4.416-3.584-8-8-8H40c-4.416 0-8 3.584-8 8v160c0 4.416 3.584 8 8 8h256v-24z" fill="#fbc02d" fill-rule="nonzero"/><path d="M472 160H368V24c0-13.232-10.768-24-24-24H24C10.768 0 0 10.768 0 24v240c0 13.232 10.768 24 24 24h96v32h-16v16h160v-16h-16v-32h40v184c0 13.232 10.768 24 24 24h160c13.232 0 24-10.768 24-24V184c0-13.232-10.768-24-24-24zm8 24v24H304v-24c0-4.408 3.592-8 8-8h160c4.408 0 8 3.592 8 8zm-176 40h176v192H304V224zm-72 96h-96v-32h96v32zM24 272c-4.408 0-8-3.592-8-8v-24h240v-16H16V24c0-4.408 3.592-8 8-8h320c4.408 0 8 3.592 8 8v136h-40c-13.232 0-24 10.768-24 24v40h-16v16h16v32H24zm448 208H312c-4.408 0-8-3.592-8-8v-40h176v40c0 4.408-3.592 8-8 8z" fill-rule="nonzero"/><path d="M368 448h48v16h-48z"/><path d="M298.344 90.344l11.312 11.312L339.312 72l-29.656-29.656-11.312 11.312L308.688 64H168v16h140.688l-10.344 10.344zM69.656 133.656l-11.312-11.312L28.688 152l29.656 29.656 11.312-11.312L59.312 160H200v-16H59.312l10.344-10.344z" fill-rule="nonzero"/><path d="M448 240h16v128h-16zM136 64h16v16h-16zm80 80h16v16h-16zm232 240h16v16h-16z"/></svg>