<svg viewBox="0 0 719 751" xmlns="http://www.w3.org/2000/svg" fill-rule="evenodd" clip-rule="evenodd" stroke-miterlimit="10"><path d="M659.971 484.137c-32.84 41.15-35.131 107.237-28.963 161.204 2.068 18.067 4.639 37.238-1.002 55.594-6.893 22.441-24.346 37.229-41.085 44.092-30.515 12.505-62.79 4.387-84.025-21.207-18.324-22.089-28.293-55.421-47.178-76.692-31.608-35.589-81.148-30.18-125.474-14.29-31.358 11.24-66.215 26.627-91.778 7.263-17.989-13.626-26.899-42.233-29.223-71.627-1.123-14.192-1.042-29.382-5.996-41.163-2.946-7.003-7.492-12.294-12.307-16.884-43.937-41.912-111.087-31.309-152.871-76.879C11.861 402.774-.171 350.094.002 296.825c.173-53.269 11.273-107.702 23.483-160.99C32.162 97.966 42.652 57.7 65.271 30.544 89.192 1.835 122.585-5.637 149.765 3.956c27.179 9.594 48.945 33.983 66.922 61.779 22.498 34.686 41.53 76.714 73.805 93.796 21.985 11.632 47.616 10.187 72.207 11.735 41.106 2.596 80.627 13.92 119.801 25.811 37.501 11.381 75.171 23.396 108.743 45.978 23.757 15.981 40.465 41.539 62.154 60.698 14.136 12.488 31.105 17.643 43.839 32.864 15.719 18.756 27.674 49.364 16.788 81.937-10.316 30.969-36.609 43.746-54.053 65.583z" fill="#fbc02d" fill-opacity=".1" fill-rule="nonzero"/><path d="M457.905 136.39L62.98 200.316l78.661 485.95 394.924-63.926-78.66-485.95z" fill="url(#_Linear1)"/><path d="M453.17 142.717L69.305 204.853l76.391 471.931 383.865-62.136-76.391-471.931z" fill="#f5f5f5"/><path d="M453.105 142.315L69.24 204.451l9.482 58.579 383.865-62.136-9.482-58.579z" fill="#fbc02d"/><path d="M111.435 204.395l-30.956 5.011 1.202 7.426 30.956-5.011-1.202-7.426zm2.27 14.027l-30.956 5.011 1.202 7.425 30.956-5.011-1.202-7.425zm2.271 14.026l-30.956 5.011 1.202 7.426 30.956-5.011-1.202-7.426z" fill="#fff"/><path d="M484.79 207.061L61.196 275.628l25.408 156.966 423.594-68.567-25.408-156.966z" fill="url(#_Linear2)"/><path d="M480.466 213.248L65.645 280.394l23.708 146.459 414.821-67.146-23.708-146.459z" fill="#fff"/><path d="M267.748 303.771l-104.365 16.894 1.202 7.425 104.365-16.893-1.202-7.426z" fill="#bdbdbd"/><path d="M272.557 333.48l-104.365 16.893 1.202 7.426 104.365-16.894-1.202-7.425z" fill="#69f0ae"/><path d="M467.392 286.695l-301.605 48.82 1.202 7.426 301.605-48.821-1.202-7.425z" fill="#e0e0e0"/><path d="M118.915 329.128c10.25-1.659 19.828 4.759 21.376 14.324 1.549 9.566-5.515 18.678-15.765 20.337-10.249 1.659-19.828-4.759-21.376-14.325-1.548-9.565 5.516-18.677 15.765-20.336z" fill="#69f0ae"/><path d="M572.348 64.664l-386.151 62.507 82.179 507.689 386.152-62.506-82.18-507.69z" fill="url(#_Linear3)"/><path d="M572.715 64.112l-387.04 62.65 31.322 193.506 387.041-62.65-31.323-193.506z" fill="url(#_Linear4)"/><path d="M568.046 69.392l-376.268 60.906 80.267 495.877 376.268-60.906-80.267-495.877z" fill="#fff"/><path d="M568.4 68.856l-377.135 61.047L221.858 318.9l377.135-61.046L568.4 68.856z" fill="#fbc02d"/><path d="M412.119 342.825l-102.3 16.56 1.263 7.805 102.301-16.559-1.264-7.806z" fill="#bdbdbd"/><path d="M417.171 374.032l-102.301 16.56 1.264 7.805 102.3-16.559-1.263-7.806z" fill="#f5f5f5"/><path d="M579.374 331.764l-267.029 43.224 1.263 7.806 267.029-43.224-1.263-7.806z" fill="#69f0ae"/><path d="M452.824 160.072l-102.301 16.559 1.264 7.806 102.3-16.56-1.263-7.805zm65.235 7.24l-164.728 26.665 1.263 7.805 164.729-26.665-1.264-7.805z" fill="#fff"/><path d="M491.188 199.236a4.395 4.395 0 0 0-5.038-3.634l-93.628 15.155a4.396 4.396 0 0 0-3.635 5.039 4.395 4.395 0 0 0 5.038 3.634l93.628-15.155a4.396 4.396 0 0 0 3.635-5.039z" fill-opacity=".2"/><path d="M264.56 357.37c10.048-1.627 19.526 5.21 21.152 15.258 1.626 10.048-5.211 19.526-15.258 21.152-10.048 1.627-19.526-5.21-21.153-15.258-1.626-10.048 5.211-19.526 15.259-21.152z" fill="#69f0ae"/><path d="M424.328 418.248l-102.3 16.559 1.263 7.806 102.301-16.56-1.264-7.805z" fill="#bdbdbd"/><path d="M429.381 449.462l-102.301 16.56 1.264 7.805 102.3-16.559-1.263-7.806z" fill="#f5f5f5"/><path d="M591.582 407.187l-267.029 43.224 1.264 7.805 267.029-43.224-1.264-7.805zm-314.814 25.605c10.048-1.626 19.526 5.211 21.153 15.259 1.626 10.047-5.211 19.525-15.259 21.152-10.048 1.626-19.525-5.211-21.152-15.259-1.626-10.047 5.211-19.525 15.258-21.152z" fill="#e0e0e0"/><path d="M436.538 493.678l-102.301 16.559 1.264 7.806 102.3-16.56-1.263-7.805z" fill="#bdbdbd"/><path d="M441.589 524.885l-102.3 16.559 1.263 7.805 102.301-16.559-1.264-7.805z" fill="#f5f5f5"/><path d="M603.792 482.617l-267.029 43.224 1.264 7.805 267.029-43.224-1.264-7.805zm-314.814 25.605c10.048-1.626 19.526 5.211 21.152 15.259 1.627 10.047-5.21 19.525-15.258 21.152-10.048 1.626-19.526-5.211-21.152-15.259-1.627-10.047 5.21-19.525 15.258-21.152z" fill="#e0e0e0"/><path d="M223.221 218.31c4.762 27.225 30.903 45.831 58.186 41.415 27.524-4.455 46.506-30.77 42.051-58.293-3.448-21.301-20.102-38.189-41.353-41.933l2.246 12.876c1.591 9.3-4.718 18.272-14.009 19.92-9.301 1.591-18.272-4.718-19.92-14.009l-2.246-12.876c-18.592 10.586-28.609 31.82-24.955 52.9z" fill="url(#_Linear5)" fill-rule="nonzero"/><path d="M322.781 196.774c-4.481-27.498-30.781-46.448-58.284-41.996-27.523 4.455-46.506 30.769-42.051 58.293 3.415 21.093 19.782 37.88 40.782 41.828l-2.089-12.901c-1.508-9.344 4.93-18.277 14.271-19.801 9.321-1.48 18.218 4.938 19.753 14.249l2.089 12.902c18.686-10.377 28.93-31.472 25.529-52.574z" fill="#fbc02d" fill-rule="nonzero"/><path d="M268.369 178.698c10.649-1.724 20.694 5.523 22.418 16.172 1.724 10.649-5.522 20.694-16.171 22.418-10.65 1.723-20.695-5.523-22.418-16.172-1.724-10.649 5.522-20.694 16.171-22.418z" fill="#fff" stroke="#fff" stroke-width=".73"/><path d="M275.41 222.197c-9.311 1.536-15.73 10.433-14.249 19.753l2.088 12.902a51.06 51.06 0 0 0 33.995-5.503l-2.088-12.901c-1.535-9.31-10.427-15.727-19.746-14.251zm-23.55-22.122a18.965 18.965 0 0 1-3.615-9.381 13.155 13.155 0 0 1 2.876-9.498c2.422-2.849 6.097-4.319 9.733-5.209 3.637-.89 7.393-1.314 10.904-2.618a23.386 23.386 0 0 0 13.119-12.377c.693 2.83 1.394 5.659 1.296 8.506-.098 2.848-1.084 5.847-3.265 7.729 2.712-1.829 2.903 1.399 2.581 3.407 1.718 1.524 5.348 1.231 5.857 3.465.666 2.213.793 4.554.369 6.825-.55 2.237 1.001 5.774-1.239 6.298" fill="#fff" fill-rule="nonzero" stroke="#fff" stroke-width=".73"/><path d="M283.851 176.604s13.658-1.005 7.303 20.531" fill="#fff" fill-rule="nonzero"/><defs><linearGradient id="_Linear1" x1="0" y1="0" x2="1" y2="0" gradientUnits="userSpaceOnUse" gradientTransform="rotate(-99.195 448.005 182.838) scale(492.2752)"><stop offset="0" stop-color="gray" stop-opacity=".247"/><stop offset=".54" stop-color="gray" stop-opacity=".118"/><stop offset="1" stop-color="gray" stop-opacity=".098"/></linearGradient><linearGradient id="_Linear2" x1="0" y1="0" x2="1" y2="0" gradientUnits="userSpaceOnUse" gradientTransform="rotate(-99.195 318.711 72.164) scale(159.009)"><stop offset="0" stop-color="gray" stop-opacity=".247"/><stop offset=".54" stop-color="gray" stop-opacity=".118"/><stop offset="1" stop-color="gray" stop-opacity=".098"/></linearGradient><linearGradient id="_Linear3" x1="0" y1="0" x2="1" y2="0" gradientUnits="userSpaceOnUse" gradientTransform="rotate(-99.195 487.642 105.058) scale(514.2971)"><stop offset="0" stop-color="gray" stop-opacity=".247"/><stop offset=".54" stop-color="gray" stop-opacity=".118"/><stop offset="1" stop-color="gray" stop-opacity=".098"/></linearGradient><linearGradient id="_Linear4" x1="0" y1="0" x2="1" y2="0" gradientUnits="userSpaceOnUse" gradientTransform="rotate(-99.195 328.225 -30.234) scale(196.0247)"><stop offset="0" stop-color="#b3b3b3" stop-opacity=".247"/><stop offset=".54" stop-color="#b3b3b3" stop-opacity=".098"/><stop offset="1" stop-color="#b3b3b3" stop-opacity=".047"/></linearGradient><linearGradient id="_Linear5" x1="0" y1="0" x2="1" y2="0" gradientUnits="userSpaceOnUse" gradientTransform="rotate(-102.162 246.408 14.126) scale(99.4036)"><stop offset="0" stop-opacity=".118"/><stop offset=".55" stop-opacity=".086"/><stop offset="1" stop-opacity=".02"/></linearGradient></defs></svg>