<svg xmlns="http://www.w3.org/2000/svg" viewBox="0 0 510 510" width="512" height="512"><path d="M60 472.5a29.83 29.83 0 0 0-21.634-28.681l-9.231-2.638A29.83 29.83 0 0 1 7.5 412.5v-45.171c0-16.474 13.355-29.829 29.829-29.829h45.342c16.474 0 29.829 13.355 29.829 29.829V412.5a29.83 29.83 0 0 1-21.634 28.681l-9.231 2.638A29.83 29.83 0 0 0 60 472.5z" data-original="#B9ECFF" data-old_color="#F8BA1E" fill="#f9c54a"/><path d="M96.14 439.094a29.757 29.757 0 0 0 6.47-4.437 29.663 29.663 0 0 0-6.47 4.437zM352.5 390a29.83 29.83 0 0 0-21.634-28.681l-9.231-2.638A29.83 29.83 0 0 1 300 330v-45.171C300 268.355 313.355 255 329.829 255h45.342C391.645 255 405 268.355 405 284.829V330a29.83 29.83 0 0 1-21.634 28.681l-9.231 2.638A29.83 29.83 0 0 0 352.5 390z" data-original="#7FDDFF" data-old_color="#FAB507" fill="#f6b624"/><path d="M388.64 356.594a29.757 29.757 0 0 0 6.47-4.437 29.663 29.663 0 0 0-6.47 4.437z" data-original="#7FDDFF" data-old_color="#FAB507" fill="#f6b624"/><path d="M180 232.5a29.83 29.83 0 0 0-21.634-28.681l-9.231-2.638a29.828 29.828 0 0 1-21.634-28.681v-45.171c0-16.474 13.355-29.829 29.829-29.829h45.342c16.474 0 29.829 13.355 29.829 29.829V172.5a29.83 29.83 0 0 1-21.634 28.681l-9.231 2.638C188.829 207.478 180 219.182 180 232.5z" data-original="#44C9F7" class="active-path" data-old_color="#FAB507" fill="#ebaa04"/><path d="M216.14 199.094a29.757 29.757 0 0 0 6.47-4.437 29.663 29.663 0 0 0-6.47 4.437z" data-original="#7FDDFF" data-old_color="#FAB507" fill="#f6b624"/><path d="M450 150a29.83 29.83 0 0 0-21.634-28.681l-9.231-2.638A29.83 29.83 0 0 1 397.5 90V44.829C397.5 28.355 410.855 15 427.329 15h45.342c16.474 0 29.829 13.355 29.829 29.829V90a29.83 29.83 0 0 1-21.634 28.681l-9.231 2.638A29.83 29.83 0 0 0 450 150z" data-original="#1FB5F3" data-old_color="#D69C0C" fill="#d49d13"/><path d="M486.14 116.594a29.757 29.757 0 0 0 6.47-4.437 29.663 29.663 0 0 0-6.47 4.437z" data-original="#7FDDFF" data-old_color="#FAB507" fill="#f6b624"/><path data-original="#000000" d="M52.5 487.5h15v15h-15zm15-15h-15c0-9.917-6.66-18.746-16.195-21.47l-9.231-2.638C11.133 443.838 0 429.079 0 412.5v-45.171C0 346.746 16.746 330 37.329 330h45.342C103.254 330 120 346.746 120 367.329V412.5c0 16.579-11.133 31.338-27.074 35.893l-9.231 2.638C74.16 453.754 67.5 462.583 67.5 472.5zM37.329 345C25.017 345 15 355.017 15 367.329V412.5c0 9.917 6.66 18.746 16.195 21.47l9.231 2.638c8.003 2.287 14.794 7.146 19.574 13.516 4.779-6.371 11.57-11.229 19.574-13.516l9.231-2.638C98.34 431.246 105 422.417 105 412.5v-45.171C105 355.017 94.983 345 82.671 345H37.329z"/><path data-original="#FFFFFF" fill="#fff" d="M52.5 386.25h15v15h-15z"/><path data-original="#000000" d="M345 405h15v15h-15zm15-15h-15c0-9.917-6.66-18.746-16.195-21.47l-9.231-2.638C303.633 361.338 292.5 346.579 292.5 330v-45.171c0-20.583 16.746-37.329 37.329-37.329h45.342c20.583 0 37.329 16.746 37.329 37.329V330c0 16.579-11.133 31.338-27.074 35.893l-9.231 2.638C366.66 371.254 360 380.083 360 390zm-30.171-127.5c-12.313 0-22.329 10.017-22.329 22.329V330c0 9.917 6.66 18.746 16.195 21.47l9.231 2.638c8.003 2.287 14.794 7.146 19.574 13.516 4.779-6.371 11.57-11.229 19.574-13.516l9.231-2.638c9.535-2.724 16.195-11.553 16.195-21.47v-45.171c0-12.313-10.017-22.329-22.329-22.329h-45.342z"/><path data-original="#FFFFFF" fill="#fff" d="M345 303.75h15v15h-15z"/><path data-original="#000000" d="M172.5 247.5h15v15h-15zm15-15h-15c0-9.917-6.66-18.746-16.195-21.47l-9.231-2.638C131.133 203.838 120 189.079 120 172.5v-45.171C120 106.746 136.746 90 157.329 90h45.342C223.254 90 240 106.746 240 127.329V172.5c0 16.579-11.133 31.338-27.074 35.893l-9.231 2.638c-9.535 2.723-16.195 11.552-16.195 21.469zM157.329 105C145.017 105 135 115.017 135 127.329V172.5c0 9.917 6.66 18.746 16.195 21.47l9.231 2.638c8.003 2.287 14.794 7.146 19.574 13.516 4.779-6.371 11.57-11.229 19.574-13.516l9.231-2.638C218.34 191.246 225 182.417 225 172.5v-45.171C225 115.017 214.983 105 202.671 105h-45.342z"/><path data-original="#FFFFFF" fill="#fff" d="M172.5 146.25h15v15h-15z"/><path data-original="#000000" d="M442.5 165h15v15h-15zm15-15h-15c0-9.917-6.66-18.746-16.195-21.47l-9.231-2.638C401.133 121.338 390 106.579 390 90V44.829C390 24.246 406.746 7.5 427.329 7.5h45.342C493.254 7.5 510 24.246 510 44.829V90c0 16.579-11.133 31.338-27.074 35.893l-9.231 2.638C464.16 131.254 457.5 140.083 457.5 150zM427.329 22.5C415.017 22.5 405 32.517 405 44.829V90c0 9.917 6.66 18.746 16.195 21.47l9.231 2.638c8.003 2.287 14.794 7.146 19.574 13.516 4.779-6.371 11.57-11.229 19.574-13.516l9.231-2.638C488.34 108.746 495 99.917 495 90V44.829c0-12.313-10.017-22.329-22.329-22.329h-45.342z"/><path data-original="#FFFFFF" fill="#fff" d="M442.5 63.75h15v15h-15z"/><path d="M247.5 502.5h-165v-15h165c8.271 0 15-6.729 15-15s-6.729-15-15-15h-26.25c-14.474 0-26.25-11.776-26.25-26.25S206.776 405 221.25 405H330v15H221.25c-6.203 0-11.25 5.047-11.25 11.25s5.047 11.25 11.25 11.25h26.25c16.542 0 30 13.458 30 30s-13.458 30-30 30zm180-82.5H375v-15h52.5c12.407 0 22.5-10.093 22.5-22.5S439.907 360 427.5 360H420v-15h7.5c20.678 0 37.5 16.822 37.5 37.5S448.178 420 427.5 420zm-150-60H180c-20.678 0-37.5-16.822-37.5-37.5v-3.75c0-10.339-8.411-18.75-18.75-18.75-14.474 0-26.25-11.776-26.25-26.25s11.776-26.25 26.25-26.25h33.75v15h-33.75c-6.203 0-11.25 5.047-11.25 11.25S117.547 285 123.75 285c18.61 0 33.75 15.14 33.75 33.75v3.75c0 12.407 10.093 22.5 22.5 22.5h97.5v15zm-60.093-97.5H202.5v-15h14.907c22.239 0 43.147-8.66 58.873-24.386l29.335-29.335C324.173 175.221 348.848 165 375.093 165H427.5v15h-52.407c-22.239 0-43.147 8.66-58.873 24.386l-29.335 29.335c-18.558 18.558-43.233 28.779-69.478 28.779z" data-original="#000000"/></svg>