<svg viewBox="0 0 1066 774" xmlns="http://www.w3.org/2000/svg" fill-rule="evenodd" clip-rule="evenodd" stroke-linejoin="round" stroke-miterlimit="1.414"><path d="M995.19 331.535c.59-7.412.9-14.945.9-22.554 0-119.154-73.84-215.754-164.92-215.754-29 0-56.34 9.854-80 27.098-64.47-54.743-148.64-87.819-240.72-87.819-149.83 0-278.71 87.666-335.89 213.389-3.17-.241-6.37-.372-9.6-.372C73.83 245.523 0 342.111 0 461.265c0 43.795 10 84.557 27.14 118.585 0 107.198 78.45 194.13 175.22 194.13h122l.54-1.018c7.17-12.744 24.34-15.93 36.3-8.693 3.16 1.905 6.1 4.379 9.63 5.255 14.13 3.284 23.62-21.602 37.92-19.182 7.18 1.215 12.78 9.339 20 8.507 4.79-.558 8.42-4.949 12.92-6.81 7.21-3 14.52 1.161 19.57 7.916 2.93-9.23 2.91-20.168 7.65-28.631 7.17-12.744 24.34-15.93 36.3-8.693 3.16 1.905 6.1 4.379 9.63 5.255 14.13 3.285 23.62-21.601 37.92-19.182 7.18 1.216 12.78 9.339 20 8.507 4.79-.558 8.42-4.948 12.92-6.81 11.22-4.675 22.71 8.015 25.47 20.803a96.857 96.857 0 0 1 1.69 17.123c9.68-5.135 17.86-19.576 28.91-17.704 7.18 1.216 12.78 9.34 20 8.508 4.79-.559 8.42-4.949 12.92-6.811 11.22-4.675 22.71 8.015 25.47 20.803 1.47 6.788 1.57 13.839 1.82 20.802h202.15c76 0 137.58-68.232 137.58-152.405 15.42-32.845 24.33-71.472 24.33-112.836 0-73.356-28-138.172-70.81-177.149z" fill="#fbc02d" fill-opacity=".1" fill-rule="nonzero"/><circle cx="623" cy="179" r="87" fill="#fbc02d"/><path d="M594.99 182.28l27.87-27.87 28.15 27.87h-19.13v21.31h-17.76v-21.17l-19.13-.14zM673 549.98v-24.3l11.2 11.2 2.8-2.9-16-16-16 16 2.8 2.8 11.2-11.1v24.3h4zm-559 33v-24.3l11.2 11.2 2.8-2.9-16-16-16 16 2.8 2.8 11.2-11.1v24.3h4zm182.386-89.343v-24.3l11.2 11.2 2.8-2.9-16-16-16 16 2.8 2.8 11.2-11.1v24.3h4zm448.151-62.176v-24.3l11.2 11.2 2.8-2.9-16-16-16 16 2.8 2.8 11.2-11.1v24.3h4zM876.04 637.656v-24.3l11.2 11.2 2.8-2.9-16-16-16 16 2.8 2.8 11.2-11.1v24.3h4zM672 320.98v-18.21l8.4 8.4 2.1-2.17-12-12-12 12 2.1 2.1 8.4-8.33v18.21h3zm-219-132v-18.21l8.4 8.4 2.1-2.17-12-12-12 12 2.1 2.1 8.4-8.33v18.21h3zm-82 180v-18.21l8.4 8.4 2.1-2.17-12-12-12 12 2.1 2.1 8.4-8.33v18.21h3zm514 84v-18.21l8.4 8.4 2.1-2.17-12-12-12 12 2.1 2.1 8.4-8.33v18.21h3zm-532 161v-18.21l8.4 8.4 2.1-2.17-12-12-12 12 2.1 2.1 8.4-8.33v18.21h3z" fill="#fff" fill-rule="nonzero"/><circle cx="789" cy="293" r="6" fill="#fff"/><circle cx="224" cy="277" r="6" fill="#fff"/><circle cx="401" cy="429" r="6" fill="#fff"/><circle cx="925" cy="531" r="3" fill="#fff"/><circle cx="700" cy="614" r="3" fill="#fff"/><circle cx="315" cy="684" r="3" fill="#fff"/><circle cx="96" cy="441" r="3" fill="#fff"/><circle cx="125" cy="377" r="3" fill="#fff"/><circle cx="770" cy="713" r="3" fill="#fff"/><circle cx="215" cy="609" r="3" fill="#fff"/><circle cx="284" cy="334" r="3" fill="#fff"/><path d="M386.5 227.5H371V212h-2v15.5h-15.5v2H369V245h2v-15.5h15.5v-2zM764 513.89h-9.39v-9.39h-1.22v9.39H744v1.22h9.39v9.39h1.22v-9.39H764v-1.22zm-57 175h-9.39v-9.39h-1.22v9.39H687v1.22h9.39v9.39h1.22v-9.39H707v-1.22zm-467-22h-9.39v-9.39h-1.22v9.39H220v1.22h9.39v9.39h1.22v-9.39H240v-1.22zm-66-176h-9.39v-9.39h-1.22v9.39H154v1.22h9.39v9.39h1.22v-9.39H174v-1.22z" fill="#fff" fill-rule="nonzero"/><path d="M453.46 669.68l.07-5.63-3.38-.04-.07 5.63-5.83 16.84 14.64.17-5.43-16.97z" fill="#3f3d56" fill-rule="nonzero"/><path d="M468.15 670l.07-5.77-3.47-.05-.07 5.78-5.98 17.27 15.02.17-5.57-17.4z" fill="#3f3d56" fill-rule="nonzero"/><path d="M482.75 670.03l.07-5.63-3.38-.04-.07 5.63-5.83 16.84 14.65.17-5.44-16.97zm104.42 1.39l.07-5.78-3.47-.04-.07 5.78-5.98 17.26 15.02.18-5.57-17.4zm15.02.18l.07-5.78-3.47-.04-.07 5.78-5.98 17.26 15.02.18-5.57-17.4zm15.02.18l.07-5.78-3.47-.04-.07 5.78-5.98 17.26 15.02.18-5.57-17.4zm-98.22-1.17l.07-5.78-3.47-.04-.07 5.78-5.98 17.26 15.02.18-5.57-17.4zm15.02.18l.07-5.78-3.46-.04-.07 5.78-5.99 17.26 15.02.18-5.57-17.4zm15.02.18l.07-5.78-3.46-.04-.07 5.78-5.99 17.26 15.03.18-5.58-17.4z" fill="#3f3d56" fill-rule="nonzero"/><path d="M508.76 266.58c-.21-19.9-23.65-55.18-36.3-55.33-12.65-.15-35.78 34.57-36.46 54.46h-.6l-4.77 399.81 73.38.87 4.77-399.8-.02-.01zm134.04 1.6c-.21-19.9-23.65-55.18-36.3-55.33-12.65-.15-35.78 34.57-36.45 54.46h-.6l-4.77 399.81 73.38.87 4.77-399.8-.03-.01z" fill="#3f3d56" fill-rule="nonzero"/><path d="M576.86 80.92C576.75 51.75 553.5.15 540.86 0c-12.64-.15-36 50.89-36.77 80h-.59l-7 586.24 73.37.88 7-586.25-.01.05z" fill="#2f2e41" fill-rule="nonzero"/><path d="M509.13 395.43l27.88-27.88 28.14 27.88h-19.12v21.31h-17.77v-21.18l-19.13-.13z" fill="#fbc02d" fill-rule="nonzero"/><path d="M574.87 274.92c7.59-17.71 22.41-36.18 31.63-36.07 12 .14 33.62 31.79 36.07 52l.26-21.71c-.21-19.9-23.65-55.18-36.3-55.33-9.1-.11-23.64 17.88-31.32 35.38l-.34 25.73zM435.41 291.7h.6c.67-19.89 23.81-54.61 36.45-54.46 8.26.1 21.11 15.17 29.1 31.16l1.94-162.36h.59c.78-29.16 24.13-80.2 36.77-80 11.94.14 33.36 46.21 35.78 75.9l.23-20c-.11-29.17-23.36-80.77-36-80.92-12.64-.15-36 50.89-36.77 80.05h-.59l-1.94 162.36c-8-16-20.84-31.06-29.1-31.16-12.64-.15-35.78 34.57-36.45 54.46h-.6l-4.77 399.81h.3l4.46-374.84z" opacity=".1" fill-rule="nonzero"/><path d="M547.705 32.397a6.933 6.933 0 0 0-6.847-7.011l-.01-.001a6.933 6.933 0 0 0-7.012 6.848l-.192 16.189a6.932 6.932 0 0 0 6.847 7.011h.01a6.933 6.933 0 0 0 7.012-6.847l.192-16.189z" fill="#ececf3"/></svg>