<svg viewBox="0 0 1114 845" xmlns="http://www.w3.org/2000/svg" fill-rule="evenodd" clip-rule="evenodd" stroke-miterlimit="10"><path d="M1047 458.226c-39.15 53.72-26.23 130.4-3.6 191.49 7.58 20.45 16.19 42.08 12.26 64.33-4.8 27.2-27.36 47.58-50.81 58.68-42.75 20.23-93.25 17-131.49-8.49-33-22-56.23-58.56-89.87-79.51-56.3-35.05-129.39-19.39-192.05 7.37-44.33 18.93-92.89 43.31-136.09 25.83-30.4-12.3-50.87-43.61-61.64-77.08-5.2-16.16-8.84-33.7-19.2-46.35-6.16-7.52-14.3-12.76-22.67-17.14-76.39-40-174.65-15-248.71-59.63-50-30.14-81.12-88.63-94.05-150.12-12.93-61.49-9.73-126.4-4.58-190.2 3.66-45.34 9.45-93.79 36.71-129.42 28.83-37.67 77.15-52.64 120.36-46.74 43.21 5.9 81.95 29.9 115.84 58.55 42.39 35.74 81.39 80.61 134.11 94.18 35.91 9.24 74.06 2.7 111.39-.19 62.4-4.82 124.58.73 186.38 7 59.16 6 118.73 12.7 174.76 32.37 39.65 13.92 71.08 40.23 108.41 58.21 24.33 11.72 51.1 14.44 74 29.58 28.26 18.65 53.8 51.69 45.51 91.34-7.83 37.69-44.17 57.43-64.97 85.94z" fill="#fbc02d" fill-opacity=".1" fill-rule="nonzero"/><path d="M854.99 703.246s3.3-97.76 56.19-153c22.2-23.18 36.78-52.62 40.64-84.48a249.34 249.34 0 0 0 1.24-45.57" fill="none" stroke="#535461" stroke-width="2"/><path d="M986.19 385.206c-3.62 10.92-33.88 36-33.88 36s-9.27-38.21-5.65-49.12c2.818-8.497 10.813-14.269 19.765-14.269 11.423 0 20.824 9.4 20.824 20.824 0 2.227-.358 4.441-1.059 6.555v.01zm12.61 71.3c-9 7.2-48 11.82-48 11.82s13-37.11 22-44.3a20.825 20.825 0 0 1 13.669-5.116c11.422 0 20.82 9.399 20.82 20.82a20.835 20.835 0 0 1-8.489 16.776zm-35.68 102.84c-11.38 1.68-47.41-14-47.41-14s29.94-25.48 41.32-27.16a20.826 20.826 0 0 1 3.045-.224c11.424 0 20.824 9.4 20.824 20.824 0 10.279-7.611 19.097-17.779 20.6v-.04zm-44.53 71.74c-10.93 3.58-49.1-5.82-49.1-5.82s25.21-30.17 36.14-33.75a20.833 20.833 0 0 1 6.5-1.041c11.424 0 20.825 9.401 20.825 20.826 0 8.973-5.8 16.984-14.325 19.785h-.04zm-10-174.41c5.31 10.2 39.21 30.17 39.21 30.17s3.08-39.19-2.23-49.4a20.847 20.847 0 0 0-18.47-11.211c-11.422 0-20.821 9.399-20.821 20.821 0 3.345.807 6.642 2.351 9.61l-.04.01zm-51.01 84.55c8.12 8.15 46.4 17.07 46.4 17.07s-8.79-38.32-16.9-46.47a20.828 20.828 0 0 0-14.75-6.126c-11.422 0-20.821 9.399-20.821 20.821a20.83 20.83 0 0 0 6.071 14.695v.01zm-38.3 88.99c6.62 9.4 42.85 24.67 42.85 24.67s-2.18-39.25-8.81-48.66a20.839 20.839 0 0 0-17.396-9.382c-11.422 0-20.82 9.399-20.82 20.82 0 4.534 1.481 8.946 4.216 12.562l-.04-.01z" fill="#fbc02d" fill-rule="nonzero"/><path d="M866.61 662.786s-30-43.64-24.74-84.7a80.256 80.256 0 0 0-9.48-49.86 134.952 134.952 0 0 0-14.12-20.24" fill="none" stroke="#535461" stroke-width="2"/><path d="M821.44 482.086c1.93 5.92-3.17 26.58-3.17 26.58s-16.33-13.66-18.26-19.57a11.274 11.274 0 0 1-.557-3.5c0-6.184 5.088-11.272 11.272-11.272 4.864 0 9.205 3.148 10.715 7.772v-.01zm28.43 26.99c-1.59 6-17.11 20.59-17.11 20.59s-6.28-20.34-4.69-26.36c1.305-4.93 5.8-8.39 10.9-8.39 6.185 0 11.275 5.089 11.275 11.275 0 .974-.126 1.943-.375 2.885zm17.54 56.26c-4.41 4.39-25.16 9.14-25.16 9.14s4.84-20.73 9.26-25.12a11.282 11.282 0 0 1 7.95-3.279c6.187 0 11.278 5.092 11.278 11.279a11.28 11.28 0 0 1-3.328 8v-.02zm3.69 45.57c-3.61 5.07-23.3 13.24-23.3 13.24s1.27-21.25 4.88-26.32a11.28 11.28 0 0 1 9.19-4.744c6.185 0 11.274 5.089 11.274 11.274 0 2.34-.729 4.622-2.084 6.53l.04.02zm-60.46-72.76c5.59 2.74 26.76.54 26.76.54s-11.27-18.06-16.86-20.79a11.261 11.261 0 0 0-4.95-1.145c-6.183 0-11.27 5.087-11.27 11.27 0 4.298 2.459 8.237 6.32 10.125zm4.99 53.25c6.16.94 25.7-7.49 25.7-7.49s-16.16-13.86-22.31-14.76a11.319 11.319 0 0 0-1.695-.128c-6.184 0-11.273 5.089-11.273 11.273 0 5.547 4.094 10.311 9.578 11.145v-.04zm11.94 51.07c5.91 2 26.6-3 26.6-3s-13.58-16.39-19.49-18.36a11.276 11.276 0 0 0-3.555-.575c-6.185 0-11.275 5.089-11.275 11.275 0 4.845 3.122 9.172 7.72 10.7v-.04z" fill="#fbc02d" fill-rule="nonzero"/><path d="M821.44 482.086c1.93 5.92-3.17 26.58-3.17 26.58s-16.33-13.66-18.26-19.57a11.274 11.274 0 0 1-.557-3.5c0-6.184 5.088-11.272 11.272-11.272 4.864 0 9.205 3.148 10.715 7.772v-.01zm28.43 26.99c-1.59 6-17.11 20.59-17.11 20.59s-6.28-20.34-4.69-26.36c1.305-4.93 5.8-8.39 10.9-8.39 6.185 0 11.275 5.089 11.275 11.275 0 .974-.126 1.943-.375 2.885zm17.54 56.26c-4.41 4.39-25.16 9.14-25.16 9.14s4.84-20.73 9.26-25.12a11.282 11.282 0 0 1 7.95-3.279c6.187 0 11.278 5.092 11.278 11.279a11.28 11.28 0 0 1-3.328 8v-.02zm3.69 45.57c-3.61 5.07-23.3 13.24-23.3 13.24s1.27-21.25 4.88-26.32a11.28 11.28 0 0 1 9.19-4.744c6.185 0 11.274 5.089 11.274 11.274 0 2.34-.729 4.622-2.084 6.53l.04.02zm-60.46-72.76c5.59 2.74 26.76.54 26.76.54s-11.27-18.06-16.86-20.79a11.261 11.261 0 0 0-4.95-1.145c-6.183 0-11.27 5.087-11.27 11.27 0 4.298 2.459 8.237 6.32 10.125zm4.99 53.25c6.16.94 25.7-7.49 25.7-7.49s-16.16-13.86-22.31-14.76a11.319 11.319 0 0 0-1.695-.128c-6.184 0-11.273 5.089-11.273 11.273 0 5.547 4.094 10.311 9.578 11.145v-.04zm11.94 51.07c5.91 2 26.6-3 26.6-3s-13.58-16.39-19.49-18.36a11.276 11.276 0 0 0-3.555-.575c-6.185 0-11.275 5.089-11.275 11.275 0 4.845 3.122 9.172 7.72 10.7v-.04z" fill="#fff" fill-opacity=".5" fill-rule="nonzero"/><path d="M811.1 781.116h85.33l21.34-130.13h-128l21.33 130.13z" fill="#474059" fill-rule="nonzero"/><path d="M806.1 650.986l19.93 121.6h71.8l-1.4 8.53H811.1l-21.33-130.13h16.33z" fill-opacity=".1" fill-rule="nonzero"/><path fill="url(#_Linear1)" d="M201.28 39.296h626v755.3h-626z"/><path fill="#fff" d="M209.28 48.956h610v736h-610z"/><path fill="#c0bccf" d="M446.28 131.956h246v12h-246zm0 38h246v12h-246z"/><path fill="#fbc02d" d="M505.28 207.956h128v12h-128z"/><path fill="#c0bccf" fill-opacity=".5" d="M446.28 372.956h246v12h-246zm0 38h246v12h-246z"/><path fill="#fbc02d" fill-opacity=".5" d="M505.28 448.956h128v12h-128z"/><path fill="#c0bccf" fill-opacity=".5" d="M446.28 613.956h246v12h-246zm0 38h246v12h-246z"/><path fill="#fbc02d" fill-opacity=".5" d="M505.28 689.956h128v12h-128z"/><path d="M378.28 416.946a67.694 67.694 0 0 1-16.37 44.25c-.52.61-1.06 1.21-1.61 1.8-.273.307-.553.607-.84.9a66.755 66.755 0 0 1-7.26 6.59l-.18.13a66.418 66.418 0 0 1-12.9 7.92 67.003 67.003 0 0 1-7.24 2.9l-.91.29c-.56.19-1.14.36-1.71.52l-.23.07a68.343 68.343 0 0 1-37.55 0h-.1c-1-.29-2-.59-2.92-.92l-.85-.3a65.937 65.937 0 0 1-9.4-4.16l-.19-.1a68.24 68.24 0 0 1-13.32-9.43l-.33-.31a63.663 63.663 0 0 1-5.81-6c-.24-.27-.47-.55-.7-.83-.44-.52-.86-1.06-1.28-1.6a68.012 68.012 0 0 1-14.3-41.717c0-37.304 30.696-68 68-68 37.303 0 67.998 30.694 68 67.997z" fill="#c0bccf" fill-rule="nonzero"/><path d="M359.67 439.886l-5.16-2.32c.079-.784.112-1.572.1-2.36.036-.666.036-1.334 0-2-.51-5.26-3.86-9.84-6.23-14.65a41.608 41.608 0 0 1-4.07-14c-.63-6 0-12.22-2.2-17.86-1.79-4.55-5.33-8.35-9.12-11.71a46.295 46.295 0 0 0-14.65-9.29c-5.54-2-11.91-2.51-17.45-.47-5 1.84-8.85 5.51-12.57 9.08a42.266 42.266 0 0 0-7.1 8.08c-2.27 3.72-3.24 8-4 12.22a187.03 187.03 0 0 0-2.46 20.42c-.39 5.71-1 12.19-5.88 15.69-2.38 1.71-5.73 2.67-6.82 5.26a5.378 5.378 0 0 0-.36 2.45c-.03.693.02 1.388.15 2.07.07.4.15.79.25 1.19a87.667 87.667 0 0 0-3.52 10.68c-.73 2.7-1.4 5.35-2 7.92h2.48l9.32.22h.13l10 .23h.05l9.32.22h.23l2.69.19h.88l37.27.86h.2l2.48.06h.87l7.46.17 11 .25h.08l8.28.2h2.58l-.44-8.68c1.82-13.29-1.79-14.12-1.79-14.12zm-41.87-1.06c0 7.36-7.88 16.37-7.88 16.37l-7.93-10.8.29-.42 7.64 10.4s7.88-9 7.88-16.37a8.62 8.62 0 0 1 .63-1.08l.18.56c-.303.426-.573.874-.81 1.34zm12.12 28.88c0-.37 0-.75-.07-1.12-.07-.37-.06-.7-.11-1.06-.05-.36-.09-.71-.14-1.07-.05-.36-.12-.71-.19-1.07-.07-.36-.14-.71-.22-1.07 0-.12-.05-.23-.08-.36-.11-.47-.23-.94-.36-1.41-.13-.47-.21-.76-.33-1.13 0-.17-.1-.34-.16-.5-.06-.16-.17-.54-.26-.81l-.18-.52c-.08-.23-.16-.47-.25-.7-.15-.42-.31-.83-.47-1.25-.16-.42-.33-.83-.5-1.24-.34-.84-.71-1.67-1.08-2.51-1.45-3.24-3.08-6.43-4.58-9.59a51.053 51.053 0 0 1-2.14-5.08l-.19.25c-.303.429-.574.88-.81 1.35 0 7.36-7.88 16.37-7.88 16.37l-7.93-10.8-6.94 10c-1 .5-2 2.2-2.78 4.62-.22.65-.43 1.37-.63 2.12-.14.51-.27 1-.39 1.57-.07.27-.13.54-.19.82l-.18.85v.13c-.12.58-.24 1.18-.35 1.79-.11.61-.24 1.31-.35 2-.08.433-.15.863-.21 1.29-.14.83-.26 1.67-.38 2.51-.07.49-.14 1-.2 1.45l-.24 1.86c.51 1.53 1.08 3 1.67 4.54.375.808.596 1.68.65 2.57a72.898 72.898 0 0 0 37.55 0 .339.339 0 0 1 0-.09 10.46 10.46 0 0 1-.24-2.55 65.892 65.892 0 0 1 1-7.16c.148-1.167.211-2.344.19-3.52v-.42c-.03-.38-.04-.72-.05-1.05v-.01zm0 0c0-.37 0-.75-.07-1.12-.07-.37-.06-.7-.11-1.06-.05-.36-.09-.71-.14-1.07-.05-.36-.12-.71-.19-1.07-.07-.36-.14-.71-.22-1.07 0-.12-.05-.23-.08-.36-.11-.47-.23-.94-.36-1.41-.13-.47-.21-.76-.33-1.13 0-.17-.1-.34-.16-.5-.06-.16-.17-.54-.26-.81l-.18-.52c-.08-.23-.16-.47-.25-.7-.15-.42-.31-.83-.47-1.25-.16-.42-.33-.83-.5-1.24-.34-.84-.71-1.67-1.08-2.51-1.45-3.24-3.08-6.43-4.58-9.59a51.053 51.053 0 0 1-2.14-5.08l-.19.25c-.303.429-.574.88-.81 1.35 0 7.36-7.88 16.37-7.88 16.37l-7.93-10.8-6.94 10c-1 .5-2 2.2-2.78 4.62-.22.65-.43 1.37-.63 2.12-.14.51-.27 1-.39 1.57-.07.27-.13.54-.19.82l-.18.85v.13c-.12.58-.24 1.18-.35 1.79-.11.61-.24 1.31-.35 2-.08.433-.15.863-.21 1.29-.14.83-.26 1.67-.38 2.51-.07.49-.14 1-.2 1.45l-.24 1.86c.51 1.53 1.08 3 1.67 4.54.375.808.596 1.68.65 2.57a72.898 72.898 0 0 0 37.55 0 .339.339 0 0 1 0-.09 10.46 10.46 0 0 1-.24-2.55 65.892 65.892 0 0 1 1-7.16c.148-1.167.211-2.344.19-3.52v-.42c-.03-.38-.04-.72-.05-1.05v-.01zm0 0c0-.37 0-.75-.07-1.12-.07-.37-.06-.7-.11-1.06-.05-.36-.09-.71-.14-1.07-.05-.36-.12-.71-.19-1.07-.07-.36-.14-.71-.22-1.07 0-.12-.05-.23-.08-.36-.11-.47-.23-.94-.36-1.41-.13-.47-.21-.76-.33-1.13 0-.17-.1-.34-.16-.5-.06-.16-.17-.54-.26-.81l-.18-.52c-.08-.23-.16-.47-.25-.7-.15-.42-.31-.83-.47-1.25-.16-.42-.33-.83-.5-1.24-.34-.84-.71-1.67-1.08-2.51-1.45-3.24-3.08-6.43-4.58-9.59a51.053 51.053 0 0 1-2.14-5.08l-.19.25c-.303.429-.574.88-.81 1.35 0 7.36-7.88 16.37-7.88 16.37l-7.93-10.8-6.94 10c-1 .5-2 2.2-2.78 4.62-.22.65-.43 1.37-.63 2.12-.14.51-.27 1-.39 1.57-.07.27-.13.54-.19.82l-.18.85v.13c-.12.58-.24 1.18-.35 1.79-.11.61-.24 1.31-.35 2-.08.433-.15.863-.21 1.29-.14.83-.26 1.67-.38 2.51-.07.49-.14 1-.2 1.45l-.24 1.86c.51 1.53 1.08 3 1.67 4.54.375.808.596 1.68.65 2.57a72.898 72.898 0 0 0 37.55 0 .339.339 0 0 1 0-.09 10.46 10.46 0 0 1-.24-2.55 65.892 65.892 0 0 1 1-7.16c.148-1.167.211-2.344.19-3.52v-.42c-.03-.38-.04-.72-.05-1.05v-.01zm0 0c0-.37 0-.75-.07-1.12-.07-.37-.06-.7-.11-1.06-.05-.36-.09-.71-.14-1.07-.05-.36-.12-.71-.19-1.07-.07-.36-.14-.71-.22-1.07 0-.12-.05-.23-.08-.36-.11-.47-.23-.94-.36-1.41-.13-.47-.21-.76-.33-1.13 0-.17-.1-.34-.16-.5-.06-.16-.17-.54-.26-.81l-.18-.52c-.08-.23-.16-.47-.25-.7-.15-.42-.31-.83-.47-1.25-.16-.42-.33-.83-.5-1.24-.34-.84-.71-1.67-1.08-2.51-1.45-3.24-3.08-6.43-4.58-9.59a51.053 51.053 0 0 1-2.14-5.08l-.19.25c-.303.429-.574.88-.81 1.35 0 7.36-7.88 16.37-7.88 16.37l-7.93-10.8-6.94 10c-1 .5-2 2.2-2.78 4.62-.22.65-.43 1.37-.63 2.12-.14.51-.27 1-.39 1.57-.07.27-.13.54-.19.82l-.18.85v.13c-.12.58-.24 1.18-.35 1.79-.11.61-.24 1.31-.35 2-.08.433-.15.863-.21 1.29-.14.83-.26 1.67-.38 2.51-.07.49-.14 1-.2 1.45l-.24 1.86c.51 1.53 1.08 3 1.67 4.54.375.808.596 1.68.65 2.57a72.898 72.898 0 0 0 37.55 0 .339.339 0 0 1 0-.09 10.46 10.46 0 0 1-.24-2.55 65.892 65.892 0 0 1 1-7.16c.148-1.167.211-2.344.19-3.52v-.42c-.03-.38-.04-.72-.05-1.05v-.01z" fill="url(#_Linear2)" fill-rule="nonzero"/><path fill="#493545" d="M284.28 397.956h46v31h-46z"/><path d="M337.92 432.146l-19.25 27.12-20.12-1.75s-26.25 1.74-8.75-18.37c8.41-9.67 11.16-17.73 11.75-23.48.64-6.22-1.25-9.76-1.25-9.76l21.87-2.62a16.317 16.317 0 0 0-.36 9.13c2.74 11.36 16.11 19.73 16.11 19.73z" fill="#c77485" fill-rule="nonzero"/><path d="M321.8 412.386a21.879 21.879 0 0 1-20.26 3.26c.64-6.22-1.25-9.76-1.25-9.76l21.87-2.62a16.318 16.318 0 0 0-.36 9.12z" fill-opacity=".1" fill-rule="nonzero"/><circle cx="308.61" cy="394.076" r="21.87" fill="#c77485"/><path d="M337.12 433.266l-.51-2-.44-1.76-.65-2.6-.12-.48-.1-.4s.52-1.57-2.91-1.06l-.64.11c-.54.11-1.17.26-1.89.46l-.65.2-.86.27a18.746 18.746 0 0 0-7.26 4.38 16.311 16.311 0 0 0-2.43 2.94c-.07.1-.12.19-.18.27a9.415 9.415 0 0 0-.63 1.16c0 7.88-7.88 17.5-7.88 17.5l-7.69-11.11-.15-.22-1.83-2.66-.65-.86-.22-.3-4-5.37-1-1.34-.33-.45-.49-.65-1.15-1.53-4.5 2.63-6 3.5-3.5 22.75v.63l.11 1.88.73 12.36v.17l-1.28 5.12.19.1a65.937 65.937 0 0 0 9.4 4.16l.85.3c1 .33 1.94.63 2.92.92.036.148.063.298.08.45v-.43a68.343 68.343 0 0 0 37.55 0l.23-.07c.57-.16 1.15-.33 1.71-.52l.91-.29a67.003 67.003 0 0 0 7.24-2.9l.84-17.9.6-12.91v-.74l-3.42-13.71z" fill-opacity=".1" fill-rule="nonzero"/><path d="M329.92 466.516c0-.4 0-.8-.07-1.2-.07-.4-.06-.75-.11-1.13-.05-.38-.09-.76-.14-1.14-.05-.38-.12-.76-.19-1.14-.07-.38-.14-.76-.22-1.14 0-.13-.05-.25-.08-.38-.11-.5-.23-1-.36-1.51-.13-.51-.21-.81-.33-1.21 0-.18-.1-.36-.16-.53-.06-.17-.17-.58-.26-.87l-.18-.56c-.08-.25-.16-.5-.25-.75-.15-.45-.31-.89-.47-1.34-.16-.45-.33-.89-.5-1.33-.34-.9-.71-1.79-1.08-2.68-1.45-3.46-3.08-6.87-4.58-10.25a56.865 56.865 0 0 1-2.14-5.43l-.19.27c-.304.46-.575.941-.81 1.44 0 7.87-7.88 17.5-7.88 17.5l-7.93-11.55-6.94 10.67c-1 .53-2 2.35-2.78 4.94-.22.7-.43 1.46-.63 2.27-.14.54-.27 1.11-.39 1.68-.07.29-.13.58-.19.88l-.18.91v.14c-.12.62-.24 1.26-.35 1.91-.11.65-.24 1.4-.35 2.11-.08.46-.15.92-.21 1.38-.14.89-.26 1.79-.38 2.68-.07.52-.14 1-.2 1.55l-.24 2a95.43 95.43 0 0 0 1.67 4.85c.377.871.597 1.802.65 2.75a68.343 68.343 0 0 0 37.55 0 .418.418 0 0 1 0-.1 11.917 11.917 0 0 1-.24-2.73 75.111 75.111 0 0 1 1-7.65c.148-1.248.211-2.504.19-3.76v-.45c-.03-.38-.04-.74-.05-1.1zm0 0c0-.4 0-.8-.07-1.2-.07-.4-.06-.75-.11-1.13-.05-.38-.09-.76-.14-1.14-.05-.38-.12-.76-.19-1.14-.07-.38-.14-.76-.22-1.14 0-.13-.05-.25-.08-.38-.11-.5-.23-1-.36-1.51-.13-.51-.21-.81-.33-1.21 0-.18-.1-.36-.16-.53-.06-.17-.17-.58-.26-.87l-.18-.56c-.08-.25-.16-.5-.25-.75-.15-.45-.31-.89-.47-1.34-.16-.45-.33-.89-.5-1.33-.34-.9-.71-1.79-1.08-2.68-1.45-3.46-3.08-6.87-4.58-10.25a56.865 56.865 0 0 1-2.14-5.43l-.19.27c-.304.46-.575.941-.81 1.44 0 7.87-7.88 17.5-7.88 17.5l-7.93-11.55-6.94 10.67c-1 .53-2 2.35-2.78 4.94-.22.7-.43 1.46-.63 2.27-.14.54-.27 1.11-.39 1.68-.07.29-.13.58-.19.88l-.18.91v.14c-.12.62-.24 1.26-.35 1.91-.11.65-.24 1.4-.35 2.11-.08.46-.15.92-.21 1.38-.14.89-.26 1.79-.38 2.68-.07.52-.14 1-.2 1.55l-.24 2a95.43 95.43 0 0 0 1.67 4.85c.377.871.597 1.802.65 2.75a68.343 68.343 0 0 0 37.55 0 .418.418 0 0 1 0-.1 11.917 11.917 0 0 1-.24-2.73 75.111 75.111 0 0 1 1-7.65c.148-1.248.211-2.504.19-3.76v-.45c-.03-.38-.04-.74-.05-1.1zm0 0c0-.4 0-.8-.07-1.2-.07-.4-.06-.75-.11-1.13-.05-.38-.09-.76-.14-1.14-.05-.38-.12-.76-.19-1.14-.07-.38-.14-.76-.22-1.14 0-.13-.05-.25-.08-.38-.11-.5-.23-1-.36-1.51-.13-.51-.21-.81-.33-1.21 0-.18-.1-.36-.16-.53-.06-.17-.17-.58-.26-.87l-.18-.56c-.08-.25-.16-.5-.25-.75-.15-.45-.31-.89-.47-1.34-.16-.45-.33-.89-.5-1.33-.34-.9-.71-1.79-1.08-2.68-1.45-3.46-3.08-6.87-4.58-10.25a56.865 56.865 0 0 1-2.14-5.43l-.19.27c-.304.46-.575.941-.81 1.44 0 7.87-7.88 17.5-7.88 17.5l-7.93-11.55-6.94 10.67c-1 .53-2 2.35-2.78 4.94-.22.7-.43 1.46-.63 2.27-.14.54-.27 1.11-.39 1.68-.07.29-.13.58-.19.88l-.18.91v.14c-.12.62-.24 1.26-.35 1.91-.11.65-.24 1.4-.35 2.11-.08.46-.15.92-.21 1.38-.14.89-.26 1.79-.38 2.68-.07.52-.14 1-.2 1.55l-.24 2a95.43 95.43 0 0 0 1.67 4.85c.377.871.597 1.802.65 2.75a68.343 68.343 0 0 0 37.55 0 .418.418 0 0 1 0-.1 11.917 11.917 0 0 1-.24-2.73 75.111 75.111 0 0 1 1-7.65c.148-1.248.211-2.504.19-3.76v-.45c-.03-.38-.04-.74-.05-1.1zm10.6-18.77l-3.57-14.25-.61-2.44-.17-.67-.87-3.48a.676.676 0 0 0 0-.09.801.801 0 0 0-.07-.45c-.13-.26-.46-.53-1.23-.6a6.154 6.154 0 0 0-.88 0c-.869.086-1.729.246-2.57.48-.41.11-.85.23-1.32.38l-.86.27h-.08a19.094 19.094 0 0 0-6.3 3.5 16.994 16.994 0 0 0-3.2 3.54l-.19.27c-.304.46-.575.941-.81 1.44 0 7.87-7.88 17.5-7.88 17.5l-7.93-11.55-.45-.65-.08-.11-1.15-1.69-.87-1.16-.23-.3-4.1-5.47-1.3-1.77v-.06l-.45-.61-.86-1.14-3 1.75-7.5 4.37-3.46 22.51v.24l.1 1.64.74 12.53v.71l-1.13 4.51a65.937 65.937 0 0 0 9.4 4.16l.85.3c1 .33 1.94.63 2.92.92.036.148.063.298.08.45v-.43a68.343 68.343 0 0 0 37.55 0l.23-.07c.57-.16 1.15-.33 1.71-.52l.91-.29a67.003 67.003 0 0 0 7.24-2.9l.83-17.88.6-12.77-.04-.12zm-49.18 34.53c.036.148.063.298.08.45v-.43l-.08-.02zm38.58-15.76c0-.4 0-.8-.07-1.2-.07-.4-.06-.75-.11-1.13-.05-.38-.09-.76-.14-1.14-.05-.38-.12-.76-.19-1.14-.07-.38-.14-.76-.22-1.14 0-.13-.05-.25-.08-.38-.11-.5-.23-1-.36-1.51-.13-.51-.21-.81-.33-1.21 0-.18-.1-.36-.16-.53-.06-.17-.17-.58-.26-.87l-.18-.56c-.08-.25-.16-.5-.25-.75-.15-.45-.31-.89-.47-1.34-.16-.45-.33-.89-.5-1.33-.34-.9-.71-1.79-1.08-2.68-1.45-3.46-3.08-6.87-4.58-10.25a56.865 56.865 0 0 1-2.14-5.43l-.19.27c-.304.46-.575.941-.81 1.44 0 7.87-7.88 17.5-7.88 17.5l-7.93-11.55-6.94 10.67c-1 .53-2 2.35-2.78 4.94-.22.7-.43 1.46-.63 2.27-.14.54-.27 1.11-.39 1.68-.07.29-.13.58-.19.88l-.18.91v.14c-.12.62-.24 1.26-.35 1.91-.11.65-.24 1.4-.35 2.11-.08.46-.15.92-.21 1.38-.14.89-.26 1.79-.38 2.68-.07.52-.14 1-.2 1.55l-.24 2a95.43 95.43 0 0 0 1.67 4.85c.377.871.597 1.802.65 2.75a68.343 68.343 0 0 0 37.55 0 .418.418 0 0 1 0-.1 11.917 11.917 0 0 1-.24-2.73 75.111 75.111 0 0 1 1-7.65c.148-1.248.211-2.504.19-3.76v-.45c-.03-.38-.04-.74-.05-1.1zm0 0c0-.4 0-.8-.07-1.2-.07-.4-.06-.75-.11-1.13-.05-.38-.09-.76-.14-1.14-.05-.38-.12-.76-.19-1.14-.07-.38-.14-.76-.22-1.14 0-.13-.05-.25-.08-.38-.11-.5-.23-1-.36-1.51-.13-.51-.21-.81-.33-1.21 0-.18-.1-.36-.16-.53-.06-.17-.17-.58-.26-.87l-.18-.56c-.08-.25-.16-.5-.25-.75-.15-.45-.31-.89-.47-1.34-.16-.45-.33-.89-.5-1.33-.34-.9-.71-1.79-1.08-2.68-1.45-3.46-3.08-6.87-4.58-10.25a56.865 56.865 0 0 1-2.14-5.43l-.19.27c-.304.46-.575.941-.81 1.44 0 7.87-7.88 17.5-7.88 17.5l-7.93-11.55-6.94 10.67c-1 .53-2 2.35-2.78 4.94-.22.7-.43 1.46-.63 2.27-.14.54-.27 1.11-.39 1.68-.07.29-.13.58-.19.88l-.18.91v.14c-.12.62-.24 1.26-.35 1.91-.11.65-.24 1.4-.35 2.11-.08.46-.15.92-.21 1.38-.14.89-.26 1.79-.38 2.68-.07.52-.14 1-.2 1.55l-.24 2a95.43 95.43 0 0 0 1.67 4.85c.377.871.597 1.802.65 2.75a68.343 68.343 0 0 0 37.55 0 .418.418 0 0 1 0-.1 11.917 11.917 0 0 1-.24-2.73 75.111 75.111 0 0 1 1-7.65c.148-1.248.211-2.504.19-3.76v-.45c-.03-.38-.04-.74-.05-1.1zm0 0c0-.4 0-.8-.07-1.2-.07-.4-.06-.75-.11-1.13-.05-.38-.09-.76-.14-1.14-.05-.38-.12-.76-.19-1.14-.07-.38-.14-.76-.22-1.14 0-.13-.05-.25-.08-.38-.11-.5-.23-1-.36-1.51-.13-.51-.21-.81-.33-1.21 0-.18-.1-.36-.16-.53-.06-.17-.17-.58-.26-.87l-.18-.56c-.08-.25-.16-.5-.25-.75-.15-.45-.31-.89-.47-1.34-.16-.45-.33-.89-.5-1.33-.34-.9-.71-1.79-1.08-2.68-1.45-3.46-3.08-6.87-4.58-10.25a56.865 56.865 0 0 1-2.14-5.43l-.19.27c-.304.46-.575.941-.81 1.44 0 7.87-7.88 17.5-7.88 17.5l-7.93-11.55-6.94 10.67c-1 .53-2 2.35-2.78 4.94-.22.7-.43 1.46-.63 2.27-.14.54-.27 1.11-.39 1.68-.07.29-.13.58-.19.88l-.18.91v.14c-.12.62-.24 1.26-.35 1.91-.11.65-.24 1.4-.35 2.11-.08.46-.15.92-.21 1.38-.14.89-.26 1.79-.38 2.68-.07.52-.14 1-.2 1.55l-.24 2a95.43 95.43 0 0 0 1.67 4.85c.377.871.597 1.802.65 2.75a68.343 68.343 0 0 0 37.55 0 .418.418 0 0 1 0-.1 11.917 11.917 0 0 1-.24-2.73 75.111 75.111 0 0 1 1-7.65c.148-1.248.211-2.504.19-3.76v-.45c-.03-.38-.04-.74-.05-1.1zm0 0c0-.4 0-.8-.07-1.2-.07-.4-.06-.75-.11-1.13-.05-.38-.09-.76-.14-1.14-.05-.38-.12-.76-.19-1.14-.07-.38-.14-.76-.22-1.14 0-.13-.05-.25-.08-.38-.11-.5-.23-1-.36-1.51-.13-.51-.21-.81-.33-1.21 0-.18-.1-.36-.16-.53-.06-.17-.17-.58-.26-.87l-.18-.56c-.08-.25-.16-.5-.25-.75-.15-.45-.31-.89-.47-1.34-.16-.45-.33-.89-.5-1.33-.34-.9-.71-1.79-1.08-2.68-1.45-3.46-3.08-6.87-4.58-10.25a56.865 56.865 0 0 1-2.14-5.43l-.19.27c-.304.46-.575.941-.81 1.44 0 7.87-7.88 17.5-7.88 17.5l-7.93-11.55-6.94 10.67c-1 .53-2 2.35-2.78 4.94-.22.7-.43 1.46-.63 2.27-.14.54-.27 1.11-.39 1.68-.07.29-.13.58-.19.88l-.18.91v.14c-.12.62-.24 1.26-.35 1.91-.11.65-.24 1.4-.35 2.11-.08.46-.15.92-.21 1.38-.14.89-.26 1.79-.38 2.68-.07.52-.14 1-.2 1.55l-.24 2a95.43 95.43 0 0 0 1.67 4.85c.377.871.597 1.802.65 2.75a68.343 68.343 0 0 0 37.55 0 .418.418 0 0 1 0-.1 11.917 11.917 0 0 1-.24-2.73 75.111 75.111 0 0 1 1-7.65c.148-1.248.211-2.504.19-3.76v-.45c-.03-.38-.04-.74-.05-1.1zm0 0c0-.4 0-.8-.07-1.2-.07-.4-.06-.75-.11-1.13-.05-.38-.09-.76-.14-1.14-.05-.38-.12-.76-.19-1.14-.07-.38-.14-.76-.22-1.14 0-.13-.05-.25-.08-.38-.11-.5-.23-1-.36-1.51-.13-.51-.21-.81-.33-1.21 0-.18-.1-.36-.16-.53-.06-.17-.17-.58-.26-.87l-.18-.56c-.08-.25-.16-.5-.25-.75-.15-.45-.31-.89-.47-1.34-.16-.45-.33-.89-.5-1.33-.34-.9-.71-1.79-1.08-2.68-1.45-3.46-3.08-6.87-4.58-10.25a56.865 56.865 0 0 1-2.14-5.43l-.19.27c-.304.46-.575.941-.81 1.44 0 7.87-7.88 17.5-7.88 17.5l-7.93-11.55-6.94 10.67c-1 .53-2 2.35-2.78 4.94-.22.7-.43 1.46-.63 2.27-.14.54-.27 1.11-.39 1.68-.07.29-.13.58-.19.88l-.18.91v.14c-.12.62-.24 1.26-.35 1.91-.11.65-.24 1.4-.35 2.11-.08.46-.15.92-.21 1.38-.14.89-.26 1.79-.38 2.68-.07.52-.14 1-.2 1.55l-.24 2a95.43 95.43 0 0 0 1.67 4.85c.377.871.597 1.802.65 2.75a68.343 68.343 0 0 0 37.55 0 .418.418 0 0 1 0-.1 11.917 11.917 0 0 1-.24-2.73 75.111 75.111 0 0 1 1-7.65c.148-1.248.211-2.504.19-3.76v-.45c-.03-.38-.04-.74-.05-1.1zm0 0c0-.4 0-.8-.07-1.2-.07-.4-.06-.75-.11-1.13-.05-.38-.09-.76-.14-1.14-.05-.38-.12-.76-.19-1.14-.07-.38-.14-.76-.22-1.14 0-.13-.05-.25-.08-.38-.11-.5-.23-1-.36-1.51-.13-.51-.21-.81-.33-1.21 0-.18-.1-.36-.16-.53-.06-.17-.17-.58-.26-.87l-.18-.56c-.08-.25-.16-.5-.25-.75-.15-.45-.31-.89-.47-1.34-.16-.45-.33-.89-.5-1.33-.34-.9-.71-1.79-1.08-2.68-1.45-3.46-3.08-6.87-4.58-10.25a56.865 56.865 0 0 1-2.14-5.43l-.19.27c-.304.46-.575.941-.81 1.44 0 7.87-7.88 17.5-7.88 17.5l-7.93-11.55-6.94 10.67c-1 .53-2 2.35-2.78 4.94-.22.7-.43 1.46-.63 2.27-.14.54-.27 1.11-.39 1.68-.07.29-.13.58-.19.88l-.18.91v.14c-.12.62-.24 1.26-.35 1.91-.11.65-.24 1.4-.35 2.11-.08.46-.15.92-.21 1.38-.14.89-.26 1.79-.38 2.68-.07.52-.14 1-.2 1.55l-.24 2a95.43 95.43 0 0 0 1.67 4.85c.377.871.597 1.802.65 2.75a68.343 68.343 0 0 0 37.55 0 .418.418 0 0 1 0-.1 11.917 11.917 0 0 1-.24-2.73 75.111 75.111 0 0 1 1-7.65c.148-1.248.211-2.504.19-3.76v-.45c-.03-.38-.04-.74-.05-1.1zm0 0c0-.4 0-.8-.07-1.2-.07-.4-.06-.75-.11-1.13-.05-.38-.09-.76-.14-1.14-.05-.38-.12-.76-.19-1.14-.07-.38-.14-.76-.22-1.14 0-.13-.05-.25-.08-.38-.11-.5-.23-1-.36-1.51-.13-.51-.21-.81-.33-1.21 0-.18-.1-.36-.16-.53-.06-.17-.17-.58-.26-.87l-.18-.56c-.08-.25-.16-.5-.25-.75-.15-.45-.31-.89-.47-1.34-.16-.45-.33-.89-.5-1.33-.34-.9-.71-1.79-1.08-2.68-1.45-3.46-3.08-6.87-4.58-10.25a56.865 56.865 0 0 1-2.14-5.43l-.19.27c-.304.46-.575.941-.81 1.44 0 7.87-7.88 17.5-7.88 17.5l-7.93-11.55-6.94 10.67c-1 .53-2 2.35-2.78 4.94-.22.7-.43 1.46-.63 2.27-.14.54-.27 1.11-.39 1.68-.07.29-.13.58-.19.88l-.18.91v.14c-.12.62-.24 1.26-.35 1.91-.11.65-.24 1.4-.35 2.11-.08.46-.15.92-.21 1.38-.14.89-.26 1.79-.38 2.68-.07.52-.14 1-.2 1.55l-.24 2a95.43 95.43 0 0 0 1.67 4.85c.377.871.597 1.802.65 2.75a68.343 68.343 0 0 0 37.55 0 .418.418 0 0 1 0-.1 11.917 11.917 0 0 1-.24-2.73 75.111 75.111 0 0 1 1-7.65c.148-1.248.211-2.504.19-3.76v-.45c-.03-.38-.04-.74-.05-1.1zm0 0c0-.4 0-.8-.07-1.2-.07-.4-.06-.75-.11-1.13-.05-.38-.09-.76-.14-1.14-.05-.38-.12-.76-.19-1.14-.07-.38-.14-.76-.22-1.14 0-.13-.05-.25-.08-.38-.11-.5-.23-1-.36-1.51-.13-.51-.21-.81-.33-1.21 0-.18-.1-.36-.16-.53-.06-.17-.17-.58-.26-.87l-.18-.56c-.08-.25-.16-.5-.25-.75-.15-.45-.31-.89-.47-1.34-.16-.45-.33-.89-.5-1.33-.34-.9-.71-1.79-1.08-2.68-1.45-3.46-3.08-6.87-4.58-10.25a56.865 56.865 0 0 1-2.14-5.43l-.19.27c-.304.46-.575.941-.81 1.44 0 7.87-7.88 17.5-7.88 17.5l-7.93-11.55-6.94 10.67c-1 .53-2 2.35-2.78 4.94-.22.7-.43 1.46-.63 2.27-.14.54-.27 1.11-.39 1.68-.07.29-.13.58-.19.88l-.18.91v.14c-.12.62-.24 1.26-.35 1.91-.11.65-.24 1.4-.35 2.11-.08.46-.15.92-.21 1.38-.14.89-.26 1.79-.38 2.68-.07.52-.14 1-.2 1.55l-.24 2a95.43 95.43 0 0 0 1.67 4.85c.377.871.597 1.802.65 2.75a68.343 68.343 0 0 0 37.55 0 .418.418 0 0 1 0-.1 11.917 11.917 0 0 1-.24-2.73 75.111 75.111 0 0 1 1-7.65c.148-1.248.211-2.504.19-3.76v-.45c-.03-.38-.04-.74-.05-1.1z" fill="#fff" fill-rule="nonzero"/><path d="M302.13 440.916l-.67-.09a24.462 24.462 0 0 1-3-.6l-.37-.1c-2.44-.69-5.11-1.93-5.71-4.11a3.885 3.885 0 0 1 .06-2.13c.336-1.19.791-2.342 1.36-3.44v-.06c.075-.155.159-.305.25-.45a10 10 0 0 1 3.61-3.93l-1.2.19-10.16 1.65-15.75 2.54s-2.8-.56-6.61 9.94c0 .13-.09.25-.13.39-.92 2.57-1.89 5.78-2.89 9.79-.69 2.78-1.32 5.51-1.9 8.16-.17.8-.34 1.59-.5 2.37a63.663 63.663 0 0 0 5.81 6l.33.31a68.24 68.24 0 0 0 13.32 9.43l.19.1a65.937 65.937 0 0 0 9.4 4.16l.85.3c.18-1.85.38-3.9.62-6 0-.21 0-.42.08-.63l.24-2c.06-.51.13-1 .2-1.55.12-.89.24-1.79.38-2.68.06-.46.13-.92.21-1.38a116.063 116.063 0 0 1 .7-4.02v-.14l.18-.91c.06-.3.12-.59.19-.88.12-.57.25-1.14.39-1.68.2-.81.41-1.57.63-2.27.8-2.59 1.73-4.41 2.78-4.94l6.94-10.67.29-.45.13-.2-.25-.02z" fill-opacity=".1" fill-rule="nonzero"/><path d="M301.54 440.936l-7.37 11.32c-1 .51-1.94 2.28-2.73 4.79-.23.74-.46 1.55-.68 2.4a119.589 119.589 0 0 0-2.26 13.09c0 .2 0 .4-.08.6-.34 2.78-.62 5.51-.85 7.92a65.937 65.937 0 0 1-9.4-4.16l-.19-.1a68.24 68.24 0 0 1-13.32-9.43l-.33-.31a63.663 63.663 0 0 1-5.81-6c-.24-.27-.47-.55-.7-.83.11-.52.22-1 .34-1.56.57-2.65 1.2-5.37 1.89-8.14a98.43 98.43 0 0 1 3.4-11.2c.037-.109.081-.216.13-.32 3.54-9.11 6.09-8.6 6.09-8.6l16.63-2.68 10.5-1.7-.33.19a10.652 10.652 0 0 0-2.89 3.08l-.29.49c-.12.19-.23.4-.35.61a17.682 17.682 0 0 0-1.38 3.5 3.68 3.68 0 0 0 .24 2.86c1 1.94 3.84 3 6.17 3.58l.39.1a25.28 25.28 0 0 0 3.18.5z" fill="#444176" fill-rule="nonzero"/><path d="M359.33 461.146l-.41-8.88c1.75-14-1.75-14.87-1.75-14.87l-4.16-2h-.11l-16.73-8.11-.65-.32-.2-.09-2.18-1.06-1.38-.67-2.58-1.25-.87-.42v3.47c0 1 .09 2.17.17 3.53.18 3.42.51 8 1.1 13.4.33 3.13.75 6.55 1.27 10.22.31 2.17.53 4.33.67 6.44.449 7.105.228 14.236-.66 21.3l.91-.29a67.003 67.003 0 0 0 7.24-2.9 66.418 66.418 0 0 0 12.9-7.92l.18-.13a66.755 66.755 0 0 0 7.26-6.59l-.02-2.86z" fill-opacity=".1" fill-rule="nonzero"/><path d="M360.21 461.146l-.41-8.9c1.75-14-1.75-14.87-1.75-14.87l-5-2.42h-.1l-16.78-8.14-.77-.37-.15-.07-1.23-.6-1.63-.79-3.22-1.56v3.18c0 1 .09 2.31.18 3.8.17 3.19.47 7.37 1 12.34.36 3.41.81 7.2 1.4 11.28.307 2.18.527 4.337.66 6.47.445 7.004.237 14.034-.62 21a67.003 67.003 0 0 0 7.24-2.9 66.418 66.418 0 0 0 12.9-7.92l.18-.13a66.755 66.755 0 0 0 7.26-6.59c.293-.293.573-.593.84-.9v-1.91z" fill="#444176" fill-rule="nonzero"/><path d="M289.5 370.086c-1 1.38-.92 3.28-1.37 5-1.07 3.91-5.31 6.36-6.28 10.3-.57 2.3.09 4.74-.3 7.08-.71 4.31-4.65 7.23-6.85 11a14.847 14.847 0 0 0-.91 12.9 20.687 20.687 0 0 1 1.27 3.26 11.91 11.91 0 0 1-.31 5c-.75 3.56-1.52 7.48.2 10.69 1.45 2.71 4.46 4.3 7.49 4.8 3.06.346 6.155.204 9.17-.42 3.31-.51 6.7-1.1 9.58-2.8l-10.83-26.14c-1.09-2.64-2.21-5.37-2.2-8.23.088-2.11.545-4.188 1.35-6.14a53.197 53.197 0 0 1 9-15.55c1.57 1.82 1.45 4.59 2.76 6.61a10.434 10.434 0 0 0 4.46 3.33 147.787 147.787 0 0 0 15.79 6.6 2.076 2.076 0 0 1 1.812 2.054c0 .36-.094.713-.272 1.026l-4.08 16.84c-.9 3.71-1.69 8 .62 11s7.52 4.42 7.55 8.29a13.139 13.139 0 0 0 0 1.84c.27 1.81 2.42 2.68 4.25 2.77 6.178.122 11.589-4.293 12.71-10.37 1-6.62-3.38-12.72-5.21-19.17-3.08-10.85 1-23.58-5.05-33.11-4.9-7.73-13.83-9.83-22.31-10.79-5.95-.7-17.85-3.2-22.04 2.33z" fill-opacity=".1" fill-rule="nonzero"/><path d="M289.5 369.086c-1 1.38-.92 3.28-1.37 5-1.07 3.91-5.31 6.36-6.28 10.3-.57 2.3.09 4.74-.3 7.08-.71 4.31-4.65 7.23-6.85 11a14.847 14.847 0 0 0-.91 12.9 20.687 20.687 0 0 1 1.27 3.26 11.91 11.91 0 0 1-.31 5c-.75 3.56-1.52 7.48.2 10.69 1.45 2.71 4.46 4.3 7.49 4.8 3.06.346 6.155.204 9.17-.42 3.31-.51 6.7-1.1 9.58-2.8l-10.83-26.14c-1.09-2.64-2.21-5.37-2.2-8.23.088-2.11.545-4.188 1.35-6.14a53.197 53.197 0 0 1 9-15.55c1.57 1.82 1.45 4.59 2.76 6.61a10.434 10.434 0 0 0 4.46 3.33 147.787 147.787 0 0 0 15.79 6.6 2.076 2.076 0 0 1 1.812 2.054c0 .36-.094.713-.272 1.026l-4.08 16.84c-.9 3.71-1.69 8 .62 11s7.52 4.42 7.55 8.29a13.139 13.139 0 0 0 0 1.84c.27 1.81 2.42 2.68 4.25 2.77 6.178.122 11.589-4.293 12.71-10.37 1-6.62-3.38-12.72-5.21-19.17-3.08-10.85 1-23.58-5.05-33.11-4.9-7.73-13.83-9.83-22.31-10.79-5.95-.7-17.85-3.2-22.04 2.33z" fill="#493545" fill-rule="nonzero"/><path d="M378.28 657.946a67.694 67.694 0 0 1-16.37 44.25c-.52.61-1.06 1.21-1.61 1.8-.273.307-.553.607-.84.9a66.755 66.755 0 0 1-7.26 6.59l-.18.13a66.418 66.418 0 0 1-12.9 7.92 67.003 67.003 0 0 1-7.24 2.9l-.91.29c-.56.19-1.14.36-1.71.52l-.23.07a68.343 68.343 0 0 1-37.55 0h-.1c-1-.29-2-.59-2.92-.92l-.85-.3a65.937 65.937 0 0 1-9.4-4.16l-.19-.1a68.24 68.24 0 0 1-13.32-9.43l-.33-.31a63.663 63.663 0 0 1-5.81-6c-.24-.27-.47-.55-.7-.83-.44-.52-.86-1.06-1.28-1.6a68.012 68.012 0 0 1-14.3-41.717c0-37.304 30.696-68 68-68 37.303 0 67.998 30.694 68 67.997z" fill="#c0bccf" fill-rule="nonzero"/><path d="M360.21 701.766l-.41-9c1.75-14.23-1.75-15.12-1.75-15.12l-5-2.46-.1-.05-16.78-8.27-.77-.38-.1-.41s.33-1-1.33-1.17a6.088 6.088 0 0 1-.42-2.55c.17-1.92 1.62-3.43 2.75-5a20.55 20.55 0 0 0 3.29-14.57 34.268 34.268 0 0 0-5.58-14.08l-.32-.47a16.92 16.92 0 0 0 .59-4.42c0-11.51-11.64-20.84-26-20.84-13 0-23.83 7.69-25.71 17.72a9.066 9.066 0 0 0-.79 1.24c-2.64 4.94 1.44 8.63 1.57 13.56.09 3.4-2.19 6.31-4 9.19s-3.15 6.71-1.29 9.55c.61.94 1.53 1.65 2.08 2.63 1.93 3.41-1.28 7.32-2.45 11.06-.135.436-.242.88-.32 1.33l-7.72 1.26s-2.55-.52-6.09 8.74c-.05.107-.093.217-.13.33a101.492 101.492 0 0 0-3.4 11.39c-.69 2.82-1.32 5.58-1.89 8.27-.12.53-.23 1.06-.34 1.59.23.28.46.57.7.84a64.11 64.11 0 0 0 5.81 6.12l.33.32a68.335 68.335 0 0 0 13.32 9.59l.19.1a65.448 65.448 0 0 0 9.4 4.23l.85.3c1 .34 1.94.64 2.92.94.036.151.063.305.08.46v-.44a67.274 67.274 0 0 0 37.55 0l.23-.07c.57-.16 1.15-.34 1.71-.53l.91-.29a66.469 66.469 0 0 0 7.24-2.95 66.305 66.305 0 0 0 12.9-8.05l.18-.13a67.204 67.204 0 0 0 7.26-6.7c.293-.293.573-.597.84-.91l-.01-1.9z" fill="url(#_Linear3)" fill-rule="nonzero"/><path d="M283.35 636.936c.09 3.35-2.19 6.21-4 9s-3.15 6.6-1.29 9.39c.61.92 1.53 1.63 2.08 2.59 1.93 3.35-1.28 7.2-2.45 10.88-1.35 4.25.22 9 3.06 12.45 2.84 3.45 6.76 5.78 10.72 7.83a95.68 95.68 0 0 0 26.52 9.44c4.84.89 10 1.29 14.54-.65 6.461-2.964 10.086-10.022 8.73-17-1.15-5.26-5-9.49-7-14.46a6.772 6.772 0 0 1-.66-3.13c.17-1.89 1.62-3.37 2.75-4.9a20.005 20.005 0 0 0 3.24-14.23 33.401 33.401 0 0 0-5.58-13.86 15.175 15.175 0 0 0-4-4.4c-2.18-1.47-4.88-1.89-7.48-2.26-10.86-1.52-22.11-3.18-33.06-3.74-3.46-.18-6 .5-7.71 3.74-2.61 4.83 1.46 8.46 1.59 13.31z" fill="#444176" fill-rule="nonzero"/><path d="M339.28 670.946l-20.61 29.31-20.12-1.75s-.66 7-8.75-18.37c-4.52-14.19 4.67-9.26 6.48-13.19 1.81-3.93 5-7.4 5.27-10.3.64-6.22-1.25-9.76-1.25-9.76l21.87-2.62a16.317 16.317 0 0 0-.36 9.13c2.74 11.38 17.47 17.55 17.47 17.55z" fill="#c77485" fill-rule="nonzero"/><ellipse cx="308.28" cy="625.456" rx="26" ry="20.5" fill="#444176"/><path d="M321.8 653.386a21.879 21.879 0 0 1-20.26 3.26c.64-6.22-1.25-9.76-1.25-9.76l21.87-2.62a16.318 16.318 0 0 0-.36 9.12z" fill-opacity=".1" fill-rule="nonzero"/><circle cx="308.61" cy="635.076" r="21.87" fill="#c77485"/><path d="M337.12 674.266l-.51-2-.44-1.76-.65-2.6-.12-.48-.1-.4s.52-1.57-2.91-1.06l-.64.11c-.54.11-1.17.26-1.89.46l-.65.2-.86.27a18.746 18.746 0 0 0-7.26 4.38 16.311 16.311 0 0 0-2.43 2.94c-.07.1-.12.19-.18.27a9.415 9.415 0 0 0-.63 1.16c0 7.88-7.88 17.5-7.88 17.5l-7.69-11.11-.15-.22-1.83-2.66-.65-.86-.22-.3-4-5.37-1-1.34-.33-.45-.49-.65-1.15-1.53-4.5 2.63-6 3.5-3.5 22.75v.63l.11 1.88.73 12.36v.17l-1.28 5.12.19.1a65.937 65.937 0 0 0 9.4 4.16l.85.3c1 .33 1.94.63 2.92.92.036.148.063.298.08.45v-.43a68.343 68.343 0 0 0 37.55 0l.23-.07c.57-.16 1.15-.33 1.71-.52l.91-.29a67.003 67.003 0 0 0 7.24-2.9l.84-17.9.6-12.91v-.74l-3.42-13.71z" fill-opacity=".1" fill-rule="nonzero"/><path d="M329.92 707.516c0-.4 0-.8-.07-1.2-.07-.4-.06-.75-.11-1.13-.05-.38-.09-.76-.14-1.14-.05-.38-.12-.76-.19-1.14-.07-.38-.14-.76-.22-1.14 0-.13-.05-.25-.08-.38-.11-.5-.23-1-.36-1.51-.13-.51-.21-.81-.33-1.21 0-.18-.1-.36-.16-.53-.06-.17-.17-.58-.26-.87l-.18-.56c-.08-.25-.16-.5-.25-.75-.15-.45-.31-.89-.47-1.34-.16-.45-.33-.89-.5-1.33-.34-.9-.71-1.79-1.08-2.68-1.45-3.46-3.08-6.87-4.58-10.25a56.865 56.865 0 0 1-2.14-5.43l-.19.27c-.304.46-.575.941-.81 1.44 0 7.87-7.88 17.5-7.88 17.5l-7.93-11.55-6.94 10.67c-1 .53-2 2.35-2.78 4.94-.22.7-.43 1.46-.63 2.27-.14.54-.27 1.11-.39 1.68-.07.29-.13.58-.19.88l-.18.91v.14c-.12.62-.24 1.26-.35 1.91-.11.65-.24 1.4-.35 2.11-.08.46-.15.92-.21 1.38-.14.89-.26 1.79-.38 2.68-.07.52-.14 1-.2 1.55l-.24 2a95.43 95.43 0 0 0 1.67 4.85c.377.871.597 1.802.65 2.75a68.343 68.343 0 0 0 37.55 0 .418.418 0 0 1 0-.1 11.917 11.917 0 0 1-.24-2.73 75.111 75.111 0 0 1 1-7.65c.148-1.248.211-2.504.19-3.76v-.45c-.03-.38-.04-.74-.05-1.1zm0 0c0-.4 0-.8-.07-1.2-.07-.4-.06-.75-.11-1.13-.05-.38-.09-.76-.14-1.14-.05-.38-.12-.76-.19-1.14-.07-.38-.14-.76-.22-1.14 0-.13-.05-.25-.08-.38-.11-.5-.23-1-.36-1.51-.13-.51-.21-.81-.33-1.21 0-.18-.1-.36-.16-.53-.06-.17-.17-.58-.26-.87l-.18-.56c-.08-.25-.16-.5-.25-.75-.15-.45-.31-.89-.47-1.34-.16-.45-.33-.89-.5-1.33-.34-.9-.71-1.79-1.08-2.68-1.45-3.46-3.08-6.87-4.58-10.25a56.865 56.865 0 0 1-2.14-5.43l-.19.27c-.304.46-.575.941-.81 1.44 0 7.87-7.88 17.5-7.88 17.5l-7.93-11.55-6.94 10.67c-1 .53-2 2.35-2.78 4.94-.22.7-.43 1.46-.63 2.27-.14.54-.27 1.11-.39 1.68-.07.29-.13.58-.19.88l-.18.91v.14c-.12.62-.24 1.26-.35 1.91-.11.65-.24 1.4-.35 2.11-.08.46-.15.92-.21 1.38-.14.89-.26 1.79-.38 2.68-.07.52-.14 1-.2 1.55l-.24 2a95.43 95.43 0 0 0 1.67 4.85c.377.871.597 1.802.65 2.75a68.343 68.343 0 0 0 37.55 0 .418.418 0 0 1 0-.1 11.917 11.917 0 0 1-.24-2.73 75.111 75.111 0 0 1 1-7.65c.148-1.248.211-2.504.19-3.76v-.45c-.03-.38-.04-.74-.05-1.1zm0 0c0-.4 0-.8-.07-1.2-.07-.4-.06-.75-.11-1.13-.05-.38-.09-.76-.14-1.14-.05-.38-.12-.76-.19-1.14-.07-.38-.14-.76-.22-1.14 0-.13-.05-.25-.08-.38-.11-.5-.23-1-.36-1.51-.13-.51-.21-.81-.33-1.21 0-.18-.1-.36-.16-.53-.06-.17-.17-.58-.26-.87l-.18-.56c-.08-.25-.16-.5-.25-.75-.15-.45-.31-.89-.47-1.34-.16-.45-.33-.89-.5-1.33-.34-.9-.71-1.79-1.08-2.68-1.45-3.46-3.08-6.87-4.58-10.25a56.865 56.865 0 0 1-2.14-5.43l-.19.27c-.304.46-.575.941-.81 1.44 0 7.87-7.88 17.5-7.88 17.5l-7.93-11.55-6.94 10.67c-1 .53-2 2.35-2.78 4.94-.22.7-.43 1.46-.63 2.27-.14.54-.27 1.11-.39 1.68-.07.29-.13.58-.19.88l-.18.91v.14c-.12.62-.24 1.26-.35 1.91-.11.65-.24 1.4-.35 2.11-.08.46-.15.92-.21 1.38-.14.89-.26 1.79-.38 2.68-.07.52-.14 1-.2 1.55l-.24 2a95.43 95.43 0 0 0 1.67 4.85c.377.871.597 1.802.65 2.75a68.343 68.343 0 0 0 37.55 0 .418.418 0 0 1 0-.1 11.917 11.917 0 0 1-.24-2.73 75.111 75.111 0 0 1 1-7.65c.148-1.248.211-2.504.19-3.76v-.45c-.03-.38-.04-.74-.05-1.1zm10.6-18.77l-3.57-14.25-.61-2.44-.17-.67-.87-3.48a.676.676 0 0 0 0-.09.801.801 0 0 0-.07-.45c-.13-.26-.46-.53-1.23-.6a6.154 6.154 0 0 0-.88 0c-.869.086-1.729.246-2.57.48-.41.11-.85.23-1.32.38l-.86.27h-.08a19.094 19.094 0 0 0-6.3 3.5 16.994 16.994 0 0 0-3.2 3.54l-.19.27c-.304.46-.575.941-.81 1.44 0 7.87-7.88 17.5-7.88 17.5l-7.93-11.55-.45-.65-.08-.11-1.15-1.69-.87-1.16-.23-.3-4.1-5.47-1.3-1.77v-.06l-.45-.61-.86-1.14-3 1.75-7.5 4.37-3.46 22.51v.24l.1 1.64.74 12.53v.71l-1.13 4.51a65.937 65.937 0 0 0 9.4 4.16l.85.3c1 .33 1.94.63 2.92.92.036.148.063.298.08.45v-.43a68.343 68.343 0 0 0 37.55 0l.23-.07c.57-.16 1.15-.33 1.71-.52l.91-.29a67.003 67.003 0 0 0 7.24-2.9l.83-17.88.6-12.77-.04-.12zm-49.18 34.53c.036.148.063.298.08.45v-.43l-.08-.02zm38.58-15.76c0-.4 0-.8-.07-1.2-.07-.4-.06-.75-.11-1.13-.05-.38-.09-.76-.14-1.14-.05-.38-.12-.76-.19-1.14-.07-.38-.14-.76-.22-1.14 0-.13-.05-.25-.08-.38-.11-.5-.23-1-.36-1.51-.13-.51-.21-.81-.33-1.21 0-.18-.1-.36-.16-.53-.06-.17-.17-.58-.26-.87l-.18-.56c-.08-.25-.16-.5-.25-.75-.15-.45-.31-.89-.47-1.34-.16-.45-.33-.89-.5-1.33-.34-.9-.71-1.79-1.08-2.68-1.45-3.46-3.08-6.87-4.58-10.25a56.865 56.865 0 0 1-2.14-5.43l-.19.27c-.304.46-.575.941-.81 1.44 0 7.87-7.88 17.5-7.88 17.5l-7.93-11.55-6.94 10.67c-1 .53-2 2.35-2.78 4.94-.22.7-.43 1.46-.63 2.27-.14.54-.27 1.11-.39 1.68-.07.29-.13.58-.19.88l-.18.91v.14c-.12.62-.24 1.26-.35 1.91-.11.65-.24 1.4-.35 2.11-.08.46-.15.92-.21 1.38-.14.89-.26 1.79-.38 2.68-.07.52-.14 1-.2 1.55l-.24 2a95.43 95.43 0 0 0 1.67 4.85c.377.871.597 1.802.65 2.75a68.343 68.343 0 0 0 37.55 0 .418.418 0 0 1 0-.1 11.917 11.917 0 0 1-.24-2.73 75.111 75.111 0 0 1 1-7.65c.148-1.248.211-2.504.19-3.76v-.45c-.03-.38-.04-.74-.05-1.1zm0 0c0-.4 0-.8-.07-1.2-.07-.4-.06-.75-.11-1.13-.05-.38-.09-.76-.14-1.14-.05-.38-.12-.76-.19-1.14-.07-.38-.14-.76-.22-1.14 0-.13-.05-.25-.08-.38-.11-.5-.23-1-.36-1.51-.13-.51-.21-.81-.33-1.21 0-.18-.1-.36-.16-.53-.06-.17-.17-.58-.26-.87l-.18-.56c-.08-.25-.16-.5-.25-.75-.15-.45-.31-.89-.47-1.34-.16-.45-.33-.89-.5-1.33-.34-.9-.71-1.79-1.08-2.68-1.45-3.46-3.08-6.87-4.58-10.25a56.865 56.865 0 0 1-2.14-5.43l-.19.27c-.304.46-.575.941-.81 1.44 0 7.87-7.88 17.5-7.88 17.5l-7.93-11.55-6.94 10.67c-1 .53-2 2.35-2.78 4.94-.22.7-.43 1.46-.63 2.27-.14.54-.27 1.11-.39 1.68-.07.29-.13.58-.19.88l-.18.91v.14c-.12.62-.24 1.26-.35 1.91-.11.65-.24 1.4-.35 2.11-.08.46-.15.92-.21 1.38-.14.89-.26 1.79-.38 2.68-.07.52-.14 1-.2 1.55l-.24 2a95.43 95.43 0 0 0 1.67 4.85c.377.871.597 1.802.65 2.75a68.343 68.343 0 0 0 37.55 0 .418.418 0 0 1 0-.1 11.917 11.917 0 0 1-.24-2.73 75.111 75.111 0 0 1 1-7.65c.148-1.248.211-2.504.19-3.76v-.45c-.03-.38-.04-.74-.05-1.1zm0 0c0-.4 0-.8-.07-1.2-.07-.4-.06-.75-.11-1.13-.05-.38-.09-.76-.14-1.14-.05-.38-.12-.76-.19-1.14-.07-.38-.14-.76-.22-1.14 0-.13-.05-.25-.08-.38-.11-.5-.23-1-.36-1.51-.13-.51-.21-.81-.33-1.21 0-.18-.1-.36-.16-.53-.06-.17-.17-.58-.26-.87l-.18-.56c-.08-.25-.16-.5-.25-.75-.15-.45-.31-.89-.47-1.34-.16-.45-.33-.89-.5-1.33-.34-.9-.71-1.79-1.08-2.68-1.45-3.46-3.08-6.87-4.58-10.25a56.865 56.865 0 0 1-2.14-5.43l-.19.27c-.304.46-.575.941-.81 1.44 0 7.87-7.88 17.5-7.88 17.5l-7.93-11.55-6.94 10.67c-1 .53-2 2.35-2.78 4.94-.22.7-.43 1.46-.63 2.27-.14.54-.27 1.11-.39 1.68-.07.29-.13.58-.19.88l-.18.91v.14c-.12.62-.24 1.26-.35 1.91-.11.65-.24 1.4-.35 2.11-.08.46-.15.92-.21 1.38-.14.89-.26 1.79-.38 2.68-.07.52-.14 1-.2 1.55l-.24 2a95.43 95.43 0 0 0 1.67 4.85c.377.871.597 1.802.65 2.75a68.343 68.343 0 0 0 37.55 0 .418.418 0 0 1 0-.1 11.917 11.917 0 0 1-.24-2.73 75.111 75.111 0 0 1 1-7.65c.148-1.248.211-2.504.19-3.76v-.45c-.03-.38-.04-.74-.05-1.1zm0 0c0-.4 0-.8-.07-1.2-.07-.4-.06-.75-.11-1.13-.05-.38-.09-.76-.14-1.14-.05-.38-.12-.76-.19-1.14-.07-.38-.14-.76-.22-1.14 0-.13-.05-.25-.08-.38-.11-.5-.23-1-.36-1.51-.13-.51-.21-.81-.33-1.21 0-.18-.1-.36-.16-.53-.06-.17-.17-.58-.26-.87l-.18-.56c-.08-.25-.16-.5-.25-.75-.15-.45-.31-.89-.47-1.34-.16-.45-.33-.89-.5-1.33-.34-.9-.71-1.79-1.08-2.68-1.45-3.46-3.08-6.87-4.58-10.25a56.865 56.865 0 0 1-2.14-5.43l-.19.27c-.304.46-.575.941-.81 1.44 0 7.87-7.88 17.5-7.88 17.5l-7.93-11.55-6.94 10.67c-1 .53-2 2.35-2.78 4.94-.22.7-.43 1.46-.63 2.27-.14.54-.27 1.11-.39 1.68-.07.29-.13.58-.19.88l-.18.91v.14c-.12.62-.24 1.26-.35 1.91-.11.65-.24 1.4-.35 2.11-.08.46-.15.92-.21 1.38-.14.89-.26 1.79-.38 2.68-.07.52-.14 1-.2 1.55l-.24 2a95.43 95.43 0 0 0 1.67 4.85c.377.871.597 1.802.65 2.75a68.343 68.343 0 0 0 37.55 0 .418.418 0 0 1 0-.1 11.917 11.917 0 0 1-.24-2.73 75.111 75.111 0 0 1 1-7.65c.148-1.248.211-2.504.19-3.76v-.45c-.03-.38-.04-.74-.05-1.1zm0 0c0-.4 0-.8-.07-1.2-.07-.4-.06-.75-.11-1.13-.05-.38-.09-.76-.14-1.14-.05-.38-.12-.76-.19-1.14-.07-.38-.14-.76-.22-1.14 0-.13-.05-.25-.08-.38-.11-.5-.23-1-.36-1.51-.13-.51-.21-.81-.33-1.21 0-.18-.1-.36-.16-.53-.06-.17-.17-.58-.26-.87l-.18-.56c-.08-.25-.16-.5-.25-.75-.15-.45-.31-.89-.47-1.34-.16-.45-.33-.89-.5-1.33-.34-.9-.71-1.79-1.08-2.68-1.45-3.46-3.08-6.87-4.58-10.25a56.865 56.865 0 0 1-2.14-5.43l-.19.27c-.304.46-.575.941-.81 1.44 0 7.87-7.88 17.5-7.88 17.5l-7.93-11.55-6.94 10.67c-1 .53-2 2.35-2.78 4.94-.22.7-.43 1.46-.63 2.27-.14.54-.27 1.11-.39 1.68-.07.29-.13.58-.19.88l-.18.91v.14c-.12.62-.24 1.26-.35 1.91-.11.65-.24 1.4-.35 2.11-.08.46-.15.92-.21 1.38-.14.89-.26 1.79-.38 2.68-.07.52-.14 1-.2 1.55l-.24 2a95.43 95.43 0 0 0 1.67 4.85c.377.871.597 1.802.65 2.75a68.343 68.343 0 0 0 37.55 0 .418.418 0 0 1 0-.1 11.917 11.917 0 0 1-.24-2.73 75.111 75.111 0 0 1 1-7.65c.148-1.248.211-2.504.19-3.76v-.45c-.03-.38-.04-.74-.05-1.1zm0 0c0-.4 0-.8-.07-1.2-.07-.4-.06-.75-.11-1.13-.05-.38-.09-.76-.14-1.14-.05-.38-.12-.76-.19-1.14-.07-.38-.14-.76-.22-1.14 0-.13-.05-.25-.08-.38-.11-.5-.23-1-.36-1.51-.13-.51-.21-.81-.33-1.21 0-.18-.1-.36-.16-.53-.06-.17-.17-.58-.26-.87l-.18-.56c-.08-.25-.16-.5-.25-.75-.15-.45-.31-.89-.47-1.34-.16-.45-.33-.89-.5-1.33-.34-.9-.71-1.79-1.08-2.68-1.45-3.46-3.08-6.87-4.58-10.25a56.865 56.865 0 0 1-2.14-5.43l-.19.27c-.304.46-.575.941-.81 1.44 0 7.87-7.88 17.5-7.88 17.5l-7.93-11.55-6.94 10.67c-1 .53-2 2.35-2.78 4.94-.22.7-.43 1.46-.63 2.27-.14.54-.27 1.11-.39 1.68-.07.29-.13.58-.19.88l-.18.91v.14c-.12.62-.24 1.26-.35 1.91-.11.65-.24 1.4-.35 2.11-.08.46-.15.92-.21 1.38-.14.89-.26 1.79-.38 2.68-.07.52-.14 1-.2 1.55l-.24 2a95.43 95.43 0 0 0 1.67 4.85c.377.871.597 1.802.65 2.75a68.343 68.343 0 0 0 37.55 0 .418.418 0 0 1 0-.1 11.917 11.917 0 0 1-.24-2.73 75.111 75.111 0 0 1 1-7.65c.148-1.248.211-2.504.19-3.76v-.45c-.03-.38-.04-.74-.05-1.1zm0 0c0-.4 0-.8-.07-1.2-.07-.4-.06-.75-.11-1.13-.05-.38-.09-.76-.14-1.14-.05-.38-.12-.76-.19-1.14-.07-.38-.14-.76-.22-1.14 0-.13-.05-.25-.08-.38-.11-.5-.23-1-.36-1.51-.13-.51-.21-.81-.33-1.21 0-.18-.1-.36-.16-.53-.06-.17-.17-.58-.26-.87l-.18-.56c-.08-.25-.16-.5-.25-.75-.15-.45-.31-.89-.47-1.34-.16-.45-.33-.89-.5-1.33-.34-.9-.71-1.79-1.08-2.68-1.45-3.46-3.08-6.87-4.58-10.25a56.865 56.865 0 0 1-2.14-5.43l-.19.27c-.304.46-.575.941-.81 1.44 0 7.87-7.88 17.5-7.88 17.5l-7.93-11.55-6.94 10.67c-1 .53-2 2.35-2.78 4.94-.22.7-.43 1.46-.63 2.27-.14.54-.27 1.11-.39 1.68-.07.29-.13.58-.19.88l-.18.91v.14c-.12.62-.24 1.26-.35 1.91-.11.65-.24 1.4-.35 2.11-.08.46-.15.92-.21 1.38-.14.89-.26 1.79-.38 2.68-.07.52-.14 1-.2 1.55l-.24 2a95.43 95.43 0 0 0 1.67 4.85c.377.871.597 1.802.65 2.75a68.343 68.343 0 0 0 37.55 0 .418.418 0 0 1 0-.1 11.917 11.917 0 0 1-.24-2.73 75.111 75.111 0 0 1 1-7.65c.148-1.248.211-2.504.19-3.76v-.45c-.03-.38-.04-.74-.05-1.1zm0 0c0-.4 0-.8-.07-1.2-.07-.4-.06-.75-.11-1.13-.05-.38-.09-.76-.14-1.14-.05-.38-.12-.76-.19-1.14-.07-.38-.14-.76-.22-1.14 0-.13-.05-.25-.08-.38-.11-.5-.23-1-.36-1.51-.13-.51-.21-.81-.33-1.21 0-.18-.1-.36-.16-.53-.06-.17-.17-.58-.26-.87l-.18-.56c-.08-.25-.16-.5-.25-.75-.15-.45-.31-.89-.47-1.34-.16-.45-.33-.89-.5-1.33-.34-.9-.71-1.79-1.08-2.68-1.45-3.46-3.08-6.87-4.58-10.25a56.865 56.865 0 0 1-2.14-5.43l-.19.27c-.304.46-.575.941-.81 1.44 0 7.87-7.88 17.5-7.88 17.5l-7.93-11.55-6.94 10.67c-1 .53-2 2.35-2.78 4.94-.22.7-.43 1.46-.63 2.27-.14.54-.27 1.11-.39 1.68-.07.29-.13.58-.19.88l-.18.91v.14c-.12.62-.24 1.26-.35 1.91-.11.65-.24 1.4-.35 2.11-.08.46-.15.92-.21 1.38-.14.89-.26 1.79-.38 2.68-.07.52-.14 1-.2 1.55l-.24 2a95.43 95.43 0 0 0 1.67 4.85c.377.871.597 1.802.65 2.75a68.343 68.343 0 0 0 37.55 0 .418.418 0 0 1 0-.1 11.917 11.917 0 0 1-.24-2.73 75.111 75.111 0 0 1 1-7.65c.148-1.248.211-2.504.19-3.76v-.45c-.03-.38-.04-.74-.05-1.1z" fill="#444176" fill-rule="nonzero"/><path d="M302.13 681.916l-.67-.09a24.462 24.462 0 0 1-3-.6l-.37-.1c-2.44-.69-5.11-1.93-5.71-4.11a3.885 3.885 0 0 1 .06-2.13c.336-1.19.791-2.342 1.36-3.44v-.06c.075-.155.159-.305.25-.45a10 10 0 0 1 3.61-3.93l-1.2.19-10.16 1.65-15.75 2.54s-2.8-.56-6.61 9.94c0 .13-.09.25-.13.39-.92 2.57-1.89 5.78-2.89 9.79-.69 2.78-1.32 5.51-1.9 8.16-.17.8-.34 1.59-.5 2.37a63.663 63.663 0 0 0 5.81 6l.33.31a68.24 68.24 0 0 0 13.32 9.43l.19.1a65.937 65.937 0 0 0 9.4 4.16l.85.3c.18-1.85.38-3.9.62-6 0-.21 0-.42.08-.63l.24-2c.06-.51.13-1 .2-1.55.12-.89.24-1.79.38-2.68.06-.46.13-.92.21-1.38a116.063 116.063 0 0 1 .7-4.02v-.14l.18-.91c.06-.3.12-.59.19-.88.12-.57.25-1.14.39-1.68.2-.81.41-1.57.63-2.27.8-2.59 1.73-4.41 2.78-4.94l6.94-10.67.29-.45.13-.2-.25-.02z" fill-opacity=".1" fill-rule="nonzero"/><path d="M301.54 681.936l-7.37 11.32c-1 .51-1.94 2.28-2.73 4.79-.23.74-.46 1.55-.68 2.4a119.589 119.589 0 0 0-2.26 13.09c0 .2 0 .4-.08.6-.34 2.78-.62 5.51-.85 7.92a65.937 65.937 0 0 1-9.4-4.16l-.19-.1a68.24 68.24 0 0 1-13.32-9.43l-.33-.31a63.663 63.663 0 0 1-5.81-6c-.24-.27-.47-.55-.7-.83.11-.52.22-1 .34-1.56.57-2.65 1.2-5.37 1.89-8.14a98.43 98.43 0 0 1 3.4-11.2c.037-.109.081-.216.13-.32 3.54-9.11 6.09-8.6 6.09-8.6l16.63-2.68 10.5-1.7-.33.19a10.652 10.652 0 0 0-2.89 3.08l-.29.49c-.12.19-.23.4-.35.61a17.682 17.682 0 0 0-1.38 3.5 3.68 3.68 0 0 0 .24 2.86c1 1.94 3.84 3 6.17 3.58l.39.1a25.28 25.28 0 0 0 3.18.5z" fill="#f1d2d7" fill-rule="nonzero"/><path d="M359.33 702.146l-.41-8.88c1.75-14-1.75-14.87-1.75-14.87l-4.16-2h-.11l-16.73-8.11-.65-.32-.2-.09-2.18-1.06-1.38-.67-2.58-1.25-.87-.42v3.47c0 1 .09 2.17.17 3.53.18 3.42.51 8 1.1 13.4.33 3.13.75 6.55 1.27 10.22.31 2.17.53 4.33.67 6.44.449 7.105.228 14.236-.66 21.3l.91-.29a67.003 67.003 0 0 0 7.24-2.9 66.418 66.418 0 0 0 12.9-7.92l.18-.13a66.755 66.755 0 0 0 7.26-6.59l-.02-2.86z" fill-opacity=".1" fill-rule="nonzero"/><path d="M360.21 702.146l-.41-8.9c1.75-14-1.75-14.87-1.75-14.87l-5-2.42h-.1l-16.78-8.14-.77-.37-.15-.07-1.23-.6-1.63-.79-3.22-1.56v3.18c0 1 .09 2.31.18 3.8.17 3.19.47 7.37 1 12.34.36 3.41.81 7.2 1.4 11.28.307 2.18.527 4.337.66 6.47.445 7.004.237 14.034-.62 21a67.003 67.003 0 0 0 7.24-2.9 66.418 66.418 0 0 0 12.9-7.92l.18-.13a66.755 66.755 0 0 0 7.26-6.59c.293-.293.573-.593.84-.9v-1.91z" fill="#f1d2d7" fill-rule="nonzero"/><path d="M303.8 628.676c3.12-.53 6.26-1.67 9.36-1 2.6.54 4.77 2.27 7.15 3.47a18.518 18.518 0 0 0 7.38 1.95 4.34 4.34 0 0 0 2.71-.53c1.24-.86 1.42-2.62 1.21-4.12-.6-4.26-3.26-7.92-6-11.24a22.009 22.009 0 0 0-3.76-3.81c-3.59-2.65-8.34-3.1-12.79-2.9-5.08.23-10.24 1.21-14.65 3.76-3 1.72-9.88 7.14-7.49 11.06 2.51 4.1 12.95 4.03 16.88 3.36z" fill-opacity=".1" fill-rule="nonzero"/><path d="M303.8 627.676c3.12-.53 6.26-1.67 9.36-1 2.6.54 4.77 2.27 7.15 3.47a18.518 18.518 0 0 0 7.38 1.95 4.34 4.34 0 0 0 2.71-.53c1.24-.86 1.42-2.62 1.21-4.12-.6-4.26-3.26-7.92-6-11.24a22.009 22.009 0 0 0-3.76-3.81c-3.59-2.65-8.34-3.1-12.79-2.9-5.08.23-10.24 1.21-14.65 3.76-3 1.72-9.88 7.14-7.49 11.06 2.51 4.1 12.95 4.03 16.88 3.36z" fill="#444176" fill-rule="nonzero"/><path d="M578.41 578.706h.15c.22 6.7 1.17 12.76 3 14.44 4.36 4 22.44-4 21.2-8.84-.25-1-.67-2.64-1.2-4.71 4.88-.61 9.05-2 10.71-4.86l3.14 9.68.22.69h.24c2.07 19.62 6.76 60.36 10.51 65.82 5 7.23 10.75 38.56 10.75 38.56l10.75 64.27s4.14 37 6.62 41a4.652 4.652 0 0 0 2.72 1.41c-1.45 4.34-3.53 9.41-6 12.24-5 5.62-11.58 16.87-17.37 16.07-5.79-.8-7.44 11.25 3.31 12.85 5.95.89 15.44-.19 22.73-1.33 0 3.22 2.24 6.92 7.87 7.76 10.75 1.61 33.08-3.21 33.08-3.21s19-8 19.85-13.66c.6-4.1-2.31-20.56-3.93-29.19 3-4.81-.2-46.32-.2-46.32l-5.79-79.53s3.31-44.18 0-52.22c-2.07-5-2.84-28-3.13-44.45l4 .26c.227-.275.435-.566.62-.87l1 .07s5-5.62.83-14.46c-3.07-6.57-2.49-36.23-2-51l.59-7c.219-.213.387-.473.49-.76a73.372 73.372 0 0 0 22.33-6.76 22.659 22.659 0 0 0 5.86-3.56c4.14-4 1.65-28.12-6.62-64.27-8.27-36.15-15.71-32.94-15.71-32.94s-19.85-1.61-28.95-13.66c-9.1-12.05-15.21-11.89-15.21-11.89a68.39 68.39 0 0 1-.5-4.46c0-.52-.08-1-.11-1.52a26.448 26.448 0 0 0 6.88-10.43c1.86-1 4.15-1.33 5.93-2.59.454-.33.867-.713 1.23-1.14a10.117 10.117 0 0 0 3.19-6.29 25.703 25.703 0 0 0-.37-7.89c-.63-3.84-1.56-7.77-3.8-10.79-2.24-3.02-5.59-4.84-8.82-6.53a2822.14 2822.14 0 0 0-26.31-13.64 14.515 14.515 0 0 0-5.63-2c-3.52-.2-6.68 2.21-9.52 4.5a40.523 40.523 0 0 0-3.25 2.85 18.233 18.233 0 0 0-2.39 2.57c-3.32 4.45-4.73 12.83-3.27 18.39.46 1.76 1.45 2.27 2.67 2.25a25.787 25.787 0 0 0-2.75 11.6 26.326 26.326 0 0 0 12.21 22.09c0 .56 0 1.11.05 1.64a58.71 58.71 0 0 1-.2 6.15c-.174 2.045-22 11.89-24.47 17.51-2.47 5.62-11.58 9.64-11.58 9.64s-17.37 8.84-17.37 40.17l-9.1 44.18-1.65 84.35s1.14-1 3-2.42c-.06.56-.11 1.14-.16 1.73a95.222 95.222 0 0 0-.25 9.69l-.12.76zm111.1 218.31c-.34 1.29-.84 3-1.47 5-.28-1.66-.56-3.3-.84-4.86a38.8 38.8 0 0 1 2.31-.14z" fill="url(#_Linear4)" fill-rule="nonzero"/><path d="M659.47 786.656s-3.19 14.34-8 19.91c-4.81 5.57-11.11 16.73-16.67 15.93-5.56-.8-7.17 11.15 3.19 12.74 10.36 1.59 31.81-3.18 31.81-3.18s18.32-8 19.11-13.54c.79-5.54-4.78-34.25-4.78-34.25l-24.66 2.39z" fill="#53526b" fill-rule="nonzero"/><path d="M659.47 786.656s-3.19 14.34-8 19.91c-4.81 5.57-11.11 16.73-16.67 15.93-5.56-.8-7.17 11.15 3.19 12.74 10.36 1.59 31.81-3.18 31.81-3.18s18.32-8 19.11-13.54c.79-5.54-4.78-34.25-4.78-34.25l-24.66 2.39z" fill-opacity=".05" fill-rule="nonzero"/><path d="M688.94 793.026s-3.19 14.34-8 19.91c-4.81 5.57-11.14 16.73-16.69 15.93-5.55-.8-7.17 11.15 3.19 12.74 10.36 1.59 31.86-3.19 31.86-3.19s18.32-8 19.11-13.54c.79-5.54-4.78-34.25-4.78-34.25l-24.69 2.4z" fill="#53526b" fill-rule="nonzero"/><path d="M616.46 574.816s6.37 68.49 11.15 75.66c4.78 7.17 10.35 38.23 10.35 38.23l10.35 63.71s4 36.64 6.37 40.62c2.37 3.98 31.93 2.27 31.93 2.27l-18.38-210.94-51.77-9.55z" fill="#5f5d7e" fill-rule="nonzero"/><path d="M616.46 574.816s6.37 68.49 11.15 75.66c4.78 7.17 10.35 38.23 10.35 38.23l10.35 63.71s4 36.64 6.37 40.62c2.37 3.98 31.93 2.27 31.93 2.27l-18.38-210.94-51.77-9.55z" fill-opacity=".05" fill-rule="nonzero"/><path d="M603.72 542.146l2.08 6.61 11.25 35.71.22.68h.06c1.51.34 33.39 7.67 40.27 9.92.371.115.735.252 1.09.41 3.19 1.59 7.17 58.93 7.17 58.93s2.39 54.16 4 58.14c1.61 3.98 8 86 11.95 83.62 3.95-2.38 32.65 0 32.65 0 3.19-3.19 0-46.19 0-46.19l-5.66-78.83s3.19-43.8 0-51.77c-3.19-7.97-3.19-61.32-3.19-61.32l-65.19-10.19-6.3-1-30.4-4.72z" fill="#5f5d7e" fill-rule="nonzero"/><path d="M605.8 548.766l11.25 35.71.27.7c1.51.34 33.39 7.67 40.27 9.92h.69l-17.81-47.22-.51-1.36-5.79.37-28.37 1.88z" fill-opacity=".02" fill-rule="nonzero"/><path d="M680.18 382.876s-29.47 31.86-47.79 5.57l-17.52 11.95 3.19 18.32-10.36 138.57s27.08-.8 46.19 5.57c10.848 3.848 22.996 1.043 31.06-7.17l-3.15-121.84 7.17-37.43-8.79-13.54z" fill-opacity=".1" fill-rule="nonzero"/><path d="M680.18 380.486s-29.47 31.86-47.79 5.57l-17.52 11.95 3.19 18.32-10.36 138.57s27.08-.8 46.19 5.57c10.848 3.848 22.996 1.043 31.06-7.17l-3.15-121.84 7.17-37.43-8.79-13.54z" fill="#53526b" fill-rule="nonzero"/><path d="M621.35 522.366v5.02h-1.6v-3.34h-5.85v3.34h-1.61v-5.01l9.06-.01m-1.43-1.62h-6.18a2.283 2.283 0 0 1-1.68-1.66h9.53a2.293 2.293 0 0 1-1.68 1.66m55.89-1.6a2.314 2.314 0 0 1-1.67 1.65h-2.6l-.13.05v6.56h-1.6v-6.56l-.15-.05h-2.6a2.344 2.344 0 0 1-1.67-1.65h10.42" fill="#e82127" fill-rule="nonzero"/><path d="M618.85 545.346s0 20.71-4.78 29.47c-4.78 8.76-32.65 4-32.65 4l5.57-29.47 31.86-4z" fill="#d6dbe6" fill-rule="nonzero"/><path d="M584.45 593.146c4.2 4 21.61-4 20.41-8.76-.84-3.37-3.78-15.43-5.45-22.27l-1.16-4.81s-10.2-3.19-13.8 0c-1.31 1.16-2.23 5.73-2.66 11.25-.74 9.59.01 22.05 2.66 24.59zm38.35-198.33l27.87 21.5s41.41-2.39 31.06-22.3a74.239 74.239 0 0 1-8-28.14 58.777 58.777 0 0 1 0-10.89c.337-3.622-38.23-35-33.45 4.78.377 3.053.597 6.124.66 9.2.57 29.86-18.14 25.85-18.14 25.85z" fill="#fdc2cc" fill-rule="nonzero"/><path d="M640.36 359.776c.377 3.053.597 6.124.66 9.2a26.108 26.108 0 0 0 14.47 4.34c7.13 0 12.38-6.94 17.12-11.55-.53-6.61 1.19-6.77 1.19-6.77s-38.22-35.04-33.44 4.78z" fill-opacity=".1" fill-rule="nonzero"/><circle cx="655.49" cy="345.446" r="26.28" fill="#fdc2cc"/><path d="M674.2 370.526s4.38.4 13.14 12.34c8.76 11.94 27.87 13.54 27.87 13.54s7.17-3.19 15.13 32.65c7.96 35.84 10.35 59.73 6.37 63.71-3.98 3.98-19.91 9.57-27.91 9.57 0 0-2.39 50.17 1.59 58.93 3.98 8.76-.8 14.34-.8 14.34l-35-2.39s-11.95-15.13-14.34-41.41c-2.39-26.28-10.35-101.15-6.37-109.91 3.98-8.76 21.5-31.06 20.71-33.45-.79-2.39-.39-17.92-.39-17.92z" fill-opacity=".1" fill-rule="nonzero"/><path d="M674.29 370.286s5.89-.16 14.65 11.79c8.76 11.95 27.86 13.54 27.86 13.54s7.17-3.19 15.13 32.65c7.96 35.84 10.35 59.73 6.37 63.71-3.98 3.98-19.91 9.56-27.87 9.56 0 0-2.39 50.17 1.59 58.93 3.98 8.76-.8 14.34-.8 14.34l-35-2.39s-11.95-15.13-14.34-41.41c-2.39-26.28-10.37-101.14-6.39-109.86 3.98-8.72 21.5-31.06 20.71-33.45-.79-2.39-1.91-17.41-1.91-17.41z" fill="#d6dbe6" fill-rule="nonzero"/><path d="M581.8 568.546c3.81-2.91 11-7.44 17.62-6.44l-1.16-4.81s-10.2-3.19-13.8 0c-1.33 1.16-2.24 5.72-2.66 11.25zm59-193.24s-20.31 13.14-22.7 18.72c-2.39 5.58-11.15 9.56-11.15 9.56s-16.72 8.76-16.72 39.82l-8.76 43.8 39.82 55.75s4.78-55.75 7.17-69.29c2.39-13.54 5.57-39 5.57-39s11.95-15.13 10.35-19.11c-1.6-3.98-3.58-40.25-3.58-40.25z" fill-opacity=".1" fill-rule="nonzero"/><path d="M640.8 375.066s-21.18 11.79-23.56 17.36c-2.38 5.57-11.15 9.56-11.15 9.56s-16.72 8.76-16.72 39.82l-8.76 43.8-1.59 83.62s14.34-13.54 24.69-7.17c10.35 6.37 16.72-20.71 16.72-20.71s4.78-55.75 7.17-69.29c2.39-13.54 5.57-39 5.57-39s11.95-15.13 10.35-19.11c-1.6-3.98-2.72-38.88-2.72-38.88z" fill="#d6dbe6" fill-rule="nonzero"/><path d="M632.42 313.476a25.99 25.99 0 0 1 4.64-4.58c2.74-2.28 5.77-4.66 9.17-4.46 1.923.256 3.771.917 5.42 1.94 8.467 4.46 16.91 8.967 25.33 13.52 3.11 1.68 6.32 3.46 8.49 6.48 2.17 3.02 3.05 6.9 3.66 10.7.51 2.574.632 5.21.36 7.82a9.814 9.814 0 0 1-3.46 6.57c-2.27 1.65-5.38 1.66-7.28 3.82-1.1 1.25-1.58 3-2.36 4.52-.78 1.52-2.13 3-3.67 2.73s-2.47-1.9-2.69-3.55a21.533 21.533 0 0 1 .29-5c.3-3-.08-6.18-1.82-8.41-1.2-1.52-2.92-2.44-4.08-4-2.78-3.76-1.51-10-4.56-13.53a7.237 7.237 0 0 0-7-2c-2.47.52-4.73 1.86-7 3a52.043 52.043 0 0 1-9.59 3.7c-2.78.76-6 2.58-6.95-1.12-1.45-5.43-.1-13.74 3.1-18.15z" fill-opacity=".1" fill-rule="nonzero"/><path d="M633.22 312.686a25.99 25.99 0 0 1 4.64-4.58c2.74-2.28 5.77-4.66 9.17-4.46 1.923.256 3.771.917 5.42 1.94 8.46 4.46 15.49.24 25.33 13.52 2.1 2.84 6.32 3.46 8.49 6.48 2.17 3.02 3.05 6.9 3.66 10.7.51 2.574.632 5.21.36 7.82a9.814 9.814 0 0 1-3.46 6.57c-2.27 1.65-5.38 1.66-7.28 3.82-1.1 1.25-1.58 3-2.36 4.52-.78 1.52-2.13 3-3.67 2.73s-2.47-1.9-2.69-3.55a21.533 21.533 0 0 1 .29-5c.3-3-.08-6.18-1.82-8.41-1.2-1.52-2.92-2.44-4.08-4-2.78-3.76-1.51-10-4.56-13.53a7.237 7.237 0 0 0-7-2c-2.47.52-4.73 1.86-7 3a52.043 52.043 0 0 1-9.59 3.7c-2.78.76-6 2.58-6.95-1.12-1.46-5.43-.1-13.75 3.1-18.15z" fill="#865a61" fill-rule="nonzero"/><path d="M705 434.236s10.62 27.08 2.65 38.23l-17.52-4s15.93 4.78 13.54-4.78c-2.39-9.56 1.33-29.45 1.33-29.45zm5.8 66.91s-23.1 1.59-29.47-3.19a60.999 60.999 0 0 0 28.75 11.95l.72-8.76zm-99.51-51s-11.95 36.64-11.15 42.21c.8 5.57 2.39 66.9 2.39 66.9l2.39-.8-.8-66.9 7.17-41.41z" fill-opacity=".1" fill-rule="nonzero"/><path d="M645.804 438.611L419.85 256.524a14.137 14.137 0 0 0-10.014-4.138h-9.601a122.523 122.523 0 0 0 25.923-75.359c0-67.199-55.296-122.495-122.495-122.495-67.199 0-122.495 55.296-122.495 122.495 0 67.199 55.296 122.495 122.495 122.495 27.301 0 53.835-9.127 75.358-25.923v9.593a14.142 14.142 0 0 0 4.139 10.014l225.954 182.088c2.641 2.662 63.239 54.162 66.99 54.162 3.75 0 8.311-2.023 10.952-4.686l19.653-25.636c5.495-5.492-55.441-55-60.905-60.523zM303.588 252.386c-41.382 0-75.434-34.052-75.434-75.434s34.052-75.434 75.434-75.434c41.381 0 75.433 34.052 75.433 75.434v.058c0 41.359-34.033 75.392-75.392 75.392h-.041v-.016z" fill="url(#_Linear5)" fill-rule="nonzero"/><path d="M647.46 436.956L421.506 254.869a14.144 14.144 0 0 0-10.015-4.139h-9.601a122.514 122.514 0 0 0 25.923-75.358c0-67.199-55.296-122.495-122.495-122.495-67.199 0-122.495 55.296-122.495 122.495 0 67.199 55.296 122.495 122.495 122.495 27.302 0 53.835-9.128 75.359-25.923v9.592a14.14 14.14 0 0 0 4.138 10.015l225.954 182.087c2.641 2.663 63.24 54.162 66.99 54.162 3.75 0 8.311-2.023 10.952-4.685l19.653-25.637c5.495-5.491-55.441-54.999-60.904-60.522zM305.243 250.73c-41.382 0-75.434-34.052-75.434-75.433 0-41.382 34.052-75.434 75.434-75.434s75.434 34.052 75.434 75.434v.058c0 41.359-34.034 75.392-75.393 75.392h-.041v-.017z" fill="#fbc02d" fill-rule="nonzero"/><path d="M695.31 472.866s-39.85-45.7-34.25-14.34c4 22.3 19.11 34.25 26.28 36.64 7.17 2.39 7.97-22.3 7.97-22.3z" fill="#fdc2cc" fill-rule="nonzero"/><path d="M704.87 430.656s.8 29.47 4.78 33.45c3.98 3.98-2.39 8.76-2.39 8.76l-15.93-4s4 26.28-12.74 23.1c0 0 11.15 10.35 22.3 11.95 11.15 1.6 10.35-2.39 10.35-2.39l16.72-19.91-23.09-50.96z" fill="#d6dbe6" fill-rule="nonzero"/><path d="M709.28 501.956l16.16-3.55-2.16-7.45-10-4-13 6 9 9z" fill="#d6dbe6" fill-rule="nonzero"/><path d="M237.58 175.946a67.69 67.69 0 0 0 16.37 44.25c.52.61 1.06 1.21 1.61 1.8.273.307.553.607.84.9a66.755 66.755 0 0 0 7.26 6.59l.18.13a66.466 66.466 0 0 0 12.9 7.92 67.003 67.003 0 0 0 7.24 2.9l.91.29c.56.19 1.14.36 1.71.52l.23.07c.29.08.58.17.88.24a67.744 67.744 0 0 0 17.83 2.37c1 0 2.05 0 3.07-.07a67.225 67.225 0 0 0 15.77-2.58h.1c.95-.28 1.89-.57 2.82-.89h.1l.85-.3a65.937 65.937 0 0 0 9.4-4.16l.19-.1c.33-.18.66-.36 1-.55a67.841 67.841 0 0 0 12.34-8.88l.33-.31a63.663 63.663 0 0 0 5.81-6l.21-.25c.17-.19.33-.38.49-.58.44-.52.86-1.06 1.28-1.6a68.015 68.015 0 0 0 14.28-41.691c0-37.304-30.696-68-68-68-37.297 0-67.99 30.684-68 67.981z" fill="#c0bccf" fill-rule="nonzero"/><path d="M261.11 197.816s14.75-1.25 21.51-10.63c6.59-9.13 11.07-9.24 11.29-9.24.17-1.22.29-2.38.37-3.46v-.15c-.27.214-.59.356-.93.41-1.32.2-2.48-1.05-3.14-2.38a18.603 18.603 0 0 0-2-3.94c-1.63-1.88-4.3-1.89-6.24-3.32a8.586 8.586 0 0 1-3-5.72 15.828 15.828 0 0 1-.12-2.5 27.679 27.679 0 0 1 .42-5.33c.52-3.31 1.29-6.7 3.14-9.31 1.85-2.61 5.47-3.17 7.27-5.64 8.43-11.56 14.44-7.89 21.69-11.77a11.62 11.62 0 0 1 4.64-1.69c2.91-.17 5.51 1.91 7.85 3.89a22.405 22.405 0 0 1 4 4c2.09 2.93 3.26 7.84 3.16 12.14a18.2 18.2 0 0 1-.46 4.75c-.58 2.3-2.15 2.15-3.87 1.63 4.372 9.206 1.358 20.337-7.06 26.08v1.05a1.765 1.765 0 0 0 0 .23c-.027 1.595.026 3.19.16 4.78.17.09 16.34 9.26 18.17 13.61 1.83 4.35 8.61 7.5 8.61 7.5s7.45 4 11 16.56l-.21.25a64.11 64.11 0 0 1-5.81 6.12l-.33.32a67.86 67.86 0 0 1-12.34 9c-.32.19-.65.38-1 .56l-.19.1a65.448 65.448 0 0 1-9.4 4.23l-.85.31h-.1c-.93.33-1.87.62-2.82.9h-.1a66.208 66.208 0 0 1-15.77 2.62c-1 .05-2 .07-3.07.07a66.675 66.675 0 0 1-17.78-2.31c-.3-.07-.59-.16-.88-.24l-.23-.07c-.57-.16-1.15-.34-1.71-.53l-.91-.29a66.523 66.523 0 0 1-7.27-2.96 66.305 66.305 0 0 1-12.9-8.05l-.18-.13a67.204 67.204 0 0 1-7.26-6.7c-.287-.293-.567-.6-.84-.92-.55-.6-1.09-1.21-1.61-1.83-1-1.15-1.9-2.32-2.79-3.53 5.35-20.53 9.89-18.47 9.89-18.47z" fill="url(#_Linear6)" fill-rule="nonzero"/><path d="M312.11 214.556l21.51-16.59s-14.41 3.09-14-19.94a1.765 1.765 0 0 1 0-.23c0-2.08.2-4.36.5-6.87 3.69-30.73-25.81-3.69-25.81-3.69a44.001 44.001 0 0 1 0 8.18v.22a57.142 57.142 0 0 1-6.14 21.71c-8.01 15.36 23.94 17.21 23.94 17.21z" fill="#fdc2cc" fill-rule="nonzero"/><path d="M297.06 171.146c3.65 3.55 5.88 10 11.37 10a20.148 20.148 0 0 0 11.17-3.35c0-2.08.2-4.36.5-6.87 3.69-30.73-25.81-3.69-25.81-3.69s3.16-1.09 2.77 3.91z" fill-opacity=".1" fill-rule="nonzero"/><circle cx="308.43" cy="159.866" r="20.28" fill="#fdc2cc"/><path d="M327.88 133.896a22.256 22.256 0 0 0-4-3.92c-2.34-1.95-4.94-4-7.85-3.82a11.748 11.748 0 0 0-4.64 1.66c-7.25 3.82-13.26.21-21.69 11.57-1.8 2.43-5.41 3-7.27 5.55-1.86 2.55-2.61 5.9-3.14 9.16a22.45 22.45 0 0 0-.31 6.7 8.395 8.395 0 0 0 3 5.62c1.94 1.41 4.61 1.42 6.24 3.27a18.128 18.128 0 0 1 2 3.87c.66 1.3 1.82 2.53 3.14 2.34 1.32-.19 2.11-1.62 2.3-3a18.401 18.401 0 0 0-.25-4.27c-.25-2.53.07-5.29 1.56-7.2 1-1.31 2.5-2.09 3.49-3.42 2.38-3.21 1.3-8.6 3.91-11.58a6.195 6.195 0 0 1 6-1.67c2.102.6 4.118 1.467 6 2.58a44.526 44.526 0 0 0 8.21 3.17c2.38.65 5.14 2.21 5.95-1 1.27-4.72.08-11.84-2.65-15.61z" fill-opacity=".1" fill-rule="nonzero"/><path d="M327.88 132.896a22.256 22.256 0 0 0-4-3.92c-2.34-1.95-4.94-4-7.85-3.82a11.748 11.748 0 0 0-4.64 1.66c-7.25 3.82-13.26.21-21.69 11.57-1.8 2.43-5.41 3-7.27 5.55-1.86 2.55-2.61 5.9-3.14 9.16a22.45 22.45 0 0 0-.31 6.7 8.395 8.395 0 0 0 3 5.62c1.94 1.41 4.61 1.42 6.24 3.27a18.128 18.128 0 0 1 2 3.87c.66 1.3 1.82 2.53 3.14 2.34 1.32-.19 2.11-1.62 2.3-3a18.401 18.401 0 0 0-.25-4.27c-.25-2.53.07-5.29 1.56-7.2 1-1.31 2.5-2.09 3.49-3.42 2.38-3.21 1.3-8.6 3.91-11.58a6.195 6.195 0 0 1 6-1.67c2.102.6 4.118 1.467 6 2.58a44.526 44.526 0 0 0 8.21 3.17c2.38.65 5.14 2.21 5.95-1 1.27-4.72.08-11.84-2.65-15.61z" fill="#865a61" fill-rule="nonzero"/><path d="M288.15 225.226l-.4 15.35a67.744 67.744 0 0 0 17.83 2.37c1 0 2.05 0 3.07-.07a67.225 67.225 0 0 0 15.77-2.58h.1c.95-.28 1.89-.57 2.82-.89h.1l.85-.3a65.937 65.937 0 0 0 9.4-4.16l.19-.1c.33-.18.66-.36 1-.55l-1.55-20.69 2.47-14.19-13.52-9.21a23.86 23.86 0 0 1-2.54 3.08 17.014 17.014 0 0 1-4.62 3.42c-9.7 4.78-20.74-2.82-26.23-7.52l-1.25-1.11c-1.42-1.29-2.23-2.17-2.23-2.17l-6.76 10.44 5.5 28.88z" fill-opacity=".1" fill-rule="nonzero"/><path d="M288.15 226.226l-.4 15.35a67.744 67.744 0 0 0 17.83 2.37c1 0 2.05 0 3.07-.07a67.225 67.225 0 0 0 15.77-2.58h.1c.95-.28 1.89-.57 2.82-.89h.1l.85-.3a65.937 65.937 0 0 0 9.4-4.16l.19-.1c.33-.18.66-.36 1-.55l-1.55-20.69 2.47-14.19-13.52-9.21a23.86 23.86 0 0 1-2.54 3.08 17.014 17.014 0 0 1-4.62 3.42c-9.7 4.78-20.74-2.82-26.23-7.52l-1.25-1.11c-1.42-1.29-2.23-2.17-2.23-2.17l-6.76 10.44 5.5 28.88z" fill="#53526b" fill-rule="nonzero"/><path d="M251.16 216.726a66.14 66.14 0 0 0 4.4 5.27c.273.307.553.607.84.9a66.755 66.755 0 0 0 7.26 6.59l.18.13a66.466 66.466 0 0 0 12.9 7.92 67.003 67.003 0 0 0 7.24 2.9l.91.29c.56.19 1.14.36 1.71.52l.23.07c.29.08.58.17.88.24a67.744 67.744 0 0 0 17.83 2.37c1 0 2.05 0 3.07-.07.78-12.76 1-23-.22-25.63a41.172 41.172 0 0 0-2.47-4.42c-4.94-7.94-14-19.88-13.51-21.39.191-.739.328-1.491.41-2.25.53-3.94 1.06-11.15 1.06-11.15-.22 0-4.7.11-11.29 9.09-6.76 9.22-21.51 10.45-21.51 10.45s-4.51-2-9.92 18.17zm74.47 10.73s.74 5.89 1.71 12.93h.1l.85-.3a65.937 65.937 0 0 0 9.4-4.16l.19-.1c.33-.18.66-.36 1-.55a67.841 67.841 0 0 0 12.34-8.88l.33-.31a63.663 63.663 0 0 0 5.81-6l.21-.25c-3.57-12.39-11-16.29-11-16.29s-6.76-3.08-8.61-7.38c-1.85-4.3-18.18-13.39-18.18-13.39v.07c0 .77-.26 7.82-.65 14.91-.25 4.61-.56 9.24-.92 12.18-.078.955-.252 1.9-.52 2.82-1.27 3.03 7.94 14.7 7.94 14.7z" fill="#555388" fill-rule="nonzero"/><defs><linearGradient id="_Linear1" x1="0" y1="0" x2="1" y2="0" gradientUnits="userSpaceOnUse" gradientTransform="rotate(-90 654.443 140.163) scale(755.31)"><stop offset="0" stop-color="gray" stop-opacity=".247"/><stop offset=".54" stop-color="gray" stop-opacity=".118"/><stop offset="1" stop-color="gray" stop-opacity=".098"/></linearGradient><linearGradient id="_Linear2" x1="0" y1="0" x2="1" y2="0" gradientUnits="userSpaceOnUse" gradientTransform="matrix(0 -121 121 0 309.26 484.946)"><stop offset="0" stop-color="gray" stop-opacity=".247"/><stop offset=".54" stop-color="gray" stop-opacity=".118"/><stop offset="1" stop-color="gray" stop-opacity=".098"/></linearGradient><linearGradient id="_Linear3" x1="0" y1="0" x2="1" y2="0" gradientUnits="userSpaceOnUse" gradientTransform="translate(257.82 664.446) scale(102.48)"><stop offset="0" stop-color="gray" stop-opacity=".247"/><stop offset=".54" stop-color="gray" stop-opacity=".118"/><stop offset="1" stop-color="gray" stop-opacity=".098"/></linearGradient><linearGradient id="_Linear4" x1="0" y1="0" x2="1" y2="0" gradientUnits="userSpaceOnUse" gradientTransform="matrix(0 -543 543 0 659.62 844.146)"><stop offset="0" stop-color="gray" stop-opacity=".247"/><stop offset=".54" stop-color="gray" stop-opacity=".118"/><stop offset="1" stop-color="gray" stop-opacity=".098"/></linearGradient><linearGradient id="_Linear5" x1="0" y1="0" x2="1" y2="0" gradientUnits="userSpaceOnUse" gradientTransform="rotate(-90 447.469 32.004) scale(425.075)"><stop offset="0" stop-color="gray" stop-opacity=".247"/><stop offset=".54" stop-color="gray" stop-opacity=".118"/><stop offset="1" stop-color="gray" stop-opacity=".098"/></linearGradient><linearGradient id="_Linear6" x1="0" y1="0" x2="1" y2="0" gradientUnits="userSpaceOnUse" gradientTransform="matrix(0 -120.8 120.8 0 304.35 243.946)"><stop offset="0" stop-color="gray" stop-opacity=".247"/><stop offset=".54" stop-color="gray" stop-opacity=".118"/><stop offset="1" stop-color="gray" stop-opacity=".098"/></linearGradient></defs></svg>