<svg viewBox="0 0 512 512" xmlns="http://www.w3.org/2000/svg" fill-rule="evenodd" clip-rule="evenodd" stroke-linejoin="round" stroke-miterlimit="1.414"><g fill-rule="nonzero"><path d="M460.867 107.802c-7.532-38.375-41.202-66.512-80.996-66.512-11.206 0-22.246 2.347-32.464 6.714C334.294 19.714 305.698 0 272.516 0c-45.536 0-82.581 37.044-82.581 82.581a82.398 82.398 0 0 0 4.706 27.54l15.577-5.5c-2.504-7.069-3.766-14.476-3.766-22.04 0-36.428 29.637-66.065 66.064-66.065 36.428 0 66.065 29.637 66.065 66.065h16.516c0-6.508-.835-12.807-2.262-18.887 8.455-3.799 17.665-5.888 27.036-5.888 33.718 0 61.935 25.254 65.637 58.73l1.286 7.335h7.4c22.766 0 41.29 18.524 41.29 41.29s-18.524 41.291-41.29 41.291h-90.436v16.516h90.436c31.875 0 57.806-25.94 57.806-57.807 0-29.488-22.198-53.891-51.133-57.359z"/><path d="M239.484 82.581h-16.516c0-27.327 22.222-49.549 49.548-49.549v16.516c-18.218 0-33.032 14.815-33.032 33.033zm189.935 41.29h-16.516c0-18.218-14.814-33.032-33.032-33.032V74.323c27.327 0 49.548 22.221 49.548 49.548z"/><path d="M237.032 512h-61.161l-7.315-20.355c-24.008-4.847-46.459-14.157-66.891-27.705l-19.572 9.213-43.246-43.238 9.222-19.58c-13.557-20.44-22.867-42.883-27.714-66.883L0 336.129v-61.161l20.355-7.323c4.847-23.992 14.157-46.443 27.714-66.883l-9.222-19.581 43.246-43.237 19.572 9.213c20.432-13.556 42.883-22.867 66.891-27.705l7.315-20.355h61.161l7.315 20.355c24.008 4.846 46.459 14.157 66.891 27.705l19.572-9.213 43.246 43.237-9.221 19.581c13.556 20.44 22.867 42.883 27.713 66.883l20.355 7.323v61.161l-20.355 7.323c-4.846 23.992-14.157 46.443-27.713 66.883l9.221 19.58-43.246 43.238-19.572-9.213c-20.432 13.556-42.883 22.866-66.891 27.705L237.032 512z" fill="#fbc02d"/><path d="M206.452 462.452c-86.521 0-156.904-70.383-156.904-156.904 0-86.52 70.383-156.903 156.904-156.903 86.52 0 156.903 70.383 156.903 156.903 0 86.521-70.383 156.904-156.903 156.904zm0-297.291c-77.412 0-140.387 62.976-140.387 140.387 0 77.412 62.975 140.387 140.387 140.387 77.411 0 140.387-62.975 140.387-140.387 0-77.411-62.976-140.387-140.387-140.387z"/><path d="M144.516 412.855a123.071 123.071 0 0 1-14.718-9.984l10.234-12.968a106.618 106.618 0 0 0 12.734 8.649l-8.25 14.303zm61.77 16.548a123.565 123.565 0 0 1-52.927-11.899l7.081-14.923c40.883 19.383 89.887 10.899 121.919-21.125 2.23-2.23 4.343-4.533 6.335-6.904l12.645 10.629a129.56 129.56 0 0 1-7.303 7.96c-23.726 23.726-55.536 36.262-87.75 36.262zm-74.157-66.048c-18.218 0-33.032-14.815-33.032-33.032h16.516c0 9.108 7.407 16.516 16.516 16.516 9.109 0 16.516-7.408 16.516-16.516 0-9.109-7.407-16.517-16.516-16.517-18.218 0-33.032-14.814-33.032-33.032 0-18.218 14.814-33.032 33.032-33.032 18.218 0 33.032 14.814 33.032 33.032h-16.516c0-9.109-7.407-16.516-16.516-16.516-9.109 0-16.516 7.407-16.516 16.516 0 9.109 7.407 16.516 16.516 16.516 18.218 0 33.032 14.815 33.032 33.033 0 18.217-14.814 33.032-33.032 33.032zm99.097-99.097v-16.516h-49.549v115.613h49.549v-16.516h-33.032v-33.033h33.032V297.29h-33.032v-33.032h33.032zm49.548 99.097c-18.218 0-33.032-14.815-33.032-33.032v-49.549c0-18.218 14.814-33.032 33.032-33.032 18.218 0 33.032 14.814 33.032 33.032v49.549c0 18.217-14.814 33.032-33.032 33.032zm0-99.097c-9.109 0-16.516 7.407-16.516 16.516v49.549c0 9.108 7.407 16.516 16.516 16.516 9.109 0 16.516-7.408 16.516-16.516v-49.549c0-9.109-7.407-16.516-16.516-16.516z"/></g></svg>