<svg viewBox="0 0 496 496" xmlns="http://www.w3.org/2000/svg" fill-rule="evenodd" clip-rule="evenodd" stroke-linejoin="round" stroke-miterlimit="1.414"><path d="M248 416c-114.695 0-208-93.305-208-208S133.305 0 248 0s208 93.305 208 208-93.305 208-208 208zm0-376c-92.633 0-168 75.367-168 168s75.367 168 168 168 168-75.367 168-168S340.633 40 248 40zm200 272h32v176h-32zm-64 72h32v104h-32zm-64 40h32v64h-32zm-64 32h32v32h-32z" fill="#fbc02d" fill-rule="nonzero"/><path d="M248 384c97.047 0 176-78.953 176-176S345.047 32 248 32 72 110.953 72 208s78.953 176 176 176zM119.289 252.656l-21.824 9.039c-5.152-14.406-8.266-29.726-9.067-45.695H128v-16H88.406c.793-15.961 3.906-31.289 9.067-45.695l21.824 9.039 6.129-14.785-21.809-9.032a160.511 160.511 0 0 1 25.918-38.695l27.961 27.969 11.313-11.313-27.961-27.968a160.27 160.27 0 0 1 38.687-25.918l9.031 21.804 14.786-6.125-9.04-21.824c14.399-5.144 29.727-8.258 45.688-9.051V88h16V48.406c15.961.793 31.289 3.907 45.695 9.067l-9.039 21.824 14.785 6.129 9.032-21.809a160.309 160.309 0 0 1 38.687 25.918l-27.961 27.969 11.313 11.312 27.961-27.968a160.113 160.113 0 0 1 25.918 38.695l-21.805 9.031 6.125 14.785 21.824-9.039c5.152 14.407 8.266 29.727 9.067 45.696H368v16h39.594c-.793 15.961-3.907 31.289-9.067 45.695l-21.824-9.039-6.129 14.785 21.809 9.031c-6.125 12.879-13.856 24.824-23.047 35.535h-82.145c-1.269-6.238-4.129-11.847-7.945-16.664l-14.551-160.086C263.902 126.551 256.727 120 248 120s-15.902 6.551-16.688 15.238l-14.558 160.098c-3.817 4.824-6.676 10.426-7.945 16.664h-82.153c-9.191-10.711-16.922-22.656-23.047-35.535l21.805-9.031-6.125-14.778zM248 296c10.414 0 19.215 6.711 22.527 16H225.48c3.305-9.289 12.106-16 22.52-16zm-14.023-13.328l13.269-145.977c.074-.8 1.441-.8 1.508 0l13.269 145.977C257.648 281.023 252.953 280 248 280c-4.953 0-9.648 1.023-14.023 2.672zM142.52 328h210.953c-28.192 24.816-65.047 40-105.473 40s-77.281-15.184-105.48-40zm-28.063 124.352L93.953 384H0v16h82.047l27.496 91.648L140.527 440H192v-16h-60.527l-17.016 28.352z" fill-rule="nonzero"/><path fill-rule="nonzero" d="M32 432h16v16H32zm-32 0h16v16H0zm64 0h16v16H64zm176 48h256v16H240z"/></svg>