<svg viewBox="0 0 1114 826" xmlns="http://www.w3.org/2000/svg" fill-rule="evenodd" clip-rule="evenodd" stroke-miterlimit="10"><path d="M490.9 31.16c-44.08-17.92-90.65-32.88-138.19-31-69.9 2.75-136.94 44.8-169.85 106.53-27.89 52.3-31.33 113.6-43.34 171.64-14.82 71.52-43.16 139.46-73.44 205.92-16.26 35.7-33.42 72.17-36.08 111.31-3.71 54.32 22.26 108.46 63 144.6 40.74 36.14 94.82 55.21 149.11 59.37 28.89 2.21 59.08.16 84.75-13.29 27.14-14.22 46.94-39.93 74.19-53.95 25.26-13 54.81-14.83 83.17-13.13a372.648 372.648 0 0 1 108.58 23.08c39.64 14.89 76.5 36.44 116.05 51.54 39.55 15.1 83.74 23.51 124.17 10.92 37.94-11.83 68-40.56 95-69.66a1218.857 1218.857 0 0 0 121.17-153.3c24.41-36.56 47.13-75.14 57.93-117.76 20.63-81.48-7.77-173.41-70.76-229-52.16-46.13-122.2-66.13-190.76-78.31-62.52-11.07-134.81-11.76-192.36-40.62-54.88-27.52-104.82-61.49-162.34-84.89z" fill="#fbc02d" fill-opacity=".1" fill-rule="nonzero"/><path d="M934.03 576.91l1.67 1.68.75-2.89-.8-2.85h-2.06l.44 4.06z" fill="#464a5f" fill-rule="nonzero"/><path d="M934.03 576.91l1.67 1.68.75-2.89-.8-2.85h-2.06l.44 4.06z" fill-opacity=".1" fill-rule="nonzero"/><path d="M934.03 576.91l1.62 1.73-1.62 1.9-1.74-.65-.43-.84 2.17-2.14z" fill="#9c9ca1" fill-rule="nonzero"/><path d="M934.03 576.91l1.62 1.73-1.62 1.9-1.74-.65-.43-.84 2.17-2.14z" fill-opacity=".1" fill-rule="nonzero"/><path d="M626.21 273.13L443.33 456.01c-6.799 6.8-6.822 17.982-.05 24.81L723.6 763.37c6.779 6.828 17.969 6.886 24.82.13l185.61-182.95-307.82-307.42z" fill="#9c9ca1" fill-rule="nonzero"/><path d="M626.21 273.13L443.33 456.01c-6.799 6.8-6.822 17.982-.05 24.81L723.6 763.37c6.779 6.828 17.969 6.886 24.82.13l185.61-182.95-307.82-307.42z" fill-opacity=".1" fill-rule="nonzero"/><path d="M626.21 269.5L443.33 452.38c-6.799 6.8-6.822 17.982-.05 24.81L723.6 759.73c6.777 6.831 17.967 6.894 24.82.14l185.61-183L626.21 269.5z" fill="#9c9ca1" fill-rule="nonzero"/><path d="M645.41 140.95l-16.78 127.34L936.45 575.7l17.68-129.44a18.734 18.734 0 0 0-5.44-15.93l-297-291.56a3.723 3.723 0 0 0-2.592-1.052 3.734 3.734 0 0 0-3.688 3.232z" fill="#464a5f" fill-rule="nonzero"/><path d="M645.41 140.95l-16.78 127.34L936.45 575.7l17.68-129.44a18.734 18.734 0 0 0-5.44-15.93l-297-291.56a3.723 3.723 0 0 0-2.592-1.052 3.734 3.734 0 0 0-3.688 3.232z" fill-opacity=".1" fill-rule="nonzero"/><path d="M642.99 142.16L626.21 269.5l307.82 307.41 17.68-129.44a18.734 18.734 0 0 0-5.44-15.93l-297-291.56a3.723 3.723 0 0 0-2.592-1.052 3.734 3.734 0 0 0-3.688 3.232z" fill="#464a5f" fill-rule="nonzero"/><path d="M627.03 328.02l-11.13 11.23a3.532 3.532 0 0 0 0 5l11.28 11.57a3.557 3.557 0 0 0 5 .1l11.08-10.46a3.546 3.546 0 0 0 .18-4.95l-11.28-12.34a3.529 3.529 0 0 0-5.13-.15zm20.74 20.75l-11.09 11.22a3.546 3.546 0 0 0 0 4.95l11.28 11.57a3.533 3.533 0 0 0 5 .1l11.08-10.45a3.567 3.567 0 0 0 .18-5l-11.32-12.31a3.528 3.528 0 0 0-5.13-.08zm21.78 21.77l-11.09 11.23a3.556 3.556 0 0 0 0 4.95l11.29 11.57a3.557 3.557 0 0 0 5 .1l11.08-10.46a3.546 3.546 0 0 0 .18-4.95l-11.28-12.34a3.531 3.531 0 0 0-5.18-.1zm22.02 22.03l-11.08 11.28a3.556 3.556 0 0 0 0 4.95l11.29 11.57a3.557 3.557 0 0 0 5 .1l11.07-10.46a3.537 3.537 0 0 0 .19-4.95l-11.34-12.39a3.541 3.541 0 0 0-5.13-.1zm22.03 22.03l-11.08 11.25a3.557 3.557 0 0 0 0 5l11.29 11.57a3.557 3.557 0 0 0 5 .1l11.07-10.46a3.537 3.537 0 0 0 .19-4.95l-11.28-12.34a3.54 3.54 0 0 0-5.19-.17zm23.42 20.62l-13.77 13.95a1.668 1.668 0 0 0 0 2.32l13.87 14.21a1.668 1.668 0 0 0 2.32 0l13.77-13c.654-.617.69-1.66.08-2.32l-13.86-15.16a1.658 1.658 0 0 0-2.41 0zm22.03 22.03l-13.77 14a1.657 1.657 0 0 0 0 2.31l13.87 14.22a1.668 1.668 0 0 0 2.32 0l13.77-13c.654-.617.69-1.66.08-2.32l-13.86-15.16a1.66 1.66 0 0 0-2.41-.05zm19.5 19.5l-13.77 14a1.657 1.657 0 0 0 0 2.31l13.87 14.22a1.668 1.668 0 0 0 2.32 0l13.77-13c.654-.617.69-1.66.08-2.32l-13.87-15.11a1.66 1.66 0 0 0-2.4-.1zm21.84 21.84l-13.77 13.94a1.658 1.658 0 0 0 0 2.32l13.87 14.21a1.658 1.658 0 0 0 2.32 0l13.77-13a1.667 1.667 0 0 0 .08-2.32l-13.86-15.16a1.659 1.659 0 0 0-2.41.01zm21.15 21.15l-13.77 13.94a1.658 1.658 0 0 0 0 2.32l13.87 14.22a1.668 1.668 0 0 0 2.32 0l13.77-13a1.667 1.667 0 0 0 .08-2.32l-13.91-15.11a1.658 1.658 0 0 0-2.36-.05zm21.15 21.11l-13.79 14a1.657 1.657 0 0 0 0 2.31l13.87 14.22a1.668 1.668 0 0 0 2.32 0l13.77-13c.654-.617.69-1.66.08-2.32l-13.86-15.16a1.659 1.659 0 0 0-2.39-.05zm21.15 21.19l-13.77 13.95a1.668 1.668 0 0 0 0 2.32l13.83 14.21c.627.64 1.666.662 2.32.05l13.77-13c.654-.617.69-1.66.08-2.32l-13.86-15.16a1.66 1.66 0 0 0-2.37-.05zM606.9 348.16l-11.08 11.22a3.532 3.532 0 0 0 0 5l11.29 11.57a3.533 3.533 0 0 0 5 .1l11.07-10.45a3.557 3.557 0 0 0 .19-5l-11.35-12.35a3.542 3.542 0 0 0-5.12-.09zm-44 43.99l-11.09 11.22a3.557 3.557 0 0 0 0 5l11.28 11.48a3.546 3.546 0 0 0 4.95.11l11.08-10.46a3.536 3.536 0 0 0 .18-4.95l-11.28-12.3a3.531 3.531 0 0 0-5.12-.1zm64.74-23.25l-11.09 11.22a3.532 3.532 0 0 0 0 5l11.28 11.57a3.557 3.557 0 0 0 5 .11l11.07-10.51a3.567 3.567 0 0 0 .18-5l-11.28-12.33a3.52 3.52 0 0 0-5.16-.06zm21.77 21.78l-11.08 11.22a3.546 3.546 0 0 0 0 4.95l11.29 11.57a3.533 3.533 0 0 0 5 .1l11.07-10.45a3.557 3.557 0 0 0 .19-5l-11.28-12.34a3.542 3.542 0 0 0-5.19-.05zm22.03 22.02l-11.08 11.23a3.546 3.546 0 0 0 0 4.95l11.29 11.57a3.537 3.537 0 0 0 4.95.1l11.08-10.45a3.557 3.557 0 0 0 .19-5l-11.3-12.25a3.553 3.553 0 0 0-5.13-.15zm-87.09-.51l-11.09 11.22a3.546 3.546 0 0 0 0 4.95l11.28 11.57a3.533 3.533 0 0 0 5 .1l11.08-10.45a3.567 3.567 0 0 0 .18-5l-11.28-12.33a3.52 3.52 0 0 0-5.17-.06zm21.77 21.77l-11.08 11.23a3.532 3.532 0 0 0 0 5l11.29 11.57a3.533 3.533 0 0 0 5 .1l11.07-10.45a3.557 3.557 0 0 0 .19-5l-11.28-12.34a3.538 3.538 0 0 0-5.19-.11zm22.03 22.03l-11.08 11.23a3.546 3.546 0 0 0 0 4.95l11.29 11.57a3.557 3.557 0 0 0 5 .1l11.07-10.46a3.537 3.537 0 0 0 .19-4.95l-11.28-12.34a3.542 3.542 0 0 0-5.19-.1zm65.32-21.26l-11.08 11.23a3.546 3.546 0 0 0 0 4.95l11.29 11.57a3.533 3.533 0 0 0 5 .1l11.08-10.45a3.531 3.531 0 0 0 .18-5l-11.35-12.28a3.53 3.53 0 0 0-5.12-.12zm22.03 22.03l-11.09 11.23a3.546 3.546 0 0 0 0 4.95l11.29 11.57a3.533 3.533 0 0 0 5 .1l11.08-10.46a3.536 3.536 0 0 0 .18-4.95l-11.34-12.35a3.528 3.528 0 0 0-5.12-.09zm23.4 20.62l-13.77 14a1.658 1.658 0 0 0 0 2.32l13.88 14.15a1.658 1.658 0 0 0 2.32 0l13.77-13a1.667 1.667 0 0 0 .08-2.32l-13.86-15.16a1.66 1.66 0 0 0-2.42.01zm19.52 19.47l-13.77 14a1.658 1.658 0 0 0 0 2.32l13.87 14.21a1.658 1.658 0 0 0 2.32 0l13.77-13a1.667 1.667 0 0 0 .08-2.32l-13.86-15.16a1.66 1.66 0 0 0-2.41-.05zm21.84 21.87l-13.78 14a1.657 1.657 0 0 0 0 2.31l13.86 14.22a1.668 1.668 0 0 0 2.32 0l13.77-13a1.658 1.658 0 0 0 .09-2.32l-13.86-15.16a1.661 1.661 0 0 0-2.4-.05zm21.15 21.13l-13.77 14a1.658 1.658 0 0 0 0 2.32l13.86 14.21a1.678 1.678 0 0 0 2.33 0l13.76-13a1.658 1.658 0 0 0 .09-2.32l-13.86-15.16a1.66 1.66 0 0 0-2.41-.05zM628.48 411.61l-11.09 11.24a3.546 3.546 0 0 0 0 4.95l11.29 11.57a3.52 3.52 0 0 0 5 .1l11.08-10.45a3.557 3.557 0 0 0 .18-5l-11.34-12.31a3.523 3.523 0 0 0-5.12-.1zm22.03 22.03l-11.09 11.21a3.546 3.546 0 0 0 0 4.95l11.29 11.57a3.52 3.52 0 0 0 5 .1l11.08-10.45a3.567 3.567 0 0 0 .18-5l-11.28-12.33a3.522 3.522 0 0 0-5.18-.05zm22.03 22.03l-11.09 11.18a3.546 3.546 0 0 0 0 4.95l11.28 11.57a3.533 3.533 0 0 0 5 .1l11.08-10.45a3.567 3.567 0 0 0 .18-5l-11.28-12.34a3.531 3.531 0 0 0-5.17-.01zm22.03 22.03l-11.09 11.22a3.546 3.546 0 0 0 0 4.95l11.28 11.57a3.533 3.533 0 0 0 5 .1l11.08-10.45a3.567 3.567 0 0 0 .18-5l-11.28-12.34a3.532 3.532 0 0 0-5.17-.05zm23.42 20.62l-13.78 13.94a1.668 1.668 0 0 0 0 2.32l13.86 14.21a1.658 1.658 0 0 0 2.32 0l13.77-13a1.658 1.658 0 0 0 .09-2.32l-13.86-15.17a1.651 1.651 0 0 0-2.4.02zm19.5 19.53l-13.78 13.94a1.668 1.668 0 0 0 0 2.32l13.86 14.21a1.658 1.658 0 0 0 2.32 0l13.77-13a1.658 1.658 0 0 0 .09-2.32l-13.85-15.15a1.652 1.652 0 0 0-2.41 0zm21.83 21.8l-13.77 14a1.668 1.668 0 0 0 0 2.32l13.86 14.21a1.658 1.658 0 0 0 2.32.05l13.77-13a1.658 1.658 0 0 0 .09-2.32l-13.87-15.16a1.66 1.66 0 0 0-2.4-.1zm21.16 21.2l-13.78 13.9a1.668 1.668 0 0 0 0 2.32l13.86 14.21a1.658 1.658 0 0 0 2.32.05l13.77-13a1.658 1.658 0 0 0 .09-2.32l-13.84-15.16a1.64 1.64 0 0 0-2.42 0zm42.08.17l-13.77 14a1.658 1.658 0 0 0 0 2.32l13.87 14.21a1.658 1.658 0 0 0 2.32.05l13.77-13a1.667 1.667 0 0 0 .08-2.32l-13.86-15.16a1.66 1.66 0 0 0-2.41-.1zm21.15 21.16l-13.81 13.94a1.658 1.658 0 0 0 0 2.32l13.9 14.21a1.658 1.658 0 0 0 2.32.05l13.77-13a1.667 1.667 0 0 0 .08-2.32l-13.86-15.16a1.648 1.648 0 0 0-2.4-.04zm-107.15-19.76l-13 13.13a2.23 2.23 0 0 0 0 3.11l13.09 13.42a2.23 2.23 0 0 0 3.11.06l13-12.23a2.239 2.239 0 0 0 .14-3.06l-13.09-14.32a2.23 2.23 0 0 0-3.25-.11zm21.15 21.15l-13 13.13a2.23 2.23 0 0 0 0 3.11l13.09 13.42a2.23 2.23 0 0 0 3.11.06l13-12.23a2.23 2.23 0 0 0 .12-3.11l-13.13-14.32a2.229 2.229 0 0 0-3.19-.06zm21.19 21.15l-13 13.13a2.23 2.23 0 0 0 0 3.11l13.09 13.42a2.23 2.23 0 0 0 3.11.07l13-12.24a2.22 2.22 0 0 0 .12-3.11l-13.09-14.31a2.21 2.21 0 0 0-3.23-.07zm21.53 20.73l-13.77 13.95a1.668 1.668 0 0 0 0 2.32l13.87 14.21a1.658 1.658 0 0 0 2.32 0l13.77-13c.654-.617.69-1.66.08-2.32l-13.86-15.16a1.658 1.658 0 0 0-2.41 0zM585.1 368.79l-11.82 12.06a3.532 3.532 0 0 0 0 5l33 32.67a3.556 3.556 0 0 0 4.91.06l12.32-11.59a3.543 3.543 0 0 0 .07-5.09l-33.5-33.14a3.547 3.547 0 0 0-4.98.03zm216.01 213.34l-14.45 14.72a1.687 1.687 0 0 0 0 2.34l35.61 35.25a1.658 1.658 0 0 0 2.3 0l15.06-14.17a1.65 1.65 0 0 0 0-2.38l-36.23-35.84a1.667 1.667 0 0 0-2.29.08zM650.9 476.67l-13.79 13.66a1.64 1.64 0 0 0 0 2.33l76.79 78.71a1.668 1.668 0 0 0 2.32 0l15-14.15a1.65 1.65 0 0 0 0-2.37l-78-78.21a1.667 1.667 0 0 0-2.32.03z" fill-opacity=".1" fill-rule="nonzero"/><path d="M627.03 325.6l-11.13 11.25a3.546 3.546 0 0 0 0 4.95l11.28 11.57a3.557 3.557 0 0 0 5 .1l11.08-10.46a3.546 3.546 0 0 0 .18-4.95l-11.28-12.34a3.532 3.532 0 0 0-5.13-.12zm20.74 20.75l-11.09 11.22a3.546 3.546 0 0 0 0 4.95l11.28 11.57a3.533 3.533 0 0 0 5 .1l11.08-10.45a3.567 3.567 0 0 0 .18-5l-11.32-12.3a3.532 3.532 0 0 0-5.13-.09zm21.78 21.77l-11.09 11.23a3.556 3.556 0 0 0 0 4.95l11.27 11.55a3.557 3.557 0 0 0 5 .1l11.08-10.46a3.531 3.531 0 0 0 .18-5l-11.28-12.34a3.53 3.53 0 0 0-5.16-.03zm22.02 22.03l-11.08 11.22a3.566 3.566 0 0 0 0 5l11.29 11.57a3.557 3.557 0 0 0 5 .1l11.07-10.46a3.537 3.537 0 0 0 .19-4.95l-11.34-12.38a3.541 3.541 0 0 0-5.13-.1zm22.03 22.03l-11.08 11.22a3.557 3.557 0 0 0 0 5l11.29 11.56a3.557 3.557 0 0 0 5 .11l11.07-10.46a3.523 3.523 0 0 0 .19-5l-11.28-12.34a3.543 3.543 0 0 0-5.19-.09zm23.42 20.67l-13.77 13.9a1.657 1.657 0 0 0 0 2.31l13.87 14.22c.627.64 1.666.662 2.32.05l13.77-13c.654-.617.69-1.66.08-2.32l-13.87-15.16a1.659 1.659 0 0 0-2.4 0zm22.03 22l-13.77 13.95a1.657 1.657 0 0 0 0 2.31l13.87 14.22a1.668 1.668 0 0 0 2.32 0l13.77-13c.654-.617.69-1.66.08-2.32l-13.87-15.16a1.659 1.659 0 0 0-2.4 0zm19.5 19.48l-13.77 13.95a1.657 1.657 0 0 0 0 2.31l13.86 14.26a1.668 1.668 0 0 0 2.32 0l13.77-13c.654-.617.69-1.66.08-2.32l-13.86-15.16a1.659 1.659 0 0 0-2.4-.04zm21.84 21.84l-13.77 13.94a1.658 1.658 0 0 0 0 2.32l13.87 14.21a1.658 1.658 0 0 0 2.32.05l13.77-13a1.667 1.667 0 0 0 .08-2.32L802.8 496.2a1.66 1.66 0 0 0-2.41-.03zm21.15 21.15l-13.77 13.94a1.658 1.658 0 0 0 0 2.32l13.86 14.27a1.668 1.668 0 0 0 2.32 0l13.77-13a1.667 1.667 0 0 0 .08-2.32l-13.9-15.16a1.658 1.658 0 0 0-2.36-.05zm21.15 21.15l-13.77 14a1.657 1.657 0 0 0 0 2.31L842.79 569a1.668 1.668 0 0 0 2.32 0l13.77-13c.654-.617.69-1.66.08-2.32l-13.86-15.16a1.66 1.66 0 0 0-2.41-.05zm21.15 21.15l-13.77 14a1.668 1.668 0 0 0 0 2.32l13.83 14.16a1.668 1.668 0 0 0 2.32 0l13.77-13c.654-.617.69-1.66.08-2.32l-13.86-15.16a1.66 1.66 0 0 0-2.37 0zM606.9 345.74l-11.08 11.22a3.546 3.546 0 0 0 0 4.95l11.29 11.57a3.533 3.533 0 0 0 5 .1l11.07-10.45a3.557 3.557 0 0 0 .19-5l-11.35-12.28a3.541 3.541 0 0 0-5.12-.11zm-44 43.99l-11.09 11.22a3.557 3.557 0 0 0 0 5l11.29 11.56a3.546 3.546 0 0 0 4.95.11l11.08-10.46a3.557 3.557 0 0 0 .18-5l-11.29-12.31a3.52 3.52 0 0 0-5.12-.12zm64.74-23.25l-11.09 11.22a3.546 3.546 0 0 0 0 4.95l11.28 11.57a3.533 3.533 0 0 0 5 .1l11.07-10.47a3.567 3.567 0 0 0 .18-5l-11.28-12.33a3.52 3.52 0 0 0-5.16-.04zm21.77 21.77l-11.08 11.23a3.546 3.546 0 0 0 0 4.95L649.62 416a3.533 3.533 0 0 0 5 .1l11.07-10.45a3.557 3.557 0 0 0 .19-5l-11.34-12.3a3.55 3.55 0 0 0-5.13-.1zm22.03 22.03l-11.08 11.23a3.546 3.546 0 0 0 0 4.95l11.29 11.57a3.546 3.546 0 0 0 4.95.1l11.08-10.45a3.557 3.557 0 0 0 .19-5l-11.28-12.34a3.542 3.542 0 0 0-5.15-.06zm-87.09-.51l-11.09 11.22a3.546 3.546 0 0 0 0 4.95l11.28 11.57a3.533 3.533 0 0 0 5 .1l11.08-10.45a3.567 3.567 0 0 0 .18-5l-11.33-12.31a3.523 3.523 0 0 0-5.12-.08zm21.77 21.77l-11.08 11.23a3.546 3.546 0 0 0 0 4.95l11.29 11.57a3.557 3.557 0 0 0 5 .1l11.07-10.45a3.557 3.557 0 0 0 .19-5l-11.28-12.34a3.542 3.542 0 0 0-5.19-.06zm22.03 22.03l-11.08 11.28a3.546 3.546 0 0 0 0 4.95l11.29 11.57a3.557 3.557 0 0 0 5 .1l11.07-10.46a3.537 3.537 0 0 0 .19-4.95l-11.28-12.34a3.542 3.542 0 0 0-5.19-.15zm65.32-21.26l-11.08 11.23a3.546 3.546 0 0 0 0 4.95l11.29 11.57a3.533 3.533 0 0 0 5 .1l11.08-10.46a3.522 3.522 0 0 0 .18-5l-11.28-12.34a3.53 3.53 0 0 0-5.19-.05zm22.03 22.03l-11.09 11.23a3.546 3.546 0 0 0 0 4.95l11.29 11.57a3.533 3.533 0 0 0 5 .1l11.08-10.46a3.536 3.536 0 0 0 .18-4.95l-11.28-12.34a3.531 3.531 0 0 0-5.18-.1zm23.4 20.62l-13.77 13.95a1.658 1.658 0 0 0 0 2.32L739 505.44a1.658 1.658 0 0 0 2.32 0l13.77-13a1.667 1.667 0 0 0 .08-2.32l-13.86-15.16a1.658 1.658 0 0 0-2.41 0zm19.52 19.5l-13.77 13.95a1.658 1.658 0 0 0 0 2.32l13.87 14.21a1.658 1.658 0 0 0 2.32 0l13.77-13a1.667 1.667 0 0 0 .08-2.32l-13.86-15.16a1.658 1.658 0 0 0-2.41 0zm21.84 21.84l-13.78 13.95a1.657 1.657 0 0 0 0 2.31l13.86 14.22a1.668 1.668 0 0 0 2.32 0l13.77-13a1.658 1.658 0 0 0 .09-2.32l-13.86-15.11a1.661 1.661 0 0 0-2.4-.05zm21.15 21.15l-13.77 13.95a1.658 1.658 0 0 0 0 2.32l13.86 14.21a1.678 1.678 0 0 0 2.33 0l13.76-13a1.658 1.658 0 0 0 .09-2.32l-13.86-15.16a1.658 1.658 0 0 0-2.41 0zM628.48 409.19l-11.09 11.22a3.546 3.546 0 0 0 0 4.95l11.29 11.57a3.52 3.52 0 0 0 5 .1l11.08-10.45a3.557 3.557 0 0 0 .18-5l-11.34-12.29a3.523 3.523 0 0 0-5.12-.1zm22.03 22.03l-11.09 11.22a3.532 3.532 0 0 0 0 5l11.29 11.57a3.52 3.52 0 0 0 5 .1l11.08-10.45a3.567 3.567 0 0 0 .18-5l-11.28-12.33a3.522 3.522 0 0 0-5.18-.11zm22.03 22.03l-11.09 11.22a3.546 3.546 0 0 0 0 4.95l11.28 11.57a3.533 3.533 0 0 0 5 .1l11.08-10.45a3.567 3.567 0 0 0 .18-5l-11.28-12.34a3.532 3.532 0 0 0-5.17-.05zm22.03 22.02l-11.09 11.23a3.532 3.532 0 0 0 0 5l11.28 11.57a3.533 3.533 0 0 0 5 .1l11.08-10.45a3.567 3.567 0 0 0 .18-5l-11.28-12.34a3.542 3.542 0 0 0-5.17-.11zm23.42 20.63l-13.78 13.95a1.668 1.668 0 0 0 0 2.32l13.86 14.21a1.658 1.658 0 0 0 2.32.05l13.77-13a1.668 1.668 0 0 0 .09-2.33l-13.86-15.16a1.648 1.648 0 0 0-2.4-.04zm19.5 19.5l-13.78 13.94a1.668 1.668 0 0 0 0 2.32l13.86 14.19a1.658 1.658 0 0 0 2.32.05l13.77-13a1.668 1.668 0 0 0 .09-2.33l-13.85-15.13a1.65 1.65 0 0 0-2.41-.04zm21.83 21.83l-13.77 14a1.668 1.668 0 0 0 0 2.32l13.86 14.21a1.658 1.658 0 0 0 2.32 0l13.77-13a1.658 1.658 0 0 0 .09-2.32l-13.87-15.16a1.661 1.661 0 0 0-2.4-.05zm21.16 21.16l-13.78 13.94a1.668 1.668 0 0 0 0 2.32l13.86 14.2a1.658 1.658 0 0 0 2.32 0l13.77-13a1.658 1.658 0 0 0 .09-2.32l-13.84-15.1a1.64 1.64 0 0 0-2.42-.04zm42.08.21l-13.77 14a1.658 1.658 0 0 0 0 2.32l13.87 14.21a1.658 1.658 0 0 0 2.32 0l13.77-13a1.667 1.667 0 0 0 .08-2.32l-13.87-15.16a1.661 1.661 0 0 0-2.4-.05zm21.15 21.15l-13.77 14a1.658 1.658 0 0 0 0 2.32l13.87 14.21a1.658 1.658 0 0 0 2.32 0l13.77-13a1.667 1.667 0 0 0 .08-2.32l-13.87-15.11a1.66 1.66 0 0 0-2.4-.1zM736.56 560l-13 13.13a2.23 2.23 0 0 0 0 3.11l13.09 13.42a2.23 2.23 0 0 0 3.11.06l13-12.23a2.24 2.24 0 0 0 .12-3.11l-13.09-14.32a2.233 2.233 0 0 0-3.23-.06zm21.15 21.15l-13 13.13a2.23 2.23 0 0 0 0 3.11l13.12 13.46a2.229 2.229 0 0 0 3.07 0l13-12.23a2.23 2.23 0 0 0 .12-3.11l-13.12-14.3a2.229 2.229 0 0 0-3.19-.06zm21.19 21.15l-13 13.13a2.23 2.23 0 0 0 0 3.11l13.09 13.42a2.22 2.22 0 0 0 3.11.06l13-12.23a2.22 2.22 0 0 0 .12-3.11l-13.09-14.32a2.222 2.222 0 0 0-3.23-.06zm21.53 20.73l-13.77 14a1.668 1.668 0 0 0 0 2.32l13.87 14.21c.627.64 1.666.662 2.32.05l13.77-13c.654-.617.69-1.66.08-2.32l-13.86-15.16a1.66 1.66 0 0 0-2.41-.1zM585.1 366.37l-11.82 12.07a3.532 3.532 0 0 0 0 5l33 32.67a3.556 3.556 0 0 0 4.91.06l12.32-11.59a3.543 3.543 0 0 0 .07-5.09l-33.5-33.14a3.547 3.547 0 0 0-4.98.02zm216.01 213.34l-14.45 14.75a1.687 1.687 0 0 0 0 2.34l35.61 35.25a1.658 1.658 0 0 0 2.3 0l15.06-14.17a1.65 1.65 0 0 0 0-2.38l-36.23-35.84a1.657 1.657 0 0 0-2.29.05zM650.9 474.25l-13.79 13.66a1.64 1.64 0 0 0 0 2.33l76.79 78.71a1.668 1.668 0 0 0 2.32 0l15-14.15a1.65 1.65 0 0 0 0-2.37l-78-78.21a1.667 1.667 0 0 0-2.32.03z" fill="#464a5f" fill-rule="nonzero"/><path d="M596.73 483.85l-60.63 60.23c-3.475 3.457-3.52 9.149-.1 12.66L648.14 671.9a9.001 9.001 0 0 0 12.76.14l62.43-61.41a9.005 9.005 0 0 0 .05-12.77L609.44 483.85c-3.489-3.48-9.221-3.48-12.71 0z" fill-opacity=".1" fill-rule="nonzero"/><path d="M596.73 481.38l-60.63 60.28c-3.475 3.457-3.52 9.149-.1 12.66l112.14 115.16a9.001 9.001 0 0 0 12.76.14l62.43-61.41a9.005 9.005 0 0 0 .05-12.77l-113.94-114c-3.473-3.496-9.204-3.523-12.71-.06z" fill="#939498" fill-rule="nonzero"/><path d="M654.97 165.31l-15.35 107.32 284.42 283.51 14.48-106.38a18.812 18.812 0 0 0-5.35-15.83L661.28 163.19a3.72 3.72 0 0 0-2.626-1.085 3.733 3.733 0 0 0-3.684 3.205z" fill="#fbc02d" fill-rule="nonzero"/><ellipse cx="295.09" cy="682.35" rx="23.11" ry="3.17" fill="#fbc02d" fill-opacity=".1"/><ellipse cx="206.55" cy="691.33" rx="23.11" ry="3.17" fill="#fbc02d" fill-opacity=".1"/><ellipse cx="102.27" cy="679.18" rx="23.11" ry="3.17" fill="#fbc02d" fill-opacity=".1"/><ellipse cx="241.99" cy="716.89" rx="16.43" ry="2.26" fill="#fbc02d" fill-opacity=".1"/><ellipse cx="150.1" cy="714.63" rx="16.43" ry="2.26" fill="#fbc02d" fill-opacity=".1"/><path d="M206.06 690.62s32.41-106.26-5.08-148.77c-28-31.84-59.87-28-74.13-24.09a26.356 26.356 0 0 0-17 14.12c-5 10.76-4.08 28.21 31.1 48.58 58.92 34.11 62.58 80.9 62.58 80.9l2.53 29.26z" fill="#fbc02d" fill-rule="nonzero"/><path d="M131.9 532.78s95.56 29.87 74.14 157.84m-18.31-147.13s-13.15 8.86-9 22.19m-37.22-14.3s8-8.18 17.83-3.67m19.94 44.82s14.12-7.17 17.78 1.81m17.17 13.13s-10.61-.84-10.8 4.23" fill="none" stroke="#565987"/><path d="M207.37 691.47s-38-77.23-48.4-75.54c-4.95.8-7.23 5.67-8.26 10.57a31.17 31.17 0 0 0 2.06 18.8c5.39 12.36 19.86 35.83 54.6 46.17z" fill="#fbc02d" fill-rule="nonzero"/><path d="M159.26 630.58s39.84 57.79 47.54 60.32m-51.21-51.3h9.3m1.84 21.14l14.58.62m-5.71-17.53l-1.58 7.59m17.09 15.52l-.29 6.9" fill="none" stroke="#565987"/><path d="M206.24 691.47s38-77.23 48.39-75.54c5 .8 7.24 5.67 8.27 10.57a31.081 31.081 0 0 1-2.07 18.8c-5.38 12.36-19.85 35.83-54.59 46.17z" fill="#fbc02d" fill-rule="nonzero"/><path d="M254.35 630.58s-39.85 57.79-47.55 60.32m51.21-51.3h-9.3m-1.84 21.14l-14.58.62m5.71-17.53l1.58 7.59m-17.08 15.52l.28 6.9" fill="none" stroke="#565987"/><path d="M141.05 709.5a6.55 6.55 0 0 1-2.16-3.26 2.908 2.908 0 0 1 1.51-3.32c1.39-.53 2.87.43 4 1.4s2.42 2.08 3.89 1.88a5.907 5.907 0 0 1-1.83-5.53c.061-.417.238-.809.51-1.13.77-.82 2.16-.47 3.08.18 2.94 2.06 3.75 6 3.77 9.63.164-1.327.181-2.669.05-4a4.095 4.095 0 0 1 1.49-3.51 4.542 4.542 0 0 1 2.27-.53 4.682 4.682 0 0 1 3.69 1c1.12 1.2.83 3.2-.15 4.52a14.236 14.236 0 0 1-3.81 3.06 8.377 8.377 0 0 0-2.73 2.6c-.08.147-.147.301-.2.46h-8.26a23.043 23.043 0 0 1-5.12-3.45zm144.67-31.1a6.609 6.609 0 0 1-2.17-3.26 2.92 2.92 0 0 1 1.51-3.32c1.39-.53 2.87.43 4 1.4s2.41 2.08 3.88 1.87a5.926 5.926 0 0 1-1.83-5.53c.067-.412.244-.799.51-1.12.77-.83 2.16-.47 3.09.18 2.93 2.06 3.75 6 3.76 9.62.168-1.327.188-2.669.06-4a4.004 4.004 0 0 1 1.49-3.51 4.392 4.392 0 0 1 2.27-.53 4.7 4.7 0 0 1 3.68 1c1.12 1.2.83 3.21-.14 4.53a14.245 14.245 0 0 1-3.82 3 8.658 8.658 0 0 0-2.72 2.6 2.165 2.165 0 0 0-.2.47h-8.27a23.011 23.011 0 0 1-5.1-3.4zm-48.22 31.1a6.55 6.55 0 0 1-2.16-3.26 2.908 2.908 0 0 1 1.51-3.32c1.39-.53 2.87.43 4 1.4s2.42 2.08 3.89 1.88a5.907 5.907 0 0 1-1.83-5.53c.061-.417.238-.809.51-1.13.77-.82 2.16-.47 3.08.18 2.93 2.06 3.75 6 3.77 9.63.164-1.327.181-2.669.05-4a4.095 4.095 0 0 1 1.48-3.5 4.542 4.542 0 0 1 2.27-.53 4.682 4.682 0 0 1 3.69 1c1.12 1.2.83 3.2-.15 4.52a14.236 14.236 0 0 1-3.81 3.06 8.377 8.377 0 0 0-2.73 2.6c-.08.147-.147.301-.2.46h-8.26a23.057 23.057 0 0 1-5.11-3.46zm-136.73-62.87s-3.1 4.05 1.43 10.16 8.26 11.28 6.75 15.09c0 0-6.83-11.36-12.39-11.51-5.56-.15-1.91-6.91 4.21-13.74z" fill="#fbc02d" fill-rule="nonzero"/><path d="M100.77 646.63c-.268.392-.48.819-.63 1.27-5.43 6.37-8.32 12.32-3.1 12.47 4.85.13 10.68 8.82 12.07 11-.043.17-.096.337-.16.5-.064.163-6.83-11.36-12.39-11.51-5.56-.15-1.91-6.9 4.21-13.73z" fill-opacity=".1" fill-rule="nonzero"/><path d="M95.01 651.79c0 1.43.16 2.58.36 2.58.2 0 .36-1.15.36-2.58 0-1.43-.2-.75-.4-.75s-.32-.68-.32.75z" fill="#ffd037" fill-rule="nonzero"/><path d="M93.04 653.49c1.25.68 2.34 1.1 2.43.92.09-.18-.84-.86-2.09-1.55-1.25-.69-.76-.18-.85 0-.09.18-.74-.01.51.63z" fill="#ffd037" fill-rule="nonzero"/><path d="M117.13 646.63s3.09 4.05-1.43 10.16-8.26 11.28-6.75 15.09c0 0 6.83-11.36 12.39-11.51 5.56-.15 1.9-6.91-4.21-13.74z" fill="#fbc02d" fill-rule="nonzero"/><path d="M117.13 646.63c.268.392.48.819.63 1.27 5.42 6.37 8.31 12.32 3.1 12.47-4.86.13-10.68 8.82-12.08 11 .046.17.103.337.17.5.067.163 6.83-11.36 12.39-11.51 5.56-.15 1.9-6.9-4.21-13.73z" fill-opacity=".1" fill-rule="nonzero"/><path d="M122.9 651.79c0 1.43-.16 2.58-.35 2.58-.19 0-.36-1.15-.36-2.58 0-1.43.2-.75.4-.75s.31-.68.31.75z" fill="#ffd037" fill-rule="nonzero"/><path d="M124.9 653.49c-1.25.68-2.34 1.1-2.44.92-.1-.18.85-.86 2.1-1.55 1.25-.69.76-.18.85 0 .09.18.7-.01-.51.63z" fill="#ffd037" fill-rule="nonzero"/><path d="M121.9 671.35s-8.66-.27-11.27-2.12c-2.61-1.85-13.32-4.08-14-1.1-.68 2.98-13 14.82-3.23 14.9 9.77.08 22.71-1.52 25.32-3.11 2.61-1.59 3.18-8.57 3.18-8.57z" fill="#a8a8a8" fill-rule="nonzero"/><path d="M93.25 681.99c9.78.08 22.72-1.52 25.32-3.11 2-1.21 2.77-5.54 3-7.54h.33s-.55 7-3.15 8.57c-2.6 1.57-15.55 3.19-25.32 3.11-2.82 0-3.8-1-3.75-2.51.4.9 1.47 1.46 3.57 1.48z" fill-opacity=".2" fill-rule="nonzero"/><path d="M172.46 334.07c-.16 4.2 3.44 9.78 3.44 9.78 1.1 2.65 14.59 14.93 14.59 14.93l10 6.68a55.854 55.854 0 0 1-6.34 4.05c-4.87 2.49-7.53 10.73-7.53 10.73s-7.38 17.73 7.53 20.22l.28.05 1.34 1.45c3.3 3.56 7.33 7.81 8.73 8.76 2.51 1.71 10.2 14.62 10.2 14.62s8.15 13.38 19 14c10.85.62 10.82-11.82 10-12.6a5 5 0 0 1-.67-1.7c2.59 4.17 6.12 9.65 7.26 10.41 1.88 1.24 8 11 8 11s7.69 17.57 8.94 19.44c1.25 1.87 3.45 11.2 3.45 11.2s4.4 12.9 6.44 14.62c2.04 1.72 3.13 7.93 3.13 7.93s6.43 9.33 7.53 10.88a66.036 66.036 0 0 1 3.45 7c1.011 2.399 3.45 5.6 3.45 7.78 0 2.18 7.22 5.9 7.22 5.9s5.18 6.07 8.16 7.16c2.98 1.09 5.8 8.24 6.27 7.77.277-.132.583-.194.89-.18l1.22 1.22c4.76 4.74 14.27 14.19 16.71 16.38 3.3 3 10.83 3.42 17.1 2.18 3.22-.64 7.14-3.69 10.19-6.51a7.003 7.003 0 0 0 .12-10.11c-3-2.89-6.47-6.06-8-6.55-2.82-.94-10.82-6.53-14.58-11.2-2-2.43-5.51-4.74-8.46-6.39l-.36-.21a31.197 31.197 0 0 1-.91-5.22c-.155-1.763 5.18-11.66 2.35-12.28-2.83-.62-13.49-19.13-13.49-19.13-.15-14-13-25.82-13-25.82s-6.43-15.24-8.31-18.5a5.009 5.009 0 0 1 0-5.6c1.141-1.688-3.61-2.8-4.23-4.2-.62-1.4-3.61-12-3.61-12s-3.61-6.38-3.77-9.33c-.16-2.95-7.19-11.18-7.19-11.18s-2.85-13.86-6-16.35c-.61-.48-.52-2.31 0-4.94l.15-.16.48-.47.14-.14a51.33 51.33 0 0 0 4.06-4.51l.06-.08c.2-.25.39-.49.57-.74 4.55-6.22 7.37-21 7.37-21s.9-.42 2.07-1.06a19.746 19.746 0 0 0 4.52-3.11.986.986 0 0 0 .16-.24.215.215 0 0 0 0-.08 1.5 1.5 0 0 0 .08-.19.506.506 0 0 0 0-.11 1.347 1.347 0 0 0 0-.22v-.47c0-.13 0-.26-.05-.4a.417.417 0 0 1 0-.05c0-.12-.05-.24-.08-.37v-.12c0-.11-.06-.22-.1-.34a.94.94 0 0 0 0-.13l-.12-.37a.339.339 0 0 1 0-.09c-.19-.5-.42-1-.68-1.54l-.27-.51c-.49-.93-1-1.84-1.54-2.63l-.08-.12c1.1-3.1 3.23-8.56 5.21-10.52 2.82-2.8-1.57-17.73-1.57-17.73s-.94-10.57-2.2-13.68c-1.26-3.11 0-3.56-1-6.22-1.21-3-2.09-2.8-.53-9.64.59-2.58 1.5-5.42 2.32-8.07l1 .92c5.8 5.47 14.91 12.59 14.91 12.59s17.88 16.17 19.45 16.64c1.57.47 6.28 16.33 6.28 16.33s-1.1 26.28 13.33 27.37c6.13.46 8.73-4.28 9.67-9.87a29.795 29.795 0 0 0-7.07-24.41l-8.64-9.82-7.69-13.68a139.32 139.32 0 0 1-12.31-24.44 68.099 68.099 0 0 0-15.08-22.29l-.62-.61.8-.74s-1.26-10.26-2.2-11.5c-.94-1.24-4.39-8.4-4.39-10 0-1.6-2.2-1.86-3.45-3.73 0 0-2.2-4.35-4.24-5a2.996 2.996 0 0 1-1-.64 22.518 22.518 0 0 0-12.82-5.55l-1.25-.12a69.904 69.904 0 0 0-8.34.12h-.07c-2.13-.64-3.74-2.3-5.39-3.78a42.375 42.375 0 0 0-8.77-6.05c-3.25-1.69-6.93-3-10.56-2.38-2.84.46-5.38 2-8.15 2.81-3.94 1.11-8.78.88-11.26 4.11-1.19 1.54-1.53 3.59-2.64 5.18-1.58 2.26-4.48 3.31-6.11 5.54a8.5 8.5 0 0 0-1.41 5.52 15.315 15.315 0 0 0 .56 4.67c.415 1.305.72 2.643.91 4a5.077 5.077 0 0 1-.11.66c-.22 1-.73 1.84-.93 2.81a5.083 5.083 0 0 0-.05 1.6c-.3 2.39 1.24 4.66 2.28 6.88a18.411 18.411 0 0 1 1.57 5.48 51.892 51.892 0 0 0-7.59 2.91c-3.27 1.58-6.56 3.72-8.44 6.46a42.758 42.758 0 0 1-11.3 10.91 88.753 88.753 0 0 0-3.45 10.24c-.94 4-1.88 10.57-4.7 14-2.82 3.43-4.12 13.61-4.12 13.61s-3.77 6.06-3.77 7.31-.47 7 0 8.7a5.101 5.101 0 0 0 1.09 1.42l-.28 1c-1.3 4.57-3.06 11.16-3.16 13.79zm88.44-70.05c-.08.35-.17.68-.28 1 0-.32.05-.63.07-.95l.21-.05zm-35.74 132.92l-.5-.46-.24-.22c0-.12.06-.24.09-.38l.65 1.06zm-26-63.65l.2-.37.74-1.34 6-4.9.77.7s-.63 6.53-2.19 6.22c-.36-.07-.52 1.43-.56 3.78-2.83-2.42-4.99-4.09-4.99-4.09h.03z" fill="url(#_Linear1)" fill-rule="nonzero"/><path d="M253.31 212.16s18.67-1.68 23.11-1.22l1.21.11a21.878 21.878 0 0 1 12.45 5.53c.288.274.628.488 1 .63 2 .61 4.13 4.9 4.13 4.9s-4.74 37.49-4.74 37.95c0 .46-9.8 17.44-9.8 17.44l-9.49 3.68-16.37 2.31-.46-7.06s7.88-4.32 7-13.25c-.88-8.93-8.04-51.02-8.04-51.02z" fill="#464353" fill-rule="nonzero"/><path d="M262.49 256.69s-4 18.06 0 23.87c4 5.81-39.48-9.48-39.48-9.48l-8-14.39s3-2.13 6.38-4.88c4.76-3.83 10.46-8.85 10.46-11 .05-3.71 30.64 15.88 30.64 15.88z" fill="#ecb4b6" fill-rule="nonzero"/><path d="M262.49 256.69s-4 18.06 0 23.87c4 5.81-39.48-9.48-39.48-9.48l-8-14.39s3-2.13 6.38-4.88c4.76-3.83 10.46-8.85 10.46-11 .05-3.71 30.64 15.88 30.64 15.88z" fill-opacity=".1" fill-rule="nonzero"/><circle cx="253.31" cy="242.03" r="26.63" fill-opacity=".1"/><circle cx="253.31" cy="240.8" r="26.63" fill="#ecb4b6"/><path d="M287.74 273.85c.1 1 2 3.07 4.58 5.52 5.66 5.38 14.55 12.39 14.55 12.39s17.45 15.91 19 16.37c1.55.46 6.12 16.07 6.12 16.07s-1.07 25.86 13 26.93c6 .45 8.52-4.2 9.44-9.71a29.504 29.504 0 0 0-6.89-24l-8.36-9.73-7.5-13.47a136.843 136.843 0 0 1-12.09-24 66.931 66.931 0 0 0-14.69-22c-1.57-1.56-2.58-2.39-2.58-2.39l-7 2.14s-7.88 22.8-7.58 25.88z" fill="#ecb4b6" fill-rule="nonzero"/><path d="M314.52 543.48l2.68 2.69c4.64 4.67 13.92 14 16.3 16.12 3.21 2.91 10.56 3.37 16.68 2.14 3.14-.62 7-3.63 9.94-6.4a6.883 6.883 0 0 0 .11-9.95c-2.9-2.84-6.3-6-7.76-6.45-2.75-.92-10.56-6.42-14.23-11-1.91-2.39-5.37-4.66-8.24-6.29-2.64-1.49-4.77-2.43-4.77-2.43l-10.71 21.57z" fill="#c17174" fill-rule="nonzero"/><path d="M318.3 543.48s.89.91 2.27 2.29c3.95 4 11.84 11.88 13.87 13.71 2.73 2.47 9 2.86 14.18 1.82 2.34-.47 5.13-2.48 7.49-4.56a6.895 6.895 0 0 0 2.353-5.185c0-1.868-.76-3.657-2.103-4.955-2.26-2.17-4.68-4.32-5.79-4.69-2.34-.78-9-5.47-12.1-9.37a25.696 25.696 0 0 0-7-5.35c-2.24-1.27-4.05-2.07-4.05-2.07l-9.12 18.36z" fill-opacity=".1" fill-rule="nonzero"/><path d="M192.9 398.09s2.1 2.37 4.65 5.15c3.21 3.51 7.15 7.69 8.51 8.62 2.45 1.69 9.95 14.39 9.95 14.39s8 13.16 18.52 13.77c10.52.61 10.56-11.63 9.79-12.39-.77-.76-1.83-7.66-3.36-12.71-1.16-3.82-10.65-12.9-15.19-17.09-1.46-1.35-2.41-2.19-2.41-2.19l-30.46 2.45z" fill="#c17174" fill-rule="nonzero"/><path d="M195.15 399.85s1.9 2.16 4.23 4.7c2.93 3.2 6.52 7 7.76 7.86 2.24 1.54 9.07 13.12 9.07 13.12s7.26 12 16.89 12.55c9.63.55 9.62-10.6 8.93-11.3-.69-.7-1.68-7-3.07-11.58-1.06-3.48-9.71-11.76-13.85-15.58-1.33-1.23-2.2-2-2.2-2l-27.76 2.23z" fill-opacity=".1" fill-rule="nonzero"/><path d="M192.9 398.09s2.1 2.37 4.65 5.15c13.44 2 19.69-.25 19.69-.25s6.27-2.76 7.65-2.91c.35 0 .6-.91.88-2.25-1.46-1.35-2.41-2.19-2.41-2.19l-30.46 2.45z" fill-opacity=".1" fill-rule="nonzero"/><path d="M209.09 361.98s-8.42 6.87-13.19 9.33-7.32 10.54-7.32 10.54-7.19 17.45 7.34 19.89c14.53 2.44 21.28 0 21.28 0s6.27-2.75 7.65-2.9c1.38-.15 1.37-13.32 6.42-17.3 5.05-3.98 16.68-13 16.68-13l-38.86-6.56z" fill="#5e5a6b" fill-rule="nonzero"/><path d="M209.09 361.98s-8.42 6.87-13.19 9.33-7.32 10.54-7.32 10.54-7.19 17.45 7.34 19.89c14.53 2.44 21.28 0 21.28 0s6.27-2.75 7.65-2.9c1.38-.15 1.37-13.32 6.42-17.3 5.05-3.98 16.68-13 16.68-13l-38.86-6.56z" fill-opacity=".1" fill-rule="nonzero"/><path d="M287.73 341.01s6 8.17 4.14 10.13c-1.86 1.96-6.42 4.1-6.42 4.1s-2.76 14.54-7.2 20.66c-4.44 6.12-13.15 12.86-13.15 12.86l6.11-34.13 16.52-13.62z" fill="#5e5a6b" fill-rule="nonzero"/><path d="M265.11 388.76a101.077 101.077 0 0 0 7.82-6.86 48.965 48.965 0 0 0 5.32-6c4.44-6.12 7.2-20.66 7.2-20.66s4.59-2.14 6.42-4.1c1.12-1.19-.65-4.66-2.21-7.21-1-1.66-1.92-2.92-1.92-2.92l-8.67 7.14-7.86 6.48-2.31 13.22-3.79 20.91zm49.41 154.72l2.68 2.69c1.69 0 4.21.21 4.21.21s12.39-14.85 10.4-17.45a12.68 12.68 0 0 1-1.81-4.61c-2.64-1.49-4.77-2.43-4.77-2.43l-10.71 21.59z" fill-opacity=".1" fill-rule="nonzero"/><path d="M219.95 386.77c0 2.6 20.81 34.43 20.81 34.43s8.11 13.77 9.95 15c1.84 1.23 7.8 10.86 7.8 10.86s7.5 17.29 8.73 19.13c1.23 1.84 3.36 11 3.36 11s4.29 12.7 6.28 14.38c1.99 1.68 3.06 7.81 3.06 7.81s6.27 9.18 7.34 10.71a65.837 65.837 0 0 1 3.37 6.88c.989 2.357 3.37 5.51 3.37 7.66 0 2.15 7 5.81 7 5.81s5 6 7.95 7 5.67 8.11 6.12 7.65c.45-.46 5.67 0 5.67 0s12.39-14.84 10.4-17.44c-1.99-2.6-2.45-8.73-2.45-8.73s5-11.47 2.3-12.08c-2.7-.61-13.11-18.77-13.11-18.77-.15-13.77-12.7-25.4-12.7-25.4s-6.28-15-8.11-18.21a4.949 4.949 0 0 1 0-5.51c1.117-1.663-3.52-2.75-4.13-4.13-.61-1.38-3.52-11.78-3.52-11.78s-3.52-6.28-3.68-9.19c-.16-2.91-7-11-7-11s-2.78-13.63-5.84-16.08c-.6-.48-.5-2.27 0-4.87 1.41-6.85 5.9-19.23 9-27.34 1.77-4.64 3.08-7.89 3.08-7.89l-5.92 1.48-50.4 12.6s-2.73 7.33-5.13 14.24c-1.91 5.44-3.6 10.63-3.6 11.78z" fill="#5e5a6b" fill-rule="nonzero"/><path d="M317.74 512.1s15.76-6.12 8 1.68-22.64 7.35-22.64 7.35l14.64-9.03zm-26.94-31.25s-8.87 4.9-7.19 9.64c1.68 4.74 7.19-9.64 7.19-9.64zm-8.9-37.92a9.294 9.294 0 0 1-8.73 4.74c-6.39-.15 8.73-4.74 8.73-4.74zm-83.22-68.08s3.37 10.41 0 11.17c-3.37.76 0-11.17 0-11.17zm89.06-101c.1 1 2 3.07 4.58 5.52 1.46-4.7 2.82-9 2-10.42-1.22-2.14 3.56-6.73 2.7-9.79-.66-2.34 5.1-8.27 7.84-10.92-1.57-1.56-2.58-2.39-2.58-2.39l-7 2.14s-7.84 22.78-7.54 25.86zm-64.2 101.14c5.81-.32 19.36-4.52 19.36-4.52s15.71-.52 26-2.62c5-1 8.64-2.43 8.64-4.32 0-2.53 2.07-5.92 4.42-9a71.832 71.832 0 0 1 5.14-5.83 9.288 9.288 0 0 0 2.13-3.45c.14-.41.31-.87.48-1.35-1-1.66-1.92-2.92-1.92-2.92l-8.67 7.14-50.4 12.6s-2.82 7.36-5.18 14.27z" fill-opacity=".1" fill-rule="nonzero"/><path d="M206.79 365.04s11.32 6.73 14.69 7.95c3.37 1.22 21.42-4.36 21.42-4.36s34.59-1.14 34.59-7c0-4.49 6.56-11.71 9.56-14.77a9.246 9.246 0 0 0 2.13-3.46c1.05-3 3.17-8.57 5.14-10.54 2.76-2.75-1.53-17.44-1.53-17.44s-.92-10.41-2.14-13.47c-1.22-3.06 0-3.51-1-6.12-1.18-2.93-2-2.76-.51-9.49s5.2-15.3 4-17.45c-1.2-2.15 3.56-6.73 2.7-9.79-.86-3.06 9.23-12.24 9.23-12.24s-1.26-10.01-2.17-11.29c-.91-1.28-4.28-8.26-4.28-9.79 0-1.53-2.15-1.84-3.37-3.67-1.22-1.83-15.35 47.44-15.35 47.44l-20.59 4.64-1.14.25s-11.71.55-19.31-3.67c0 0-13.13-2.14-17.42-23.87a50.325 50.325 0 0 0-9.52 3.44c-3.19 1.55-6.39 3.66-8.23 6.35a41.68 41.68 0 0 1-11 10.74 89.18 89.18 0 0 0-3.37 10.07c-.91 4-1.83 10.41-4.59 13.78-2.76 3.37-4 13.46-4 13.46l27.59 25.11s-.61 6.43-2.14 6.12c-1.53-.31.61 29.07.61 29.07z" fill="#464353" fill-rule="nonzero"/><path d="M211.96 251.56l14.72 30.69s6.12 4 8.27 1.83c2.15-2.17 10.25-2.14 10.25-2.14l1.07 2.14 15.51-3.66-2.43-5-1.14.26s-11.71.55-19.31-3.67c0 0-13.13-2.15-17.42-23.88a50.29 50.29 0 0 0-9.52 3.43z" fill-opacity=".1" fill-rule="nonzero"/><path d="M211.96 250.34l14.72 30.68s6.12 4 8.27 1.84c2.15-2.16 10.25-2.14 10.25-2.14l1.07 2.14 15.51-3.67-2.43-5-1.14.25s-11.71.55-19.31-3.67c0 0-13.13-2.14-17.42-23.87a50.325 50.325 0 0 0-9.52 3.44z" fill="#464353" fill-rule="nonzero"/><path d="M218.42 339.63s32.48 10.22 34.89 11.51c2.41 1.29-34.74-7.99-34.89-11.51zm20.48 15.61s-8.54 4.75-11.6 3.06c-3.06-1.69 11.6-3.06 11.6-3.06zm26.81-56.76s8.22 43.91-3.93 56.76l3.93-56.76zm13.51-66.11c3.13-3.373 3.272-8.602.33-12.14-1.06-1.2-2.45-2.11-3.32-3.46a14.805 14.805 0 0 0-1.62-2.66c-1.58-1.62-4.24-1.19-6.41-1.85-2.17-.66-3.64-2.26-5.25-3.71a41.258 41.258 0 0 0-8.55-6c-3.18-1.66-6.77-2.92-10.31-2.34-2.77.46-5.24 2-7.95 2.77-3.84 1.09-8.57.87-11 4.05-1.15 1.51-1.48 3.52-2.57 5.09-1.54 2.22-4.37 3.26-6 5.45-1.79 2.47-1.6 5.86-.83 8.81.51 1.91 1.23 3.87.78 5.79-.22.94-.71 1.81-.9 2.76-.5 2.48 1.1 4.83 2.17 7.13a17.99 17.99 0 0 1 1.66 7.95 3.57 3.57 0 0 0 .25 1.81c.303.459.72.831 1.21 1.08l4.6 2.9c.216.153.461.262.72.32.9.14 1.45-.89 2-1.58 1.54-1.84 4.47-1.7 6.64-.66s3.95 2.75 6.13 3.74c5.11 2.33 11 .26 16.53-.81a36.499 36.499 0 0 0 5.59-1.26 26.022 26.022 0 0 0 4.9-2.63 17.468 17.468 0 0 0 4.19-3.29 5.916 5.916 0 0 0 1.39-5.42c-.45-1.61-1.89-3.06-1.6-4.85.58-3.1 5.21-4.95 7.22-6.99z" fill-opacity=".1" fill-rule="nonzero"/><path d="M279.22 231.15c3.131-3.376 3.274-8.609.33-12.15-1.06-1.19-2.45-2.11-3.32-3.45a15.29 15.29 0 0 0-1.62-2.67c-1.58-1.61-4.24-1.18-6.41-1.84-2.17-.66-3.64-2.27-5.25-3.72a40.827 40.827 0 0 0-8.55-6c-3.18-1.66-6.77-2.92-10.31-2.34-2.77.46-5.24 2-7.95 2.77-3.84 1.09-8.57.86-11 4-1.15 1.52-1.48 3.53-2.57 5.1-1.54 2.22-4.37 3.26-6 5.45-1.79 2.47-1.6 5.86-.83 8.81.51 1.9 1.23 3.87.78 5.79-.22.94-.71 1.81-.9 2.76-.5 2.48 1.1 4.83 2.17 7.12a18.005 18.005 0 0 1 1.71 8.07 3.609 3.609 0 0 0 .25 1.82c.308.454.724.825 1.21 1.08l4.6 2.89a2 2 0 0 0 .72.33c.9.13 1.45-.89 2-1.59 1.54-1.84 4.47-1.69 6.64-.66 2.17 1.03 3.95 2.75 6.13 3.74 5.11 2.33 11 .26 16.53-.8a37.778 37.778 0 0 0 5.59-1.27 26.009 26.009 0 0 0 4.9-2.62 17.533 17.533 0 0 0 4.19-3.3 5.896 5.896 0 0 0 1.39-5.41c-.45-1.62-1.89-3.07-1.6-4.85.53-3.18 5.16-5.03 7.17-7.06z" fill="#464353" fill-rule="nonzero"/><path d="M174.81 336.42c-.16 4.13 3.36 9.64 3.36 9.64 1.07 2.6 14.23 14.69 14.23 14.69l10.41 7s13.93 8.57 17.22 10.1c1.65.77 3.42 4 4.79 7.16s2.32 6 2.32 6c6.184-.909 10.998-5.942 11.63-12.16.39-3.94.65-7.48.31-7.55-.77-.15-9.34-6.58-9.34-6.58s-9.94-6.43-13.16-12.85c-3.22-6.42-15.76-16.22-15.76-16.22l.2-.37.72-1.32 1.53-5.05-24-10.71s-.59 1.95-1.35 4.62c-1.3 4.5-3.02 11.03-3.11 13.6z" fill="#ecb4b6" fill-rule="nonzero"/><path d="M177.9 322.85a133.116 133.116 0 0 0 14.51 12.37c1.49.87 6.71.33 8.62.09l.72-1.32 1.53-5.05-24-10.71s-.63 1.93-1.38 4.62z" fill-opacity=".1" fill-rule="nonzero"/><path d="M201.74 304.28s12.24 7.35 11.63 10.56c-.61 3.21-5.8 14.31-5.8 14.31l-5.83 4.82s-7.5 1.07-9.34 0c-1.84-1.07-14.84-11.78-15.3-13.46-.46-1.68 0-7.35 0-8.57 0-1.22 3.67-7.2 3.67-7.2l5.36-9.48 15.61 9.02z" fill="#464353" fill-rule="nonzero"/><path d="M242.9 370.44l3.6 9.67-6.07 5.74-.28 1.73-13.47 7.75-4.28-10.81 20.5-14.08z" fill-opacity=".1" fill-rule="nonzero"/><path d="M242.9 369.83l3.6 9.66-6.07 5.75-.28 1.73-13.47 7.75-4.28-10.81 20.5-14.08z" fill="#5e5a6b" fill-rule="nonzero"/><path d="M272.28 237.45a3.483 3.483 0 0 1-.2-1.73c.5-3.13 5.13-5 7.14-7a8.732 8.732 0 0 0 2.37-5 9.056 9.056 0 0 1-2.37 7.49c-1.85 1.81-5.91 3.53-6.94 6.24zm-56.55-3.92a25.443 25.443 0 0 0 2.11 4.88 18.007 18.007 0 0 1 1.67 7.95 3.596 3.596 0 0 0 .24 1.82c.308.454.724.825 1.21 1.08l4.6 2.89c.216.162.465.275.73.33.89.13 1.44-.89 2-1.58 1.54-1.84 4.48-1.7 6.64-.67 2.16 1.03 3.95 2.75 6.13 3.75 5.12 2.32 11 .26 16.53-.81a36.5 36.5 0 0 0 5.59-1.27 25.665 25.665 0 0 0 4.9-2.62 17.515 17.515 0 0 0 4.2-3.3 6.67 6.67 0 0 0 1.42-2.77 5.946 5.946 0 0 1-1.42 5.22 17.786 17.786 0 0 1-4.2 3.3 25.665 25.665 0 0 1-4.9 2.62 37.778 37.778 0 0 1-5.59 1.27c-5.52 1.06-11.41 3.13-16.53.8-2.18-1-4-2.7-6.13-3.74s-5.1-1.18-6.64.66c-.58.7-1.13 1.72-2 1.59a2.012 2.012 0 0 1-.73-.33l-4.6-2.89a3.516 3.516 0 0 1-1.21-1.08 3.618 3.618 0 0 1-.24-1.82 18.007 18.007 0 0 0-1.67-7.95c-1.07-2.29-2.67-4.64-2.17-7.12.015-.071.035-.141.06-.21zm.07-10.79c.49 1.86 1.19 3.79.8 5.67-.18-1.08-.52-2.16-.8-3.22a14.448 14.448 0 0 1-.5-5.18c.089.922.257 1.836.5 2.73z" fill-opacity=".1" fill-rule="nonzero"/><circle cx="21.63" cy="133.12" r="21.63" fill="#fbc02d" fill-opacity=".1"/><circle cx="608.74" cy="41.98" r="21.63" fill="#fbc02d" fill-opacity=".1"/><circle cx="951.89" cy="127.43" r="21.63" fill="#fbc02d" fill-opacity=".1"/><circle cx="64.88" cy="252.45" r="36.25" fill="#fbc02d" fill-opacity=".1"/><circle cx="507.64" cy="789.46" r="36.25" fill="#fbc02d" fill-opacity=".1"/><circle cx="990.55" cy="768.56" r="36.25" fill="#fbc02d" fill-opacity=".1"/><defs><linearGradient id="_Linear1" x1="0" y1="0" x2="1" y2="0" gradientUnits="userSpaceOnUse" gradientTransform="matrix(0 -372.13 372.13 0 268.55 566.42)"><stop offset="0" stop-color="gray" stop-opacity=".247"/><stop offset=".54" stop-color="gray" stop-opacity=".118"/><stop offset="1" stop-color="gray" stop-opacity=".098"/></linearGradient></defs></svg>