<svg viewBox="0 0 512 512" xmlns="http://www.w3.org/2000/svg" fill-rule="evenodd" clip-rule="evenodd" stroke-linejoin="round" stroke-miterlimit="1.414"><path d="M256 256c-66.272 0-120 53.728-120 120 0 66.272 53.728 120 120 120 66.272 0 120-53.728 120-120 0-66.272-53.728-120-120-120zm0 208c-48.6 0-88-39.4-88-88s39.4-88 88-88 88 39.4 88 88-39.4 88-88 88z" fill="#fbc02d" fill-rule="nonzero"/><path fill="#fbc02d" d="M368 104h64v16h-64zm-288 0h64v16H80z"/><path d="M96 400V280H32v120H8l56 96.48L120 400H96zm352-144.48L392 352h24v120h64V352h24l-56-96.48z" fill="#fbc02d" fill-rule="nonzero"/><path d="M256 248c-70.576 0-128 57.424-128 128s57.424 128 128 128 128-57.424 128-128-57.424-128-128-128zm0 240c-59.056 0-107.464-45.976-111.592-104H168v-16h-23.592c1.768-24.864 11.64-47.472 27.048-65.232l16.664 16.664 11.312-11.312-16.664-16.664c17.76-15.408 40.376-25.28 65.232-27.048V288h16v-23.592c24.864 1.768 47.472 11.64 65.232 27.048l-16.664 16.664 11.312 11.312 16.664-16.664c15.408 17.76 25.28 40.376 27.048 65.232H344v16h23.592C363.464 442.024 315.056 488 256 488z" fill-rule="nonzero"/><path d="M280 348.688l-24-24-24 24v70.272c-5.12 5.832-8 13.312-8 21.04 0 17.648 14.352 32 32 32s32-14.352 32-32c0-7.728-2.88-15.208-8-21.04v-70.272zM256 456c-8.824 0-16-7.176-16-16 0-4.512 1.904-8.72 5.36-11.832l2.64-2.384v-70.472l8-8 8 8v70.472l2.64 2.384c3.456 3.112 5.36 7.32 5.36 11.832 0 8.824-7.176 16-16 16z" fill-rule="nonzero"/><path d="M424 104h16v16h-16zm-32 0h16v16h-16zm-32 0h16v16h-16zm-288 0h16v16H72zm32 0h16v16h-16zm32 0h16v16h-16z"/><path d="M400.168 8c-20.576 0-40.496 6.032-57.592 17.44L256 83.16l-86.576-57.72C152.32 14.032 132.4 8 111.832 8 54.576 8 8 54.736 8 112.168 8 169.424 54.576 216 111.832 216c20.576 0 40.496-6.032 57.592-17.44L256 140.84l86.576 57.72C359.68 209.968 379.6 216 400.168 216 457.424 216 504 169.264 504 111.832 504 54.576 457.424 8 400.168 8zm0 192c-17.408 0-34.248-5.104-48.72-14.752l-81.024-54.024 14.416-9.608 75.48 50.32A71.58 71.58 0 0 0 400.168 184C439.776 184 472 151.624 472 111.832 472 72.216 439.776 40 400.168 40c-14.24 0-28.016 4.168-39.84 12.064L160.544 185.248C146.08 194.896 129.232 200 111.832 200 63.4 200 24 160.6 24 112.168 24 63.552 63.4 24 111.832 24c17.408 0 34.248 5.104 48.72 14.752l81.024 54.024-14.416 9.608-75.48-50.32A71.58 71.58 0 0 0 111.832 40C72.224 40 40 72.376 40 112.168 40 151.784 72.224 184 111.832 184c14.24 0 28.016-4.168 39.84-12.064L351.456 38.752C365.92 29.104 382.768 24 400.168 24 448.6 24 488 63.4 488 111.832 488 160.448 448.6 200 400.168 200zm-100.904-88l69.944-46.624A55.575 55.575 0 0 1 400.168 56C430.96 56 456 81.048 456 111.832 456 142.808 430.96 168 400.168 168a55.601 55.601 0 0 1-30.968-9.376L299.264 112zm-86.528 0l-69.944 46.624a55.575 55.575 0 0 1-30.96 9.376C81.04 168 56 142.952 56 112.168 56 81.192 81.04 56 111.832 56a55.601 55.601 0 0 1 30.968 9.376L212.736 112z" fill-rule="nonzero"/></svg>