<?xml version="1.0" encoding="UTF-8" standalone="no"?><!DOCTYPE svg PUBLIC "-//W3C//DTD SVG 1.1//EN" "http://www.w3.org/Graphics/SVG/1.1/DTD/svg11.dtd"><svg width="100%" height="100%" viewBox="0 0 890 677" version="1.1" xmlns="http://www.w3.org/2000/svg" xmlns:xlink="http://www.w3.org/1999/xlink" xml:space="preserve" xmlns:serif="http://www.serif.com/" style="fill-rule:evenodd;clip-rule:evenodd;stroke-linejoin:round;stroke-miterlimit:1.41421;"><path d="M763.54,535.49c0,5.9 -34.39,23.1 -75.24,23.1c-40.85,0 -72.68,-17.2 -72.68,-23.1c0,-5.9 33.11,-4 74,-4c40.89,0 73.92,-1.91 73.92,4Z" style="fill:#504f60;fill-rule:nonzero;"/><path d="M763.54,535.49c0,5.9 -34.39,23.1 -75.24,23.1c-40.85,0 -72.68,-17.2 -72.68,-23.1" style="fill-opacity:0.2;fill-rule:nonzero;"/><path d="M352.15,427.23c6.63,0.85 13.51,1.39 19.86,-0.67c1,-0.31 2.1,-1 2,-2c-0.072,-0.363 -0.225,-0.706 -0.45,-1c-2.394,-3.59 -4.405,-7.421 -6,-11.43c-0.063,-0.209 -0.193,-0.392 -0.37,-0.52c-0.207,-0.075 -0.433,-0.075 -0.64,0c-2.93,0.77 -5.46,2.66 -8.37,3.47c-1.484,0.407 -3.032,0.523 -4.56,0.34c-1.32,-0.15 -3.12,-1.24 -4.32,-1.1c0.68,4.37 2.34,8.45 2.85,12.91Z" style="fill:#fbc02d;fill-rule:nonzero;"/><path d="M477.54,416.16c4.37,-3 8.9,-6.15 11.48,-10.78c0.184,-0.277 0.291,-0.598 0.31,-0.93c-0.044,-0.327 -0.171,-0.637 -0.37,-0.9c-2.458,-3.907 -5.622,-7.322 -9.33,-10.07c-1.935,1.367 -3.683,2.98 -5.2,4.8c-1.1,1.16 -4.14,3 -4.17,4.77c0,1 1.16,2.16 1.7,3c0.73,1.08 1.42,2.18 2.08,3.3c0.38,0.55 3.85,6.59 3.5,6.81Z" style="fill:#fbc02d;fill-rule:nonzero;"/><path d="M378.14,440.62c0.078,1.03 -0.205,2.056 -0.8,2.9c-0.467,0.47 -1.045,0.814 -1.68,1c-9.27,3.32 -20,-0.82 -29.25,2.45c-1.9,0.67 -3.7,1.64 -5.61,2.28c-2.277,0.685 -4.626,1.101 -7,1.24c-3.27,0.31 -6.56,0.51 -9.84,0.6c-2.492,0.176 -4.997,-0.043 -7.42,-0.65c-2.45,-0.627 -4.52,-2.268 -5.69,-4.51c-0.503,-0.994 -0.603,-2.144 -0.28,-3.21c0.145,-0.366 0.351,-0.704 0.61,-1c0.627,-0.703 1.363,-1.301 2.18,-1.77l3.41,-2.2c1.599,-1.131 3.337,-2.052 5.17,-2.74c1.35,-0.44 2.78,-0.63 4.15,-1c4.79,-1.4 8.45,-5.2 11.85,-8.85l4.64,-4.95c0.434,-0.545 0.984,-0.985 1.61,-1.29c0.644,-0.215 1.328,-0.28 2,-0.19c4.507,0.322 8.86,1.781 12.65,4.24c0.969,0.727 2.015,1.344 3.12,1.84c2.72,1.06 6.21,0.26 8.72,-1.08c1.19,-0.64 0.93,-1 1.43,-2.14c0.5,-1.14 1.72,-1.87 2.78,-0.83c0.32,0.36 0.546,0.792 0.66,1.26c1,3.3 0.62,6.85 0.62,10.31c-0.029,0.541 0.038,1.083 0.2,1.6c0.255,0.521 0.56,1.017 0.91,1.48c0.071,0.123 0.135,0.249 0.19,0.38c0.612,1.532 0.842,3.19 0.67,4.83Z" style="fill:#514e7f;fill-rule:nonzero;"/><path d="M378.14,440.62c0.078,1.03 -0.205,2.056 -0.8,2.9c-0.467,0.47 -1.045,0.814 -1.68,1c-9.27,3.32 -20,-0.82 -29.25,2.45c-1.9,0.67 -3.7,1.64 -5.61,2.28c-2.277,0.685 -4.626,1.101 -7,1.24c-3.27,0.31 -6.56,0.51 -9.84,0.6c-2.492,0.176 -4.997,-0.043 -7.42,-0.65c-2.45,-0.627 -4.52,-2.268 -5.69,-4.51c-0.503,-0.994 -0.603,-2.144 -0.28,-3.21c0.145,-0.366 0.351,-0.704 0.61,-1c0.54,1.13 0.93,2.63 1.27,3.17c0.929,1.618 2.511,2.76 4.34,3.13c1.354,0.083 2.711,-0.09 4,-0.51c8.4,-2.08 17.33,-2.11 25.4,-5.26c2.77,-1.09 5.41,-2.54 8.32,-3.2c2.91,-0.66 6,-0.48 9,-0.73c4.74,-0.38 9.33,-1.81 14,-2.56c0.603,1.544 0.819,3.213 0.63,4.86Z" style="fill:#464353;fill-rule:nonzero;"/><path d="M498.77,415.55c-0.44,3.52 -2.67,6.55 -5.12,9.12c-2.45,2.57 -5.22,4.88 -7.17,7.84c-2.4,3.67 -3.48,8.22 -6.6,11.32c-1.198,1.127 -2.543,2.086 -4,2.85c-1.632,0.963 -3.357,1.757 -5.15,2.37c-4.66,1.49 -9.68,1.15 -14.55,0.79c-1.581,-0.015 -3.146,-0.317 -4.62,-0.89c-0.671,-0.341 -1.313,-0.735 -1.92,-1.18c-1.221,-0.752 -2.248,-1.779 -3,-3c-0.369,-0.664 -0.473,-1.443 -0.29,-2.18c0.278,-0.812 0.756,-1.541 1.39,-2.12c1.096,-1.14 2.272,-2.199 3.52,-3.17c1.712,-1.105 3.255,-2.452 4.58,-4c0.813,-1.223 1.412,-2.576 1.77,-4c0.708,-2.495 1.141,-5.061 1.29,-7.65c-0.005,-1.721 0.172,-3.437 0.53,-5.12c0.74,-2.64 2.7,-5 2.48,-7.73c-0.089,-0.391 -0.054,-0.8 0.1,-1.17c0.233,-0.289 0.557,-0.49 0.92,-0.57c1.528,-0.609 3.14,-0.983 4.78,-1.11c1.665,-0.115 3.296,0.524 4.44,1.74c0.68,0.82 1.13,2 2.13,2.32c0.496,0.135 1.015,0.156 1.52,0.06c2.46,-0.25 5.06,-0.56 7,-2.15c1.812,-1.625 2.864,-3.936 2.9,-6.37c0,-0.91 -0.41,-1.86 1,-2c1.06,-0.14 1.9,1 2.44,1.7c1.95,2.61 3.95,5.34 4.68,8.52c0.284,-0.11 0.585,-0.168 0.89,-0.17c1.265,-0.011 2.458,0.599 3.19,1.63c0.796,1.29 1.105,2.823 0.87,4.32Z" style="fill:#514e7f;fill-rule:nonzero;"/><path d="M498.77,415.55c-0.44,3.52 -2.67,6.55 -5.12,9.12c-2.45,2.57 -5.22,4.88 -7.17,7.84c-2.4,3.67 -3.48,8.22 -6.6,11.32c-1.198,1.127 -2.543,2.086 -4,2.85c-1.632,0.963 -3.357,1.757 -5.15,2.37c-4.66,1.49 -9.68,1.15 -14.55,0.79c-1.581,-0.015 -3.146,-0.317 -4.62,-0.89c-0.671,-0.341 -1.313,-0.735 -1.92,-1.18c-1.221,-0.752 -2.248,-1.779 -3,-3c0.937,-0.451 1.96,-0.696 3,-0.72c2.16,0.12 3.74,2.16 5.81,2.79c2.95,0.89 5.89,-1.19 8.88,-1.9c1.95,-0.46 4,-0.34 5.93,-1c1.608,-0.622 3.095,-1.522 4.39,-2.66c1.776,-1.27 3.356,-2.792 4.69,-4.52c1.108,-1.728 2.03,-3.568 2.75,-5.49c1.579,-3.683 3.438,-7.24 5.56,-10.64c0.314,-0.538 0.693,-1.035 1.13,-1.48c0.47,-0.43 1,-0.73 1.53,-1.11c2,-1.51 2.83,-4 3.53,-6.44c0.19,-0.742 0.454,-1.462 0.79,-2.15c1.265,-0.011 2.458,0.599 3.19,1.63c0.86,1.32 1.199,2.914 0.95,4.47Z" style="fill:#464353;fill-rule:nonzero;"/><path d="M289.08,103.77c2.489,1.865 4.538,4.255 6,7c1.4,2.74 9.47,24 9,27.09c2.63,-2.65 13,-3.08 15.66,-5.73c1.11,-1.11 7.1,-6.65 8,-7.94c0.9,-1.29 7.58,-4 8.31,-5.36c2.73,-4.89 -19.36,-23.42 -16.53,-28.25c0.157,-0.222 0.237,-0.489 0.23,-0.76c-0.064,-0.228 -0.193,-0.433 -0.37,-0.59c-1.81,-1.85 -4.21,-3 -6.39,-4.37c-2.18,-1.37 -4.28,-3.28 -4.87,-5.8c-2.079,0.957 -3.987,2.247 -5.65,3.82c-4.053,3.473 -8.037,7.017 -11.95,10.63c-1.53,1.42 -4.49,3.31 -5.2,5.34c-0.84,2.18 2.3,3.73 3.76,4.92Z" style="fill:#a1616a;fill-rule:nonzero;"/><path d="M324.84,95.9c-3.389,2.278 -6.556,4.869 -9.46,7.74c-2.74,2.71 -5.34,5.85 -6,9.64c-0.28,1.49 -0.24,3 -0.47,4.51c-1,6.55 -6.66,11.35 -9.16,17.48c-0.724,1.892 -1.257,3.852 -1.59,5.85c-0.702,3.788 -1.087,7.628 -1.15,11.48c-0.06,3.73 3.6,6.3 4.94,9.78c1.34,3.48 1.7,7.06 2.38,10.63c1.28,6.74 3.63,13.24 6,19.7c4.93,13.62 20.91,51.27 25.84,64.9c15.11,-3.79 55.33,-12.5 68.71,-20.49c4.46,-2.66 -30.95,-32.67 -26.18,-34.74c0.863,-0.134 1.506,-0.885 1.506,-1.759c0,-0.259 -0.056,-0.516 -0.166,-0.751c-4.77,-20.86 -19.69,-38 -26.46,-58.31c-2.35,-7.05 -6.57,-13.07 -9.77,-19.77c-2.9,-6.07 -4.45,-12.78 -7.92,-18.55c-0.654,-1.189 -1.51,-2.255 -2.53,-3.15c-0.865,-0.664 -1.801,-1.23 -2.79,-1.69c-1.98,-0.96 -3.82,-1.53 -5.73,-2.5Z" style="fill:#514e7f;fill-rule:nonzero;"/><circle cx="289.88" cy="77.75" r="23.65" style="fill:#a1616a;"/><path d="M313.94,88.86c2.408,-2.221 5.954,-2.731 8.89,-1.28c1.6,0.83 3,2.51 2.64,4.27l11.73,0.18c1.867,-0.051 3.733,0.12 5.56,0.51c1.838,0.4 3.48,1.43 4.64,2.91c0.14,0.19 0.3,0.42 0.54,0.45c0.195,0.003 0.386,-0.06 0.54,-0.18c1.804,-0.905 3.837,-1.253 5.84,-1c6.34,0.41 12.2,3.58 17.17,7.54c0.896,0.616 1.592,1.482 2,2.49c0.41,1.33 -0.08,3 1,3.95c0,11 3.78,21.28 6.3,32c0.45,1.91 2.28,3.6 3.55,5.1c1.569,1.663 2.85,3.576 3.79,5.66c2.14,5.56 -0.81,12.1 1.27,17.68c0.88,2.36 2.58,4.3 4,6.35c1.872,2.367 3.055,5.205 3.42,8.2c0.09,1.34 -0.08,2.69 0,4c0.134,1.802 0.47,3.583 1,5.31c0.853,3.227 1.747,6.45 2.68,9.67c1.52,5.2 3.5,10.81 8.16,13.58c-11.25,1.91 -23.11,3.78 -33.83,-0.13c-1.495,-0.51 -2.915,-1.22 -4.22,-2.11c-3.87,-2.76 -5.74,-7.48 -7.41,-11.94c-1.86,-5 -3.75,-10.09 -4.13,-15.41c0.004,-1.692 -0.235,-3.376 -0.71,-5c-1.09,-2.9 -4,-4.65 -6.64,-6.26c-2.981,-1.634 -5.682,-3.733 -8,-6.22c-2.324,-2.53 -3.498,-5.914 -3.24,-9.34c0.2,-1.65 0.85,-3.24 0.91,-4.9c0.06,-1.66 -0.68,-3.56 -2.27,-4c-8.19,-2.48 -12.1,-12.18 -13.92,-20.54c-0.785,-4.321 -1.137,-8.709 -1.05,-13.1l-0.11,-8.53c-2.283,-2.077 -3.615,-5.004 -3.68,-8.09c0.109,-0.891 0.092,-1.793 -0.05,-2.68c-0.396,-1.084 -1.04,-2.06 -1.88,-2.85c-1.808,-1.856 -3.322,-3.977 -4.49,-6.29Z" style="fill:#464353;fill-rule:nonzero;"/><path d="M288.75,115.9c-0.27,2.64 0.33,5.35 -0.26,7.94c-0.23,1 -0.63,2 -0.92,2.93c-0.886,3.727 -0.503,7.646 1.09,11.13c1.591,3.451 3.496,6.748 5.69,9.85c0.742,1.059 1.353,2.204 1.82,3.41c0.378,1.266 0.613,2.571 0.7,3.89c0.579,5.296 1.508,10.547 2.78,15.72c1.12,4.48 13.84,42.78 16.8,46.33c0.537,0.786 1.352,1.34 2.28,1.55c0.669,0.025 1.335,-0.112 1.94,-0.4l6,-2.3c0.51,-0.156 0.983,-0.415 1.39,-0.76c0.562,-0.657 0.868,-1.496 0.86,-2.36c0.43,-4.88 -12.32,-43.45 -13.94,-48.06c-4.9,-13.92 -11.42,-27.34 -14.61,-41.75c-0.89,-4 -1.36,-10.16 -4.29,-13.35c-1.21,-1.32 -0.8,-0.76 -2.25,-0.07c-0.733,0.318 -1.441,0.689 -2.12,1.11c-1.718,1.194 -2.807,3.103 -2.96,5.19Z" style="fill:#464353;fill-rule:nonzero;"/><path d="M306.96,142.31c1.61,8.51 3.27,17 4.92,25.51l23.48,-6.15c0.19,-2.46 -1.12,-4.74 -2,-7c-2.14,-5.37 -2.19,-11.35 -3.92,-16.87c-1.31,-4.2 -3.59,-8.06 -4.82,-12.29c-0.71,-2.46 -1.07,-5 -1.77,-7.49c-0.751,-2.445 -1.673,-4.835 -2.76,-7.15c-1.318,-3.358 -3.037,-6.545 -5.12,-9.49c-3,1.12 -6.2,2.42 -7.91,5.13c-0.877,1.527 -1.378,3.241 -1.46,5c-0.41,5.27 1.5,10.57 0.87,15.81c-0.649,4.99 -0.483,10.053 0.49,14.99Z" style="fill:#fbc02d;fill-rule:nonzero;"/><path d="M335.75,255.51c1.32,5 -0.59,10.26 -2.15,15.21c-2.349,7.456 -3.95,15.127 -4.78,22.9c-0.102,1.978 -0.5,3.93 -1.18,5.79c-0.74,1.67 -2,3.08 -2.86,4.67c-2.36,4.18 -2.3,9.28 -1.79,14.06c0.34,3.15 0.85,6.29 1.48,9.39c0.77,3.79 1.72,7.75 0.61,11.45c1.86,-0.41 3.12,2 3,3.89c-0.12,1.89 -0.73,4 0.18,5.63c2.3,0.84 2.32,4 2.25,6.45c0.038,4.248 0.575,8.477 1.6,12.6c3.48,16.733 7.173,33.42 11.08,50.06c8.45,2.62 18.32,5.35 26.38,1.72c1.5,-0.67 3,-1.74 3.34,-3.36c0.088,-0.873 -0.022,-1.755 -0.32,-2.58l-3.82,-13.9c-0.93,-3.36 -1.86,-6.83 -1.37,-10.28c0.37,-2.57 1.49,-5.34 0.23,-7.61c-0.43,-0.78 -1.11,-1.39 -1.61,-2.13c-2,-2.93 -0.95,-6.85 -0.79,-10.4c0.062,-0.797 0.008,-1.599 -0.16,-2.38c-0.274,-0.913 -0.657,-1.789 -1.14,-2.61c-3.157,-6.129 -4.673,-12.972 -4.4,-19.86c0.119,-0.879 -0.002,-1.774 -0.35,-2.59c-0.243,-0.337 -0.46,-0.691 -0.65,-1.06c-0.149,-0.642 -0.075,-1.316 0.21,-1.91c-1.146,-0.87 -2.181,-1.877 -3.08,-3c1.264,-0.786 2.035,-2.172 2.035,-3.66c0,-1.159 -0.467,-2.27 -1.295,-3.08c1.046,-0.211 1.806,-1.138 1.806,-2.206c0,-0.633 -0.268,-1.238 -0.736,-1.664c-0.49,-0.34 -1.14,-0.49 -1.49,-1c-0.54,-0.74 -0.1,-1.77 0.34,-2.56l2.33,-4.21c1.74,-3.13 2.13,-7 4,-10c2.68,-4.37 4.43,-9.24 6.16,-14.06l6.73,-18.57l4.53,3.93c1.509,1.153 2.773,2.594 3.72,4.24c0.644,1.627 1.052,3.338 1.21,5.08c1.66,10.08 8,18.82 10.35,28.75c0.52,2.21 0.87,4.53 2.14,6.42c0.454,0.58 0.862,1.196 1.22,1.84c0.331,0.983 0.503,2.013 0.51,3.05c0.424,4.108 2.616,7.834 6,10.2c2.23,1.53 5,2.58 6.21,5c0.242,0.749 0.578,1.465 1,2.13c1.08,1.3 3.41,1.45 3.87,3.08c0.26,0.91 -0.22,2 0.29,2.8c0.29,0.37 0.673,0.657 1.11,0.83l6.51,3.25c7.28,3.64 11,12 16.37,18.09c1.854,1.984 3.497,4.155 4.9,6.48c2.32,4.15 3.39,9.36 7.31,12c1.054,0.546 2.013,1.259 2.84,2.11c1.23,1.62 0.78,3.89 0.89,5.93c0.11,2.04 1.67,4.47 3.61,3.85c-0.68,2.471 -0.68,5.079 0,7.55c8.515,-0.437 16.64,-3.728 23.06,-9.34c1.9,-1.66 3.73,-3.78 3.75,-6.3c0.029,-0.435 -0.068,-0.869 -0.28,-1.25c-0.384,-0.492 -0.891,-0.875 -1.47,-1.11c-6.09,-3.3 -7.92,-10.95 -11,-17.16c-2.69,-5.48 -6.67,-10.2 -10,-15.29c-7.24,-10.95 -12.18,-24.2 -23.13,-31.43c-2.41,-1.59 -5.21,-3 -6.42,-5.63c-0.67,-1.47 -0.75,-3.15 -1.28,-4.67c-0.53,-1.52 -1.8,-3 -3.42,-3c0.9,-2.2 0.72,-4.88 0.78,-7.26c0.061,-1.056 -0.06,-2.115 -0.36,-3.13c-0.416,-1.092 -0.956,-2.132 -1.61,-3.1c-2.857,-4.837 -4.285,-10.385 -4.12,-16c0.08,-2.89 0.59,-5.87 -0.28,-8.63c-0.44,-1.39 -1.21,-2.66 -1.74,-4c-0.799,-2.428 -1.22,-4.964 -1.25,-7.52l-0.6,-9.61c-0.091,-3.2 -0.506,-6.383 -1.24,-9.5c-2,-7.46 -4,-38.71 -10.85,-42.23c-6.85,-3.52 -18.62,20.53 -26.33,21c-3.411,0.142 -6.781,0.792 -10,1.93c-5.13,1.92 -9.43,5.5 -13.62,9l-14.18,11.91c-3,2.47 -5.48,4.83 -8.79,6.57Z" style="fill:#464353;fill-rule:nonzero;"/><path d="M267.69,51.49c3.12,-4.26 8.48,-6.52 13.76,-6.71c5.28,-0.19 10.48,1.47 15.21,3.82c1.396,0.794 2.888,1.406 4.44,1.82c2.5,0.51 5.28,-0.17 7.54,1c3,1.59 3.58,5.64 3.32,9c-0.26,3.36 -0.89,7.09 0.9,10c0.635,0.83 1.213,1.702 1.73,2.61c0.77,1.73 0.32,3.73 -0.14,5.56c-1.17,-1 -1.83,-2.51 -2.87,-3.67c-1.04,-1.16 -2.85,-1.94 -4.14,-1.07c-1.29,0.87 -1.27,2.45 -1.34,3.87c-0.07,1.42 -0.43,3.12 -1.77,3.58c-1.143,0.26 -2.335,-0.205 -3,-1.17c-2.29,-2.8 -1.37,-7.27 -3.64,-10.09c-1.29,-1.6 -3.44,-2.38 -4.63,-4.06c-0.94,-1.32 -1.18,-3 -2,-4.42c-0.82,-1.42 -2.73,-2.46 -4,-1.48c-0.433,0.414 -0.795,0.897 -1.07,1.43c-1.625,2.327 -4.66,3.242 -7.3,2.2c-0.983,-0.604 -2.047,-1.065 -3.16,-1.37c-1.483,-0.074 -2.886,0.703 -3.61,2c-0.718,1.272 -1.064,2.721 -1,4.18c0,2 0.36,4.13 -0.78,5.73c-0.434,0.602 -0.976,1.118 -1.6,1.52c-1.67,1.07 -4,1.79 -5.54,0.57c-1.06,-0.988 -1.531,-2.461 -1.24,-3.88c0.3,-1.392 0.694,-2.762 1.18,-4.1c0.88,-3.1 -0.27,-6.59 0.69,-9.51c1.006,-2.63 2.372,-5.107 4.06,-7.36Z" style="fill:#464353;fill-rule:nonzero;"/><path d="M280.36,122.04c-0.15,0.729 -0.073,1.486 0.22,2.17c0.297,0.466 0.702,0.853 1.18,1.13c3.363,2.095 7.188,3.334 11.14,3.61c0.538,0.009 1.066,0.146 1.54,0.4c0.94,0.62 1,2 0.65,3.1c-0.467,1.038 -0.709,2.162 -0.71,3.3c0.29,2.09 2.77,3 4.86,3.31c2.93,0.37 6.14,0.18 8.46,-1.65c1.571,-1.433 2.77,-3.229 3.49,-5.23c5.74,-13.19 7.75,-27.77 13.56,-40.92c0.44,-0.859 0.734,-1.785 0.87,-2.74c0.125,-0.973 -0.29,-1.94 -1.08,-2.52c-1.08,-0.67 -2.76,-0.29 -3.49,-1.34c-0.36,-0.53 -0.32,-1.25 -0.64,-1.81c-0.67,-1.19 -2.43,-1 -3.63,-1.69c-0.94,-0.5 -1.59,-1.53 -2.64,-1.73c-1.044,-0.059 -2.057,0.379 -2.73,1.18c-3.41,3.18 -5.2,7.69 -7.1,11.95c-2.901,6.53 -6.298,12.828 -10.16,18.84c0.45,-0.7 -2.16,-6 -3.18,-6.23c-1.79,-0.36 -4.08,2.78 -5.05,3.95c-3.044,3.69 -4.973,8.173 -5.56,12.92Z" style="fill:#fbc02d;fill-rule:nonzero;"/><path d="M316.69,82.09c-1.454,0.024 -2.821,0.709 -3.71,1.86c-1.07,1.39 -1.28,3.23 -1.55,5c-0.91,5.608 -2.911,10.983 -5.89,15.82" style="fill-opacity:0.1;fill-rule:nonzero;"/><path d="M321.79,86.08c-2.015,0.045 -3.862,1.153 -4.85,2.91c-0.662,1.573 -1.074,3.24 -1.22,4.94c-0.857,3.769 -2.511,7.312 -4.85,10.39" style="fill-opacity:0.1;fill-rule:nonzero;"/><path d="M559.45,281.58l0,-12.42c-0.005,-18.911 -15.569,-34.47 -34.48,-34.47l-490.49,0c-18.911,0 -34.475,15.559 -34.48,34.47l0,22.9l559.45,-10.48Z" style="fill:#33323d;fill-rule:nonzero;"/><path d="M170.93,220.13c0,0 -1.4,86.86 14,115.44c15.4,28.58 22,152.91 22,152.91c0,0 161.44,16.7 273.94,-20c112.5,-36.7 351.88,-51.71 351.88,-51.71l-40.34,-271.89c0,0 -199.29,-12.78 -312.66,41.29c-113.37,54.07 -308.82,33.96 -308.82,33.96Z" style="fill:#8dd070;fill-rule:nonzero;"/><path d="M170.93,220.13c0,0 -1.4,86.86 14,115.44c15.4,28.58 22,152.91 22,152.91c0,0 161.44,16.7 273.94,-20c112.5,-36.7 351.88,-51.71 351.88,-51.71l-40.34,-271.89c0,0 -199.29,-12.78 -312.66,41.29c-113.37,54.07 -308.82,33.96 -308.82,33.96Z" style="fill-opacity:0.1;fill-rule:nonzero;"/><path d="M206.66,251.86c0,0 -5.05,71.67 7.62,94.57c12.67,22.9 13.26,125.13 13.26,125.13c0,0 145.29,6.74 248.64,-28.44c103.35,-35.18 320.53,-58 320.53,-58l-24.68,-222.35c0,0 -179.7,-1.85 -284.58,47.67c-104.88,49.52 -280.79,41.42 -280.79,41.42Z" style="fill:#8dd070;fill-rule:nonzero;"/><path d="M465.855,241.85c20.659,-2.573 41.912,31.31 47.431,75.618c5.518,44.307 -6.773,82.368 -27.432,84.942c-20.658,2.573 -41.911,-31.31 -47.43,-75.618c-5.519,-44.307 6.773,-82.369 27.431,-84.942Z" style="fill-opacity:0.1;"/><path d="M683.15,12.43c0,0 -193.61,49 -284.91,135.25c-91.3,86.25 -283.5,127.09 -283.5,127.09c0,0 25.32,83.09 48.74,105.57c23.42,22.48 67.84,138.8 67.84,138.8c0,0 158.77,-33.66 254.57,-103.14c95.8,-69.48 319.07,-157.23 319.07,-157.23l-121.81,-246.34Z" style="fill-opacity:0.2;fill-rule:nonzero;"/><path d="M111.83,262.33c0,0 25.31,83.1 48.71,105.58c23.4,22.48 67.84,138.79 67.84,138.79c0,0 158.79,-33.65 254.6,-103.13c95.81,-69.48 319.06,-157.2 319.06,-157.2l-121.81,-246.37c0,0 -193.6,49 -284.9,135.25c-91.3,86.25 -283.5,127.08 -283.5,127.08Z" style="fill:#8dd070;fill-rule:nonzero;"/><path d="M111.83,262.33c0,0 25.31,83.1 48.71,105.58c23.4,22.48 67.84,138.79 67.84,138.79c0,0 158.79,-33.65 254.6,-103.13c95.81,-69.48 319.06,-157.2 319.06,-157.2l-121.81,-246.37c0,0 -193.6,49 -284.9,135.25c-91.3,86.25 -283.5,127.08 -283.5,127.08Z" style="fill-opacity:0.1;fill-rule:nonzero;"/><path d="M155.54,281.57c0,0 17.19,69.77 36.28,87.67c19.09,17.9 51,115 51,115c0,0 140.34,-38.18 227.91,-103.38c87.57,-65.2 287.29,-153.47 287.29,-153.47l-91.71,-204.12c0,0 -171.59,53.37 -256.22,132.69c-84.63,79.32 -254.55,125.61 -254.55,125.61Z" style="fill:#8dd070;fill-rule:nonzero;"/><path d="M399.19,192.502c18.872,-8.788 49.497,16.938 68.345,57.415c18.849,40.476 18.83,80.473 -0.042,89.261c-18.873,8.789 -49.497,-16.938 -68.346,-57.415c-18.849,-40.476 -18.83,-80.473 0.043,-89.261Z" style="fill-opacity:0.1;"/><path d="M572.69,293.77l0,345c0,16.364 -13.466,29.83 -29.83,29.83c-0.003,0 -0.007,0 -0.01,0l-513,0c-16.36,-0.005 -29.82,-13.47 -29.82,-29.83l0,-379.78c14.7,5.46 14.7,5.46 29.82,5l513,0c16.347,0 29.807,13.433 29.84,29.78Z" style="fill-opacity:0.1;fill-rule:nonzero;"/><path d="M572.69,298.16l0,345c-0.005,16.366 -13.474,29.83 -29.84,29.83l-513,0c-16.36,-0.005 -29.82,-13.47 -29.82,-29.83l0,-379.79c14.7,5.45 14.7,5.45 29.82,5l513,0c16.351,0 29.813,13.439 29.84,29.79Z" style="fill:#504f60;fill-rule:nonzero;"/><path d="M571.23,425.71l0,110.33l-107,0c-29.982,-0.404 -54.427,-25.18 -54.427,-55.165c0,-29.985 24.445,-54.761 54.427,-55.165l107,0Z" style="fill-opacity:0.1;fill-rule:nonzero;"/><path d="M572.69,422.77l0,110.35l-107,0c-29.982,-0.404 -54.427,-25.18 -54.427,-55.165c0,-29.985 24.445,-54.761 54.427,-55.165l107,-0.02Z" style="fill:#33323d;fill-rule:nonzero;"/><circle cx="470.82" cy="480.88" r="21.51" style="fill-opacity:0.1;"/><circle cx="472.28" cy="477.96" r="21.51" style="fill:#fbc02d;"/><path d="M758.42,421.82c0.85,9.21 -6.12,18.15 -4.09,27.17c0.44,1.93 1.27,3.75 1.57,5.7c0.84,5.36 -2.35,10.43 -5.4,14.91l-26.2,38.44c-1.049,1.69 -2.306,3.242 -3.74,4.62c-5,4.46 -12.52,4 -19.1,5.33c-4.626,0.939 -8.993,2.87 -12.8,5.66c-0.329,0.281 -0.382,0.776 -0.12,1.12c2.207,3.006 5.798,4.692 9.52,4.47c0.69,0.91 0,2.24 -1,2.89c-1.41,1 -3.34,1.24 -3.62,3.62c-0.1,0.831 0.069,1.672 0.48,2.4c1.055,1.616 2.698,2.76 4.58,3.19c9.07,2.77 18.87,-2.1 25.66,-8.73c6.79,-6.63 11.66,-15 18.32,-21.75c3.69,-3.73 7.88,-6.93 11.68,-10.55c7.58,-7.22 13.47,-16 19.16,-24.79c1.71,-2.65 3.43,-5.37 4.15,-8.44c0.72,-3.07 0.38,-6.17 1.19,-9.14c1.06,-3.9 3.91,-7 6.28,-10.27c4.65,-6.4 7.75,-14.23 7.14,-22.11c-0.61,-7.88 -5.5,-15.67 -12.94,-18.35c-2.305,-0.926 -4.85,-1.08 -7.25,-0.44c-3.05,0.94 -5.3,3.46 -7.38,5.87l-5,5.75c-1.247,1.262 -2.232,2.757 -2.9,4.4c-0.653,1.682 -0.261,3.599 1,4.89" style="fill:#fbbebe;fill-rule:nonzero;"/><path d="M758.42,421.82c0.85,9.21 -6.12,18.15 -4.09,27.17c0.44,1.93 1.27,3.75 1.57,5.7c0.84,5.36 -2.35,10.43 -5.4,14.91l-26.2,38.44c-1.049,1.69 -2.306,3.242 -3.74,4.62c-5,4.46 -12.52,4 -19.1,5.33c-4.626,0.939 -8.993,2.87 -12.8,5.66c-0.329,0.281 -0.382,0.776 -0.12,1.12c2.207,3.006 5.798,4.692 9.52,4.47c0.69,0.91 0,2.24 -1,2.89c-1.41,1 -3.34,1.24 -3.62,3.62c-0.1,0.831 0.069,1.672 0.48,2.4c1.055,1.616 2.698,2.76 4.58,3.19c9.07,2.77 18.87,-2.1 25.66,-8.73c6.79,-6.63 11.66,-15 18.32,-21.75c3.69,-3.73 7.88,-6.93 11.68,-10.55c7.58,-7.22 13.47,-16 19.16,-24.79c1.71,-2.65 3.43,-5.37 4.15,-8.44c0.72,-3.07 0.38,-6.17 1.19,-9.14c1.06,-3.9 3.91,-7 6.28,-10.27c4.65,-6.4 7.75,-14.23 7.14,-22.11c-0.61,-7.88 -5.5,-15.67 -12.94,-18.35c-2.305,-0.926 -4.85,-1.08 -7.25,-0.44c-3.05,0.94 -5.3,3.46 -7.38,5.87l-5,5.75c-1.247,1.262 -2.232,2.757 -2.9,4.4c-0.653,1.682 -0.261,3.599 1,4.89" style="fill-opacity:0.05;fill-rule:nonzero;"/><path d="M778.25,658.92c-5.72,3.49 -12.85,3.7 -19.5,2.89c-1.07,-0.13 -2.34,-0.21 -3,0.62c-1,1.2 0.18,3 1.4,3.93c3.922,2.945 8.531,4.841 13.39,5.51c4.339,0.615 8.718,0.906 13.1,0.87c12,0.21 24,0.41 35.81,-1.31c0.7,-0.053 1.381,-0.25 2,-0.58c0.761,-0.534 1.291,-1.339 1.48,-2.25c0.81,-3.08 -0.75,-6.38 -3.11,-8.52c-2.36,-2.14 -5.39,-3.33 -8.35,-4.48l-10.4,-4.05c-2.44,-0.95 -6.35,-3.47 -9,-3.27c-4.98,0.36 -9.69,8.22 -13.82,10.64Z" style="fill:#3f3d56;fill-rule:nonzero;"/><path d="M778.25,658.92c-5.72,3.49 -12.85,3.7 -19.5,2.89c-1.07,-0.13 -2.34,-0.21 -3,0.62c-1,1.2 0.18,3 1.4,3.93c3.922,2.945 8.531,4.841 13.39,5.51c4.339,0.615 8.718,0.906 13.1,0.87c12,0.21 24,0.41 35.81,-1.31c0.7,-0.053 1.381,-0.25 2,-0.58c0.761,-0.534 1.291,-1.339 1.48,-2.25c0.81,-3.08 -0.75,-6.38 -3.11,-8.52c-2.36,-2.14 -5.39,-3.33 -8.35,-4.48l-10.4,-4.05c-2.44,-0.95 -6.35,-3.47 -9,-3.27c-4.98,0.36 -9.69,8.22 -13.82,10.64Z" style="fill-opacity:0.05;fill-rule:nonzero;"/><path d="M785.54,520.86c-4.33,5.76 -8.81,12.41 -7.74,19.54c0.58,3.84 2.73,7.23 4.31,10.78c2.14,4.82 3.26,10 4.36,15.16c1.62,7.54 3.25,15.1 4.24,22.76c1.13,8.65 -4.18,33.68 -4.67,42.39c-0.12,2.1 -0.37,4.37 -1.83,5.88c-0.57,0.6 -1.33,1.08 -1.59,1.86c-0.152,0.751 -0.028,1.533 0.35,2.2c2.44,5.5 7.43,9.6 13,11.94c5.57,2.34 19,6.38 25.07,6.59c0.8,0.088 1.61,-0.018 2.36,-0.31c0.807,-0.492 1.443,-1.223 1.82,-2.09c4.35,-8.32 0.17,-37.9 0.23,-47.29c0.06,-7.83 1.91,-15.61 1.57,-23.43c-0.28,-6.28 -2,-12.42 -2.57,-18.68c-1,-10.26 0.88,-20.57 2.77,-30.71c1.44,-7.78 2.89,-15.56 4.74,-23.24c1.13,-4.69 2.44,-9.42 5,-13.49c2,-3.23 4.81,-5.93 7.14,-9c6.465,-8.476 9.34,-19.165 8,-29.74c-0.14,-1 -15,3.77 -16.31,4.34c-5.345,2.263 -10.263,5.426 -14.54,9.35c-3.44,3.28 -6.15,7.66 -9.16,11.33c-4.26,5.193 -8.467,10.423 -12.62,15.69c-4.74,6.02 -9.383,12.077 -13.93,18.17Z" style="fill:#464353;fill-rule:nonzero;"/><path d="M785.54,520.51c-4.33,5.76 -8.81,12.42 -7.74,19.54c0.58,3.85 2.73,7.24 4.31,10.79c2.14,4.81 3.26,10 4.36,15.15c1.62,7.55 3.25,15.11 4.24,22.76c1.13,8.66 -4.18,33.68 -4.67,42.39c-0.12,2.1 -0.37,4.38 -1.83,5.89c-0.57,0.59 -1.33,1.07 -1.59,1.85c-0.153,0.751 -0.029,1.533 0.35,2.2c2.44,5.51 7.43,9.6 13,12c5.57,2.4 19,4.49 25.07,4.69c0.8,0.088 1.61,-0.018 2.36,-0.31c0.809,-0.486 1.445,-1.214 1.82,-2.08c4.35,-8.32 0.17,-36 0.23,-45.4c0.06,-7.84 1.91,-15.61 1.57,-23.44c-0.28,-6.28 -2,-12.42 -2.57,-18.67c-1,-10.27 0.88,-20.58 2.77,-30.72c1.44,-7.77 2.89,-15.55 4.74,-23.24c1.13,-4.69 2.44,-9.42 5,-13.49c2,-3.23 4.81,-5.93 7.14,-9c6.467,-8.475 9.342,-19.165 8,-29.74c-0.14,-1 -15,3.77 -16.31,4.34c-5.344,2.27 -10.261,5.436 -14.54,9.36c-3.44,3.27 -6.15,7.65 -9.16,11.32c-4.26,5.193 -8.467,10.427 -12.62,15.7c-4.74,5.973 -9.383,12.01 -13.93,18.11Z" style="fill-opacity:0.05;fill-rule:nonzero;"/><circle cx="737.36" cy="369.73" r="24.27" style="fill:#fbbebe;"/><path d="M759.22,368.71c4.529,7.224 11.807,12.302 20.15,14.06l-1.83,6.65c-3.16,11.42 -6.71,23.5 -15.53,31.42c1,-3.87 -0.28,-8 -2.46,-11.36c-2.18,-3.36 -5.24,-6 -8.24,-8.61l-13.97,-12.1c-0.403,-0.328 -0.742,-0.728 -1,-1.18c-0.345,-0.853 -0.345,-1.807 0,-2.66c1.78,-5.54 6.86,-9 11,-12.74c2.077,-1.934 3.932,-4.094 5.53,-6.44c2.79,-3.98 4.52,0.02 6.35,2.96Z" style="fill:#fbbebe;fill-rule:nonzero;"/><path d="M705.39,345.33l-0.55,-4.56c3.83,1 7.47,-2.26 9.92,-5.63c2.45,-3.37 4.72,-7.34 8.45,-8.75c4.53,-1.7 9.33,1 13.66,3.28c4.847,2.69 10.168,4.421 15.67,5.1c0.878,0.029 1.748,0.17 2.59,0.42c2.82,1 4.16,4.54 4.57,7.75c0.41,3.21 0.3,6.62 1.69,9.48c1,2.17 2.86,3.78 4,5.92c3,5.74 0.1,13.59 3.23,19.22l-7.78,-7.13c-0.71,-0.65 -1.71,-1.33 -2.5,-0.78c-0.62,0.44 -0.67,1.39 -0.92,2.15c-0.75,2.22 -3.53,2.88 -5.54,2c-2.01,-0.88 -3.48,-2.79 -5,-4.53c-3.44,-4.06 -7.54,-7.63 -12.34,-9.36c-4.254,-1.59 -8.993,-1.277 -13,0.86c-3.63,2.05 -6.29,6.83 -10.74,7c-6.1,0.23 -8.64,-11.13 -11.46,-15.62c2.121,-1.596 2.799,-4.512 1.6,-6.88c0.41,-0.17 4.36,-0.64 4.45,0.06Z" style="fill:#464353;fill-rule:nonzero;"/><path d="M405.2,203.44c-1.95,1.734 -3.753,3.628 -5.39,5.66c-1.648,2.06 -2.525,4.632 -2.48,7.27c0.009,0.765 0.253,1.509 0.7,2.13c0.467,0.608 1.273,0.854 2,0.61c0.402,-0.205 0.746,-0.507 1,-0.88c1.057,-1.27 2.178,-2.485 3.36,-3.64c0.43,-0.43 1,-0.88 1.58,-0.72c0.26,0.092 0.493,0.247 0.68,0.45c0.673,0.582 1.163,1.346 1.41,2.2c0.35,1.53 -0.54,3.06 -1.55,4.26c-1.01,1.2 -2.2,2.35 -2.61,3.86c-0.155,0.399 -0.155,0.841 0,1.24c0.193,0.288 0.464,0.517 0.78,0.66c2.897,1.595 6.359,1.823 9.44,0.62c2,-0.81 3.78,-2.2 5.84,-2.92c0.892,-0.244 1.757,-0.579 2.58,-1c1.19,-0.792 2.015,-2.028 2.29,-3.43c0.26,-1.388 0.31,-2.807 0.15,-4.21c-0.249,-5.432 -1.412,-10.784 -3.44,-15.83c-0.117,-0.325 -0.317,-0.615 -0.58,-0.84c-0.301,-0.183 -0.648,-0.277 -1,-0.27c-2.56,-0.27 -6.76,-1.58 -9.23,-0.63c-0.864,0.474 -1.609,1.137 -2.18,1.94c-0.46,0.51 -3.35,2.8 -3.35,3.47Z" style="fill:#a1616a;fill-rule:nonzero;"/><path d="M404.39,201.18c0,-2.44 -3,-8.33 1.77,-8.72c0,-2.61 -3.69,-4.23 -3,-7c0.22,-0.92 1,-1.67 1.09,-2.61c0.3,-2.67 -4.52,-4.12 -3.72,-6.68c0.3,-1 1.36,-1.58 1.59,-2.57c0.54,-2.31 -3.59,-3.34 -3.67,-5.71c0,-0.8 0.45,-1.55 0.41,-2.35c0,-1 -0.87,-1.76 -1.35,-2.63c-1.25,-2.23 -0.64,-5.68 -2.92,-6.83c1.51,0.13 2,-2.11 1.38,-3.48c-0.62,-1.37 -1.89,-2.56 -1.9,-4.08c0.075,-0.551 0.075,-1.109 0,-1.66c-0.42,-1.46 -2.81,-1.58 -3.21,-3c-0.052,-0.545 -0.068,-1.093 -0.05,-1.64c-0.16,-1.13 -1.32,-1.85 -2.41,-2.17c-1.132,-0.192 -2.222,-0.582 -3.22,-1.15c-0.7,-0.53 -1.51,-1.41 -2.26,-1c-0.28,0.17 -0.42,0.49 -0.63,0.73c-0.9,1.05 -2.62,0.59 -3.75,-0.18c-3.34,-2.27 -5,-6.34 -5.71,-10.31c-0.71,-3.97 -0.69,-8.07 -1.58,-12c-0.271,-1.225 -0.632,-2.428 -1.08,-3.6c-0.38,-1 -1.6,-2.57 -1.68,-3.58c-0.18,-2.3 4.58,-0.73 6.39,-0.5c1.757,0.172 3.495,0.506 5.19,1c1.809,0.684 3.582,1.461 5.31,2.33c7.22,3.19 15.94,3.58 21.74,8.94c1.91,1.76 3.52,4.07 6,4.87c1.137,0.218 2.26,0.509 3.36,0.87c2.75,1.29 3.18,4.94 4.68,7.58c0.472,0.697 0.883,1.433 1.23,2.2c0.289,0.904 0.424,1.851 0.4,2.8l0.21,6.93c0.34,11.61 0.68,23.25 -0.56,34.79c-0.4,3.81 -1,7.73 0.13,11.39c0.3,1 0.72,1.94 1,2.95c0.247,1.184 0.375,2.39 0.38,3.6l0.16,4.49c0.056,0.349 -0.023,0.706 -0.22,1c-0.338,0.275 -0.784,0.382 -1.21,0.29c-6.25,-0.56 -12.57,-4.08 -18.47,-1.95" style="fill:#464353;fill-rule:nonzero;"/><ellipse cx="689.61" cy="535.49" rx="73.96" ry="10.69" style="fill:#504f60;"/><path d="M753.24,536.01c-1.3,-5.57 -2.11,-10.46 -2.11,-10.46c0,0 0.3,-6.06 -2.42,-10.61l0,-1.52l0,-11.2c0.774,-2.034 1.721,-3.998 2.83,-5.87c2,-3.52 0,-16.42 0,-16.42c0,0 -7.47,-18.19 -5.66,-29.73c1.81,-11.54 -15.34,-51.24 -15.34,-51.24c0.106,-3.829 0.646,-7.633 1.61,-11.34c0.183,-0.779 0.257,-1.58 0.22,-2.38c0,-0.1 0,-0.19 0,-0.29c0,-0.1 0,0.06 0,0.09c-0.26,-7.61 -6.28,-21.87 -6.28,-21.87l0.81,-27.18c0,0 3.84,-16 -2.42,-37.55c-2.19,-7.51 -3.59,-13.52 -4.48,-18.16c-0.1,-0.52 -0.2,-1 -0.28,-1.51c12.89,-2 22.74,-3.6 22.74,-3.6c0,0 -7.48,-31.29 -12.53,-36.77c-5.05,-5.48 -9.09,-22.69 -9.09,-22.69c0,0 -2.63,-22.09 1.62,-28.55c4.25,-6.46 4.85,-17.6 4.85,-17.6c0,0 9.69,-7 10.91,-10.17c1.22,-3.17 3.23,-10.17 3.23,-13.88c0,-3.71 -1.21,-7 -0.81,-9c0.4,-2 -2.83,-9.39 -1.21,-12.91c0.419,-1.081 0.636,-2.23 0.64,-3.39c0.004,-0.033 0.004,-0.067 0,-0.1c-0.004,-0.033 0,0 0,0c0.015,-3.08 -0.27,-6.155 -0.85,-9.18c-2.803,-2.367 -6.075,-4.115 -9.6,-5.13l-0.21,-0.84l-0.55,-2.2c-0.307,-0.203 -0.624,-0.39 -0.95,-0.56l0,-0.8l-0.09,-3.18l1.52,-7.14c3,-12.42 -13.59,-14.27 -13.59,-14.27c-1.006,-1.905 -2.68,-3.372 -4.7,-4.12c-3.33,-1.17 -0.55,18.68 1,20c1.17,1 4.79,7.18 6.54,10.24l0.28,0.5c-0.274,0.246 -0.528,0.514 -0.76,0.8l0.63,4.31l0.1,0.66c-1.1,1.365 -1.992,2.885 -2.65,4.51c-0.658,1.625 3,3.32 2.43,7c-0.57,3.68 0.93,8.35 1,8.6c-0.18,-0.21 -2.31,-2.51 -4.44,-1.95c-2.13,0.56 -8.08,2.35 -8.08,2.35c0,0 -4.44,0.78 -4,1.76c0.44,0.98 -3,5.28 -3,5.28l-11.94,-11.32c-0.12,-0.34 -0.25,-0.68 -0.35,-1c-0.487,-1.632 -0.822,-3.306 -1,-5c1.301,-0.309 2.578,-0.714 3.82,-1.21c1.255,-0.431 2.387,-1.158 3.3,-2.12c1.21,-1.43 1.44,-3.37 1.93,-5.15c0.94,-3.48 3,-6.57 4.43,-9.88c2.421,-5.593 3.202,-11.761 2.25,-17.78c-0.183,-1.855 -0.811,-3.639 -1.83,-5.2c-1.95,-2.68 -5.49,-3.77 -8.06,-5.91c-2.57,-2.14 -4.23,-5.41 -7.23,-7c-2.71,-1.45 -6,-1.28 -9.06,-0.78c-5.976,0.985 -11.718,3.074 -16.93,6.16c-1.74,1 -3.66,2.23 -5.66,1.86c-1.72,-0.31 -3,-1.68 -4.08,-3c0.012,-0.055 0.029,-0.108 0.05,-0.16c-0.049,-0.049 -0.092,-0.102 -0.13,-0.16c-1.265,2.808 -1.9,5.86 -1.86,8.94c0,0.48 0,1 0.06,1.43l0,0.91c0,0.213 -0.031,0.425 -0.09,0.63c-0.252,0.612 -0.634,1.161 -1.12,1.61c-0.367,0.417 -0.701,0.862 -1,1.33c0,-0.16 0.1,-0.32 0.16,-0.49c-0.763,1.113 -1.193,2.421 -1.24,3.77c-0.056,0.982 0.266,1.948 0.9,2.7c0.598,0.581 1.251,1.104 1.95,1.56c-0.238,1.32 -0.358,2.659 -0.36,4c0.046,8.078 4.324,15.568 11.26,19.71c0.14,0.33 0.27,0.67 0.4,1c1.53,4 2.68,8.7 2.17,13c0,0.31 -0.09,0.63 -0.14,0.94c-0.05,0.31 -0.3,0.33 -0.43,0.5c-0.13,0.17 -19.73,0.2 -24.37,-4c-4.64,-4.2 -11.72,10.27 -11.72,10.27c0,0 -7.07,1.37 -8.49,0c-1.42,-1.37 -9.69,-0.19 -9.69,-0.19c-3.387,-3.012 -7.799,-4.622 -12.33,-4.5c-2.746,-2.087 -5.777,-3.771 -9,-5l-0.22,-0.08c-1.422,-0.518 -2.943,-0.71 -4.45,-0.56c-1.507,0.15 -9.7,-8 -12.53,-12.32c-2.83,-4.32 -16.3,-20.27 -16.36,-20.34l0,-0.77l-0.15,-2.32c-0.4,0.063 -0.805,0.096 -1.21,0.1c-0.07,-0.23 -0.17,-0.5 -0.27,-0.81c-0.776,-2.263 -1.733,-4.46 -2.86,-6.57c-1.127,-2.11 0,-2.93 0.85,-3.67c0.85,-0.74 -0.35,-11.49 -0.35,-11.49c0,0 -8.74,-20.43 -16.57,-5.18c0,0 -14.8,9.87 -2.38,21.37c0,0 5,2.4 5.66,4.3c0.46,1.23 2.14,4.68 3.27,7l0.51,1l-0.14,0.12l0.18,1.92l0.08,0.74c-2.34,1.33 -3.93,2.65 -3.54,3.64c0.689,1.694 1.163,3.468 1.41,5.28c0.247,1.812 17.18,21.52 19.4,30.71c0,0 46.07,27.38 61.22,29.33l-2.68,13.65c-0.39,3.704 -0.591,7.426 -0.6,11.15c0.2,2.93 -1.82,16.23 -1.82,16.23c0,0 -2.63,19.56 -4.85,22.3c-2.22,2.74 -1.82,14.47 -1.82,14.47c-0.524,5.615 -1.528,11.176 -3,16.62c-2.22,7.43 -0.61,16.63 -0.61,16.63c0,0 -7.67,17.6 10.71,5.67c0,0 9,-0.56 19.42,-0.92c0,0.34 0,0.69 0,1c0,1.34 0,2.79 -0.07,4.31c-0.14,10.08 -0.2,24 0.26,34.48c0.81,18.58 6.47,55.35 6.47,55.35l0,18.51c-0.365,1.736 -0.546,3.506 -0.54,5.28c-0.12,6.512 1.615,12.926 5,18.49l1.42,12.32c0,0 3.32,8.12 3.38,13c-0.013,0.393 -0.06,0.785 -0.14,1.17c-0.129,0.621 -0.183,1.256 -0.16,1.89c-0.19,5.6 3.18,19 3.18,19c0,0 0.2,13.49 2.22,14.28c1.73,0.67 -2.31,7.77 -3.51,9.81c-0.032,-0.125 -0.055,-0.252 -0.07,-0.38l-0.25,0.4c-0.417,1.092 -0.63,2.251 -0.63,3.42c-0.232,1.877 0.643,3.728 2.24,4.74c3.84,2.35 5.9,4.3 2.64,5.08c-1.199,0.186 -2.388,0.437 -3.56,0.75c0,-0.15 -0.12,-0.31 -0.17,-0.45c-0.945,0.369 -1.504,1.361 -1.33,2.36c0.031,1.586 0.439,3.143 1.19,4.54c3.23,7.24 5.47,10 5.47,10l1.55,-0.17c-0.229,0.592 -0.531,1.153 -0.9,1.67c-0.59,0.839 -1.372,1.524 -2.28,2c-0.847,0.507 -1.79,0.83 -2.77,0.95c-2.214,0.072 -4.296,1.084 -5.72,2.78c-2,2.61 -3.28,6.16 0.7,9.28l14.45,5c0,0 24.86,3.23 23.54,-2.35c-1.32,-5.58 -2.12,-10.46 -2.12,-10.46c0.107,-3.407 -0.578,-6.792 -2,-9.89c-0.261,-0.506 -0.555,-0.993 -0.88,-1.46l0.88,-0.09c0,0 1.82,-12.33 4.24,-14.67c0.56,-0.54 0.69,-1 0.56,-1.28c0.25,-0.67 -0.39,-1.06 -1.2,-1.29l-0.18,0.49c-0.792,-0.173 -1.6,-0.263 -2.41,-0.27c-0.81,-0.007 -0.81,-6.45 1.82,-8.8c0.429,-0.541 0.614,-1.237 0.51,-1.92c0.02,-0.885 -0.074,-1.769 -0.28,-2.63c-0.026,0.055 -0.056,0.109 -0.09,0.16c-1.32,-5.86 -5.8,-15.17 -5.8,-15.17c0,0 -0.2,-5.86 1.42,-8.21c1.62,-2.35 -0.21,-31.88 -0.21,-31.88c0,0 0.61,-14.27 -1.21,-20.92c-1.82,-6.65 2.22,-14.48 2.22,-14.48c0,0 0,-0.15 0,-0.42l0,-0.1l-0.23,-2.25c-0.006,0.046 -0.006,0.094 0,0.14c-0.41,-3.78 -1.18,-10.63 -1.75,-13.79c-0.81,-4.5 0.21,-26 0.21,-26l3.63,-9.2l6.47,15.85l6.87,21.12c0,0 3.4,4.46 3.48,9c0,0.22 0,0.44 0,0.66c-0.055,0.468 -0.082,0.939 -0.08,1.41c-0.122,2.668 0.611,5.306 2.09,7.53c1.479,2.224 1.82,10 4.65,12.51c2.83,2.51 2.83,7.43 2.83,7.43c0,0 3.43,14.48 5,17c1.36,2.14 1.43,8 1.42,9.83c0,0.33 0,0.52 0,0.52c0,0 0.48,5.18 0.46,9.52c0,0.54 0,1.06 0,1.55c0.005,-0.037 0.005,-0.073 0,-0.11c-0.001,1.186 -0.142,2.367 -0.42,3.52l-0.06,0.2c0,-0.25 0,-0.49 0.07,-0.73c-0.703,2.947 -1.039,5.97 -1,9c-0.09,5.2 0.7,11.36 3.85,15c5.46,6.26 8.89,5.48 8.89,5.48c0,0 -2.62,7.82 -5.86,9.39c-0.123,0.058 -0.237,0.132 -0.34,0.22c0,-0.16 -0.06,-0.31 -0.08,-0.46c-0.73,0.788 -1.093,1.85 -1,2.92c-0.23,3.44 1.94,9 4,11.59c0.765,0.749 1.703,1.299 2.73,1.6c-0.163,0.115 -0.333,0.219 -0.51,0.31c-0.36,0.197 -0.73,0.374 -1.11,0.53c-0.526,0.223 -1.082,0.368 -1.65,0.43c-2.217,0.059 -4.304,1.073 -5.72,2.78c-2,2.6 -3.28,6.15 0.7,9.27l14.45,5c0,0 24.7,3.17 23.4,-2.4Z" style="fill:url(#_Linear1);fill-rule:nonzero;"/><path d="M658.33,545.25l-14,-5c-3.86,-3.12 -2.63,-6.67 -0.68,-9.28c1.357,-1.683 3.379,-2.698 5.54,-2.78c0.948,-0.121 1.859,-0.445 2.67,-0.95c0.887,-0.482 1.648,-1.168 2.22,-2c1.021,-1.621 1.572,-3.494 1.59,-5.41c0.018,-1.916 15.36,-4.5 19.56,0c0.75,0.815 1.376,1.734 1.86,2.73c1.395,3.106 2.079,6.486 2,9.89c-0.079,3.404 0.78,4.88 2.05,10.46c1.27,5.58 -22.81,2.34 -22.81,2.34Z" style="fill:#2d293d;fill-rule:nonzero;"/><path d="M726.77,538.35l-14,-5c-3.86,-3.12 -2.63,-6.67 -0.68,-9.27c1.347,-1.69 3.37,-2.707 5.53,-2.78c0.553,-0.057 1.093,-0.202 1.6,-0.43c0.37,-0.156 0.73,-0.333 1.08,-0.53c3.91,-2.15 3.81,-7.43 3.81,-7.43c0,0 15.35,-4.5 19.56,0c0.563,0.61 1.056,1.28 1.47,2c2.63,4.55 2.34,10.62 2.34,10.62c0,0 0.78,4.89 2,10.46c1.22,5.57 -22.71,2.36 -22.71,2.36Z" style="fill:#2d293d;fill-rule:nonzero;"/><path d="M675.24,519.82c0.75,0.815 1.376,1.734 1.86,2.73l-23,2.67c1.021,-1.621 1.572,-3.494 1.59,-5.41c0.018,-1.916 15.35,-4.49 19.55,0.01Z" style="fill-opacity:0.1;fill-rule:nonzero;"/><path d="M745.16,514.93l0,4.31c-3.58,5.89 -20.89,4.6 -25.92,1.65c0.37,-0.156 0.73,-0.333 1.08,-0.53c3.91,-2.15 3.81,-7.43 3.81,-7.43c0,0 15.35,-4.5 19.56,0c0.563,0.61 1.056,1.28 1.47,2Z" style="fill-opacity:0.1;fill-rule:nonzero;"/><path d="M747.89,496.35c-1.07,1.878 -1.983,3.841 -2.73,5.87l0,15.45c-3.92,6.45 -24.25,4.3 -27,0.78c-2.75,-3.52 -5.62,-12.68 -2.53,-14.27c3.09,-1.59 5.67,-9.39 5.67,-9.39c0,0 -3.33,0.78 -8.61,-5.48c-5.28,-6.26 -3.71,-20.14 -2.73,-23.46c0.98,-3.32 0,-14.47 0,-14.47c0,0 0.2,-7.83 -1.36,-10.37c-1.56,-2.54 -4.89,-17 -4.89,-17c0,0 0,-4.89 -2.74,-7.43c-2.74,-2.54 -4.5,-12.52 -4.5,-12.52c-1.602,-2.493 -2.291,-5.466 -1.95,-8.41c0.58,-4.89 -3.33,-10.17 -3.33,-10.17l-6.65,-21.13l-6.26,-15.84l-3.52,9.19c0,0 -1,21.51 -0.19,26c0.81,4.49 2,16.43 2,16.43c0,0 -3.91,7.82 -2.15,14.47c1.76,6.65 1.12,20.94 1.12,20.94c0,0 1.76,29.52 0.19,31.87c-1.57,2.35 -1.37,8.22 -1.37,8.22c0,0 8,17.2 5.48,19.55c-2.52,2.35 -1.76,8.8 -1.76,8.8c0,0 5.47,0 3.13,2.35c-2.34,2.35 -4.11,14.67 -4.11,14.67l-23.65,2.77c0,0 -2.16,-2.73 -5.29,-10c-3.13,-7.27 0.58,-6.45 3.73,-7.24c3.15,-0.79 1.16,-2.73 -2.56,-5.08c-3.72,-2.35 -1.56,-7.63 -1.56,-7.63c0,0 5.67,-9.58 3.71,-10.36c-1.96,-0.78 -2.15,-14.28 -2.15,-14.28c0,0 -3.91,-16 -2.93,-20.34c0.98,-4.34 -3.13,-14.66 -3.13,-14.66l-1.37,-12.32c-4.183,-6.989 -5.71,-15.257 -4.3,-23.28l0,-19c0,0 -5.48,-36.76 -6.26,-55.34c-0.5,-11.9 -0.36,-28.14 -0.2,-38.27c0.1,-5.68 0.2,-9.45 0.2,-9.45l84.48,-8.8c0,0 -0.08,3.9 1.53,12.55c0.87,4.64 2.22,10.65 4.34,18.16c6.06,21.51 2.35,37.54 2.35,37.54l-0.79,27.19c0,0 7.43,18.18 5.87,24.44c-0.943,3.717 -1.473,7.527 -1.58,11.36c-0.107,3.833 16.62,39.7 14.86,51.24c-1.76,11.54 5.47,29.73 5.47,29.73c0,0 1.98,12.9 0.02,16.42Z" style="fill:#464353;fill-rule:nonzero;"/><path d="M699.59,394.47l25.72,-3.43c0,0 -14.57,14.87 -25.72,3.43Z" style="fill-opacity:0.05;fill-rule:nonzero;"/><path d="M721.59,365.91c0,0 0.88,9.1 -4.69,12.52c0,0 9.97,-1.56 4.69,-12.52Z" style="fill-opacity:0.1;fill-rule:nonzero;"/><path d="M720.01,336.97c0,0 -21.5,17.7 -29.32,16.23c-7.82,-1.47 29.32,-16.23 29.32,-16.23Z" style="fill-opacity:0.1;fill-rule:nonzero;"/><path d="M667.71,402.77c0,0 -16.33,3.71 -16.82,10.27c-0.49,6.56 16.82,-10.27 16.82,-10.27Z" style="fill-opacity:0.1;fill-rule:nonzero;"/><path d="M671.3,484.33c0,0 -23.07,4.3 -16.52,7.23c6.55,2.93 17.31,5.28 17.31,5.28c0,0 7.45,0.39 -0.79,-12.51Z" style="fill-opacity:0.05;fill-rule:nonzero;"/><path d="M650.12,496.22c-1.174,-0.734 -1.952,-1.964 -2.11,-3.34l-0.24,0.41c0,0 -2.15,5.28 1.57,7.62c0.42,0.27 0.83,0.54 1.2,0.8c0.69,-0.13 1.43,-0.23 2.14,-0.41c3.15,-0.78 1.16,-2.73 -2.56,-5.08Z" style="fill-rule:nonzero;"/><path d="M679.84,494.65c0.64,-0.58 0.62,-2.08 0.23,-4c-1,1.51 -1.29,3.87 -1.31,5.66c0.243,-0.621 0.61,-1.186 1.08,-1.66Z" style="fill-rule:nonzero;"/><path d="M676.29,397.36c-0.85,2.313 -1.375,4.733 -1.56,7.19c0.446,-1.697 1.045,-3.351 1.79,-4.94l-0.23,-2.25Z" style="fill-rule:nonzero;"/><path d="M729.13,387.1c0.154,-0.703 0.224,-1.421 0.21,-2.14c-0.29,1.46 -0.49,2.81 -0.64,4c0.13,-0.61 0.27,-1.19 0.43,-1.86Z" style="fill-rule:nonzero;"/><path d="M675.74,466.89c0.32,-0.48 0.5,-2.1 0.58,-4.35c-0.724,1.741 -1.107,3.605 -1.13,5.49c0.137,-0.401 0.321,-0.784 0.55,-1.14Z" style="fill-rule:nonzero;"/><path d="M680.54,503.77c-1.213,3.923 -2.112,7.935 -2.69,12l-23.65,2.73c0,0 -2.16,-2.73 -5.29,-10c-0.252,-0.562 -0.476,-1.136 -0.67,-1.72c-1.42,0.65 -2,2.12 -0.12,6.41c3.13,7.24 5.3,10 5.3,10l23.65,-2.74c0,0 1.76,-12.32 4.1,-14.67c1.2,-1.13 0.46,-1.72 -0.63,-2.01Z" style="fill-rule:nonzero;"/><path d="M649.34,468.65c0,0 0.19,13.49 2.15,14.27c1,-2.23 1.65,-4.35 0.77,-4.7c-2,-0.78 -2.15,-14.28 -2.15,-14.28c0,0 -3.91,-16 -2.93,-20.34c0.98,-4.34 -3.13,-14.66 -3.13,-14.66l-1.37,-12.32c-4.183,-6.989 -5.71,-15.257 -4.3,-23.28l0,-19c0,0 -5.48,-36.76 -6.26,-55.34c-0.5,-11.9 -0.36,-28.14 -0.2,-38.27c0,-1.83 0.06,-3.45 0.09,-4.82l-0.67,0.07c0,0 -0.11,3.76 -0.2,9.45c-0.16,10.13 -0.31,26.37 0.2,38.26c0.78,18.58 6.25,55.35 6.25,55.35l0,19c-1.403,8.02 0.127,16.284 4.31,23.27l1.36,12.32c0,0 4.11,10.36 3.13,14.67c-0.98,4.31 2.95,20.35 2.95,20.35Z" style="fill-rule:nonzero;"/><path d="M718.96,513.23c-1.921,-2.781 -3.202,-5.954 -3.75,-9.29c-2.41,2.18 0.36,10.64 3,14c2.73,3.52 23.07,5.67 27,-0.79l0,-3.72c-5.33,5.23 -23.67,3.13 -26.25,-0.2Z" style="fill-rule:nonzero;"/><path d="M748.68,491.13c-1.072,1.878 -1.989,3.842 -2.74,5.87l0,2.77c0.45,-1 1.08,-2.34 2,-3.92c0.619,-1.54 0.912,-3.191 0.86,-4.85c-0.052,-1.659 -0.09,0.09 -0.12,0.13Z" style="fill-rule:nonzero;"/><path d="M720.16,494.22c0.744,-1.506 1.388,-3.06 1.93,-4.65c0.542,-1.59 -3.33,0.78 -8.61,-5.48c-3.84,-4.55 -4.06,-13.15 -3.51,-18.77c-1,3.33 -2.55,17.21 2.73,23.47c3.45,4.09 6.06,5.17 7.46,5.43Z" style="fill-rule:nonzero;"/><path d="M709.96,450.85c0.345,3.853 0.475,7.722 0.39,11.59c0.098,-0.611 0.231,-1.215 0.4,-1.81c1,-3.33 0,-14.47 0,-14.47c0,0 0.2,-7.83 -1.37,-10.37c-1.57,-2.54 -4.84,-17.02 -4.84,-17.02c0,0 0,-4.89 -2.74,-7.43c-2.74,-2.54 -4.5,-12.52 -4.5,-12.52c-1.616,-2.488 -2.323,-5.461 -2,-8.41c0.59,-4.89 -3.32,-10.17 -3.32,-10.17l-6.65,-21.12l-6.26,-15.84l-3.53,9.2c0,0 0,1.16 -0.12,3l2.86,-7.47l6.26,15.81l6.65,21.12c0,0 3.91,5.28 3.32,10.17c-0.323,2.949 0.384,5.922 2,8.41c1.616,2.488 1.76,10 4.5,12.52c2.74,2.52 2.73,7.43 2.73,7.43c0,0 3.33,14.47 4.89,17c1.56,2.53 1.33,10.38 1.33,10.38Z" style="fill-rule:nonzero;"/><path d="M726.38,91.05l-1.47,7.14l0.09,3.18l0.06,2.34l-8.16,0.84l-0.91,-1.69c-1.69,-3.06 -5.2,-9.28 -6.33,-10.24c-1.51,-1.26 -4.2,-21.12 -1,-19.94c1.969,0.761 3.588,2.226 4.54,4.11c0.952,1.884 16.07,1.84 13.18,14.26Z" style="fill:#ffcdd3;fill-rule:nonzero;"/><path d="M725.06,103.71l-8.16,0.84l-0.91,-1.69c2.255,-2.567 6.042,-3.19 9,-1.48l0.07,2.33Z" style="fill-opacity:0.1;fill-rule:nonzero;"/><path d="M727.12,107.58l-10.76,2.49l-0.23,-1.6l-0.61,-4.31c0,0 4.26,-5.68 10.42,-1.42l0.54,2.19l0.64,2.65Z" style="fill:#fbc02d;fill-rule:nonzero;"/><path d="M552.82,91.83l-11.49,6.16l-1,-2.16c-1.09,-2.29 -2.72,-5.74 -3.17,-7c-0.68,-1.9 -5.47,-4.3 -5.47,-4.3c-12,-11.49 2.3,-21.37 2.3,-21.37c7.58,-15.25 16,5.18 16,5.18c0,0 1.18,10.77 0.35,11.49c-0.83,0.72 -0.83,3.67 -0.83,3.67c1.095,2.114 2.021,4.31 2.77,6.57c0.35,1.09 0.54,1.76 0.54,1.76Z" style="fill:#ffcdd3;fill-rule:nonzero;"/><path d="M552.82,91.83l-11.49,6.16l-1,-2.16c1.62,-1.36 7.37,-6 9.26,-5.81c0.902,0.113 1.813,0.136 2.72,0.07c0.32,1.07 0.51,1.74 0.51,1.74Z" style="fill-opacity:0.1;fill-rule:nonzero;"/><path d="M553.99,95.3l-12.91,6.36l-0.26,-2.77l-0.18,-1.92c0,0 7.48,-6.41 9.69,-6.16c1.117,0.162 2.253,0.162 3.37,0l0.15,2.32l0.14,2.17Z" style="fill:#fbc02d;fill-rule:nonzero;"/><path d="M695.09,138.48c0,0 -56.28,6.35 -45.76,2.93c7.32,-2.39 10.23,-7 10.84,-12.2c0.5,-4.33 -0.62,-9 -2.09,-13c-1.323,-3.549 -2.998,-6.956 -5,-10.17c-2.002,-3.214 43,-23.66 34.41,-2.15c-1.325,3.253 -2.147,6.689 -2.44,10.19c-0.258,3.479 0.118,6.976 1.11,10.32c1.622,5.426 4.713,10.3 8.93,14.08Z" style="fill:#ffcdd3;fill-rule:nonzero;"/><path d="M687.46,103.86c-1.325,3.253 -2.147,6.689 -2.44,10.19c-4.05,3.41 -8.49,3.18 -14.2,3.18c-4.38,0 -9.24,1.06 -12.74,-1.05c-1.323,-3.549 -2.998,-6.956 -5,-10.17c-2.002,-3.214 42.99,-23.66 34.38,-2.15Z" style="fill-opacity:0.1;fill-rule:nonzero;"/><circle cx="670.06" cy="95.46" r="23.27" style="fill:#ffcdd3;"/><path d="M695.09,138.48c0,0 -56.28,6.35 -45.76,2.93c7.32,-2.39 10.23,-7 10.84,-12.2c2.8,-3 8.43,-5.23 12,-6.39c3.3,-1.11 6.865,-1.169 10.2,-0.17c1.312,0.395 2.561,0.974 3.71,1.72c1.639,5.446 4.759,10.332 9.01,14.11Z" style="fill-opacity:0.1;fill-rule:nonzero;"/><path d="M727.12,107.58l-10.76,2.49l-0.23,-1.6c2.355,-3.234 6.508,-4.655 10.35,-3.54l0.64,2.65Z" style="fill-opacity:0.1;fill-rule:nonzero;"/><path d="M553.99,95.3l-12.91,6.36l-0.26,-2.77c4.182,-2.248 8.527,-4.177 13,-5.77l0.17,2.18Z" style="fill-opacity:0.1;fill-rule:nonzero;"/><path d="M717.35,280.29c-21.81,3.48 -52.81,7.92 -57.73,6.42c-4.09,-1.24 -17.13,-1.11 -28.48,-0.72c0.1,-5.68 0.2,-9.45 0.2,-9.45l84.48,-8.8c0,0 -0.08,3.9 1.53,12.55Z" style="fill-opacity:0.1;fill-rule:nonzero;"/><path d="M739.09,275.17c0,0 -71.77,12.32 -79.47,10c-7.7,-2.32 -47.25,0.19 -47.25,0.19c-17.8,11.93 -10.37,-5.67 -10.37,-5.67c0,0 -1.56,-9.19 0.59,-16.62c1.444,-5.455 2.431,-11.021 2.95,-16.64c0.519,-5.619 -0.39,-11.74 1.76,-14.48c2.15,-2.74 4.7,-22.29 4.7,-22.29c0,0 1.95,-13.3 1.76,-16.23c-0.19,-2.93 0.58,-11.15 0.58,-11.15l2.55,-13.69c-14.67,-1.95 -59.26,-29.33 -59.26,-29.33c-2.15,-9.19 -18.77,-30.7 -18.77,-30.7c-0.242,-1.809 -0.702,-3.582 -1.37,-5.28c-1.17,-3.13 16.43,-9.39 16.43,-9.39c0,0 13.1,16 15.84,20.34c2.74,4.34 12.12,12.32 12.12,12.32c1.457,-0.15 2.93,0.042 4.3,0.56l0.23,0.07c3.143,1.234 6.091,2.918 8.75,5c4.408,-0.105 8.689,1.51 11.93,4.5c3.241,2.99 8,-1.18 9.39,0.19c1.39,1.37 8.21,0 8.21,0c0,0 6.84,-14.47 11.34,-10.27c4.5,4.2 23.59,4 23.59,4c2.54,-3.38 8.73,-5.8 12.6,-7c3.301,-1.105 6.864,-1.165 10.2,-0.17c1.439,0.429 2.793,1.106 4,2l11.61,11.34c0,0 3.32,-4.31 2.93,-5.28c-0.39,-0.97 3.91,-1.76 3.91,-1.76c0,0 5.67,-1.76 7.82,-2.35c2.15,-0.59 4.12,1.74 4.3,1.95c-0.07,-0.25 -1.54,-5 -1,-8.6c0.54,-3.6 -2.35,-7 -2.35,-7c6.84,-16.82 22.29,-2.74 22.29,-2.74c0,0 1.76,9.19 0.2,12.71c-1.56,3.52 1.56,10.95 1.17,12.91c-0.39,1.96 0.79,5.28 0.79,9c0,3.72 -2,10.75 -3.13,13.88c-1.13,3.13 -10.56,10.17 -10.56,10.17c0,0 -0.59,11.15 -4.7,17.6c-4.11,6.45 -1.53,28.51 -1.53,28.51c0,0 3.91,17.21 8.8,22.69c4.89,5.48 12.12,36.71 12.12,36.71Z" style="fill:#3f3d56;fill-rule:nonzero;"/><path d="M634.47,146.49c0,0 -2.15,-6.45 -4.11,-7c-1.946,-0.716 -3.84,-1.564 -5.67,-2.54l1.26,-2.41c0,0 7.34,2 8.52,4.17c1.18,2.17 0,7.78 0,7.78Z" style="fill-opacity:0.1;fill-rule:nonzero;"/><path d="M595.16,132.22c-0.39,2 -17.8,3.71 -17.8,3.71l8.8,-8.82l0.22,0.08c3.156,1.241 6.114,2.935 8.78,5.03Z" style="fill-opacity:0.1;fill-rule:nonzero;"/><circle cx="544.8" cy="105.38" r="1.56" style="fill:#575988;"/><circle cx="546.8" cy="108.51" r="1.56" style="fill:#575988;"/><circle cx="548.76" cy="111.4" r="1.56" style="fill:#575988;"/><circle cx="550.81" cy="114.52" r="1.56" style="fill:#575988;"/><circle cx="735.15" cy="114.35" r="1.27" style="fill:#575988;"/><circle cx="735.35" cy="117.24" r="1.27" style="fill:#575988;"/><circle cx="735.52" cy="120.12" r="1.27" style="fill:#575988;"/><path d="M634.54,199.49c-0.19,-0.23 43.9,55.44 78.12,23.27c0.03,0.01 -54.04,7.34 -78.12,-23.27Z" style="fill-opacity:0.1;fill-rule:nonzero;"/><path d="M609.24,228.43c0,0 26.38,0.72 29.14,8.31l0,7.9c-1.525,0.846 -3.385,0.846 -4.91,0c-2.66,-1.44 -18.61,-9.54 -24.23,-5.64l0,-10.57Z" style="fill-opacity:0.1;fill-rule:nonzero;"/><path d="M609.73,228.43c0,0 25.23,0.69 27.87,7.93l0,7.52c-1.46,0.811 -3.24,0.811 -4.7,0c-2.54,-1.36 -17.79,-9.09 -23.17,-5.37l0,-10.08Z" style="fill:#3f3d56;fill-rule:nonzero;"/><path d="M623.64,171.15c2.695,6.238 6.13,12.131 10.23,17.55c4.459,5.99 9.863,11.215 16,15.47c6.137,4.255 -25.79,-29.4 -26.23,-33.02Z" style="fill-opacity:0.1;fill-rule:nonzero;"/><path d="M615.01,140.5c0,0 4.4,19 15.74,25.45l-15.74,-25.45Z" style="fill-opacity:0.1;fill-rule:nonzero;"/><path d="M608.26,142.42c-0.11,-0.35 -3.91,15 14.62,23.53c0,0 -7.87,-2.67 -14.62,-23.53Z" style="fill-opacity:0.1;fill-rule:nonzero;"/><path d="M723.45,129.68c-0.29,0 9.14,6 11.71,8.8c0,0 -6.14,-9.2 -11.71,-8.8Z" style="fill-opacity:0.1;fill-rule:nonzero;"/><path d="M663.77,116.55c0.014,2.004 1.666,3.645 3.67,3.645c0.11,0 0.22,-0.005 0.33,-0.015c7.09,0.44 14.48,0.75 21,-2c1.223,-0.436 2.321,-1.164 3.2,-2.12c1.16,-1.43 1.39,-3.37 1.86,-5.15c0.92,-3.48 2.88,-6.57 4.29,-9.88c2.385,-5.592 3.185,-11.734 2.31,-17.75c-0.185,-1.844 -0.794,-3.621 -1.78,-5.19c-1.88,-2.69 -5.31,-3.78 -7.8,-5.92c-2.49,-2.14 -4.09,-5.41 -7,-7c-2.62,-1.46 -5.83,-1.28 -8.78,-0.78c-5.802,0.985 -11.363,3.073 -16.38,6.15c-1.69,1 -3.54,2.23 -5.48,1.86c-1.7,-0.32 -2.94,-1.75 -4,-3.09c-1.364,3.2 -1.936,6.682 -1.67,10.15c0.074,0.509 0.057,1.027 -0.05,1.53c-0.244,0.608 -0.616,1.157 -1.09,1.61c-1.75,2 -2.84,5.25 -1.11,7.31c0.75,0.89 1.91,1.38 2.64,2.29c1.31,1.63 0.87,4 0.84,6.08c-0.072,0.726 0.112,1.455 0.52,2.06c0.769,0.716 1.86,0.979 2.87,0.69c0.991,-0.298 2.031,-0.397 3.06,-0.29c1.084,0.352 2.02,1.056 2.66,2c3.23,4.21 4.51,8.79 5.89,13.81Z" style="fill:#2d293d;fill-rule:nonzero;"/><path d="M692.8,114.29c-0.879,0.956 -1.977,1.684 -3.2,2.12c-6.56,2.73 -13.94,2.42 -21,2c-0.758,0.008 -1.508,-0.16 -2.19,-0.49c-1.08,-0.63 -1.49,-1.95 -1.82,-3.15c-1.38,-5 -2.65,-9.59 -5.93,-13.76c-0.632,-0.962 -1.569,-1.684 -2.66,-2.05c-1.029,-0.097 -2.067,0.001 -3.06,0.29c-1.009,0.291 -2.099,0.033 -2.87,-0.68c-0.408,-0.605 -0.592,-1.334 -0.52,-2.06c0,-2.1 0.47,-4.45 -0.84,-6.08c-0.73,-0.91 -1.89,-1.4 -2.64,-2.3c-0.995,-1.35 -1.169,-3.144 -0.45,-4.66c-1.25,2 -1.78,4.51 -0.33,6.23c0.75,0.89 1.91,1.38 2.64,2.29c1.31,1.64 0.87,4 0.84,6.08c-0.077,0.725 0.104,1.455 0.51,2.06c0.771,0.72 1.867,0.983 2.88,0.69c0.991,-0.298 2.031,-0.397 3.06,-0.29c1.084,0.352 2.02,1.056 2.66,2c3.27,4.17 4.55,8.75 5.93,13.77c0.162,1.235 0.779,2.366 1.73,3.17c0.685,0.33 1.439,0.495 2.2,0.48c7.09,0.44 14.48,0.76 21,-2c1.224,-0.434 2.323,-1.162 3.2,-2.12c0.441,-0.563 0.779,-1.2 1,-1.88c0.01,0.13 -0.06,0.24 -0.14,0.34Z" style="fill-rule:nonzero;"/><path d="M647.54,80.38c0.314,-0.341 0.556,-0.743 0.71,-1.18c0.09,-0.506 0.09,-1.024 0,-1.53c-0.195,-2.851 0.176,-5.713 1.09,-8.42l-0.13,-0.15c-1.368,3.195 -1.941,6.675 -1.67,10.14c0.03,0.379 0.03,0.761 0,1.14Z" style="fill-rule:nonzero;"/><path d="M659.62,130.65c0,0 29.07,3.86 31.68,-0.51" style="fill-opacity:0.1;fill-rule:nonzero;"/><path d="M716.13,118.62c0,0 16.16,0 19.71,6.08" style="fill-opacity:0.1;fill-rule:nonzero;"/><path d="M806.54,658.77c-4.792,4.284 -11.023,6.612 -17.45,6.52c-1.64,0 -3.91,0.31 -3.92,1.95c0.04,0.481 0.205,0.943 0.48,1.34c2.029,3.382 5.234,5.9 9,7.07c3.5,1.06 7.24,0.88 10.89,0.69l10.65,-0.55c2,-0.11 4,-0.21 6,-0.46c2,-0.25 4.18,-0.66 6.27,-1c5.136,-0.73 10.329,-0.971 15.51,-0.72c1.38,0.05 3,0 3.82,-1c0.82,-1 0.4,-2.91 0.09,-4.41c-0.64,-3.09 0,-6.33 -0.59,-9.43c-1,-5.44 -5.71,-9.61 -10.87,-11.58c-4.8,-1.82 -13.3,-3.91 -17.84,-0.87c-4.79,3.19 -7.72,8.52 -12.04,12.45Z" style="fill:#3f3d56;fill-rule:nonzero;"/><path d="M817.12,476.51c0.94,4.47 5.27,7.89 5.39,12.45c0.11,3.66 -2.5,6.73 -4.38,9.86c-1.772,3.242 -3.267,6.627 -4.47,10.12c-3.54,9.095 -7.933,17.834 -13.12,26.1c-2.5,4 -5.3,8.27 -4.73,12.92c0.398,2.174 1.166,4.265 2.27,6.18l7.5,14.9c1.643,2.975 2.928,6.133 3.83,9.41c0.65,2.83 0.71,5.76 1.09,8.64c1.18,9.14 5.47,18.34 2.93,27.2c-0.22,0.76 -1,1.68 -1.61,1.15c2.48,4.63 4.47,9.29 4.28,14.54c-0.1,2.75 -0.94,5.62 0.07,8.18c0.43,1.07 1.18,2.07 1.17,3.22c0,0.76 -0.35,1.47 -0.43,2.21c-0.21,2.11 1.73,3.87 3.74,4.54c2.01,0.67 4.2,0.62 6.23,1.23c3.9,1.17 6.69,4.53 10,6.86c3.395,2.339 7.398,3.642 11.52,3.75c0.588,0.063 1.181,-0.056 1.7,-0.34c0.594,-0.52 0.937,-1.271 0.94,-2.06c0.367,-3.789 -1.18,-7.522 -4.12,-9.94c-0.635,-0.398 -1.161,-0.948 -1.53,-1.6c-0.187,-0.577 -0.235,-1.191 -0.14,-1.79c0.604,-8.196 0.456,-16.431 -0.44,-24.6c-0.404,-2.589 -0.535,-5.214 -0.39,-7.83c0.21,-2.18 0.87,-4.34 0.63,-6.51c-0.24,-2.17 -1.35,-4.15 -2,-6.24c-1.16,-3.72 -0.84,-7.72 -1,-11.61c-0.2,-6.76 -1.75,-13.4 -3.29,-20c-0.61,-2.59 -1.28,-5.3 -3.11,-7.22c-1.56,-1.63 -4.08,-3.19 -3.49,-5.36c0.327,-0.8 0.813,-1.525 1.43,-2.13c1.463,-1.836 2.107,-4.195 1.78,-6.52c1.351,0.345 2.771,-0.321 3.37,-1.58c12.18,-5.75 22,-17.25 26.38,-30c0.258,-0.947 0.656,-1.85 1.18,-2.68c1.13,-1.58 3.09,-2.26 4.83,-3.13c5.46,-2.75 9.23,-7.9 12.69,-12.94c2,-2.92 4,-5.94 4.9,-9.38c0.473,-2.225 0.698,-4.496 0.67,-6.77l0.31,-11.75c0.068,-0.774 -0.007,-1.553 -0.22,-2.3c-0.297,-0.698 -0.728,-1.33 -1.27,-1.86c-3.325,-3.517 -7.695,-5.873 -12.46,-6.72c-3.2,-0.57 -6.47,-0.46 -9.71,-0.73c-6.28,-0.52 -12.48,-2.47 -18.76,-2c-9.87,0.73 -18.66,7.57 -23.31,16.31c-1.63,3.08 -3.35,5.76 -6.85,5.82Z" style="fill:#464353;fill-rule:nonzero;"/><path d="M762.32,400.11c0.133,1.814 -0.112,3.636 -0.72,5.35c-0.77,1.64 -2.7,2.92 -4.39,2.25c0.51,-1.15 -0.84,-2.46 -2.1,-2.32c-1.257,0.29 -2.294,1.181 -2.77,2.38c-0.835,1.679 -1.115,3.581 -0.8,5.43c0.4,2.3 1.73,4.51 1.38,6.82c-0.28,1.92 -1.69,3.83 -0.94,5.61c0.487,0.813 1.097,1.545 1.81,2.17c2.04,2.513 1.752,6.231 -0.65,8.4l18.92,0.38c-0.69,3.16 0.73,6.39 2.35,9.2c9.191,15.65 25.215,26.111 43.24,28.23c-1.153,0.673 -1.864,1.912 -1.864,3.247c0,0.923 0.34,1.814 0.954,2.503c1.54,1.53 4.15,1.34 6.08,0.35c1.93,-0.99 3.44,-2.63 5.2,-3.9c3.106,-2.201 6.898,-3.223 10.69,-2.88c2.37,0.23 4.67,1 7.05,1.12c7,0.37 13,-4.67 19.74,-6.73c4.91,-1.51 10.48,-1.51 14.6,-4.58c1.78,-1.32 3.24,-3.49 2.72,-5.63c-0.43,-1.23 -1.111,-2.357 -2,-3.31c-2.37,-3.07 -3.77,-6.76 -5.47,-10.25c-3.368,-6.909 -8.005,-13.124 -13.67,-18.32c-4.276,-3.737 -8.807,-7.172 -13.56,-10.28c-1.149,-0.848 -2.374,-1.588 -3.66,-2.21c-1.66,-0.73 -3.5,-1.08 -5,-2c-2.22,-1.4 -3.5,-3.87 -5.21,-5.86c-3.75,-4.38 -9.51,-6.39 -14.13,-9.83c-3.1,-2.31 -5.84,-5.35 -9.54,-6.46c-1.8,-0.55 -3.71,-0.59 -5.51,-1.13c-4.09,-1.24 -7.07,-4.87 -11.08,-6.34c-3.17,-1.16 -6.67,-0.86 -10,-1.27c-3.753,-0.463 -7.339,-1.829 -10.45,-3.98c-1.002,-0.816 -2.126,-1.471 -3.33,-1.94c-5.07,-1.54 -5.48,7.9 -6,11.17c-0.67,4.86 -1.89,9.69 -1.89,14.61Z" style="fill:#fbc02d;fill-rule:nonzero;"/><path d="M767.26,431.77c0.85,9.22 -6.11,18.15 -4.08,27.18c0.43,1.92 1.26,3.75 1.56,5.7c0.85,5.35 -2.35,10.42 -5.4,14.9l-26.2,38.45c-1.052,1.688 -2.308,3.24 -3.74,4.62c-5,4.45 -12.52,4 -19.1,5.32c-4.622,0.95 -8.987,2.88 -12.8,5.66c-0.355,0.274 -0.427,0.789 -0.16,1.15c2.205,3.003 5.791,4.688 9.51,4.47c0.69,0.9 0,2.24 -0.95,2.89c-1.4,1 -3.34,1.23 -3.62,3.62c-0.095,0.83 0.073,1.67 0.48,2.4c1.059,1.611 2.701,2.751 4.58,3.18c9.07,2.78 18.87,-2.1 25.66,-8.73c6.79,-6.63 11.66,-15 18.32,-21.74c3.69,-3.74 7.88,-6.93 11.68,-10.55c7.58,-7.23 13.48,-16 19.16,-24.79c1.71,-2.65 3.44,-5.37 4.15,-8.44c0.71,-3.07 0.38,-6.18 1.19,-9.15c1.06,-3.89 3.91,-7 6.28,-10.26c4.65,-6.4 7.76,-14.23 7.14,-22.12c-0.62,-7.89 -5.5,-15.67 -12.94,-18.35c-2.307,-0.917 -4.849,-1.071 -7.25,-0.44c-3.05,0.94 -5.3,3.46 -7.38,5.88l-5,5.74c-1.217,1.271 -2.172,2.77 -2.81,4.41c-0.657,1.685 -0.265,3.607 1,4.9" style="fill:#fbbebe;fill-rule:nonzero;"/><path d="M780.54,393.95c-3.44,0.2 -7.23,0.54 -9.66,3c-1.019,1.13 -1.844,2.42 -2.44,3.82c-2.36,4.81 -4.66,9.84 -4.83,15.2c-0.14,4.28 1.1,8.47 1.75,12.7c0.54,3.52 -0.83,7.11 -1.09,10.67c4.27,-1.31 9.91,-3.09 13.78,-5.3c2.64,-1.51 5.19,-3.23 8.07,-4.19c4.11,-1.37 11,1 14.91,2.9c0.21,-2.74 -1.85,-7.52 -1.63,-10.27c0.031,-1.158 0.236,-2.304 0.61,-3.4c0.585,-1.159 1.278,-2.261 2.07,-3.29c3.045,-4.951 2.555,-11.341 -1.21,-15.77c-3.47,-3.9 -8.9,-5.36 -14.08,-6c-3.262,-0.378 -6.55,-0.492 -9.83,-0.34" style="fill:#fbc02d;fill-rule:nonzero;"/><defs><linearGradient id="_Linear1" x1="0" y1="0" x2="1" y2="0" gradientUnits="userSpaceOnUse" gradientTransform="matrix(2.99218e-14,-488.66,488.66,2.99218e-14,638.22,546.18)"><stop offset="0" style="stop-color:#808080;stop-opacity:0.247059"/><stop offset="0.54" style="stop-color:#808080;stop-opacity:0.117647"/><stop offset="1" style="stop-color:#808080;stop-opacity:0.0980392"/></linearGradient></defs></svg>