<?xml version="1.0" encoding="UTF-8" standalone="no"?><!DOCTYPE svg PUBLIC "-//W3C//DTD SVG 1.1//EN" "http://www.w3.org/Graphics/SVG/1.1/DTD/svg11.dtd"><svg width="100%" height="100%" viewBox="0 0 202 35" version="1.1" xmlns="http://www.w3.org/2000/svg" xmlns:xlink="http://www.w3.org/1999/xlink" xml:space="preserve" xmlns:serif="http://www.serif.com/" style="fill-rule:evenodd;clip-rule:evenodd;stroke-linejoin:round;stroke-miterlimit:1.41421;"><g><path d="M194.951,17.232c0,-1.581 -0.217,-3.098 -0.653,-4.55c-0.436,-1.452 -1.097,-2.734 -1.984,-3.847c-0.888,-1.113 -1.993,-1.993 -3.316,-2.638c-1.323,-0.645 -2.871,-0.968 -4.646,-0.968c-1.742,0 -3.275,0.323 -4.598,0.968c-1.323,0.645 -2.42,1.516 -3.291,2.614c-0.871,1.097 -1.533,2.371 -1.985,3.823c-0.451,1.452 -0.677,2.985 -0.677,4.598c0,1.613 0.226,3.146 0.677,4.598c0.452,1.452 1.114,2.735 1.985,3.848c0.871,1.113 1.968,2 3.291,2.662c1.323,0.661 2.856,0.992 4.598,0.992c1.775,0 3.323,-0.323 4.646,-0.968c1.323,-0.645 2.428,-1.525 3.316,-2.638c0.887,-1.113 1.548,-2.396 1.984,-3.848c0.436,-1.452 0.653,-3 0.653,-4.646Zm5.276,-0.048c0,2.258 -0.331,4.436 -0.992,6.534c-0.662,2.097 -1.662,3.944 -3.001,5.541c-1.339,1.598 -3.001,2.88 -4.985,3.848c-1.984,0.968 -4.283,1.452 -6.897,1.452c-2.614,0 -4.905,-0.484 -6.873,-1.452c-1.968,-0.968 -3.622,-2.25 -4.961,-3.848c-1.339,-1.597 -2.339,-3.444 -3.001,-5.541c-0.661,-2.098 -0.992,-4.276 -0.992,-6.534c0,-2.227 0.331,-4.381 0.992,-6.462c0.662,-2.081 1.662,-3.912 3.001,-5.493c1.339,-1.581 2.993,-2.848 4.961,-3.799c1.968,-0.952 4.259,-1.428 6.873,-1.428c2.614,0 4.913,0.476 6.897,1.428c1.984,0.951 3.646,2.218 4.985,3.799c1.339,1.581 2.339,3.412 3.001,5.493c0.661,2.081 0.992,4.235 0.992,6.462Z" style="fill:#fbc02d;fill-rule:nonzero;"/><path d="M153.183,20.62l-6.05,0l0,13.697l-5.227,0l0,-33.88l12.874,0c1.387,0 2.686,0.267 3.896,0.799c1.21,0.532 2.275,1.258 3.194,2.178c0.92,0.92 1.646,1.992 2.178,3.219c0.533,1.226 0.799,2.532 0.799,3.92c0,2.033 -0.557,3.872 -1.67,5.517c-1.113,1.646 -2.525,2.872 -4.235,3.679l7.647,14.568l-5.904,0l-7.502,-13.697Zm-6.05,-5.227l7.647,0c0.677,0 1.307,-0.121 1.887,-0.363c0.581,-0.242 1.089,-0.581 1.525,-1.017c0.436,-0.435 0.782,-0.951 1.041,-1.548c0.258,-0.597 0.387,-1.235 0.387,-1.912c0,-1.355 -0.468,-2.501 -1.404,-3.436c-0.936,-0.936 -2.081,-1.42 -3.436,-1.452l-7.647,0l0,9.728Z" style="fill:#fbc02d;fill-rule:nonzero;"/><path d="M121.239,20.62l0,13.697l-5.179,0l0,-33.88l12.826,0c1.387,0 2.694,0.267 3.92,0.799c1.227,0.532 2.299,1.258 3.219,2.178c0.92,0.92 1.646,1.992 2.178,3.219c0.532,1.226 0.799,2.532 0.799,3.92c0,1.387 -0.267,2.694 -0.799,3.92c-0.532,1.226 -1.258,2.291 -2.178,3.195c-0.92,0.903 -1.992,1.621 -3.219,2.153c-1.226,0.533 -2.533,0.799 -3.92,0.799l-7.647,0Zm0,-5.227l7.647,0c0.678,0 1.307,-0.121 1.888,-0.363c0.58,-0.242 1.097,-0.581 1.548,-1.017c0.452,-0.435 0.807,-0.951 1.065,-1.548c0.258,-0.597 0.387,-1.235 0.387,-1.912c0,-0.678 -0.129,-1.307 -0.387,-1.888c-0.258,-0.58 -0.613,-1.089 -1.065,-1.524c-0.451,-0.436 -0.968,-0.791 -1.548,-1.065c-0.581,-0.274 -1.21,-0.411 -1.888,-0.411l-7.647,0l0,9.728Z" style="fill:#fbc02d;fill-rule:nonzero;"/></g><g><path d="M90.699,34.317l0,-33.831l3.388,0l0,33.831l-3.388,0Zm3.388,-12.487l11.616,-11.713l4.549,0l-11.906,11.616l11.858,12.584l-4.695,0l-11.422,-12.487Z" style="fill-rule:nonzero;"/><path d="M85.423,23.814c-1,-0.451 -2.049,-0.718 -3.146,-0.798c-1.097,-0.081 -2.21,-0.121 -3.339,-0.121c-0.807,0 -1.598,0.072 -2.372,0.218c-0.774,0.145 -1.476,0.395 -2.105,0.75c-0.63,0.355 -1.138,0.839 -1.525,1.452c-0.387,0.613 -0.581,1.387 -0.581,2.323c0,1.355 0.508,2.372 1.525,3.049c1.016,0.678 2.428,1.017 4.235,1.017c1.484,0 2.863,-0.267 4.138,-0.799c1.275,-0.532 2.331,-1.476 3.17,-2.831l0,-4.26Zm0,10.503l0,-2.565c-0.484,0.645 -1.024,1.153 -1.621,1.525c-0.597,0.371 -1.226,0.653 -1.888,0.847c-0.661,0.193 -1.371,0.314 -2.129,0.363c-0.759,0.048 -1.557,0.072 -2.396,0.072c-1.194,0 -2.299,-0.145 -3.316,-0.435c-1.016,-0.291 -1.903,-0.726 -2.661,-1.307c-0.759,-0.581 -1.348,-1.299 -1.767,-2.154c-0.42,-0.855 -0.629,-1.847 -0.629,-2.977c0,-1.355 0.25,-2.533 0.75,-3.533c0.5,-1 1.178,-1.831 2.033,-2.492c0.855,-0.662 1.847,-1.154 2.976,-1.477c1.13,-0.322 2.323,-0.484 3.582,-0.484c1.291,0 2.533,0.049 3.727,0.146c1.193,0.096 2.307,0.338 3.339,0.726l0,-1.985c0,-1.839 -0.573,-3.251 -1.718,-4.235c-1.145,-0.984 -2.735,-1.476 -4.767,-1.476c-1.291,0 -2.38,0.153 -3.267,0.46c-0.888,0.306 -1.767,1.008 -2.638,2.105l-2.372,-2.033c1.033,-1.226 2.211,-2.121 3.533,-2.686c1.323,-0.564 2.953,-0.847 4.889,-0.847c1.42,0 2.726,0.178 3.92,0.533c1.194,0.355 2.219,0.887 3.074,1.597c0.855,0.71 1.516,1.581 1.984,2.613c0.468,1.033 0.702,2.227 0.702,3.582l0,16.117l-3.34,0Z" style="fill-rule:nonzero;"/><rect x="63.692" y="0.437" width="3.388" height="33.88" style="fill-rule:nonzero;"/><path d="M58.416,34.317l0,-15.488c0,-2.033 -0.605,-3.549 -1.815,-4.549c-1.21,-1.001 -2.702,-1.517 -4.477,-1.549c-1.032,0 -1.936,0.185 -2.71,0.556c-0.775,0.372 -1.444,0.839 -2.009,1.404c-0.564,0.565 -1.048,1.17 -1.452,1.815c-0.403,0.645 -0.766,1.242 -1.089,1.791l0,16.02l-3.339,0l0,-15.488c0,-2.033 -0.605,-3.557 -1.815,-4.574c-1.21,-1.016 -2.703,-1.524 -4.477,-1.524c-0.936,0 -1.783,0.185 -2.541,0.556c-0.758,0.372 -1.436,0.839 -2.033,1.404c-0.597,0.565 -1.113,1.17 -1.549,1.815c-0.435,0.645 -0.814,1.242 -1.137,1.791l0,16.02l-3.388,0l0,-24.248l3.388,0l0,3.291c0.774,-1.032 1.823,-1.912 3.146,-2.638c1.323,-0.726 2.936,-1.089 4.84,-1.089c1.807,0 3.42,0.379 4.84,1.138c1.419,0.758 2.484,1.895 3.194,3.412c0.42,-0.484 0.904,-0.992 1.452,-1.525c0.549,-0.532 1.186,-1.024 1.912,-1.476c0.726,-0.452 1.541,-0.823 2.444,-1.113c0.904,-0.29 1.92,-0.436 3.049,-0.436c1.226,0 2.38,0.178 3.461,0.533c1.081,0.355 2.025,0.895 2.831,1.621c0.807,0.726 1.444,1.621 1.912,2.686c0.468,1.065 0.702,2.291 0.702,3.679l0,16.165l-3.34,0Z" style="fill-rule:nonzero;"/><path d="M20.907,30.784c-1.13,1.226 -2.437,2.154 -3.921,2.783c-1.484,0.629 -3.275,0.944 -5.372,0.944c-1.936,0 -3.63,-0.331 -5.082,-0.992c-1.452,-0.662 -2.662,-1.557 -3.63,-2.687c-0.968,-1.129 -1.694,-2.42 -2.178,-3.872c-0.484,-1.452 -0.726,-2.984 -0.726,-4.598c0,-2.129 0.29,-3.976 0.871,-5.541c0.581,-1.565 1.371,-2.864 2.372,-3.897c1,-1.032 2.162,-1.798 3.484,-2.298c1.323,-0.501 2.727,-0.751 4.211,-0.751c3.55,0 6.228,1.089 8.035,3.267c1.806,2.178 2.678,5.348 2.613,9.511l-18.15,0c0.097,2.742 0.888,4.92 2.372,6.534c1.484,1.613 3.501,2.42 6.05,2.42c1.42,0 2.71,-0.234 3.872,-0.702c1.161,-0.468 2.21,-1.218 3.146,-2.251l2.033,2.13Zm-2.711,-10.987c0,-1 -0.153,-1.936 -0.46,-2.807c-0.306,-0.871 -0.742,-1.613 -1.306,-2.226c-0.565,-0.613 -1.299,-1.105 -2.203,-1.477c-0.903,-0.371 -1.952,-0.556 -3.146,-0.556c-1.226,0 -2.282,0.185 -3.17,0.556c-0.887,0.372 -1.589,0.847 -2.105,1.428c-0.516,0.581 -0.992,1.315 -1.428,2.202c-0.436,0.888 -0.718,1.848 -0.847,2.88l14.665,0Z" style="fill-rule:nonzero;"/></g></svg>