<?xml version="1.0" encoding="UTF-8" standalone="no"?><!DOCTYPE svg PUBLIC "-//W3C//DTD SVG 1.1//EN" "http://www.w3.org/Graphics/SVG/1.1/DTD/svg11.dtd"><svg width="100%" height="100%" viewBox="0 0 203 35" version="1.1" xmlns="http://www.w3.org/2000/svg" xmlns:xlink="http://www.w3.org/1999/xlink" xml:space="preserve" xmlns:serif="http://www.serif.com/" style="fill-rule:evenodd;clip-rule:evenodd;stroke-linejoin:round;stroke-miterlimit:1.41421;"><g id="logo-text"><g><path d="M91.197,34.206l0,-33.831l3.388,0l0,33.831l-3.388,0Zm3.388,-12.487l11.616,-11.712l4.549,0l-11.906,11.615l11.858,12.584l-4.695,0l-11.422,-12.487Z" style="fill:#fff;fill-rule:nonzero;"/><path d="M85.921,23.704c-1,-0.452 -2.049,-0.718 -3.146,-0.799c-1.097,-0.081 -2.21,-0.121 -3.339,-0.121c-0.807,0 -1.598,0.073 -2.372,0.218c-0.774,0.145 -1.476,0.395 -2.105,0.75c-0.63,0.355 -1.138,0.839 -1.525,1.452c-0.387,0.613 -0.581,1.387 -0.581,2.323c0,1.355 0.508,2.372 1.525,3.049c1.016,0.678 2.428,1.017 4.235,1.017c1.484,0 2.863,-0.266 4.138,-0.799c1.275,-0.532 2.331,-1.476 3.17,-2.831l0,-4.259Zm0,10.502l0,-2.565c-0.484,0.645 -1.024,1.154 -1.621,1.525c-0.597,0.371 -1.226,0.653 -1.888,0.847c-0.661,0.193 -1.371,0.314 -2.129,0.363c-0.759,0.048 -1.557,0.072 -2.396,0.072c-1.194,0 -2.299,-0.145 -3.316,-0.435c-1.016,-0.291 -1.903,-0.726 -2.661,-1.307c-0.759,-0.581 -1.348,-1.299 -1.767,-2.154c-0.42,-0.855 -0.629,-1.847 -0.629,-2.976c0,-1.356 0.25,-2.533 0.75,-3.534c0.5,-1 1.178,-1.831 2.033,-2.492c0.855,-0.662 1.847,-1.154 2.976,-1.476c1.13,-0.323 2.323,-0.484 3.582,-0.484c1.291,0 2.533,0.048 3.727,0.145c1.193,0.097 2.307,0.339 3.339,0.726l0,-1.985c0,-1.839 -0.573,-3.25 -1.718,-4.235c-1.145,-0.984 -2.735,-1.476 -4.767,-1.476c-1.291,0 -2.38,0.154 -3.267,0.46c-0.888,0.307 -1.767,1.008 -2.638,2.105l-2.372,-2.032c1.033,-1.226 2.211,-2.122 3.533,-2.686c1.323,-0.565 2.953,-0.847 4.889,-0.847c1.42,0 2.726,0.177 3.92,0.532c1.194,0.355 2.219,0.887 3.074,1.597c0.855,0.71 1.516,1.581 1.984,2.614c0.468,1.032 0.702,2.226 0.702,3.581l0,16.117l-3.34,0Z" style="fill:#fff;fill-rule:nonzero;"/><rect x="64.19" y="0.327" width="3.388" height="33.88" style="fill:#fff;fill-rule:nonzero;"/><path d="M58.914,34.206l0,-15.488c0,-2.032 -0.605,-3.549 -1.815,-4.549c-1.21,-1 -2.702,-1.517 -4.477,-1.549c-1.032,0 -1.936,0.186 -2.71,0.557c-0.775,0.371 -1.444,0.839 -2.009,1.403c-0.564,0.565 -1.048,1.17 -1.452,1.815c-0.403,0.646 -0.766,1.243 -1.089,1.791l0,16.02l-3.339,0l0,-15.488c0,-2.032 -0.605,-3.557 -1.815,-4.573c-1.21,-1.017 -2.703,-1.525 -4.477,-1.525c-0.936,0 -1.783,0.186 -2.541,0.557c-0.758,0.371 -1.436,0.839 -2.033,1.403c-0.597,0.565 -1.113,1.17 -1.549,1.815c-0.435,0.646 -0.814,1.243 -1.137,1.791l0,16.02l-3.388,0l0,-24.248l3.388,0l0,3.291c0.774,-1.032 1.823,-1.912 3.146,-2.637c1.323,-0.726 2.936,-1.089 4.84,-1.089c1.807,0 3.42,0.379 4.84,1.137c1.419,0.758 2.484,1.896 3.194,3.412c0.42,-0.484 0.904,-0.992 1.452,-1.525c0.549,-0.532 1.186,-1.024 1.912,-1.476c0.726,-0.451 1.541,-0.822 2.444,-1.113c0.904,-0.29 1.92,-0.435 3.049,-0.435c1.226,0 2.38,0.177 3.461,0.532c1.081,0.355 2.025,0.895 2.831,1.621c0.807,0.726 1.444,1.622 1.912,2.686c0.468,1.065 0.702,2.291 0.702,3.679l0,16.165l-3.34,0Z" style="fill:#fff;fill-rule:nonzero;"/><path d="M21.405,30.673c-1.13,1.226 -2.437,2.154 -3.921,2.783c-1.484,0.629 -3.275,0.944 -5.372,0.944c-1.936,0 -3.63,-0.331 -5.082,-0.992c-1.452,-0.662 -2.662,-1.557 -3.63,-2.686c-0.968,-1.13 -1.694,-2.42 -2.178,-3.872c-0.484,-1.452 -0.726,-2.985 -0.726,-4.598c0,-2.13 0.29,-3.977 0.871,-5.542c0.581,-1.565 1.371,-2.864 2.372,-3.896c1,-1.033 2.162,-1.799 3.484,-2.299c1.323,-0.5 2.727,-0.75 4.211,-0.75c3.55,0 6.228,1.089 8.035,3.266c1.806,2.178 2.678,5.349 2.613,9.511l-18.15,0c0.097,2.743 0.888,4.921 2.372,6.534c1.484,1.613 3.501,2.42 6.05,2.42c1.42,0 2.71,-0.234 3.872,-0.702c1.161,-0.468 2.21,-1.218 3.146,-2.25l2.033,2.129Zm-2.711,-10.987c0,-1 -0.153,-1.936 -0.46,-2.807c-0.306,-0.871 -0.742,-1.613 -1.306,-2.226c-0.565,-0.613 -1.299,-1.105 -2.203,-1.476c-0.903,-0.371 -1.952,-0.557 -3.146,-0.557c-1.226,0 -2.282,0.186 -3.17,0.557c-0.887,0.371 -1.589,0.847 -2.105,1.427c-0.516,0.581 -0.992,1.315 -1.428,2.203c-0.436,0.887 -0.718,1.847 -0.847,2.879l14.665,0Z" style="fill:#fff;fill-rule:nonzero;"/></g><g><path d="M195.449,17.121c0,-1.581 -0.217,-3.097 -0.653,-4.549c-0.436,-1.452 -1.097,-2.735 -1.984,-3.848c-0.888,-1.113 -1.993,-1.993 -3.316,-2.638c-1.323,-0.645 -2.871,-0.968 -4.646,-0.968c-1.742,0 -3.275,0.323 -4.598,0.968c-1.323,0.645 -2.42,1.517 -3.291,2.614c-0.871,1.097 -1.533,2.371 -1.985,3.823c-0.451,1.452 -0.677,2.985 -0.677,4.598c0,1.614 0.226,3.146 0.677,4.598c0.452,1.452 1.114,2.735 1.985,3.848c0.871,1.113 1.968,2 3.291,2.662c1.323,0.661 2.856,0.992 4.598,0.992c1.775,0 3.323,-0.323 4.646,-0.968c1.323,-0.645 2.428,-1.524 3.316,-2.638c0.887,-1.113 1.548,-2.395 1.984,-3.847c0.436,-1.452 0.653,-3.001 0.653,-4.647Zm5.276,-0.048c0,2.258 -0.331,4.436 -0.992,6.534c-0.662,2.097 -1.662,3.944 -3.001,5.542c-1.339,1.597 -3.001,2.879 -4.985,3.847c-1.984,0.968 -4.283,1.452 -6.897,1.452c-2.614,0 -4.905,-0.484 -6.873,-1.452c-1.968,-0.968 -3.622,-2.25 -4.961,-3.847c-1.339,-1.598 -2.339,-3.445 -3.001,-5.542c-0.661,-2.098 -0.992,-4.276 -0.992,-6.534c0,-2.227 0.331,-4.38 0.992,-6.461c0.662,-2.082 1.662,-3.913 3.001,-5.494c1.339,-1.581 2.993,-2.847 4.961,-3.799c1.968,-0.952 4.259,-1.428 6.873,-1.428c2.614,0 4.913,0.476 6.897,1.428c1.984,0.952 3.646,2.218 4.985,3.799c1.339,1.581 2.339,3.412 3.001,5.494c0.661,2.081 0.992,4.234 0.992,6.461Z" style="fill:#fbc02d;fill-rule:nonzero;"/><path d="M153.681,20.509l-6.05,0l0,13.697l-5.227,0l0,-33.879l12.874,0c1.387,0 2.686,0.266 3.896,0.798c1.21,0.533 2.275,1.259 3.194,2.178c0.92,0.92 1.646,1.993 2.178,3.219c0.533,1.226 0.799,2.533 0.799,3.92c0,2.033 -0.557,3.872 -1.67,5.518c-1.113,1.645 -2.525,2.871 -4.235,3.678l7.647,14.568l-5.904,0l-7.502,-13.697Zm-6.05,-5.227l7.647,0c0.677,0 1.307,-0.121 1.887,-0.363c0.581,-0.242 1.089,-0.581 1.525,-1.016c0.436,-0.436 0.782,-0.952 1.041,-1.549c0.258,-0.597 0.387,-1.234 0.387,-1.912c0,-1.355 -0.468,-2.501 -1.404,-3.436c-0.936,-0.936 -2.081,-1.42 -3.436,-1.452l-7.647,0l0,9.728Z" style="fill:#fbc02d;fill-rule:nonzero;"/><path d="M121.737,20.509l0,13.697l-5.179,0l0,-33.879l12.826,0c1.387,0 2.694,0.266 3.92,0.798c1.227,0.533 2.299,1.259 3.219,2.178c0.92,0.92 1.646,1.993 2.178,3.219c0.532,1.226 0.799,2.533 0.799,3.92c0,1.388 -0.267,2.694 -0.799,3.92c-0.532,1.227 -1.258,2.291 -2.178,3.195c-0.92,0.903 -1.992,1.621 -3.219,2.154c-1.226,0.532 -2.533,0.798 -3.92,0.798l-7.647,0Zm0,-5.227l7.647,0c0.678,0 1.307,-0.121 1.888,-0.363c0.58,-0.242 1.097,-0.581 1.548,-1.016c0.452,-0.436 0.807,-0.952 1.065,-1.549c0.258,-0.597 0.387,-1.234 0.387,-1.912c0,-0.677 -0.129,-1.307 -0.387,-1.887c-0.258,-0.581 -0.613,-1.089 -1.065,-1.525c-0.451,-0.436 -0.968,-0.791 -1.548,-1.065c-0.581,-0.274 -1.21,-0.411 -1.888,-0.411l-7.647,0l0,9.728Z" style="fill:#fbc02d;fill-rule:nonzero;"/></g></g></svg>