<?xml version="1.0" standalone="no"?>
<!DOCTYPE svg PUBLIC "-//W3C//DTD SVG 20010904//EN"
 "http://www.w3.org/TR/2001/REC-SVG-20010904/DTD/svg10.dtd">
<svg version="1.0" xmlns="http://www.w3.org/2000/svg"
 width="500.000000pt" height="500.000000pt" viewBox="0 0 500.000000 500.000000"
 preserveAspectRatio="xMidYMid meet">
<metadata>
Created by potrace 1.11, written by Peter Selinger 2001-2013
</metadata>
<g transform="translate(0.000000,500.000000) scale(0.100000,-0.100000)"
fill="#000000" stroke="none">
<path d="M2589 4278 c-1 -7 -2 -808 -3 -1780 -1 -1565 1 -1768 14 -1769 75 -4
514 -3 521 2 5 3 10 312 11 720 l3 714 450 2 c447 2 463 3 624 37 195 42 445
212 580 395 212 287 267 679 140 1001 -110 279 -340 512 -599 610 -30 11 -64
25 -75 30 -11 6 -65 19 -120 29 -92 18 -156 20 -822 20 -579 1 -723 -1 -724
-11z m1437 -549 c188 -34 367 -205 408 -390 28 -126 16 -219 -41 -337 -74
-150 -224 -259 -388 -278 -54 -7 -842 -12 -862 -6 -10 3 -13 115 -13 513 l0
509 418 0 c257 0 441 -4 478 -11z"/>
<path d="M971 3283 c-240 -31 -478 -147 -627 -305 -93 -98 -196 -257 -224
-344 -7 -22 -16 -43 -20 -49 -16 -21 -63 -199 -76 -283 -3 -20 -8 -48 -10 -62
-10 -45 -12 -386 -3 -441 5 -30 11 -72 14 -94 3 -22 15 -74 26 -115 93 -354
313 -625 624 -771 94 -44 226 -84 310 -94 32 -3 63 -9 67 -11 10 -6 346 -7
356 -1 4 3 34 8 67 11 243 28 490 146 669 321 l55 53 -107 111 -107 111 -47
-44 c-115 -109 -230 -176 -373 -218 -113 -34 -161 -41 -304 -43 -271 -4 -472
71 -634 238 -98 101 -167 220 -211 362 -40 131 -66 330 -43 337 7 2 437 3 956
3 l944 -1 -6 145 c-4 80 -9 155 -11 167 -2 12 -7 45 -11 75 -3 30 -11 72 -17
94 -5 22 -12 51 -14 65 -8 44 -46 153 -80 228 -124 273 -365 471 -649 532 -22
4 -49 10 -60 13 -99 23 -315 28 -454 10z m344 -296 c240 -39 416 -160 512
-352 53 -104 89 -262 84 -360 -1 -21 -2 -21 -770 -21 l-768 0 4 35 c14 113 81
279 160 398 117 177 274 273 488 299 28 4 51 7 53 9 4 3 206 -3 237 -8z"/>
</g>
</svg>
